<?xml version="1.0" encoding="utf-8"?>
<!-- Generator: Adobe Illustrator 22.0.1, SVG Export Plug-In . SVG Version: 6.00 Build 0)  -->
<svg version="1.1" id="Capa_1" xmlns="http://www.w3.org/2000/svg" xmlns:xlink="http://www.w3.org/1999/xlink" x="0px" y="0px"
	 viewBox="0 0 1264.8 735.2" style="enable-background:new 0 0 1264.8 735.2;" xml:space="preserve">
<style type="text/css">
	.st0{fill:#F4F4F4;stroke:#00AFBE;stroke-width:3;stroke-linecap:round;stroke-linejoin:round;}
</style>
<polygon class="st0" points="1209.6,466.6 1198.9,487.3 1201.3,516.7 1171.9,547.9 1165.3,558.9 1165.2,567.4 1173,586.7 
	1170.2,602.9 1158.8,618.1 1154.9,629.8 1140.6,636.6 1132.5,654.1 1131.8,669.3 1144.8,693.5 1143.1,703.7 1137.3,706.4 
	1126.9,693.5 1120,692.5 1105.9,698.9 1095.3,698.1 1078,704.6 1056.9,705.7 1043.8,700.3 1034.3,705.8 991.6,706.2 984.6,685 
	976.8,681.9 966.4,671.3 970.3,643.6 940.7,643.8 921,636.2 897.6,619.3 864.2,616.7 857.1,612.1 862.8,606 883,598.3 890.7,583.9 
	933.1,592.5 953.4,583.9 953.4,592.5 974.6,586.8 1025.6,566.5 1044.9,547.3 1044.9,511.6 1037.2,503.9 1037.2,496.2 1051.6,503.9 
	1066.1,488.5 1115.2,424.9 1115.2,412.4 1127.7,402.8 1138.3,391.2 1156.6,391.2 1164.3,418.2 1171.1,418.2 1181.7,388.3 
	1181.7,366.1 1192.3,350.7 1196.8,349.9 1205.7,367.7 1208.9,382.7 1204.3,399.7 1208.4,415 1218.5,418.2 1207.3,442.8 "/>
<polygon class="st0" points="1167.4,290.5 1196.8,349.9 1192.3,350.7 1181.7,366.1 1181.7,388.3 1171.1,418.2 1164.3,418.2 
	1156.6,391.2 1138.3,391.2 1127.7,402.8 1115.2,412.4 1115.2,424.9 1066.1,488.5 1051.6,503.9 1037.2,496.2 1037.2,503.9 
	1044.9,511.6 1044.9,547.3 1025.6,566.5 974.6,586.8 953.4,592.5 953.4,583.9 933.1,592.5 890.7,583.9 883,598.3 862.8,606 
	857.1,612.1 845.4,604.6 842.8,591.6 825.2,585.2 825.2,552.1 799.2,524.1 799.2,493.3 785.7,491.4 773.2,494.3 766.5,494.3 
	758.7,488.9 781.9,478.9 788.6,467.3 812.7,449 838.7,469.2 849.3,497.2 864.7,481.8 870.5,473.1 870.5,459.6 878.2,438.4 
	883,411.4 883,384.4 875.3,370 871.5,328.6 872.4,323.8 869.5,318 859.9,318 849.3,323.8 838.7,330.5 838.7,350.7 820.4,357.5 
	809.8,371.9 803.1,378.7 803.1,395 785.7,400.8 770.3,413.3 758.8,422 733.7,429.7 727,440.3 714.4,445.1 686.5,435.5 672,419.1 
	657.6,413.3 657.6,407.6 646,397.9 629.7,380.6 596.9,364.7 594,363.3 574.7,339.2 566.1,326.6 566.1,285.2 520.8,256.3 
	450.5,256.3 297.3,344.9 297.3,369 288.6,375.8 288.6,391.2 282.8,397.9 273.2,409.5 273.2,416 250.1,416.2 227,416.2 210.6,438.4 
	203.8,407.6 183.6,407.6 176.9,399.9 166.3,399.9 143.1,386.4 143.1,363.3 110.4,363.3 87.3,349.8 87.3,303.1 96.8,293.9 
	131.3,229.3 146.7,237.7 150.7,247.5 149.1,254.9 155.9,256.3 175,272.2 177.9,272 177.5,265.4 171.1,253.1 164.3,247.5 
	174.8,235.1 194.9,226 202.1,226.8 202.9,233.7 209.2,233.1 206.4,239.6 210.6,242.2 219.1,239.1 238.2,241.1 250.7,248.6 
	284.4,247.2 298.3,238.8 316.5,234 323.6,239.4 343.2,223.8 358.2,217.8 365.2,200.6 389,197.8 391.2,200.5 385.2,214.7 400.6,206 
	423.5,202.6 442.3,178.7 450.6,176.5 461,164.5 462.3,175.8 467.1,178.9 495.3,163.8 500.9,164.1 505.2,168.8 510.7,168.1 
	524.1,157.6 565.8,135.6 573.1,128.9 581.2,113.8 604.7,104.1 614.4,92.4 638.8,87.7 668.4,86.8 677.8,83.8 677.8,149.4 
	685.5,170.6 681.7,181.2 665.3,181.2 653.7,208.1 653.7,214.9 661.5,241.9 661.5,264 685.5,264 699,245.7 714.4,249.6 726,249.6 
	752,250.5 764.5,249.6 777.1,247.6 810.8,264 825.2,256.3 842.6,292 862.8,292 877.3,282.3 894.6,303.5 911,303.5 926.4,292.9 
	956.3,291 968.8,287.1 983.2,270.8 1017.9,268.8 1033.3,256.3 1044.9,250.5 1044.9,214.9 1039.1,189.8 1034.3,177.3 1034.3,121.8 
	1042.8,126.1 1107.5,115.6 1131.7,118.7 1139.1,120.5 1178,142.7 1201.1,166.8 1201.7,179.7 1178.1,219.2 1168.2,257.4 
	1175.4,274.1 "/>
<polygon class="st0" points="825.2,552.1 825.2,585.2 822,584 816.2,585.4 799.4,600.5 763.6,600.5 749.2,590.2 711.9,601.8 
	696,596.7 683.8,602.8 677.1,598.8 665.8,576.2 661.4,583.9 656.9,585.2 639.4,578.1 629.2,579.2 612.3,573.3 602.2,577.4 
	595,589.3 585.3,586.7 585.3,584.8 571.9,578.1 571.9,573.3 578.6,559.8 578.6,544.4 592.1,523.2 592.1,390.2 596.9,380.6 
	596.9,364.7 629.7,380.6 646,397.9 657.6,407.6 657.6,413.3 672,419.1 686.5,435.5 714.4,445.1 727,440.3 733.7,429.7 745.3,445.1 
	745.3,465.4 753.9,485.6 758.7,488.9 766.5,494.3 773.2,494.3 785.7,491.4 799.2,493.3 799.2,524.1 "/>
<polygon class="st0" points="596.9,364.7 596.9,380.6 592.1,390.2 592.1,523.2 578.6,544.4 578.6,559.8 571.9,573.3 571.9,578.1 
	585.3,584.8 585.3,586.7 578.8,584.9 560.9,589.7 504.3,622.6 479.9,623.9 450.7,618.3 437.3,619.7 420.6,613.6 379.1,617.9 
	368.8,625 346,653.3 340.3,654.5 333.9,654.5 325.5,649.2 315.3,631.4 268.5,592.3 249.4,585.5 231.3,588.9 222.5,587 216.8,555.5 
	206.8,545.5 194.7,539.8 189.8,532.7 190.5,525.1 199,525.1 206.7,508.7 248.2,466.3 264.5,460.6 273.2,453.8 273.2,409.5 
	282.8,397.9 288.6,391.2 288.6,375.8 297.3,369 297.3,344.9 450.5,256.3 520.8,256.3 566.1,285.2 566.1,326.6 574.7,339.2 
	594,363.3 "/>
<path class="st0" d="M87.3,373.8l-6.7,7.7c0,0,0,38.9-4.1,43.8l-9.3-7.2l-17.2-21.1l-3.5,0.1l0.2-34.1l5.7-26.1l27.1-26.3l-5.6,25.5
	v20.2L87.3,373.8z"/>
<path class="st0" d="M273.2,416v37.8l-8.7,6.7l-16.4,5.8l-41.4,42.4l-7.7,16.4h-8.5l0.6-6.3l-7.9-29l-23.7-17.9l-13.9-15.3l-6.2-1.8
	l-14.9,3.8l-19.3-10.9l-28.8-22.3c4.1-5,4.1-43.8,4.1-43.8l6.7-7.7l-13.5-17.3v-20.2l5.6-25.5l7.9-7.6v46.7l23.1,13.5h32.8v23.1
	l23.1,13.5h10.6l6.7,7.7h20.2l6.8,30.8l16.4-22.2h23.1L273.2,416z"/>
<polygon class="st0" points="1044.9,214.9 1044.9,250.5 1033.3,256.3 1017.9,268.8 983.2,270.8 968.8,287.1 956.3,291 926.4,292.9 
	911,303.5 894.6,303.5 877.3,282.3 862.8,292 842.6,292 825.2,256.3 810.8,264 777.1,247.6 764.5,249.6 752,250.5 726,249.6 
	714.4,249.6 699,245.7 685.5,264 661.5,264 661.5,241.9 653.7,214.9 653.7,208.1 665.3,181.2 681.7,181.2 685.5,170.6 677.8,149.4 
	677.8,83.8 765.7,55.6 768.8,45.7 784.3,55.1 791.6,53.4 814.3,37.3 834.3,45 843.1,36.7 866.5,39.9 874.7,29.4 893,28.8 
	942.5,66.5 954.7,67 971.7,56.4 986,58.9 1011.3,85.7 1032.3,120.9 1034.3,121.8 1034.3,177.3 1039.1,189.8 "/>
<polygon class="st0" points="883,384.4 883,411.4 878.2,438.4 870.5,459.6 870.5,473.1 864.7,481.8 849.3,497.2 838.7,469.2 
	812.7,449 788.6,467.3 781.9,478.9 758.7,488.9 753.9,485.6 745.3,465.4 745.3,445.1 733.7,429.7 758.8,422 770.3,413.3 
	785.7,400.8 803.1,395 803.1,378.7 809.8,371.9 820.4,357.5 838.7,350.7 838.7,330.5 849.3,323.8 859.9,318 869.5,318 872.4,323.8 
	871.5,328.6 875.3,370 "/>
<line class="st0" x1="596.9" y1="364.7" x2="596.9" y2="363.3"/>
</svg>
