<?xml version="1.0" encoding="utf-8"?>
<!-- Generator: Adobe Illustrator 22.0.1, SVG Export Plug-In . SVG Version: 6.00 Build 0)  -->
<svg version="1.1" id="Capa_1" xmlns="http://www.w3.org/2000/svg" xmlns:xlink="http://www.w3.org/1999/xlink" x="0px" y="0px"
	 viewBox="0 0 1911.6 1370.4" style="enable-background:new 0 0 1911.6 1370.4;" xml:space="preserve">
<style type="text/css">
	.st0{fill:#F4F4F4;stroke:#00AFBE;stroke-width:3;stroke-linecap:round;stroke-linejoin:round;}
</style>
<line class="st0" x1="1226.4" y1="1515.5" x2="1225.4" y2="1514.8"/>
<polygon class="st0" points="1835.1,1048.5 1832,1058.4 1734.6,1089.6 1705.1,1090.5 1680.7,1095.2 1671.4,1106.4 1671.4,1041.5 
	1654.4,1025.5 1645.4,1003.5 1677.4,1003.5 1683.4,996.5 1696.4,969.5 1718.4,969.5 1718.4,983.5 1733.4,996.5 1742.4,1025.5 
	1756.4,1025.5 1773.3,995.6 1817.3,1038.1 "/>
<polygon class="st0" points="1253.9,761.1 1224.4,773.5 1200.4,781.5 1187.4,792.5 1161.4,792.5 1161.4,708.5 1143.4,692.5 
	1131.4,692.5 1131.4,668.5 1137.4,638.5 1152.4,633.5 1165.8,626.8 1200.4,652.5 1188.4,660.5 1200.4,685.5 1210.4,692.5 
	1210.4,728.5 1220.4,734.5 1220.4,748.5 1241.4,758.5 "/>
<path class="st0" d="M1379.4,841.5v7l-22,19l-7,12l-6,9h-14l-17-11v-10l-11-15l-15-25l-12-15c0,0,0-9,0-14s-6-27-6-27v-13h-9.2
	l-6.3,2.6l-12.5-2.6l-21-10v-14l-10-6v-36l-10-7l-12-25l12-8l-34.6-25.7l0.6-0.3l7-16l24.2-22.4l56.2,0.9l13.7-1l-17.1,45.5l-11,10
	l29,57l8,8h17l18-8c0,0,2-1,7-1s16,0,16,0l-10,23l5,7l6,5v48l11,10l25,16v15L1379.4,841.5z"/>
<path class="st0" d="M1255.3,1194.4l-1.9,2.1h-14l-11,15l-13.9,32.7l-1.5-3.7l-15.4-8.4l-26.4-7.3l-2.2,12.1l4.4,11.6l-10-3.6
	l-3,8.8l-7.8,6.8l-3.9-4.4l-10.5-2.3l6.6-13.2l-8.4,1.5l-2.6-3.5l8.9-3.5l-1-2.7l-11.8,1.9l-8.7,12.2l-6.8-1.3l-8.7,3.4l-0.7,6.3
	l27.7,4.1l8.1,4.1l-2,11.5l10.9,29.6l-3.7,2.3l-16.8-25.4h-10.4l-7.5,22.2l-13.3,10.9l7.3-25.4l-6.7-14l-4.3-1.7l-14.7,22.5
	l5.6-30.2l-9.2-7.5v0l16.5-45.5c0,0-2-14,6-14h11.9c9.1,0,19.1,0,19.1,0l12-30l13-26l7-13l17,19l10,15l35,5v10L1255.3,1194.4z"/>
<path class="st0" d="M1324.4,1148.5l-42,17l-15,16l-12.1,12.9l-31.9-15.9v-10l-35-5l-10-15l-17-19h5l14-21c0,0,4-24,8-36
	c3.2-9.6,1.3-7.7,0.4-6.5l22.6-32.5l28,13l34.1,0.1c0.8,2,2,4.6,3.9,7.9c11,19,16,36,16,36v18c0,0-1,4,0,7s22,20,22,20
	L1324.4,1148.5z"/>
<path class="st0" d="M1574.5,1108.6l-24.1,16.9h-75l-24-9l-20,10l-31.6,8.5l-6.4-18.5l-13-40l-28-4v-25h68v-25.4l19,18.4
	c0,0-9,14,0,14s24,0,24,0l14-16v-16h13l9-11h26v-8l14.3-5.9l-1.3,5.9l3.8,4.8l10.2,13.2v33l22,54L1574.5,1108.6z"/>
<path class="st0" d="M1547.4,961.5l-7.7,36.1l-14.3,5.9v8h-26l-9,11h-13v16l-14,16c0,0-15,0-24,0s0-14,0-14l-19-18.4v-18.6l10-5v-50
	c0,0-6-24,0-33s11-29,11-29l17-7l5.3-6.4l26.7,27.4l23,24h13v17L1547.4,961.5z"/>
<polygon class="st0" points="1773.3,995.6 1756.4,1025.5 1742.4,1025.5 1733.4,996.5 1718.4,983.5 1718.4,969.5 1696.4,969.5 
	1683.4,996.5 1677.4,1003.5 1645.4,1003.5 1645.7,1004.2 1639.4,1003.5 1639.4,990.5 1626.4,978.5 1606.4,968.9 1607.4,968.5 
	1623.4,961.5 1645.4,941.5 1645.4,924.5 1638.4,912.5 1623.4,912.5 1614.2,880.2 1649.6,872.3 1664.2,871.8 1678.5,877.2 
	1711.9,909.8 1749.4,969.9 1763.6,986.1 "/>
<polygon class="st0" points="1671.4,1041.5 1671.4,1106.4 1671,1106.9 1647.5,1116.6 1639.4,1131.8 1632,1138.4 1613.6,1148.2 
	1613.3,1148.3 1574.5,1108.6 1574.4,1108.5 1552.4,1054.5 1552.4,1021.5 1542.2,1008.3 1568.4,986.5 1606.4,968.9 1626.4,978.5 
	1639.4,990.5 1639.4,1003.5 1645.7,1004.2 1654.4,1025.5 "/>
<path class="st0" d="M1420.9,1222l-11.4,4.5l-19.7,15.6l-7.1-5.4l-18.2,4.8l-13.9,8.4l-33.7,1.4l-12.5-7.4l-19-2l-8.5,3.1l-4.2-2.6
	l2.8-6.5l-6.3,0.6l-0.7-6.8l-7.3-0.9l-20.1,9.2l-10.5,12.4l6.8,5.6l6.4,12.3l0.4,6.5l-2.8,0.3l-19.1-15.9l-6.8-1.5l1.5-7.3l-2.5-6.2
	l13.9-32.7l11-15h14l14-15l15-16l42-17l-9-13c0,0-21-17-22-20s0-7,0-7v-18c0,0-5-17-16-36c-1.9-3.3-3.2-5.9-3.9-7.9
	c-3.6-9.5,3.9-6.1,3.9-6.1l10-7h57l31,14h-23v25l28,4l13,40l6.4,18.5l0.1,0.3l1.4,4.2l-8,24l14,20l4,29L1420.9,1222z"/>
<polygon class="st0" points="1613.3,1148.3 1590.4,1160.4 1577,1170.9 1571.5,1171.7 1567.2,1166.9 1561.6,1166.6 1533.4,1181.7 
	1528.6,1178.6 1527.3,1167.3 1516.9,1179.3 1508.6,1181.5 1489.8,1205.4 1466.9,1208.9 1451.5,1217.5 1457.5,1203.3 1455.2,1200.6 
	1431.5,1203.4 1424.5,1220.6 1420.9,1222 1411.4,1212.5 1407.4,1183.5 1393.4,1163.5 1401.4,1139.5 1399.9,1135.3 1399.8,1135 
	1431.4,1126.5 1451.4,1116.5 1475.4,1125.5 1550.4,1125.5 1574.5,1108.6 "/>
<polygon class="st0" points="1645.4,924.5 1645.4,941.5 1623.4,961.5 1607.4,968.5 1568.4,986.5 1542.2,1008.3 1538.4,1003.5 
	1547.4,961.5 1526.4,941.5 1526.4,924.5 1513.4,924.5 1490.4,900.5 1463.7,873.1 1468.4,867.5 1495.2,846.7 1508.1,875.8 
	1527.1,887.7 1547.1,889.6 1593.5,884.8 1614,880.2 1614.1,880.2 1614.2,880.2 1623.4,912.5 1638.4,912.5 "/>
<polygon class="st0" points="1495.2,846.7 1468.4,867.5 1463.7,873.1 1458.4,879.5 1437.4,879.5 1427.4,893.5 1420.4,862.5 
	1387.4,854.5 1379.4,848.5 1379.4,841.5 1371.4,823.5 1371.4,808.5 1346.4,792.5 1335.4,782.5 1335.4,734.5 1329.4,729.5 
	1324.4,722.5 1334.4,699.5 1360.4,685.5 1386.4,660.5 1407.3,659.2 1431.3,722.2 1463.5,775.3 "/>
<path class="st0" d="M726.3,966.2l-11.4,4.5l-12.8,23.5l-14.9,0.5l-14,4.9l-3.1-8.8l-16.8-15.2l3.7-13.8l-3-11.9l-10.3-8.6l-5.9-0.3
	l-20.3,10.7l-16.4,17.6l-21.9,8.5l-8.1,1.2l-22.3-15.4l-41.1-6.9l-10.5,4.4l-4.3,12.9l-24,6.3l-10.4-3.8L448,989.3l-6.8-5.1
	l-6.8-18.5l-9.3-4.8l-6,1.1l-7.6,8.1l-8.9-1.5l-14.1,6.3l-8.5-0.6l-3.6-4.9l-5.1-35.9l-8.6-6.5l-9,0.4l-24.5,3.8l-28,27.2l-24,10.8
	l-12.9,0.1l-13.5-7.1l-8.6,2l-6.5,8.9l-2.4,18.3l-11.4,11.8l-2.4,16.4l-3.7,1.7l-14.8-8.3l-17.9,7l-26.6-6.5l-31.2,5.3l-19.9-13.5
	l-20.8-1.6l-5.7-7.3l3.7-27l-6.2-20.8l7.9-10.2l-5.2-22.5l2.3-13.4l9.2-7l4.9-11.2l13.8-9.7l-0.8-12.6l20.6-6.8l7.5-10.6l-1.8-23.2
	l-5.2-15l-8.9-6.6l1.6-5.5l9.7-9.1l6.5-15.5l28.7-5l41.9-37.3l1-10.5l10.3-4l0.5-18.2l8.3-13.6l34.8-4.4l12,1.8l13.1-3.1l7.7-7.6
	l23.8,1l20-14.4l6.2-39.4l-8.9-28.1l10.5-29.4l-2.3-8.3l-9.7-12l-0.4-10.3l-6-10.4l1-12.7l11.3-7.2l16.4,2.4l16.6-12.4l9,2.2l7-3
	l15.8,7.2v33.5l21,15v49l26,28l17,31l19,36v15l33,26v34c0,0,10,22,12,31s17,44,17,44l53,14l13,17.5v0l27,36.5
	c12.3,8,18.3,10.9,21.6,12.2c4.5,1.9,4,1,7.4,6.8c6,10,16,10,16,15s13,19,13,19L726.3,966.2z"/>
<path class="st0" d="M911.3,264.5h-8.9l-11,42v49l-16,16l-10,20l-5.4,3.9l-9.6,7.1l-45,5l-8,18c0,0-1,0-3,0.7
	c-3.7,1.3-10.7,4.9-21,15.3c-16,16-9,7-9,7h-47l-14,19l-9,15l-21,19l-11-1l-24-18v-26l-26,19h-88c0,0-15,9-29,25s-7,4-7,4h-21
	l-24-33l0.1-0.1l15.3-21.1l-1.5-8.9l4.1-4.9l-3.6-8.7l1.3-23l12.1-13l9.5-19.2l0.9-16.8L487,344l-3.1-18.4l10.5-12.3l4.4-12.1v0
	l21.6-17.7c0,0,14.8-16.1,32.6-23l13.4,32c0,0,3,10,6,14s0,16,0,16l11,14l16-16h40l25-8h13c0,0,53,1,59,0l9-13l9-31l22.8-6.9h0
	l15.6-1.2l72.8-19.2L877,242l20.3,16.5L911.3,264.5z"/>
<path class="st0" d="M651.4,519.5v38l16,13l-10,30l-16,27v20l16,19l-6,23v8c0,0-2-22,0,7s6,39,6,39l-6,15c0,0-10,7-10,11s-8,29-8,29
	l-5,10l-8,15l-2,43.5l-13-17.5l-53-14c0,0-15-35-17-44s-12-31-12-31v-34l-33-26v-15l-19-36l-17-31l-26-28v-49l-21-15V493l0.4,0.2
	l35.6-21.7l24,33h21c0,0-7,12,7-4s29-25,29-25h88l26-19v26l24,18l11,1v24L651.4,519.5z"/>
<path class="st0" d="M918.4,718.5v25l-15,26v13l-5.7,14.8l-17.3,6.2l-20,10l-47-10v43l-13,32v21l-26.1,44.1l-1.4-3l-6.8-0.7
	l-10.6,7.8l-4.9,8.3l-6.5,2.3l2.8-13.2l-11.2,5l-5.4,14.5l-4.1,1.6l-22.9-9.7c0,0-13-14-13-19s-10-5-16-15c-3.5-5.8-2.9-4.9-7.4-6.8
	l10.4-27.2l-5-9l15-24l27-63l10-42l-6-21c0,0-3-15,1-17s5-17,5-17v-20l39-29l15-19l27-17l8-8v-17h19l16-15h12l30,10l7,17l7,14v28
	l-7,17l7,29L918.4,718.5z"/>
<path class="st0" d="M1076.4,625.5v17l-17,9l-5,26l-6,19h-9l-15,9l-3,24l2.8,5.3l-22.8,10.7v6l-22,8l-33,15h-17l-18,18l-13.7,4.8
	l5.7-14.8v-13l15-26v-25l-14-33l-7-29l7-17v-28l-7-14l-7-17l-29.6-9.9l6.6-8.1c0,0-4-27-7-38s0-9,0-9v-16l-41-6l10-21c0,0,0-21,0-27
	s-14,0-14,0h-11v-11l-10-8.3c2-0.7,3-0.7,3-0.7l8-18l45-5l9.6-7.1l20.4,33.1l31,9c0,0,11-21,14-24s0-11,0-11l14-10h9l18,6v18l6,30
	l22,18l7-7l12,17l5,24c0,0-8,4,0,10c8,6,28,21,28,21s5,7,5,13v29c0,6,0,49,0,49h14L1076.4,625.5z"/>
<path class="st0" d="M1197.6,588.1l-24.2,22.4l-7,16l-14,7l-15,5l-6,30v43l-5,8h-32v10l-8,30v12l-14,15l-32,10l-8,32l-12,18l-29,17
	c0,0,0,27,0,58c0,3.5-0.4,6.5-1,9c-1.7,6.3-5.2,9.5-9.1,11.1l-11.8-18.1v-21l-5-27l8-28l-8-6h-9l-9-18l-7-20l-21,5l-7,5v-21l18-18
	h17l33-15l22-8v-6l22.8-10.7l-2.8-5.3l3-24l15-9h9l6-19l5-26l17-9v-17l-11-5h-14c0,0,0-43,0-49v-29c0-6-5-13-5-13s-20-15-28-21
	c-8-6,0-10,0-10l-5-24l-12-17l13-13l20.2-18.3l72.1,45.9l37.4,61.5l-0.6,10.1l-8.6,9.7l5.4,10.2l21.1,4.4l25.5,20L1197.6,588.1z"/>
<path class="st0" d="M1034.6,426.1l-20.2,18.3l-20,20l-22-18l-6-30v-18l-18-6h-9l-14,10c0,0,3,8,0,11s-14,24-14,24l-31-9L860,395.4
	l5.4-3.9l10-20l16-16v-49l11-42h8.9l48.5,20.9l21.7,1.6l29.5,20.4l10.7,23.8l6.2,45l-14.9,26.8l6.1,13.3L1034.6,426.1z"/>
<path class="st0" d="M777.2,261.6l-22.8,6.9l-9,31l-9,13c-6,1-59,0-59,0h-13l-25,8h-40l-16,16l-11-14c0,0,3-12,0-16s-6-14-6-14
	l-13.4-32c4.3-1.7,8.9-2.8,13.4-3c23-1,8,2,38,0s30,0,30,0l16-25.4l17.7,15.8l51.8,15l32.9,0.7L777.2,261.6z"/>
<path class="st0" d="M650.4,232l-16,25.4c0,0,0-2-30,0s-15-1-38,0c-4.5,0.2-9,1.3-13.4,3c-17.8,6.9-32.6,23-32.6,23l-21.6,17.7
	l0.2-0.4l-2.7-7.9l-11.8-11.2l-93.2-67.4l-29.8-47L264,63l-7.7-3.6l2.2-3.3l44.1,39.3l77.6,39.2l92.8,24.1l82.3,5.3l40.5,19.4
	L650.4,232z"/>
<path class="st0" d="M981.2,941.5c-8.4,3.3-18.8-1.1-18.8-1.1v19l-42.4,50.8l-9.9,0.9l2-15.8l-14.3,14.9l-5.8-11.5l-4.4-0.1
	l-13.6-10.9l-5.7-0.7l-11,9.4l-13.7-4.9l-3.8,9.4l10.5,11.8l-4.3,5.5l-10.6-5.5l-6.9-8.1l-9.9-2.3l-7.5-10.7l-11.7-6.8l0.4-13
	l-21.3-19.6l-4.1-8.7l26.1-44.1v-21l13-32v-43l47,10l20-10l17.3-6.2l13.7-4.8v21l7-5l21-5l7,20l9,18h9l8,6l-8,28l5,27v21
	L981.2,941.5z"/>
<path class="st0" d="M1420.4,1003.5v44h-45l-31-14h-57l-10,7c0,0-7.5-3.4-3.9,6.1l-34.1-0.1l-28-13l-22.6,32.5
	c0.9-1.1,2.8-3.1-0.4,6.5c-4,12-8,36-8,36l-14,21h-13l-22-16l20-19l-15-13l-20-13l-15-35c0,0-1-12-5-13s-4,0-4,0h-12l-14,41
	l-27.5,18.6l-52.7,35.7l-8.2-4l-2.2,9.8l-3.6,1.7l-5.5-11.5l-14.7,7.8l-10.8-2.8l0.7-5.6l17.5-7.6l3.6-22.4l3.3-3.2l7.6-1l6,6.8
	l12.9,5l4.2-2l-6.6-10.8l0.9-6l-14.3-13.1l-3.4,0.2l-3,6.1l-7-3.1l5.1-8.9l-5.1-3.6l0.4-16l-3.1-1.2l-1.8,8l-9.5,2l5.2,12.8
	l-29.6,1.2l-2.4-4.7l15.1-18.5l-26.5,2.4l9.3-13.4l11.5-6.5l-4.7-4.1l-7.3,0.6l42.4-50.8v-19c0,0,10.5,4.3,18.8,1.1
	c4-1.6,7.5-4.8,9.1-11.1l49,18l10-7l19-17l17-9c0,0,5-16,10-17s21-10,21-10h7l18,5l4,16l11,6h10l11-6l29-2l13-8l13,6l17,10h22l9-7
	c0,0,5-26,7-29s-7-27-7-27l7-25l15,25l11,15v10l17,11h14c0,0,4,10,8,14s14,13,14,13l11,18h32v43L1420.4,1003.5z"/>
<path class="st0" d="M1110.3,1198.5h-11.9c-8,0-6,14-6,14l-16.5,45.5l-6-4.9l-6.3-15.6l1.8-5.2l-11.8-2.2l-7.8-9.9l-0.1-6.1
	l-4.1-2.1l-19.8,17.4l8.9-16.8l0.9-16.4l-5.9-10.2l-12.8,0.7l-2.2-2.6l11.1-11.7l4.4-15.5l-11.5-14.8l-13.7,5.5l-8.4-3.3l15.6-10
	l0.1-7l-6.8-4.2l6.2-9.3l-0.9-4.4l-12.5,3.7l-4.1,4.6l-3.9-1.9l52.7-35.7l0.5,28.4l36,21v19l13,17l16,24L1110.3,1198.5z"/>
<path class="st0" d="M867.4,562.5l-6.6,8.1l-0.4-0.1h-12l-16,15h-19v17l-8,8l-27,17l-15,19l-39,29v20c0,0-1,15-5,17s-1,17-1,17l6,21
	l-10,42l-27,63l-15,24l5,9l-10.4,27.2c-3.3-1.4-9.3-4.2-21.6-12.2l-27-36.5v0l2-43.5l8-15l5-10c0,0,8-25,8-29s10-11,10-11l6-15
	c0,0-4-10-6-39s0-7,0-7v-8l6-23l-16-19v-20l16-27l10-30l-16-13v-38l22,6v-24l21-19l9-15l14-19h47c0,0-7,9,9-7
	c10.4-10.4,17.4-14,21-15.3l10,8.3v11h11c0,0,14-6,14,0s0,27,0,27l-10,21l41,6v16c0,0-3-2,0,9S867.4,562.5,867.4,562.5z"/>
<line class="st0" x1="443.4" y1="471.5" x2="443.4" y2="471.5"/>
<polyline class="st0" points="777.2,261.6 777.2,261.6 781,260.5 "/>
<polyline class="st0" points="1024.2,734.8 1032.4,750.5 1039.4,754.5 1039.4,786.5 1043.4,800.5 "/>
<line class="st0" x1="860.7" y1="570.6" x2="858.4" y2="573.5"/>
<line class="st0" x1="673.4" y1="501.5" x2="673.4" y2="499.5"/>
<path class="st0" d="M1287.4,879.5c-2,3-7,29-7,29l-9,7h-22l-17-10l-13-6l-13,8l-29,2l-11,6h-10l-11-6l-4-16l-18-5h-7l-5-28l24-32
	l16-30l10-6h26l13-11l24-8l35.8-15h9.2v13c0,0,6,22,6,27s0,14,0,14l12,15l-7,25C1280.4,852.5,1289.4,876.5,1287.4,879.5z"/>
<path class="st0" d="M1407.3,659.2l-21,1.2l-26,25l-26,14c0,0-11,0-16,0s-7,1-7,1l-18,8h-17l-8-8l-29-57l11-10l17.1-45.5h0l32-2.3
	l23.8,27.9l34.2,15.7l32.1,8.4l13.2,9.4L1407.3,659.2z"/>
<path class="st0" d="M1458.4,879.5l-17,7c0,0-5,20-11,29s0,33,0,33v50l-10,5l-11-27v-43h-32l-11-18c0,0-10-9-14-13s-8-14-8-14l6-9
	l7-12l22-19l8,6l33,8l7,31l10-14H1458.4z"/>
<polyline class="st0" points="1613.3,1148.3 1613.4,1148.5 1614,1148.5 "/>
<line class="st0" x1="1648.4" y1="1004.5" x2="1645.7" y2="1004.2"/>
<line class="st0" x1="1773.4" y1="995.5" x2="1773.3" y2="995.6"/>
<path class="st0" d="M1161.4,708.5v84l-10,6l-16,30l-24,32l5,28c0,0-16,9-21,10s-10,17-10,17l-17,9l-19,17l-10,7l-49-18
	c0.7-2.5,1-5.4,1-9c0-31,0-58,0-58l29-17l12-18l8-32l32-10l14-15v-12l8-30v-10h32l5-8v-19h12L1161.4,708.5z"/>
<line class="st0" x1="990.4" y1="930.4" x2="990.3" y2="930.4"/>
<path class="st0" d="M1161.4,1129.5l-7,13l-13,26l-12,30c0,0-10,0-19.1,0l-5.9-9l-16-24l-13-17v-19l-36-21l-0.5-28.4l27.5-18.6
	l14-41h12c0,0,0-1,4,0s5,13,5,13l15,35l20,13l15,13l-20,19l22,16H1161.4z"/>
<line class="st0" x1="986.2" y1="1115.8" x2="985.9" y2="1115.9"/>
<line class="st0" x1="1188.8" y1="1066" x2="1188.6" y2="1066.1"/>
<path class="st0" d="M1188.8,1066l-0.1,0.2c0,0-0.1,0.1-0.1,0.1l0,0c0,0-0.1,0.1-0.1,0.1l-0.1,0.1"/>
<line class="st0" x1="1255.4" y1="1194.5" x2="1255.3" y2="1194.4"/>
<line class="st0" x1="1075.9" y1="1258" x2="1075.9" y2="1258"/>
</svg>
