<?xml version="1.0" encoding="utf-8"?>
<!-- Generator: Adobe Illustrator 22.0.1, SVG Export Plug-In . SVG Version: 6.00 Build 0)  -->
<svg version="1.1" id="Capa_1" xmlns="http://www.w3.org/2000/svg" xmlns:xlink="http://www.w3.org/1999/xlink" x="0px" y="0px"
	 viewBox="0 0 1335.6 1949.4" style="enable-background:new 0 0 1335.6 1949.4;" xml:space="preserve">
<style type="text/css">
	.st0{fill:#F4F4F4;stroke:#00AFBE;stroke-width:3;stroke-linecap:round;stroke-linejoin:round;}
</style>
<polygon class="st0" points="971.5,1665 970.4,1665.3 959.8,1681.9 953.9,1716.2 913,1749.2 893.3,1735.1 846.5,1713.9 
	783.7,1666.2 745.5,1656.7 783.5,1633.7 812.5,1622.7 859.5,1627.7 885.5,1639.7 923.5,1648.7 947.5,1649.7 "/>
<polygon class="st0" points="936.4,1516.5 917.5,1549.7 917.5,1595.7 909.5,1616.7 885.5,1639.7 859.5,1627.7 812.5,1622.7 
	783.5,1633.7 745.5,1656.7 701.2,1645.6 686.9,1614.1 688.8,1608.5 759.1,1575.7 746.6,1500.3 753.1,1498.2 779.5,1517.7 
	812.5,1508.7 836.5,1517.7 880.5,1524.7 892.5,1516.7 919.5,1507.7 "/>
<polygon class="st0" points="1024.5,1615.7 1024.5,1646.2 998,1658.9 971.5,1665 947.5,1649.7 923.5,1648.7 885.5,1639.7 
	909.5,1616.7 917.5,1595.7 917.5,1549.7 936.4,1516.5 944.5,1520.7 958.5,1518.7 961.5,1518.7 972.5,1507.7 984.5,1485.7 
	988.5,1479.7 994.5,1495.7 1010.5,1501.7 1001.5,1524.7 1018.5,1550.7 1018.5,1567.7 994.5,1588.7 982.5,1599.7 "/>
<path class="st0" d="M1203,1536.2l-1.5,18.1l-29.9,16.9l-20.1-33.5l-12-11l-17-5l-11-9l-23-17h-35l-14-24l-19-10l-9-19l-27-8h-17
	v-20c0,0-9-22-9-26s5-7,5-7l21-11v-15l-7-25l-0.5-3l-3.5-19l-4-28l8-38.8c4,3.9,8,7.6,10,8.8c5,3,6,21,6,21v21l13,5h7l14,7l7,15
	l25,20l13,4v29l4,35l6,29l9,13l22,23l10,17l60.5,18.8L1203,1536.2z"/>
<polygon class="st0" points="1171.6,1571.2 1133.6,1592.8 1100.9,1632.7 1032.2,1642.5 1024.5,1646.2 1024.5,1615.7 982.5,1599.7 
	994.5,1588.7 1018.5,1567.7 1018.5,1550.7 1001.5,1524.7 1010.5,1501.7 1036.5,1501.7 1036.5,1491.7 1053.5,1495.7 1088.5,1495.7 
	1111.5,1512.7 1122.5,1521.7 1139.5,1526.7 1151.5,1537.7 "/>
<polygon class="st0" points="1220.1,1369.1 1199.7,1386.2 1199.3,1415.7 1176.8,1429.5 1173.3,1441.9 1185.4,1471.8 1183.6,1507.8 
	1184,1508.5 1123.5,1489.7 1113.5,1472.7 1091.5,1449.7 1082.5,1436.7 1076.5,1407.7 1072.5,1372.7 1072.5,1344 1082.5,1338.7 
	1113.5,1294.7 1122.5,1283.7 1118.5,1264.7 1118.5,1254.7 1128.7,1221.1 1166.6,1252.6 1182,1279.7 1194.7,1287.7 1204.5,1287.7 
	1209.1,1294.1 "/>
<path class="st0" d="M1053.5,1495.7l-17-4v10h-26l-16-6l-6-16l-4,6l-12,22l-11,11h-3l-14,2l-8.1-4.2l-16.9-8.8l-27,9l-12,8l-44-7
	l-24-9l-33,9l-26.4-19.5l22.4-7.5l14-26l36-42l11-11h16l5-19l4-21l15.4-6.5l34.6,15.5c0,0,5-6,7-9s0-28,0-28l9-16H977l0.5,3l7,25v15
	l-21,11c0,0-5,3-5,7s9,26,9,26v20h17l27,8l9,19l19,10L1053.5,1495.7z"/>
<path class="st0" d="M973.5,1308.7l3.5,19h-49.5l-9,16c0,0,2,25,0,28s-7,9-7,9l-34.6-15.5l3.6-1.5v-35l-5-28l-12-16l-2-10l-10-10
	l-24.2-22.8c4.2-6,9.2-13.8,9.2-17.2c0-6,10-18,10-18l15-16l10-21l20-14l25-29l12,7l11,23l21,15l1,7l-5,8l9,18v25
	c0,0,6.1,6.4,12,12.2l-8,38.8L973.5,1308.7z"/>
<path class="st0" d="M880.5,1328.7v35l-3.6,1.5l-15.4,6.5l-4,21l-5,19h-16l-11,11l-36,42l-14,26l-22.4,7.5l-6.6,2.2l-0.8-4.6
	l-0.3,0.1v-33.1l-9-43l5-7l-5-17l5-10l13-17l4-13l9-33l4-15v-15l4-19l14.1-43.2l0.4,0.4l5.5,5.8l26,13c0,0,2.7-3.4,5.8-7.8
	l24.2,22.8l10,10l2,10l12,16L880.5,1328.7z"/>
<path class="st0" d="M1118.5,1264.7l4,19l-9,11l-31,44l-10,5.3v-0.3l-13-4l-25-20l-7-15l-14-7h-7l-13-5v-21c0,0-1-18-6-21
	c-2-1.2-6-4.8-10-8.8c-6-5.8-12-12.2-12-12.2v-25l-9-18l5-8l-1-7l-21-15l-11-23l-12-7l-25,29l-20,14l-10,21l-15,16c0,0-10,12-10,18
	c0,3.5-5,11.3-9.2,17.2c-3.1,4.4-5.8,7.8-5.8,7.8l-26-13l-5.5-5.8l-0.4-0.4l-12.1-12.8l-4-17l-14-21l-22-18l-18-23l-5-12h-11l-10,6
	l-32-31v-10l-11-19v-15l13-28v-18l5-18l-6-11l6.2-25.7l6.8-3.3l11-23v-20l10-7l7-6l19,4l10,3h9l17.6-6.8v0l5.4-0.1l26.1,31.9
	l57.7,44.7l29.3,16.5l22.6-5.7l9.3,2.8l21,23.1l35.9,27.2l12,43.9l-2,21l7.5,10.8l18.4,8.6l15.1,15.2l8.6,47.7l13.4,2.9l27.4-5.1
	l28.8,10.3l33.1,27.5l-10.2,33.6V1264.7z"/>
<polygon class="st0" points="789.6,1230.5 775.5,1273.7 771.5,1292.7 771.5,1307.7 767.5,1322.7 758.5,1355.7 754.5,1368.7 
	741.5,1385.7 736.5,1395.7 741.5,1412.7 736.5,1419.7 745.5,1462.7 745.5,1495.8 718.8,1511 701.5,1528.7 690.8,1527.2 
	683.2,1516.6 659.9,1506 631.9,1517.7 635.3,1500.8 563.8,1354.9 573.5,1345.7 573.5,1327.7 567.5,1313.7 571.5,1299.7 
	571.5,1280.7 574.5,1274.7 575.5,1250.7 567.5,1227.7 543.5,1234.7 535.5,1220.7 532.5,1207.7 545.5,1186.7 549.5,1157.7 
	563.5,1150.7 569.5,1140.7 571.5,1132.7 572.5,1115.7 581.5,1100.7 589.5,1086.7 589.5,1069.7 533.5,1001.7 549.5,985.7 
	565.5,959.7 589.5,959.7 598.5,964.7 632.5,959.7 650.5,965.7 668.7,957 662.5,982.7 668.5,993.7 663.5,1011.7 663.5,1029.7 
	650.5,1057.7 650.5,1072.7 661.5,1091.7 661.5,1101.7 693.5,1132.7 703.5,1126.7 714.5,1126.7 719.5,1138.7 737.5,1161.7 
	759.5,1179.7 773.5,1200.7 777.5,1217.7 "/>
<polygon class="st0" points="571.5,1299.7 567.5,1313.7 573.5,1327.7 573.5,1345.7 563.8,1354.9 561.2,1349.6 533.9,1276 
	486.3,1205.3 481.3,1163.1 514.5,1143.7 525.5,1132.7 543.5,1132.7 552.5,1120.7 552.5,1115.7 572.5,1115.7 571.5,1132.7 
	569.5,1140.7 563.5,1150.7 549.5,1157.7 545.5,1186.7 532.5,1207.7 535.5,1220.7 543.5,1234.7 567.5,1227.7 575.5,1250.7 
	574.5,1274.7 571.5,1280.7 "/>
<polygon class="st0" points="533.5,964.7 525.5,974.7 525.5,1007.7 507.5,1007.7 493.5,1015.7 452.5,1007.7 467.5,1028.7 
	467.5,1067.7 457.5,1092.7 457.5,1157.9 381,1142.6 354.6,1096.2 333,1071.7 313.3,1016 301.6,997.2 285.8,983.1 272.7,978.6 
	239.3,986.4 218,984.4 209.4,973.7 201.8,931.1 176.4,919.5 176.4,909.1 184.7,896.9 231.2,879.2 293.6,823.7 310.5,823.7 
	340.5,809.7 385.5,823.7 399.5,840.7 413.5,850.7 432.5,865.7 463.5,865.7 482.5,845.7 497.5,845.7 511.5,830.7 519.5,827.7 
	529.5,825.7 "/>
<polygon class="st0" points="589.5,1069.7 589.5,1086.7 581.5,1100.7 572.5,1115.7 552.5,1115.7 552.5,1120.7 543.5,1132.7 
	525.5,1132.7 514.5,1143.7 481.3,1163.1 481.3,1162.6 457.5,1157.9 457.5,1092.7 467.5,1067.7 467.5,1028.7 452.5,1007.7 
	493.5,1015.7 507.5,1007.7 525.5,1007.7 525.5,1001.7 533.5,1001.7 "/>
<polygon class="st0" points="887.8,643.6 835.5,741.5 768,806.7 759.4,846.3 759.1,897.9 741.5,904.7 732.5,904.7 722.5,901.7 
	703.5,897.7 696.5,903.7 686.5,910.7 686.5,930.7 675.5,953.7 668.7,957 650.5,965.7 632.5,959.7 598.5,964.7 589.5,959.7 
	565.5,959.7 549.5,985.7 533.5,1001.7 525.5,1001.7 525.5,974.7 533.5,964.7 529.5,825.7 519.5,827.7 511.5,830.7 497.5,845.7 
	482.5,845.7 463.5,865.7 432.5,865.7 413.5,850.7 399.5,840.7 385.5,823.7 340.5,809.7 310.5,823.7 293.6,823.7 294.2,823.2 
	293,816.1 266.9,791.8 230.9,780.4 201.5,750.3 187.8,706.7 174,688 150.5,633.9 116.4,573.9 122.9,551.6 154.8,529.8 183,450.8 
	188.8,388 182.3,351.9 168.9,336.4 169.7,304.4 196.1,272.3 210.8,225.2 218.2,212.7 234.3,200.9 244.5,202 252.9,219.7 
	285.1,249.4 284.6,269.1 302.3,279.4 313.6,295.6 328.7,299 339.2,311.3 355.2,319.7 361.7,311.3 345.8,293.5 351.5,279.3 
	372.2,286.6 388.8,272.4 397.5,273.4 418.1,289.9 424.8,290.2 433.6,307.6 455.3,285 452.3,309 478.3,306.7 485.5,312.8 468,322.6 
	453.9,343 494.1,339.4 471.2,367.4 474.8,374.6 519.6,372.7 511.7,353.3 526.1,350.3 528.8,338.2 533.6,340 532.9,364.2 
	540.6,369.6 532.9,383.1 543.6,387.8 548.1,378.6 553.3,378.2 575,398.1 573.5,407.3 583.5,423.6 577.2,426.5 557.7,418.9 
	548.5,408.6 537.1,410.1 532.1,415 526.7,449 500.3,460.4 499.3,468.9 515.6,473.2 537.9,461.3 546.2,478.7 551.7,476.2 
	555.1,461.3 573.5,470.2 579.7,463.3 598.6,457.7 600.1,464.4 590.6,478.5 600.9,484.8 600.8,495.4 577.2,510.5 589.8,515.5 
	610.5,507.2 627.9,529.6 621.2,553 604.4,570.7 607.8,574.7 627.1,573.7 636,589.1 634.7,614 621.2,639.4 651.2,613 657.4,616.2 
	657.5,625.4 669.4,640.4 687.3,643.8 684.7,651.7 694.3,675.4 717.4,694.1 708.9,739.8 731.3,705.7 737.8,708.3 747.9,729.6 
	736.9,768.1 757,751.6 768.4,717.9 784.1,717.9 809.5,756.3 815.1,752.8 798.6,707.9 801.7,690.5 789.5,684.2 747.6,678.1 
	748.7,668.5 761.9,663.4 772.2,665.4 785.4,646.9 803.3,644 804.8,648.1 791.4,653.4 795.2,658.7 808,656.4 798,676.4 813.9,679.9 
	819.8,686.6 831.5,676.3 836.1,663 851.1,668.4 844.4,650.9 847.8,632.6 "/>
<line class="st0" x1="563.8" y1="1354.9" x2="563.2" y2="1355.5"/>
<line class="st0" x1="293.6" y1="823.7" x2="291.5" y2="823.7"/>
<line class="st0" x1="576.5" y1="1115.7" x2="572.5" y2="1115.7"/>
<line class="st0" x1="759.5" y1="897.7" x2="759.1" y2="897.9"/>
<line class="st0" x1="669.5" y1="953.7" x2="668.7" y2="957"/>
<line class="st0" x1="790.5" y1="1227.7" x2="789.6" y2="1230.5"/>
<line class="st0" x1="745.5" y1="1500.7" x2="745.5" y2="1495.8"/>
<line class="st0" x1="1072.5" y1="1344" x2="1067.5" y2="1346.7"/>
<line class="st0" x1="746.6" y1="1500.3" x2="745.5" y2="1500.7"/>
<line class="st0" x1="876.9" y1="1365.2" x2="873.5" y2="1363.7"/>
<line class="st0" x1="978.5" y1="1327.7" x2="977" y2="1327.7"/>
<line class="st0" x1="753.1" y1="1498.2" x2="752.5" y2="1497.7"/>
<line class="st0" x1="972.5" y1="1665.7" x2="971.5" y2="1665"/>
</svg>
