<?xml version="1.0" encoding="utf-8"?>
<!-- Generator: Adobe Illustrator 22.0.1, SVG Export Plug-In . SVG Version: 6.00 Build 0)  -->
<svg version="1.1" id="Capa_1" xmlns="http://www.w3.org/2000/svg" xmlns:xlink="http://www.w3.org/1999/xlink" x="0px" y="0px"
	 viewBox="0 0 900 1200" style="enable-background:new 0 0 900 1200;" xml:space="preserve">
<style type="text/css">
	.st0{fill:#F4F4F4;stroke:#00AFBE;stroke-width:3;stroke-linecap:round;stroke-linejoin:round;}
</style>
<path id="SV-PA" class="st0" d="M601.7,908.1l-12.5-5.6H568l-1.1,3.3l7.1,5l32.7,7.8L601.7,908.1z M528.2,871.5l-3.8-2.2v6.7
	l5.4,2.2L528.2,871.5z M516.3,867.5l-9.2,1.2l-0.5,3.9l15.2,3.3L516.3,867.5z M610.1,934.6l-10.9-11.1l-16.3-1.7l-36.5-16.7
	l-20.7-21.7l-16.9-6.6l-20.2,2.2L468,865.1h-15.8l-16.7-11.2l4,10.1v2.4l64.4,29.3l83.9,45l16.9,5l8.7-2.8L610.1,934.6z
	 M407.9,467.4l0.3,0.2v-3.7L407.9,467.4z M742.3,930.8l-39,10.2l-12.8-12.8l-3.1-1.1l-0.7,2.5l-22.8,3.9l-2.2,11.7l8.2,5.6l4.9,10
	l-4.3-1.2l-1.6-7.2l-6.4-4.5l-2.9-0.5l-19.1,15h-4.3l-8.7-6.7l-1.5-7.8l-3.4-2.2l-1.1,11.7l9.2,10l26.7,7.8l57.8,32.2l-0.1-14.9
	l3.1-8.6l-1.5-7.7l7-14.7l9.1-8.3l1.8-4l-2.5-7.2l2.5-5L742.3,930.8z"/>
<polygon class="st0" points="593.1,244.9 593.6,246.1 580,244.8 577.9,243.7 575,235.1 567.9,228 550.8,228 537.7,231 543.3,237.5 
	518,232.4 520,220.6 525.8,211.5 541,208 559.8,199 597.1,193 "/>
<polygon class="st0" points="606.4,275.7 599.2,303.9 599.2,303.9 562.2,307.9 546.5,313.6 526.6,303.6 508,297.9 498,306.4 
	482.3,319.3 463.8,319.3 449.2,308.6 446.8,307 456.7,295 462.4,282.2 480.9,276.5 494.3,257.5 494.3,257.5 516.8,239.4 518,232.4 
	543.3,237.5 543.7,238 543.7,252.2 555.1,255.1 570.8,255.1 580.5,245 580,244.8 593.6,246.1 596.6,253.1 "/>
<polygon class="st0" points="494.3,257.5 480.9,276.5 462.4,282.2 456.7,295 446.8,307 443.8,305 429.6,280.8 418.2,280.8 
	395.4,259.4 382.5,259.4 373.6,231.3 382.9,231.2 391.3,212.3 386.6,211.8 378,200.6 423.2,212 457.7,238.1 483.5,249.8 
	494.3,257.5 "/>
<polygon class="st0" points="618.2,337.6 616.4,347.8 607.8,354.9 607.8,369.2 602.1,376.3 583.6,380.6 550.8,384.9 535.1,384.9 
	503.7,399.1 488.1,399.1 458.1,387.7 443.8,386.3 428.2,393.4 418.5,397.6 418.2,363.5 426.7,343.5 426.7,330.7 435.3,320.7 
	438.9,316.4 446.8,307 449.2,308.6 463.8,319.3 482.3,319.3 498,306.4 508,297.9 526.6,303.6 546.5,313.6 562.2,307.9 599.2,303.9 
	593.1,327.8 606.8,335 "/>
<path class="st0" d="M446.8,307l-7.9,9.5l-16.4-20l-8.6-1.4l-5.7-2.8l-12.8-25.7h-15.7l-4.3,14.3h-15.7c0,0-14.3,25.7-17.1,38.5
	c-2.9,12.8,0,4.3,0,4.3v17.1l12.8,8.6l17.1,14.3l4.3,24.2l15.7,7.1v12.8l14.3-0.2l-1.5,5.9v28.5l2.9,18.5v3.5l-0.3,3.5l-25.4-19.8
	l-10-15.7l-15.7-7.1h-35.7L277,396.3l-0.3-0.3l-26.8-25.4l-2.9-11.4l-9.3-18.5H307v-32.8l-12.8-4.3v-17.1l2.3-31l9.9,7.6l12.5,1.8
	l6.4-3.8l12.4-15l7.5-0.7l5.8-7.2l14-6.9l8.7-0.1l8.9,28.1h12.8l22.8,21.4h11.4l14.3,24.2L446.8,307z"/>
<path class="st0" d="M307,307.9v32.8h-69.2l-3.6-7.1H230l-8.5,8.6l-8.6,21.4V412l4.3,47.1l14.3,37.1v47.1l-18.5-37.1l-27.1-20
	l-5.7-4l-12.8-8.9l-5.7-42.8l7.1-12.8l16.9-17.6l-4-5.2c0,0-17.1-1.4-21.4,0c-4.3,1.4,0-22.8,0-22.8v-62.2l22.3-1.7l9.4-7.7l22-37.8
	l15.2-15.7l30.2,10.1l9.3-3.4l1.3-8.4l5.8-0.3l12.5,4l8.5,6.5l-2.3,31v17.1L307,307.9z"/>
<path class="st0" d="M167.2,496.1v10l7.1,5.7v11.4l5.7,20l-14.3,5.7l8.6,21.4h-7.1l3,18.3l1.2,7.4c0,0-5.7,0-12.8,0l-27.1-10
	l-5.9,0.7l-0.2-2l-4.1-2.4l-32.8,5.4l-12.3-3.3l3.7-20.4l-1.5-12.1l10.9-31.3l14.6-9.4l2.8-12.5l7.4-10.4l-1.2-22.4l14.4-15l3.6-11
	l-5.1-17.2l0.2-21.2l-2.7-10.5L101,362.2l-5.3-22.4l-8-12.8l2.3-6.6l17.1-6.6l52.9-4V372c0,0-4.3,24.2,0,22.8c4.3-1.4,21.4,0,21.4,0
	l4,5.2l-16.9,17.6l-7.1,12.8l5.7,42.8l12.8,8.9L167.2,496.1z"/>
<path class="st0" d="M287,623v81.3h-8.5v20l-5.7,14.3l-7.1,22.8v27.1l-2.3,3.9l-30.5-18.5L81.1,689.3l10.6-23.9l-2.5-6.4l-5.5-3
	l-0.4-4l16.3-6.8l12-12.8l4.9-8l9.5-34.4l-0.3-3.3l5.9-0.7l27.1,10c7.1,0,12.8,0,12.8,0l-1.2-7.4l18.3,0.3v-8.6l11.4,4.3h12.8
	l4.3-8.6l8.5-10l5.7-22.8v1.4h21.4l10,25.7l15.7,27.1L287,623z"/>
<path class="st0" d="M364,500.4c0,0,1.4-5.7-8.6-4.3c-10,1.4-34.2,7.1-34.2,7.1l-14.3,4.3v31.4l8.5,18.5l-1.4,2.9v14.3l-1.4,14.3
	l10,11.4c0,0,0,8.5,0,11.4c0,2.9,0,22.8,0,22.8v15.7l2.8,4.3l-2.8,5.7l-4.3,18.5l2.9,11.4h8.6l10-4.3l8.6,4.3l20-11.4l12.8,20
	l7.1,14.3l10,24.2l-7.1,7.1v17.1l-12.8,14.3l-45.6,25.7h34.2l4.3,17.1l-9.7,16.7L321,818.9l-2.7-7.8l-4.4-1.1l-1.1,3.3l-9.2-1.7
	l-26.7-11.1l-13.6-8.2l2.3-3.9v-27.1l7.1-22.8l5.7-14.3v-20h8.5V623l-8.5-25.7l-15.7-27.1l-10-25.7h-21.4v-48.5L217.1,459l-4.3-47.1
	v-48.5l8.6-21.4l8.5-8.6h4.3l3.6,7.1l9.3,18.5l2.9,11.4l26.8,25.4l0.3,0.3l44.2,28.5h35.7l15.7,7.1l10,15.7l25.4,19.8l-3.5,44.6
	l-16.2-0.2L364,500.4z"/>
<path class="st0" d="M548,447.6l-5.7,17.1l7.1,17.1h1.4v27.1l-21.4,18.5V546l-10,14.3V603l-4.3,20c-4.3,7.1-20,17.1-20,17.1v8.6
	l-5.7,11.4l11.4,20l-14.3,7.1l27.1,15.7l10.5,15.7l3.8,5.7l4.3,20l2.9,24.2v22.8h-8.6l-7.1,17.1h-31.4L471,791.3l-7.1-18.5
	l-37.1-28.5v35.7l8.6,15.7l4.3,37.1l-8.5,10l2.6,6.6l-4.9-2.5l-13-1.7l-7.1-5.6l-2.7-6.1l-4.3,0.5l7.1,7.2l-1.1,2.8l3.3,3.9
	l22.4,4.5l2.4,1.6l4,10.1v2.4L395,846.2l-9.8-1.7l-23.8-9.5l9.7-16.7l-4.3-17.1h-34.2l45.6-25.7l12.8-14.3v-17.1l7.1-7.1l8.6-10
	v-28.5l11.4-15.7v-15.7l8.6-8.6v-24.2l7.1-7.1l5.7-15.7l4.3-14.3l-10-7.1l-25.7-20l-35.7-20l15.7-20l15.7-11.4l0.5-6.9l3.5-44.6
	l0.3,0.2v-7.1l-2.9-18.5v-28.5l2.9-11.4l20-8.5l15.7-7.1l14.3,1.4l30,11.4h15.7l31.4-14.3h15.7l32.8-4.3l-31.4,51.3L548,447.6z"/>
<path class="st0" d="M712.3,333.1l-1,5.6l-40.7,21.9l-15.7,7.1l-12.8,21.4l-18.5,21.4c0,0,0,17.1,0,20s0,22.8,0,22.8l-7.1,11.4
	l-4.3,11.4v61.3l-10,7.1H595v25.7l-4.3,25.7v28.5L575,638.7l10,10l-10,11.4v34.2l2.8,4.2l-8.5,14.4h-15.7l-5.7,5.7h-23.8l-10.5-15.7
	l-27.1-15.7l14.3-7.1l-11.4-20l5.7-11.4v-8.6c0,0,15.7-10,20-17.1c4.3-7.1,29.9-38.5,29.9-38.5l4.3,22.8h8.5l-4.3-32.8l10-28.5
	v-28.5l4.3-25.7l12.8-10l8.5-8.6v-12.8l-14.3,7.1l-14.3,14.3h-11.4l-7.1-17.1l5.7-17.1l4.3-15.7l31.4-51.3l18.5-4.3l5.7-7.1v-14.3
	l8.6-7.1l1.8-10.2l15.1,3.4l45.9-2.8l27.7-7.8L712.3,333.1z"/>
<polygon class="st0" points="684.9,926.1 660.7,931.8 658.5,943.5 653.1,950.1 649.6,952.9 641.6,953.4 637.8,943.4 643.3,936.1 
	634.6,940.1 623.1,926.7 619.9,925.6 616.1,925.1 609.5,915.6 614.4,913.4 615,910.1 612.8,910.6 609.5,904.5 598.7,895.6 
	575.8,895.1 569.8,890.1 570.3,894.5 564.3,894.5 561.6,900.1 557.3,899.6 555.2,896.2 551.8,899 546.9,898.4 538.2,889 
	529.5,870.1 516.5,862.8 510.5,865.6 498.7,864.2 493,850.5 491.4,853.3 495.4,860.7 495.2,864.5 503.9,867.8 504.4,871.1 
	486.5,875.6 474.9,864.3 448,860 441.8,848.9 436.4,850.6 433.7,849.2 431,842.6 439.6,832.6 435.3,795.5 426.7,779.9 426.7,744.2 
	463.8,772.7 471,791.3 488.1,808.4 519.4,808.4 526.6,791.3 535.1,791.3 535.1,768.5 532.3,744.2 528,724.2 524.2,718.5 548,718.5 
	553.7,712.8 569.3,712.8 577.8,698.5 580.8,702.9 593.6,698.6 609.3,711.4 667.7,711.4 673.4,735.7 670.6,744.2 673.4,762.8 
	674.9,785.6 633.5,785.6 633.5,826.9 657.8,826.9 657.8,859.7 667.7,869.7 683.4,876.8 682,891.1 674.9,901.1 674.9,922.5 "/>
<path class="st0" d="M823.8,723.4l-1.7,8.2l-13.1,16.7l-0.8,17.6l-2.8,7.1l-6,6l-16.3,2.8l-8.4,8.2l-0.6,6l8.8,12l-7.3,19.5l2.1,16
	L775,854l5.6,12.4l12.8,15.8l1.3,12l-19.2,19.3l-16.2,1.3l-8.5,3.8l-8.2,12l-0.3,0.2l-39,10.2l-12.8-12.8l-3.1-1.1l1.5-5.3l-2.7-6.1
	l4.4-5.6l-4.4,1.7l-2.7,5l3.8,4.8l-0.9,4.2l-1.5,0.4l-10-3.6v-21.4l7.1-10l1.4-14.3l-15.7-7.1l-10-10v-32.8h-24.2v-41.3h41.3
	l-1.4-22.8l-2.8-18.5l2.8-8.5l-5.7-24.2h-58.5l-15.7-12.8l-12.8,4.3l-2.9-4.4l-2.8-4.2v-34.2l10-11.4l-10-10l15.7-14.3v-28.5
	l4.3-25.7v-25.7h7.1l10-7.1v-61.3l4.3-11.4l7.1-11.4c0,0,0-20,0-22.8s0-20,0-20l18.5-21.4l12.8-21.4l15.7-7.1l40.7-21.9l-2.7,14.6
	l6.8,13.2l0.5,11.2l36.1,80.9l3.5,13.9l-1.4,23.6l-10.5,33l-2.7,22.4l-7.7,12.3l0.5,10l6.2,17.7l-1.1,21.5l7.2,15.1l-1.2,14.9
	l6.1,8.3l19.6,8.5l7.3,21l18,17.3l17.7,8L823.8,723.4z"/>
<line class="st0" x1="713.5" y1="337.5" x2="711.3" y2="338.7"/>
<line class="st0" x1="687.4" y1="927" x2="684.9" y2="926.1"/>
<line class="st0" x1="435.5" y1="853.9" x2="433.7" y2="849.2"/>
<path class="st0" d="M589.3,460.4v12.8l-8.5,8.6l-12.8,10l-4.3,25.7V546l-10,28.5l4.3,32.8h-8.5l-4.3-22.8c0,0-25.7,31.4-29.9,38.5
	l4.3-20v-42.8l10-14.3v-18.5l21.4-18.5v-27.1h10l14.3-14.3L589.3,460.4z"/>
<path class="st0" d="M443.8,597.3l-4.3,14.3l-5.7,15.7l-7.1,7.1v24.2l-8.6,8.6v15.7l-11.4,15.7v28.5l-8.6,10l-10-24.2l-7.1-14.3
	l-12.8-20l-20,11.4l-8.6-4.3l-10,4.3h-8.6l-2.9-11.4l4.3-18.5l2.8-5.7l-2.8-4.3v-15.7c0,0,0-20,0-22.8c0-2.8,0-11.4,0-11.4l-10-11.4
	l1.4-14.3v-14.3l1.4-2.9l-8.5-18.5v-31.4l14.3-4.3c0,0,24.2-5.7,34.2-7.1c10-1.4,8.6,4.3,8.6,4.3l24.2,11.4l16.2,0.2l-0.5,6.9
	l-15.7,11.4l-15.7,20l35.7,20l25.7,20L443.8,597.3z"/>
<path class="st0" d="M438.9,316.4l-3.6,4.3l-8.6,10v12.8l-8.6,20l0.3,34.1l-10.3,4.4l-1.4,5.5l-14.3,0.2v-12.8l-15.7-7.1l-4.3-24.2
	l-17.1-14.3l-12.8-8.6v-17.1c0,0-2.9,8.6,0-4.3c2.9-12.8,17.1-38.5,17.1-38.5h15.7l4.3-14.3h15.7l12.8,25.7l5.7,2.8l8.6,1.4
	L438.9,316.4z"/>
<line class="st0" x1="407.5" y1="407.5" x2="406.8" y2="407.5"/>
<line class="st0" x1="296.5" y1="254.5" x2="296.4" y2="255.5"/>
<path class="st0" d="M277,394.8l-4.3,15.7l1.4,14.3v11.4l-5.7,15.7l4.3,18.5l-4.3,11.4v7.1l8.6,7.1c0,0-2.9,27.1-4.3,29.9
	s0,17.1,0,17.1h-11.4h-8.6"/>
<polyline class="st0" points="185.5,400 191.4,407.7 197.1,413.4 212.8,437.6 "/>
<line class="st0" x1="170.3" y1="588.5" x2="168.5" y2="588.5"/>
<polygon class="st0" points="231.4,543.1 225.7,566 217.1,575.9 212.8,584.5 200,584.5 188.6,580.2 188.6,588.8 170.3,588.5 
	167.2,570.2 174.3,570.2 165.8,548.8 180,543.1 174.3,523.2 174.3,511.8 167.2,506.1 167.2,496.1 180,482.2 185.8,486.1 
	212.8,506.1 "/>
<line class="st0" x1="125.7" y1="586.6" x2="84.5" y2="591.6"/>
<polygon class="st0" points="580.5,245 570.8,255.1 555.1,255.1 543.7,252.2 543.7,238 537.7,231 550.8,228 567.9,228 575,235.1 
	577.9,243.7 "/>
</svg>
