<?xml version="1.0" encoding="utf-8"?>
<!-- Generator: Adobe Illustrator 22.0.1, SVG Export Plug-In . SVG Version: 6.00 Build 0)  -->
<svg version="1.1" id="Capa_1" xmlns="http://www.w3.org/2000/svg" xmlns:xlink="http://www.w3.org/1999/xlink" x="0px" y="0px"
	 viewBox="0 0 1335.6 1949.4" style="enable-background:new 0 0 1335.6 1949.4;" xml:space="preserve">
<style type="text/css">
	.st0{fill:#F4F4F4;stroke:#00AFBE;stroke-width:3;stroke-linecap:round;stroke-linejoin:round;}
</style>
<path id="SV-UN" class="st0" d="M1085.4,1818.1l-5.9,7.9l3.3,10.7l6.6,6v-16.1L1085.4,1818.1z M1065.7,1822.7l0.6-10.8l-7.8-7.9
	l4.4-8.9l-2.5-13.9l-1.3-8l-2.6-12.1l-11.1-18l-3.2-16.9l-18.5-5.2l-15,1.3l-2-5.3l-9,2.9l-13.1,18l5.2,21.1l-7.8,11.6l3.9,12.7
	l-3.3,7.3l5.9,7.3l-2.6,6l7.9,1.3l4.6,5.4l0.7,16.6l-4,6.1l0.1,9.3l13-0.7l7.2-3.3l2.6-6l7.3-1.4l11,7.5l-4.6,10l4.6,4.6l8.5-12.1
	l12.4,4l7.8-8h6.4l2.8-10L1065.7,1822.7z M934,1676.3l-3.3-3.3l-7.9,0.7l-2-16l-9.9-9.9l-20.9-6l-16.4,1.3l-8.5,6.7l-2.6,7.3
	l4.6,6.7l-5.9,2.5l-0.6,4.1l5.2,8l0.1,7.3l4.6,3.3l-1.4,10.7l4.6,13.4l24.2,13.4h7.2l9.8-8v-12.7l4.6-8.7l3.4-1.4l7,4.8l3.3-6l-2-12
	L934,1676.3z M966.2,1548.6l-12.4-4.8l-15,19.4l7.1,10.8l4.6-4l6.5,1.3l4.5-5.4l6.6,1.4l3.9-4L966.2,1548.6z M949.8,1515.8l-7.8,5.4
	l0.6,5.2l9.2-6.6L949.8,1515.8z M952.4,1483.7l-2.6-10.7l-13.7,4.1l-7.2,7.3l-11.8-6.7l-10.4,6l-4.1-4v-6l-6.5,3.3v4.7l-7.2-0.7
	l-2,10.7l3.9,6.7l-0.7,17.4l3.3,12.7l-5.9,11.8l13.2-1.9l16.3,3.4l14.4-8l-4.6-5.4l3.3-8l-7.2-8.7l7.2-5.5l-2-7.2l13.1-4
	L952.4,1483.7z M702.3,1300.1l-8.5,7l-24.8-0.7l-9.3,18.1l-10.5,5.4l-1.3,7.3l10.5,4.6l4.6,6.8l17.1-16.7l15-1.4l9.1-14.7
	L702.3,1300.1z M773.5,1520.7h-5l-14-5l-32-8l-18-21l-19-32l-9-29l18.6-31l-0.5-1.4l-5.3-1.2l-8.5,4.6l-19-9.4l-5.2-6.7l-3.9-15.4
	l3.3-20l-11.1-7.3l-0.6-10.1l-90.7,70.8l-18,25l-4,17c0,0,10-3,0,4s-44,39-44,39v97l3,12v25l-3,34l-17,32l10,9l-1,39l-2,8l-24,7
	l-21,6l-46-6.6v25.6c0,0,0,26,0,28s12,24,12,24l-0.5,21.5l7.2,0.4l2,6l-2.6,4.7l11.1,8.7h11.1l2-10.7l7.2,2.7l5.9-2.8l19,7.4
	l23.5-6.7l23.6,5.5l18.3,13.9l3.3-2.7l-6.6-8l9.9-2.8l9.7,2.8l8.5,11.3l9.2-3.3l24.8,2l7.9-14l-9.7-22.1l-13.1-0.7l-2.6-3.9
	l-14.4-3.4l-9.2-9.4l-2-30.1l7.2-14.7v-12.7l-3.9,2.7l-5.9,15.4l-19,13.4l-1.3,6l-15,2l-7.8-1.3v-2.7l5.2-3.3l6.5,1.3l4.6-4.7
	l-1.3-4l5.2-8.7l15-10.7l6.5-3.3l17-17.4l3.3,3.4l13.1,0.6l9.8-11.3l7.3,0.2l2.6-6.8l22.2-8.8l7.2,0.6l-0.6,7.5l3.3,1.3l4.6-3.3
	l7.2-5.4l7.3-5.4l1.9-6.6l21.7-7.3l2.6-8.7l10.5-11.6l11.3-3.8l21.5,1.9l5.2-3.5l11.2-0.6l3.9-8.6l12.4-4.1l16.3-20.7l15-1.4
	l9.2-16.7l7.2-2l0.7-11.3l23-15.4l2.6-6.7l5.9-2.7l4.7-4.8L773.5,1520.7z"/>
<path class="st0" d="M1008.6,1132.5l-11.2,30.3l-1,18.4l-5.2,6.2l-34.8-0.9l-23.2,20.1l-8.9-0.9l-6.6-5.9L883,1225l-5.5,12.1
	l-30.4,1.9l-19.8,30.3l-39.7,1.5l-14.4-14.7l-20.3-9.5l-32.8-6.5l-5.9-7.3l15.7-35.5l0.7-9.4l-4.6-4.7l-2-9.4l2.6-4l8.5-0.7l17.7,10
	l11.8-1.3l13.6-17.5l3.3-15.3l13.7-10.7l-3.3-1.3l-0.5,0.4l5.9-16.9l-7-4v-12h-8l-14,7l-5,9l-19-11l-10-5h-15v-12h-10l-11,4l-12,9
	l-19-4c0,0-2,4-4-1s-9-29-9-29l-14-4v-10l7-7l-7-16l0.5-3.4l4.5-29.6l-5-17v-53l-6-10v-53l-7-13l1.1-4l2.9-10l12-18l8-14l3-10l23-3
	l46-29.4v7.4h101l24-4h42l27.6-15.7l-0.3,44.9l-16.1,14.5l-25.9,37.1l-5.2,23.1l-22.4,8.3l0.2,5.7l12.7,7.2l-11.6,10.5l-4.6,10.2
	l2.4,17.3l-6.1,21.7l10.3,22.3l-15,19l0.9,7.9l17.7,10.6l3.5,16.5l13.2-2.9l25.1,10.2l7.5-2.9l21.3-18.8l5.3,1l5.7,16.8l6.8,0.6
	l12.1-8.6l11.5,1.5L999,1039l1.7,15.5l-7.6,20.1L1008.6,1132.5z"/>
<path class="st0" d="M723.5,754.7v8.6l-46,29.4l-23,3l-3,10l-8,14l-12,18l-2.9,10l-11.1,0l-24,3l-7-5c0,0-8,4-17,12s-35,0-35,0
	l-8-15l-12-14h-23l-5-18l-26-17l-74.1-23l-2.4-18.9l67.4-145.9l12-40.4l53.2,23.2l36,8l37,31l35,8h36l18,18h-15l4,19l14,15v14l6,13
	l11,20L723.5,754.7z"/>
<polygon class="st0" points="797.6,559.7 769.5,562.7 764.5,566.7 754.5,566.7 746.5,573.7 746.5,584.7 754.5,600.7 747.5,609.7 
	743.5,619.7 732.5,620.7 718.5,611.7 712.5,612.7 695.5,616.7 677.5,611.7 667.5,619.7 667.5,628.7 660.5,635.7 624.5,635.7 
	589.5,627.7 552.5,596.7 516.5,588.7 463.4,565.5 470.6,541.1 483.2,514 487.7,464 482.5,452.5 531.5,421.7 554.5,421.7 
	567.5,413.7 578.5,395.7 606.5,395.7 655,398.9 655,405.2 685,427.2 720,427.2 727,474.2 748,511.2 764,545.2 770,545.2 784,556.2 
	"/>
<polygon class="st0" points="929.7,664 923.5,715.1 918.3,728.3 918.1,751 890.5,766.7 848.5,766.7 824.5,770.7 723.5,770.7 
	723.5,754.7 698.5,734.7 687.5,714.7 681.5,701.7 681.5,687.7 667.5,672.7 663.5,653.7 678.5,653.7 660.5,635.7 667.5,628.7 
	667.5,619.7 677.5,611.7 695.5,616.7 712.5,612.7 718.5,611.7 732.5,620.7 743.5,619.7 747.5,609.7 754.5,600.7 746.5,584.7 
	746.5,573.7 754.5,566.7 764.5,566.7 769.5,562.7 797.6,559.7 807,562.2 807.5,538.7 786.5,520.7 779.5,495.7 772.5,483.7 
	772.5,474.7 807.5,489.7 807.5,506.7 826.5,549.7 842.5,532.7 859.5,531.7 870.2,509.4 881,515.2 894,531.2 917,543.2 925.9,587.8 
	925.9,587.8 925.9,587.9 922.6,611 "/>
<polygon class="st0" points="655,352.2 655,398.9 606.5,395.7 578.5,395.7 567.5,413.7 554.5,421.7 531.5,421.7 482.5,452.5 
	476.9,440.4 472.3,405.8 466.2,400.7 432.8,405 427.6,397.5 446.9,311.8 444,245.2 433.3,184.8 433,166.5 436.4,139.2 454.8,92.7 
	460.3,97.1 469.2,91 478.1,91 510.8,107 552.4,78.8 563,77.1 578.5,81.9 633,280.2 616,314.2 645,339.2 "/>
<polygon class="st0" points="1030.8,309.9 1025.6,372.7 1000.6,413.2 980.6,432 970.7,454.4 971.7,470 986.2,481.5 988.1,494.5 
	973.7,532.1 935.2,570.3 925.9,587.8 917,543.2 894,531.2 881,515.2 870.2,509.4 868,508.2 861,481.2 861,451.2 874,451.2 
	868,420.2 868,393.2 877,382.2 878,357.2 889,331.2 897,311.2 897,299.2 893,283.2 875,283.2 878,272.2 876,252.2 876,231.2 
	854,231.2 854,223.2 864,223.2 882,188.2 892.7,153.6 924.3,166.6 933,173.6 940.2,188.1 945.3,236 954.3,248.8 969.2,257.7 
	983.6,272.1 1005.3,275 1027.4,288.8 "/>
<path class="st0" d="M897,299.2v12l-8,20l-11,26l-1,25l-9,11v27l6,31h-13v30l7,27l2.2,1.2l-10.7,22.3l-17,1l-16,17l-19-43v-17
	l-33.7-14.4l4.7-20.6c0,0,19-4,24-4s0-3,0-3l-4-9l-36-34l-3-25v-12l-25-15l-11-25l10-20h-6v-18l14-37v-40l47-40v-8l-6-12l13.2-47.2
	l20.5-6l58.6,46.7l17.8,7.3L882,188.2l-18,35h-10v8h22v21l2,20l-3,11h18L897,299.2z"/>
<path class="st0" d="M807.5,538.7l-0.5,23.5l-9.5-2.5l-13.5-3.5l-14-11h-6l-16-34l-21-37l-7-47h-35l-30-22v-53l-10-13l-29-25l17-34
	L578.5,81.9l7.8,2.4h14.4l19.2-9.4L642,90.4l15-0.5l13.9,7.2l27.2-1.7l48.2,16.7l22.7,1.2l26.7-7.8l-13.2,47.2l6,12v8l-47,40v40
	l-14,37v18h6l-10,20l11,25l25,15v12l3,25l36,34l4,9c0,0,5,3,0,3s-24,4-24,4l-4.7,20.6l-1.3-0.6v9l7,12l7,25L807.5,538.7z"/>
<path class="st0" d="M443.2,1031l-15.7,15.7h-53l-11,9v16c0,0-20.6,3.3-25.9,10.6l-37.4-14.8l-18.4-85.3l-11.5-24.5l6.8-24.8
	l-1.9-18.5l9.4-15.4l8.4-7.8l50.7-22l21.2-29.8l1.6-4.3l46.1,87.6l11,25l-11,32l6,10l5,21l9,17L443.2,1031z"/>
<polygon class="st0" points="370.5,1132.7 340.5,1244.7 325.5,1290.7 321.5,1299.7 288.5,1305.7 283.1,1307 294.8,1287 
	298.3,1274.3 286,1271.7 278.5,1264.6 256,1254.7 241.8,1228.6 234.6,1189.5 237,1151.1 251.7,1090.1 263.4,1082.9 296.6,1075.9 
	300.3,1068 300.2,1067.6 337.6,1082.3 338.5,1082.7 334.5,1103.7 346.5,1126.7 "/>
<path class="st0" d="M797.5,1116.7l-5.9,16.9l-10.6,8.3l-13.1,3.3l-1.3,9.4l3.3,9.4l-6.6,10.6h-13l-9.2-8.7l-7.8-2.7l-11.8,4.7
	l-0.6,22.1l-12.5,9.4l-11.8,22.1l-17.1,16.7l-2.6,10.6l-10.5,13.5l-3.8,13.9l-10.7,12.9l0.7,27.4l-2.6,4.7l-5.2,1.4l-4.1-3.3
	l-5.7-4.7l-2,2l3.7,3.5l-166.2,36.5l-149-57l4-9l15-46l30-112l-24-6l-12-23l4-21l-0.9-0.4c5.3-7.3,25.9-10.6,25.9-10.6v-16l11-9h53
	l15.7-15.7l5.3,1.7l71-33l5,9l12,6h21l13,7h12l20,6v-13h25v13l13.5-0.4l-0.5,3.4l7,16l-7,7v10l14,4c0,0,7,24,9,29s4,1,4,1l19,4l12-9
	l11-4h10v12h15l10,5l19,11l5-9l14-7h8v12L797.5,1116.7z"/>
<polygon class="st0" points="864.7,1539.9 859.4,1539.9 854.2,1535.3 846.4,1538.6 845.1,1556.6 840.5,1558 835.2,1570 
	833.3,1580.7 828.8,1585.2 773.5,1520.7 768.5,1520.7 754.5,1515.7 722.5,1507.7 704.5,1486.7 685.5,1454.7 676.5,1425.7 
	695.1,1394.7 696.5,1398.7 692,1405 697.9,1413.6 710.2,1414.3 718.2,1425.7 730.5,1429 735.8,1427 748.2,1434.4 759.8,1435.7 
	771.2,1449.8 783.5,1449.7 788.1,1457 781.5,1463.7 788.7,1477.7 812.3,1486.3 829.4,1505.9 837.9,1503.8 842.6,1507 852.2,1521.2 
	852.2,1526.6 864,1532.6 "/>
<polygon class="st0" points="508.5,883.7 502.5,898.7 508.5,904.7 514.5,919.7 502.5,923.7 502.5,940.7 514.5,947.7 527.5,947.7 
	527.5,974.7 508.5,981.7 519.5,999.7 448.5,1032.7 443.2,1031 432.5,1027.7 423.5,1010.7 418.5,989.7 412.5,979.7 423.5,947.7 
	412.5,922.7 366.4,835.1 387.4,778 386.5,770.7 460.5,793.7 486.5,810.7 491.5,828.7 514.5,828.7 526.5,842.7 534.5,857.7 
	527.5,861.7 "/>
<path class="st0" d="M470.5,1356.7l-9,40l-8,20v5l-10,24l-11,18v15l-4,7l-15,27l3,17h16l11,7l10,17v11l-37,13l-18,12h-14l-8,11
	l-13-3l-20-4l-16.8,29.9c-4.3-3.6-7.6-5.9-9.2-5.9c-6.1,0-34,8.2-46.7,12.1l-4-85.4l-16.1-46.9l14.7-35.8l11.6-45.3l-12.5-27.6
	l-14.1-9.5l-6-9l3.5-5.9l12.7-2l7.6-5.5l13.4-47.8l1.3-2.2v0l5.4-1.3l33-6L470.5,1356.7z"/>
<path class="st0" d="M535.5,1423.7l-4,17c0,0,10-3,0,4s-44,39-44,39v97l3,12v25l-3,34l-17,32l10,9l-1,39l-2,8l-24,7l-21,6l-46-6.6
	v-32.4l-10-39c0,0-32.7-36.5-49.8-51.1l16.8-29.9l20,4l13,3l8-11h14l18-12l37-13v-11l-10-17l-11-7h-16l-3-17l15-27l4-7v-15l11-18
	l10-24v-5l8-20l9-40l166.2-36.5l7.4,7.1l0,0.6l-90.7,70.8L535.5,1423.7z"/>
<path class="st0" d="M394.1,1845l-0.7,5.4l3.9,2.7l-5.2,1.3l-60.2-8.9L193.7,1835l-2.6-4.6l6.5-8.1l12,1.2l-9.3-5.2h-3.9l-3.2,6.5
	l-12.5,10.2l-54.5-7.3l8.5-71.9l19.4-58.3l22.3-47.2l13.5-2.9l74.4,7.8l7.5-5.9l-0.9-19.5c12.7-3.8,40.5-12.1,46.7-12.1
	c1.6,0,4.9,2.3,9.2,5.9c17.1,14.6,49.8,51.1,49.8,51.1l10,39v58c0,0,0,26,0,28s12,24,12,24l-0.5,21.5L394.1,1845z"/>
<line class="st0" x1="894" y1="149.2" x2="892.7" y2="153.6"/>
<line class="st0" x1="871.5" y1="506.7" x2="870.2" y2="509.4"/>
<line class="st0" x1="773.9" y1="475.3" x2="773.5" y2="476.7"/>
<line class="st0" x1="796.5" y1="102.7" x2="795.7" y2="105.5"/>
<line class="st0" x1="482.5" y1="452.5" x2="480.5" y2="453.7"/>
<line class="st0" x1="662.5" y1="635.7" x2="660.5" y2="635.7"/>
<line class="st0" x1="463.4" y1="565.5" x2="461.5" y2="564.7"/>
<line class="st0" x1="791.6" y1="1133.6" x2="790.5" y2="1136.7"/>
<line class="st0" x1="631" y1="847.7" x2="628.7" y2="847.7"/>
<path class="st0" d="M645.5,997.7l-4.5,29.6l-13.5,0.4v-13h-25v13l-20-6h-12l-13-7h-21l-12-6l-5-9l-11-18l19-7v-27h-13l-12-7v-17
	l12-4l-6-15l-6-6l6-15l19-22l7-4c0,0,26,8,35,0s17-12,17-12l7,5l24-3l11.1,0l-1.1,4l7,13v53l6,10v53L645.5,997.7z"/>
<line class="st0" x1="366.4" y1="835.1" x2="363.5" y2="829.7"/>
<line class="st0" x1="446.5" y1="1027.7" x2="443.2" y2="1031"/>
<polyline class="st0" points="652.5,1316.7 640.8,1319.3 636.8,1320.2 "/>
<line class="st0" x1="326.7" y1="1623.6" x2="325.5" y2="1625.7"/>
<path class="st0" d="M270.9,1629.7c-3.9,1.2-6.4,1.9-6.4,1.9"/>
<line class="st0" x1="644.5" y1="1327.7" x2="644.2" y2="1327.9"/>
<line class="st0" x1="833.5" y1="1590.7" x2="828.8" y2="1585.2"/>
<line class="st0" x1="697.5" y1="1390.7" x2="695.1" y2="1394.7"/>
</svg>
