<?xml version="1.0" encoding="utf-8"?>
<!-- Generator: Adobe Illustrator 22.0.1, SVG Export Plug-In . SVG Version: 6.00 Build 0)  -->
<svg version="1.1" id="Capa_1" xmlns="http://www.w3.org/2000/svg" xmlns:xlink="http://www.w3.org/1999/xlink" x="0px" y="0px"
	 viewBox="0 0 1335.6 1949.4" style="enable-background:new 0 0 1335.6 1949.4;" xml:space="preserve">
<style type="text/css">
	.st0{fill:#F4F4F4;stroke:#00AFBE;stroke-width:3;stroke-linecap:round;stroke-linejoin:round;}
</style>
<path class="st0" d="M1046.1,1486.7l-31,84.3l-29,40.8l-69.4,30.2l-11.5,10.8l-24.7-4.1l-26.2,2.6l-13.2,4.8l-5.6-34.4l2-30l-13-22
	v-45l-11-38l-13-9v-20l10-23h9l7-17v-10l-22-29l11-24h62l6,18c0,0,19,47,19,50s12,5,12,5l63,22l20,28l7-4l18-11l19.7-6.3
	L1046.1,1486.7z"/>
<path class="st0" d="M841.2,1656.1l-109.9,40.1l-67.4,17l-15.6-8.5l-33.1-72l-35.1-13.2l15-17.3l11-29h26l28-13h28l21-11l9-16v-10
	l19-21l8-9c0,0-3.9-15.4-0.2-25.5l55.7,4.2v5.8l13,9l11,38v45l13,22l-2,30L841.2,1656.1z"/>
<path class="st0" d="M1165.7,1150.3l-5.5,11.9l-26.4,88.7l-92.3,200l0.7,5.5l-19.7,6.3l-18,11l-7,4l-20-28l-63-22c0,0-12-2-12-5
	s-19-50-19-50l-6-18h-40l-14-9l-5-24l-9-21l-6-34h-21v-25.1l22-14.9l17-19l19-17h9l14-55.4l14-0.6l19-4h21v-8h9l9,3l32,5l18,14
	l22,26l83,20L1165.7,1150.3z"/>
<polygon class="st0" points="1183.7,1056.4 1177.5,1125 1165.7,1150.3 1090.5,1190.7 1007.5,1170.7 985.5,1144.7 967.5,1130.7 
	935.5,1125.7 926.5,1122.7 917.5,1122.7 917.5,1130.7 896.5,1130.7 888.5,1099.7 867.5,1089.7 849.5,1066.7 901.5,1024.7 
	956.5,1024.7 962.5,999.7 980.5,967.7 985.5,930.7 985.5,897.7 977.5,844.7 977.5,800.7 901.5,800.7 904.4,783.2 911.5,740.7 
	911.5,698.7 957.8,624.4 1121.6,530.7 1138.7,547.4 1113.4,611.1 1108.6,648.5 1109.1,673.6 1123.8,756.6 1127.8,847.7 
	1101.4,965.2 1108.4,975.6 1154.2,969.7 1162.6,976.5 1168.9,1023.9 "/>
<path class="st0" d="M587.7,1413.2l-48.2,31.5l-17.7,29.9l-50.6,1.1l-62.7,12.9v-4.9l-5-40l15-41l8-21v-16l-12-18l-11-11l-18-44
	l-25-25l-15-22v-17c-3-31-10-38-10-38l-21-36v-32l35,6l4,17l14,45l6.5-0.8l5.5,23.8l14,15l-10,17h17l18,28l15,17l8,10l6.2,13.3
	l-0.3,1.1l-4,16.6v23l28,32l19,8h7l25-18l34-3l12.8-15.4l0.1,0.2l13.7,54.6H587.7z"/>
<path class="st0" d="M775,1418.2v12c0,0-26,27-30,37c-0.1,0.2-0.1,0.3-0.2,0.5c-3.7,10,0.2,25.5,0.2,25.5l-8,9l-19,21v10l-9,16
	l-21,11h-28l-28,13h-26l-11,29l-15,17.3l-36.4-13.8l-8.4-8.9l4.8-23.2l16.7-19.8l-5.7-22.6l6.5-10.2l-14.6-8.9l-0.2-9.7l-10.4-9.7
	l3.1-18.6l-13.7,0.3l17.7-29.9l48.2-31.5H629l48,20l26-8l11,2l17,5h15L775,1418.2z"/>
<polygon class="st0" points="453.5,1205.7 453.5,1289.7 451,1300.4 447.7,1314 441.5,1300.7 433.5,1290.7 418.5,1273.7 
	400.5,1245.7 383.5,1245.7 393.5,1228.7 379.5,1213.7 374,1189.9 426.5,1183.7 443.5,1190.7 "/>
<path class="st0" d="M407.5,985.7v43l-3.3,4.5l-14.7,19.5l-9.9,19h-11.1l-15-4v-29l-17-14l8-23v-15l-8-19l-10-17v-13
	c-1-18-6-27-6-27l-6-19l14-19l21-25l4.7-6.3l0.3,0.3l7,13l25,27l12-8.6l1,39.6l2,25l-8,13L407.5,985.7z"/>
<path class="st0" d="M336.5,1024.7l17,14v29h-7l-32,21l-25-25l-40.7-33.2l12.2-7.6l4.9-11l-3.6-42.8l-124.9-95l-20.1-50.8l-7.4-60
	l39.7-62.6l68,37.2l0,63.8l29,26l24,14h27l17-16l11-13l28.7,28.7l-4.7,6.3l-21,25l-14,19l6,19c0,0,5,9,6,27v13l10,17l8,19v15
	L336.5,1024.7z"/>
<polygon class="st0" points="661,1172.2 661,1186.2 647,1214.2 647,1236.2 632,1251.2 595,1266.2 552,1294 527.5,1293.7 
	507.5,1293.7 497.5,1283.7 488.5,1267.7 480.5,1267.7 471.5,1280.7 451,1300.4 453.5,1289.7 453.5,1205.7 443.5,1190.7 
	426.5,1183.7 367.5,1190.7 353.5,1145.7 349.5,1128.7 314.5,1122.7 314.5,1088.7 346.5,1067.7 353.5,1067.7 368.5,1071.7 
	401.5,1071.7 401.5,1085.7 426.5,1103.7 433.4,1105.9 445.5,1109.7 478.5,1114.7 519.5,1122.7 560.5,1122.7 593.5,1135.7 
	632.1,1135.7 630,1139.2 "/>
<polygon class="st0" points="985.5,897.7 985.5,930.7 980.5,967.7 962.5,999.7 956.5,1024.7 901.5,1024.7 849.5,1066.7 
	867.5,1089.7 888.5,1099.7 896.5,1130.7 877.5,1134.7 863.5,1135.3 855.5,1135.7 831.5,1150.7 811.5,1150.7 781.5,1137.7 
	748.5,1126.7 735.5,1105.7 709.5,1095.7 680.5,1110.7 647,1115.6 647,1026.2 661,1000.2 661,974.2 633,974.2 588,965.2 593.4,950.4 
	593.4,950.3 596,943.2 613,923.2 647,905.2 661,878.2 673.7,858.7 771.5,858.7 794.5,863.7 794.5,825.7 776.5,798.7 794.5,789.7 
	802.5,778.7 820.5,778.7 845.5,760.7 849.5,752.7 878.5,760.7 896.5,768.7 904.9,780.2 904.4,783.2 901.5,800.7 977.5,800.7 
	977.5,844.7 "/>
<polygon class="st0" points="957.8,624.4 911.5,698.7 911.5,740.7 904.9,780.2 896.5,768.7 878.5,760.7 849.5,752.7 845.5,760.7 
	820.5,778.7 802.5,778.7 794.5,789.7 776.5,798.7 794.5,825.7 794.5,863.7 771.5,858.7 673.7,858.7 674,858.2 668,845.2 686,793.2 
	695,775.2 685,751.2 679,733.2 679,686.2 686,686.2 686,668.2 670,630.7 668,626.2 721,557.2 703,509.2 764,438.2 820.8,398.4 
	820.8,398.4 830.3,415.4 937.2,567.4 952.8,627.3 "/>
<path class="st0" d="M426.5,1365.7v16l-8,21l-15,41l5,40v4.9l-0.2,0l-35,2.5l-19.4,6.4l-41.4,28.4l-19.3,3.7l16.7-34.1l21.1-18.7
	l-3.1-10.8l-63.6-46.1l-2.6-11l6.4-27.6l-6.1-16.4l-41.8-25.2l-20-33.8l-76.2-66.6l-8.9-24l-1.8-51.2l8.9-37l11.4-18.8l41-31.2
	l74.2-46.5l40.7,33.2l25,25v66l21,36c0,0,7,7,10,38v17l15,22l25,25l18,44l11,11L426.5,1365.7z"/>
<path class="st0" d="M439.5,680.7l-16,26h-38l-55-6l-4,23l-20,29h-44l-27-5l-18-9.8l-68-37.2l5.4-8.5l1.7-56l14.9-11.2l21.9,4.5
	l6.4-3l-11.4-36.1l-36.8-17.1l1.6-20.8l-7.3-13.4l17.8-8l98.6-84.9l9.2,21.4l20,36l30,8l32,50h20l6,13l8,26l20,27h9.1
	c-1,12.4-2.1,25-2.1,25L439.5,680.7z"/>
<path class="st0" d="M468.5,491.7l-10,45l-37,44c0,0-0.6,3.9-1.2,8.6c-0.8,5.8-1.8,12.8-1.8,14.4c0,1.4-0.9,12.7-1.9,24h-9.1l-20-27
	l-8-26l-6-13h-20l-32-50l-30-8l-20-36l-9.2-21.4l29.3-25.2l-2.7-40.6l38.6,17.2l29-7l29,7l27,8l33,12l-13,58L468.5,491.7z"/>
<path class="st0" d="M820.8,398.4L820.8,398.4l-115.3,0.3l-66-8h-46l-17,20v24l-22,29v35l-16,9l-10,24l-16,31l-14-16l-13,9v23l11,22
	h-59l-17.2-11.4c0.7-4.6,1.2-8.6,1.2-8.6l37-44l10-45l-36-16l13-58l-33-12l-27-8l-29-7l-29,7l-38.6-17.2l-1.9-28.7l12.4-45.9
	L303,253l18.9-0.3l6.9-9.7l33,0.2l1.8,11.4l10.7,8l18.5,4.6l25.3-2.5l12.2-0.6l9.8,19l10.4,1.1l12.2-5.9l8.9,2.4l6.7,6.2l14.2-2.9
	l17.9-1.4l11.4-17.3l15.6,3.8l6.4-6.4l19.6,8.3l36.2-11.3l32.9-20.2l23.7-2.5l30.9,20.8l81.6,5.5l1.1,64l21.7,32.2l15.5,13.8
	L820.8,398.4z"/>
<polygon class="st0" points="686,793.2 668,845.2 674,858.2 673.7,858.7 661,878.2 647,905.2 613,923.2 596,943.2 593.4,950.3 
	589.6,939.5 587.5,933.7 579.5,911.7 573.5,911.7 573.5,901.7 559.5,884.7 534.5,858.7 527.5,870.7 507.5,870.7 480.5,863.7 
	458.5,864.7 437.5,870.7 437.4,866.3 436.5,833.7 431.5,814.7 426.5,787.7 433.5,776.7 433.5,760.8 459.5,737.7 473.5,726.7 
	506.5,726.7 521.5,717.7 560.5,713.7 573.5,713.7 588.5,687.7 620.5,700.7 641.5,700.7 641.5,663.7 670,630.7 686,668.2 686,686.2 
	679,686.2 679,733.2 685,751.2 695,775.2 "/>
<path class="st0" d="M804.5,1378.7l22,29v10l-7,17h-9l-10,23v14.2l-55.7-4.2c0.1-0.2,0.1-0.4,0.2-0.5c4-10,30-37,30-37v-12l-29,14
	h-15l-17-5l-11-2l-26,8l-48-20h-46l-13.7-54.6l-0.1-0.2l-1.3-5.1v-32l-21-24l5-3.2l43-27.8l37-15l15-15v-17.8l36.5,10.3l37,24l20-7
	l27-7h15v28h21l6,34l9,21l5,24l14,9h-22L804.5,1378.7z"/>
<polygon class="st0" points="764,438.2 703,509.2 721,557.2 668,626.2 670,630.7 641.5,663.7 641.5,700.7 620.5,700.7 588.5,687.7 
	568.5,681.7 552.5,655.7 552.5,623.7 546.5,600.7 529.5,604.7 511.5,612.7 496.5,600.7 485.5,578.7 485.5,555.7 498.5,546.7 
	512.5,562.7 528.5,531.7 538.5,507.7 554.5,498.7 554.5,463.7 576.5,434.7 576.5,410.7 593.5,390.7 639.5,390.7 705.5,398.7 
	820.8,398.4 "/>
<polygon class="st0" points="863.5,1135.3 849.5,1190.7 840.5,1190.7 821.5,1207.7 804.5,1226.7 782.5,1241.6 782.5,1238.7 
	767.5,1238.7 740.5,1245.7 720.5,1252.7 683.5,1228.7 647,1218.4 647,1214.2 661,1186.2 661,1172.2 630,1139.2 632.1,1135.7 
	636,1129.2 647,1116.2 647,1115.6 680.5,1110.7 709.5,1095.7 735.5,1105.7 748.5,1126.7 781.5,1137.7 811.5,1150.7 831.5,1150.7 
	855.5,1135.7 "/>
<line class="st0" x1="841.3" y1="1657" x2="841.2" y2="1656.1"/>
<line class="st0" x1="744.8" y1="1467.7" x2="744.5" y2="1467.7"/>
<line class="st0" x1="248.8" y1="1030.5" x2="246.5" y2="1028.7"/>
<line class="st0" x1="408.5" y1="1488.7" x2="408.5" y2="1488.6"/>
<path class="st0" d="M588.5,687.7l-15,26h-13l-39,4l-15,9h-33l-14,11l-26,23.1v-12.1l-26-42h16l16-26l-25-28c0,0,1.1-12.6,2.1-25
	c1-11.3,1.9-22.6,1.9-24c0-1.7,0.9-8.6,1.8-14.4l17.2,11.4h59l15,12l18-8l17-4l6,23v32l16,26L588.5,687.7z"/>
<path class="st0" d="M647,1040.7v75.5l-11,13l-3.9,6.5h-38.6l-33-13h-41l-41-8l-33-5l-12.1-3.8l64.1-26.2c0,0,14-7,20-8s53-4,53-4
	l18-13l11-14H647z"/>
<polygon class="st0" points="437.4,866.3 407.5,866.7 398.5,873.1 386.5,881.7 361.5,854.7 354.5,841.7 325.5,812.7 297.5,791.7 
	297.5,752.7 306.5,752.7 326.5,723.7 330.5,700.7 385.5,706.7 407.5,706.7 433.5,748.7 433.5,776.7 426.5,787.7 431.5,814.7 
	436.5,833.7 "/>
<path class="st0" d="M661,974.2v26l-14,26v14.5h-47.5l-11,14l-18,13c0,0-47,3-53,4s-20,8-20,8l-64.1,26.2l-6.9-2.2l-25-18v-14h-21.9
	l9.9-19l14.7-19.5l38.3-10.5l30-22l75-21h8v-19l18-6l10-11l6-4.2l3.9,10.9v0l-5.4,14.8l45,9H661z"/>
<polygon class="st0" points="589.6,939.5 583.5,943.7 573.5,954.7 555.5,960.7 555.5,979.7 547.5,979.7 472.5,1000.7 442.5,1022.7 
	404.2,1033.2 407.5,1028.7 407.5,985.7 393.5,950.7 401.5,937.7 399.5,912.7 398.5,873.1 407.5,866.7 437.4,866.3 437.5,870.7 
	458.5,864.7 480.5,863.7 507.5,870.7 527.5,870.7 534.5,858.7 559.5,884.7 573.5,901.7 573.5,911.7 579.5,911.7 587.5,933.7 "/>
<line class="st0" x1="355.5" y1="839.7" x2="354.2" y2="841.4"/>
<line class="st0" x1="353.5" y1="1069.7" x2="353.5" y2="1067.7"/>
<polygon class="st0" points="325.5,812.7 314.5,825.7 297.5,841.7 270.5,841.7 246.5,827.7 217.5,801.7 217.6,737.9 235.5,747.7 
	262.5,752.7 297.5,752.7 297.5,791.7 "/>
<line class="st0" x1="907.5" y1="783.7" x2="904.9" y2="780.2"/>
<line class="st0" x1="673.7" y1="858.7" x2="667.5" y2="858.7"/>
<line class="st0" x1="593.5" y1="936.7" x2="589.6" y2="939.5"/>
<line class="st0" x1="404.2" y1="1033.2" x2="398.5" y2="1034.7"/>
<line class="st0" x1="433.4" y1="1105.9" x2="426.5" y2="1108.7"/>
<polygon class="st0" points="569.3,1358.3 556.5,1373.7 522.5,1376.7 497.5,1394.7 490.5,1394.7 471.5,1386.7 443.5,1354.7 
	443.5,1331.7 447.5,1315.1 451,1300.4 471.5,1280.7 480.5,1267.7 488.5,1267.7 497.5,1283.7 507.5,1293.7 527.5,1293.7 552,1294 
	547,1297.2 568,1321.2 568,1353.2 "/>
<line class="st0" x1="448.5" y1="1315.7" x2="447.7" y2="1314"/>
<line class="st0" x1="374" y1="1189.9" x2="373.5" y2="1187.7"/>
</svg>
