<?xml version="1.0" encoding="utf-8"?>
<!-- Generator: Adobe Illustrator 22.0.1, SVG Export Plug-In . SVG Version: 6.00 Build 0)  -->
<svg version="1.1" id="Capa_1" xmlns="http://www.w3.org/2000/svg" xmlns:xlink="http://www.w3.org/1999/xlink" x="0px" y="0px"
	 viewBox="0 0 900 1200" style="enable-background:new 0 0 900 1200;" xml:space="preserve">
<style type="text/css">
	.st0{fill:#F4F4F4;stroke:#00AFBE;stroke-width:3;stroke-linecap:round;stroke-linejoin:round;}
</style>
<path class="st0" d="M428,1115.3l-3.2,2.7l-18-6l-17.3-1.7l-7.6-4.8l-0.5-4.9l3.6-9.3l-1.4-10.7l-13.1-12.5l-4.5-18.5l-7.7-11.1
	l-15.5-33.3l0.3-10.2l3.6-11.1l10.1-15.8l3.2-26.2l-1-2.3c1.6-0.3,9.4-1.6,13.1-1.6c4.1,0,20.6,2.1,20.6,2.1l2.1,12.4l14.4,4.1v12.4
	l4.1,18.6v14.4l-2.1,10.3v45.4l-6.2,8.3v6.2l-4.1,4.1L428,1115.3z"/>
<path class="st0" d="M503.5,998.6l-12.6,13.2l1,19.6l-6.5,9.2l-2.5,10.9l-12.8,8.3l-9.5,27.4l-28.9,0.4l-1.3,3l2.7,3.2l-3.3,5.8
	l0.7,13.7l-2.5,2.1l-26.9-38.9l4.1-4.1v-6.2l6.2-8.3v-45.4l2.1-10.3v-14.4l-4.1-18.6v-12.4l-14.4-4.1l-2.1-12.4
	c0,0-16.5-2.1-20.6-2.1c-3.7,0-11.5,1.3-13.1,1.6l-4.2-10l-10.6-15.5l-1.3-13.9l5.7-11.2l-2-14.6l5.3-13.9l31.9-15.9
	c0.1,0.3,0.1,0.4,0.1,0.4l0.7-0.9l18.6-21.8l8.1,2l2.1,4.1l18.6,4.1h8.3l10.3-4.1c-6.2,2,1.5,45.1,17.9,61.8l6.9,10.9l4.6,19.6
	l19.9,25.2l2.4,9.2l-0.1,18.5l4.4,15L503.5,998.6z"/>
<path class="st0" d="M364.3,848.7l0.5-3.4l-12.8-5.7l-16.7-0.2l-3.9-2.1l-0.7-4.3l2.9-17.8l5.2-11.9l3.6-2.9l13.3-3l3.2-5.8
	l-2.7-3.9l5,4l-1.1,9.7l11.7,8.8l-3.6,12.8l14-2.3c0,0-1.1,6.9-1.1,9.5c0,2.3,2.3,12.4,2.8,14.7l-31.9,15.9l0.1-0.2L364.3,848.7z"/>
<path class="st0" d="M455,771c0,0-20.8,10.3-22.8,10.3c-2.1,0-20.6,10.3-20.6,10.3l-4.1,12.4v4.1l-6.2,8.3l2.1,6.2l0.1,0l-18.6,21.8
	l-0.8,0.4c-0.5-2.2-2.7-12.3-2.8-14.7c-0.1-2.6,1.1-9.5,1.1-9.5l-14,2.3l3.6-12.8l-11.7-8.8l1.1-9.7l-5-4l0,0l-0.5-0.8l-16.5-10.6
	L336,771l-5-11.3l-6.5-27.9l-3.8-5.7l-35.2-15.5l-18.4-5l-0.7-4.4l6.3-5.1l-3.1-5.1l0.2-6.8l17.3-18.2l2.3-12.4l-6.4-1.4l-1.5,0.6
	l12.4-9.8l2.4-1.4l-2.4,7.6v10.3c0,0,0,6.2,2.1,10.3c2.1,4.1,10.3,6.2,10.3,6.2l16.5,4.1c0,0,8.3,4.1,14.4,6.2
	c6.2,2.1,24.8,4.1,31,4.1c6.2,0,16.5,0,16.5,0l12.4,8.3h24.8v-10.3c0,0,0-10.3,0-14.4c0-4.1,2.1-11.2,2.1-11.2
	c4.2,5.2,8.2,11.2,8.2,11.2l2.1,12.4v12.4c0,0,0,22.7,4.1,22.7c3.2,0,10-2.4,13-1.7c0.9,0.2,1.5,0.7,1.5,1.7
	c0,4.1-6.2,14.4-6.2,14.4h-8.2c0,0,10.3,22.7,14.4,31C453.4,768.2,454.2,769.6,455,771z"/>
<path class="st0" d="M383.9,844.8l0.8-0.4l-0.7,0.9C384,845.3,384,845.1,383.9,844.8z"/>
<path class="st0" d="M734.1,789.8l-7.4,16.5l-15.8,0.1l-12.3,6l-5,6.3l-6.6,0.5l-10.8,13.2l-5.6,3.2l-11-1.5l-16.1-12.4l-10.9-3.5
	l-5.1,0.3l-1.1,7.4l-8.2,3l-13.1-4.3l-14.6-40.1L549.8,771l-10.3,14.4l-5.1,3.8l-30,0.3l-7-4.4c0.3-0.5,0.5-1.1,0.8-1.8
	c4.1-10.3,8.3-22.7,8.3-22.7v-12.4l4.1-10.3v-16.5l26.8-18.6l-2.1-12.4h6.2l14.4,8.3h10.3l15.8,9.7c0,0,36.1,33,46.8,31.8
	s70.5,8.4,70.5,8.4l19,22.3l0,0l3.9,8.7l7.5,9.7L734.1,789.8z"/>
<path class="st0" d="M534.3,789.2l-3.2,2.4c0,0-8.3,6.2-8.3,8.3v20.6c0,2.1-2.1,8.3-2.1,8.3v10.3l2.1,4.1l-4.1,8.3V868l-4.1,6.2v2.3
	l-29.3,2.2l-14.9,5.8l-2.1,5.8l0.2,0.3c-16.4-16.7-24-59.8-17.9-61.8c6.2-2.1,12.4-33,12.4-39.2c0-1.9-0.6-4.1-1.6-6.3
	c0.5,0.1,13.9,2.3,13.9,4.3c0,2.1,12.4,2.1,12.4,2.1s5.4,3.6,9.5-4.4l7,4.4L534.3,789.2z"/>
<path class="st0" d="M605.2,824.6l-13.3-4.4l-13.3,13.8L559.3,867l-8.1,6.7l-36.5,2.8v-2.3l4.1-6.2v-16.5l4.1-8.3l-2.1-4.1v-10.3
	c0,0,2.1-6.2,2.1-8.3v-20.6c0-2.1,8.3-8.3,8.3-8.3l3.2-2.4l5.1-3.8l10.3-14.4l40.9,13.5L605.2,824.6z"/>
<path class="st0" d="M440.4,618.2l-22.7,8.3c0,0-1.4,0.8-3.3,2c0,0-2.9-6.1-2.9-8.2c0-2.1,6.2-12.4,6.2-12.4l-1.5-0.3v0l-0.5-8v-4.1
	l-10.3-8.3h8.3l8.3-4.1l4.1-2.1l9.8,8.4c-1.1,3.5-1,7.4,2.6,10.2C446.6,605.8,440.4,618.2,440.4,618.2z"/>
<path class="st0" d="M423.9,461.4v8.2c0,0-8.3,2.1-10.3,0c-2.1-2.1-6.2,0-6.2,0l-8.3-4.1l-4.1,6.2c0,0-6.2,12.4-2.1,18.6
	c4.1,6.2,6.2,10.3,6.2,10.3l2.1,10.3v14.4c0,0-10.3,6.2-12.4,8.2c-2.1,2.1-26.8,22.7-26.8,22.7h-10.3v4.1c0,0-16.5,2.1-18.6,6.2
	c-2.1,4.1-8.2,12.4-8.2,12.4s-6.2,8.3-6.2,10.3c0,2.1-4.1,14.4-4.1,14.4s-4.1,8.3-4.1,10.3c0,2.1-4.1,16.5-4.1,16.5l-2.1,6.2l-8,4.8
	l-2.4,1.4l-12.4,9.8l-21.1,8.9l-4.7-2l-2.4-4.2l6.5-7.1l9.8-22.9l20.1-68l-3.9-25.3l13.8-27.6l6.7-30.4l9.4-27.2l7.6-31.7l3.8-43.8
	l9.9-7.9l1.1-17.8l11.4-7.8c1.4,5,18.7,22.2,18.7,22.2l6.2,4.1l6.2,4.1l9.2,2.4c1.8,4.7,5.8,15.1,7.3,18.2c2.1,4.1,0,14.4,2.1,14.4
	c2.1,0,2.1,12.4,2.1,12.4s10.3,2.1,10.3,8.3s4.1,8.3,4.1,8.3v8.2l2.1,4.1l4.1,6.2L423.9,461.4z"/>
<path class="st0" d="M470.1,425.6v5l12.2,5.6l3.6,20.5l4.1,5.1l1.2,0.1l-27.2,23.6c-3.3-1.9-14.1-7.7-17.6-7.7
	c-4.1,0-22.7-8.3-22.7-8.3v-8.2l-2.1-10.3l-4.1-6.2l-2.1-4.1v-8.2c0,0-4.1-2.1-4.1-8.3s-10.3-8.3-10.3-8.3s0-12.4-2.1-12.4
	c-2.1,0,0-10.3-2.1-14.4c-1.6-3.2-5.5-13.5-7.3-18.2c-0.6-1.5-0.9-2.4-0.9-2.4L397,352c0,0-2.1-10.3,0-16.5c2.1-6.2,0-18.6,0-18.6
	s10.3-10.3,12.4-10.3c2.1,0,8.3-16.5,10.3-18.6c2.1-2.1,8.3-14.4,8.3-14.4l15.5-5.3l14.3,25.1l11.3,26l6.7,9l6.6,20.9l14.1,14.5
	l17.3,5.4l12.6,11.7l0.5,3.4l-30.3,26.9l-22.3,8.5L470.1,425.6z"/>
<path class="st0" d="M465,228.8l-5.2,14.5l-15.3,10.5l-3.1,10.7l2.1,3.7l-15.5,5.3c0,0-6.2,12.4-8.3,14.4
	c-2.1,2.1-8.3,18.6-10.3,18.6c-2.1,0-12.4,10.3-12.4,10.3s2.1,12.4,0,18.6c-2.1,6.2,0,16.5,0,16.5l-8.2,16.5c0,0,0.3,0.9,0.9,2.4
	l-9.2-2.4l-6.2-4.1l-6.2-4.1c0,0-17.3-17.1-18.7-22.2l4.5-3.1l2.3-12l-1.1-18.9l-2.9-6.9l-4.5-0.7L331,273.5l8.3-8.3v-4.1h8.2
	l6.2-8.3l14.4-12.4h8.3l12.4-6.2h10.3v4.1l8.3,4.1h12.4l6.2,2.1v-10.3l4.1-4.1l4.1-8.3l18.6,10.3L465,228.8z"/>
<polygon class="st0" points="466.9,135 466.5,150.4 473,157.8 476.1,175.2 473.3,205.3 465,228.8 452.8,232.3 434.2,221.9 
	430,230.2 425.9,234.3 425.9,244.6 419.7,242.6 407.3,242.6 399.1,238.5 399.1,234.3 388.8,234.3 376.4,240.5 368.1,240.5 
	353.7,252.9 347.5,261.2 339.2,261.2 339.2,265.3 331,273.5 347.7,296.4 313.4,290.8 281,276.7 277.5,266.3 280.9,262.5 
	290.4,260.1 292.6,257.9 291.3,253.9 282.3,247.9 276.3,232.2 271.5,235 268.6,233.6 258.2,223.2 251.5,226.4 248.1,225.2 
	233.2,200.1 236,192 234.4,181.4 237.9,177.4 242.1,178.7 243.5,176.9 249,157.5 248.9,144.5 258.2,140 259.9,133 267,127.1 
	266.4,121.3 274,111.9 281.6,114.6 299.1,110 302.2,100.7 309.8,97.4 339.7,102.4 356,113.7 361.9,112.8 377.8,106.6 389.7,93.8 
	404.5,86 408.8,86.2 416.3,92.5 418.5,101.2 415.8,111.2 428,122.3 430.3,128.7 440.5,125.2 451.3,124.8 460.6,107.7 471.9,103.2 
	475.9,92.7 484,89.1 482,98.6 486.7,96.9 479.6,119.6 "/>
<path class="st0" d="M715.5,764.5l2.9,6.5l-19-22.3c0,0-59.8-9.6-70.5-8.4c-3.6,0.4-10-3-17-7.7l-4.5-34.1l-10.8-28.7
	c0,0-6-21.5-7.2-28.7c-1.2-7.2,0-34.7,0-34.7l-19.8-68.3l47,9.4l2.4,20.5l22.8,34l13.1,35.4l35.6,72.6l-1.6,8.2l13.5-5.6l11.2,5.1
	l3.7,5.1l5.2,0.7l8.3-8.5l13-7.3l6.4,38.5l-33.8,15.8L715.5,764.5z"/>
<path class="st0" d="M612,732.5c-13.9-9.4-29.9-24-29.9-24l-15.8-9.7h-10.3l-14.4-8.3h-6.2l-8.3-24.8v-4.1h-8.3l-4.1,2.1l-8.3-6.2
	l-6.2-8.3h-4.1c0,0,0-10.3,0-18.6s2.1-12.4,2.1-12.4L494,612c0,0,0-8.3-2.1-14.4c-2.1-6.2-8.3-31-10.3-33
	c-2.1-2.1-24.6-7.2-24.6-7.2c1.9-2.7,3.4-4.7,3.9-5.2c2.1-2.1,8.3-26.8,8.3-26.8s4.1-12.4,4.1-14.4c0-2.1-2.1-14.4-2.1-14.4
	l-6.2-10.3c0,0-0.4-0.2-1-0.5l27.2-23.6l9.1,0.8l16-3.8l6.3,2.2l7.6,6.8l5.6,9l9.5,26.8l10.4,11.8l12.7,22.3l1.2,0.2l19.8,68.3
	c0,0-1.2,27.5,0,34.7c1.2,7.2,7.2,28.7,7.2,28.7l10.8,28.7L612,732.5z"/>
<line class="st0" x1="465.2" y1="228.7" x2="465" y2="228.8"/>
<line class="st0" x1="348.1" y1="296.9" x2="347.7" y2="296.4"/>
<path class="st0" d="M468.8,890.8c-0.1-0.1-0.2-0.2-0.2-0.2"/>
<path class="st0" d="M473.4,510.9c0,2.1-4.1,14.4-4.1,14.4s-6.2,24.8-8.3,26.8c-0.5,0.5-2,2.5-3.9,5.2c-6.1,8.4-16.7,23.7-16.7,23.7
	s-3.3,3.9-4.6,8.4l-9.8-8.4l-4.1,2.1l-8.3,4.1h-8.3l10.3,8.3v4.1l0.5,8l-10.9-1.8l-2.1,4.1l-2.1,6.2c0,0,0,2.1-4.1,6.2
	c-4.1,4.1-6.2,4.1-6.2,4.1s-3.5,2.7-6.6,5.1l2.4,9.4l-6.2,4.1l-4.1,6.2l4.1,16.5l2.1,6.2H395l8.3-4.1v-16.5l5.7-3.2
	c2.3,2.9,4.9,5.2,6.6,5.2s5.1,3.4,8.3,7.3c0,0-2.1,7.1-2.1,11.2c0,4.1,0,14.4,0,14.4v10.3H397l-12.4-8.3c0,0-10.3,0-16.5,0
	c-6.2,0-24.8-2.1-31-4.1c-6.2-2.1-14.4-6.2-14.4-6.2l-16.5-4.1c0,0-8.3-2.1-10.3-6.2c-2.1-4.1-2.1-10.3-2.1-10.3v-10.3l2.4-7.6
	l8-4.8l2.1-6.2c0,0,4.1-14.4,4.1-16.5c0-2.1,4.1-10.3,4.1-10.3s4.1-12.4,4.1-14.4c0-2.1,6.2-10.3,6.2-10.3s6.2-8.3,8.2-12.4
	c2.1-4.1,18.6-6.2,18.6-6.2v-4.1h10.3c0,0,24.8-20.6,26.8-22.7c2.1-2.1,12.4-8.2,12.4-8.2v-14.4l-2.1-10.3c0,0-2.1-4.1-6.2-10.3
	c-4.1-6.2,2.1-18.6,2.1-18.6l4.1-6.2l8.3,4.1c0,0,4.1-2.1,6.2,0c2.1,2.1,10.3,0,10.3,0s18.6,8.3,22.7,8.3c3.5,0,14.3,5.8,17.6,7.7
	c0.6,0.3,1,0.5,1,0.5l6.2,10.3C471.3,496.5,473.4,508.8,473.4,510.9z"/>
<line class="st0" x1="443.7" y1="268.2" x2="443.4" y2="268.3"/>
<path class="st0" d="M463.1,789.5c0,6.2-6.2,37.2-12.4,39.2l-10.3,4.1h-8.3l-18.6-4.1l-2.1-4.1l-8.1-2l-0.1,0l-2.1-6.2l6.2-8.3V804
	l4.1-12.4c0,0,18.6-10.3,20.6-10.3c2.1,0,22.8-10.3,22.8-10.3c2.4,4.3,5,8.4,6.6,12.2C462.5,785.5,463.1,787.6,463.1,789.5z"/>
<path class="st0" d="M349.4,338.1c-0.1-0.2-0.1-0.4-0.1-0.6"/>
<line class="st0" x1="389.9" y1="371" x2="389.7" y2="370.9"/>
<line class="st0" x1="281.5" y1="652.8" x2="281.2" y2="653"/>
<path class="st0" d="M403.2,638.9c0,2.4,2.7,7.4,5.7,11.3l-5.7,3.2v16.5L395,674h-12.4l-2.1-6.2l-4.1-16.5l4.1-6.2l6.2-4.1l-2.4-9.4
	c3-2.4,6.6-5.1,6.6-5.1s2.1,0,6.2-4.1c4.1-4.1,4.1-6.2,4.1-6.2l2.1-6.2l2.1-4.1l10.9,1.8v0l1.5,0.3c0,0-6.2,10.3-6.2,12.4
	c0,2.1,2.9,8.2,2.9,8.2C410.1,631.2,403.2,636,403.2,638.9z"/>
<path class="st0" d="M306.2,636.8l28.9,2.1l8.3-2.1l4.1-4.1c0,0,4.1,0,6.2-2.1c2.1-2.1,12.4-6.2,12.4-6.2l4.1,2.1l6.2,6.2
	c0,0,2.1,4.1,4.1,2.1c0.7-0.7,2.2-1.9,3.7-3.2"/>
<path class="st0" d="M498.2,618.2c0,0-2.1,4.1-2.1,12.4s0,18.6,0,18.6s-12.4,6.2-12.4,8.3c0,2.1-2.1,14.4,0,16.5
	c2.1,2.1,0,6.2,0,6.2l6.2,4.1l-6.2,10.3l-2.1,4.1l-16.5,4.1l-6.2-4.1c0,0,2.1,10.3,0,12.4c-2.1,2.1-7.7,8.6-7.7,8.6
	c-3-0.7-9.8,1.7-13,1.7c-4.1,0-4.1-22.7-4.1-22.7v-12.4l-2.1-12.4c0,0-4-6-8.2-11.2c-3.2-3.9-6.5-7.3-8.3-7.3s-4.3-2.3-6.6-5.2
	c-3.1-3.9-5.7-8.9-5.7-11.3c0-2.9,6.9-7.7,11.1-10.4c1.9-1.2,3.3-2,3.3-2l22.7-8.3c0,0,6.2-12.4-2.1-18.6c-3.6-2.7-3.7-6.6-2.6-10.2
	c1.4-4.5,4.6-8.4,4.6-8.4s10.6-15.4,16.7-23.7c0,0,22.5,5.2,24.6,7.2c2.1,2.1,8.3,26.8,10.3,33c2.1,6.2,2.1,14.4,2.1,14.4
	L498.2,618.2z"/>
<path class="st0" d="M537.4,702.9l-26.8,18.6v16.5l-4.1,10.3v12.4c0,0-4.1,12.4-8.3,22.7c-0.3,0.7-0.5,1.3-0.8,1.8
	c-4.1,8-9.5,4.4-9.5,4.4s-12.4,0-12.4-2.1c0-2-13.4-4.2-13.9-4.3c-1.6-3.8-4.2-8-6.6-12.2c-0.8-1.4-1.5-2.7-2.2-4.1
	c-4.1-8.3-14.4-31-14.4-31h8.2c0,0,6.2-10.3,6.2-14.4c0-1-0.6-1.5-1.5-1.7c0,0,5.6-6.6,7.7-8.6c2.1-2.1,0-12.4,0-12.4l6.2,4.1
	l16.5-4.1l2.1-4.1l6.2-10.3l-6.2-4.1c0,0,2.1-4.1,0-6.2c-2.1-2.1,0-14.4,0-16.5c0-2.1,12.4-8.3,12.4-8.3h4.1l6.2,8.3l8.3,6.2
	l4.1-2.1h8.3v4.1l8.3,24.8L537.4,702.9z"/>
<path class="st0" d="M461.5,783.2C461.5,783.2,461.5,783.2,461.5,783.2"/>
<line class="st0" x1="497.4" y1="785.1" x2="496.3" y2="784.4"/>
<line class="st0" x1="534.5" y1="789.2" x2="534.3" y2="789.2"/>
<line class="st0" x1="404.3" y1="821.5" x2="403.3" y2="822.6"/>
<line class="st0" x1="356.2" y1="787.6" x2="355.3" y2="786.8"/>
<line class="st0" x1="385.1" y1="844.2" x2="384.8" y2="844.4"/>
<line class="st0" x1="352.1" y1="860.7" x2="351.7" y2="860.9"/>
<path class="st0" d="M359.1,939.8c-0.2,0-0.3,0-0.3,0"/>
<line class="st0" x1="491.5" y1="461.8" x2="491.3" y2="461.9"/>
<line class="st0" x1="464.1" y1="485.6" x2="464" y2="485.7"/>
</svg>
