<?xml version="1.0" encoding="utf-8"?>
<!-- Generator: Adobe Illustrator 22.0.1, SVG Export Plug-In . SVG Version: 6.00 Build 0)  -->
<svg version="1.1" id="Capa_1" xmlns="http://www.w3.org/2000/svg" xmlns:xlink="http://www.w3.org/1999/xlink" x="0px" y="0px"
	 viewBox="0 0 1081.5 1502.8" style="enable-background:new 0 0 1081.5 1502.8;" xml:space="preserve">
<style type="text/css">
	.st0{fill:#F4F4F4;stroke:#00AFBE;stroke-width:3;stroke-linecap:round;stroke-linejoin:round;}
</style>
<path class="st0" d="M782.8,203.3l-2.2,47.4l-19,15.2l-11.4,15.2l-4.3,21.4l-22.3,5.2l-15.2,7.6l-64.6,7.6L621,338.1l-22.8,19
	l-19,7.6h-41.8l-68.4-7.6l-15.2,22.8h-26.6l-30.4,3.8v-15.2l15.2-19l15.2-15.2v-15.2l-0.4-14.8l4.2-4.2l22.8-11.4l3.8-15.2l22.8-19
	l7.6-7.6l7.6-15.2l41.8-22.8c0,0,7.6-11.4,7.6-15.2s0-22.8,0-22.8v-15.2l22.8-15.2l7.6-7.6l11.7-26.2h6.6l16.7-15.1l5.9-1.5
	l20.8,7.6l2.6,13l18.8,12.1l33.4,2.6l23.3,16.9l19.8,7.6l29.6-0.2l-3.9,27.8L771,188l7.8,3.1L782.8,203.3z"/>
<path class="st0" d="M587.1,106.7l-11.7,26.2l-7.6,7.6L545,155.7v15.2c0,0,0,19,0,22.8s-7.6,15.2-7.6,15.2l-41.8,22.8l-7.6,15.2
	l-7.6,7.6l-22.8,19l-3.8,15.2L431,300.1l-11.4,11.4l-22.8,3.8h-19l-15.2,19l-3.8,19l-26.6,7.6l-7.6,15.2l-19,9v-5.2h-17.9l6.5-57
	l11.4-26.6l11.4-19l11.4-22.8l3.8-15.2l34.2-34.2l11.4-15.2v-38l26.6-30.4h11.4l11.4-22.8l7.1-14.2l16.8,6.9l4.5-1.3l4.4-7.7
	l11.3,22.6l6.6,4l12.2-6.1l15.9,5.1l37.3-11.5l14.4,10.3H587.1z"/>
<path class="st0" d="M434.3,84.5l-7.1,14.2l-11.4,22.8h-11.4l-26.6,30.4v38l-11.4,15.2l-34.2,34.2l-1.5,5.9l-25.1,13.1
	c0,0-15.2,11.4-30.4,15.2s-3.8,3.8-7.6,15.2c-3.8,11.4-3.8,3.8-3.8,3.8h-15.2l-19,15.2l-11.8,7l-11-18.4l3.8-15.2l-15.2-7.6
	l-7.6-7.6h-11.4l-3.8-3.8v-19l-41.3-3.2l0.2-14.3l13.4-11.3l-7.3-49.5l-3-4.3l5.7-1.2l22.8-28.3l10.3-7.1l41.4-4.2l16.7,6l13.4-1.4
	l29.1,5.6l24.5-1.3l56.5-32.8L373,91l16.2,4.4l7.2-11.9l10.2-4.1l16.9,5.9l10.2-1.1L434.3,84.5z"/>
<path class="st0" d="M330.7,245.2l-2.3,9.3L317,277.3l-11.4,19l-11.4,26.6l-6.5,57h-4.9l-7.6,3.8h-11.4l-3.8,3.8l-11.4,3.8h-22.8
	L203,368.5v-41.8l11.4-8.6l3.8-2.8l-0.4-0.6l11.8-7l19-15.2h15.2c0,0,0,7.6,3.8-3.8c3.8-11.4-7.6-11.4,7.6-15.2s30.4-15.2,30.4-15.2
	L330.7,245.2z"/>
<polygon class="st0" points="218.2,315.3 214.4,318.2 203,326.7 203,368.5 191.6,395.1 180.2,379.9 180.2,360.9 168.8,357.1 
	168.8,334.3 132.8,334.5 133.6,324.7 120.8,305.9 122,282.2 114,262.4 116.4,254.3 131.2,245.1 131.2,239.9 172.6,243.1 
	172.6,262.1 176.4,265.9 187.8,265.9 195.4,273.5 210.6,281.1 206.8,296.3 "/>
<polygon class="st0" points="830.6,547.7 825.9,560.1 820.1,564.8 794.2,573 742.8,576 697.1,589.5 686.4,600.9 678.9,620 
	668.8,629.7 645.9,676.2 638.9,680.3 619.1,678.5 606.1,688.8 601,705 606.1,735.7 597.5,753.7 592.7,800.9 582.4,832.6 
	581.8,851.2 564,851.2 556.4,858.8 537.4,847.4 507,843.6 499.4,809.4 488,794.2 480.4,782.8 476.6,752.4 472.8,741 438.6,725.8 
	434.8,706.8 412,706.8 385.4,687.8 385.4,672.6 355,657.4 347.4,680.2 332.2,691.6 324.6,695.4 320.8,676.4 305.6,699.2 279,665 
	275.2,642.2 260,596.5 244.8,554.7 218.2,531.9 229.6,493.9 248.6,490.1 267.6,463.5 271.4,452.1 279,440.7 309.1,422.8 
	313.2,433.1 324.6,436.9 362.6,444.5 389.2,444.5 404.4,459.7 423.4,474.9 438.6,478.7 469,482.5 533.6,482.5 533.6,505.3 
	567.8,505.3 583,512.9 594.4,505.3 594.4,490.1 609.6,482.5 632.4,501.5 640,501.5 659,497.7 666.7,501.5 674.3,497.7 689.5,482.5 
	780.7,482.5 792.1,505.3 807.3,512.9 "/>
<polygon class="st0" points="214.4,516.7 210.6,531.9 201.7,555.2 198.2,553.4 164.9,562.7 109.7,566.2 77.8,559.1 61.4,550.4 
	77.4,487.9 61.4,450.7 66.2,388.4 87.8,362 132.6,336.6 132.8,334.5 168.8,334.3 168.8,357.1 180.2,360.9 180.2,379.9 191.6,395.1 
	192.2,393.6 187.8,421.7 180.2,444.5 176.4,459.7 195.4,482.5 "/>
<polygon class="st0" points="581.8,851.2 580.6,886 570,903.5 553.3,917.8 527.4,986.5 490.8,1041.4 454.2,1116 455.6,1144.7 
	462.6,1159 477.9,1168.7 479.8,1181.3 476.9,1189.3 445.8,1201.5 429.8,1220.9 414.8,1251.5 401.3,1260.2 364.1,1297.7 
	337.8,1309.8 318.9,1326.3 302.4,1328.7 288.8,1335.2 278.7,1346.6 275.6,1361.8 290.6,1377.2 308.9,1387.7 351.9,1401.9 
	359.3,1411.6 360.6,1423.4 272.2,1395.9 223.7,1369.3 217.2,1372.6 208.1,1367.1 208,1349.3 211.7,1338.9 209.9,1329.6 218.2,1312 
	229.1,1302 231.2,1297.1 228.2,1288.4 231.2,1282.4 241,1275.1 250.9,1260.5 261.1,1256 280.6,1254.5 303.6,1231.3 302.2,1216.9 
	286.7,1197.8 280,1182.9 283.4,1170.2 280.9,1151 289.6,1127.6 279,1113.2 279.7,1105.9 289.8,1096 309.4,1092.7 316.6,1085.6 
	320,1077 321.1,1055.8 336.7,1035.7 338.8,1025.8 326.4,1005.3 305,995.7 283.4,974.9 274.7,949.6 251.1,939.4 243.7,929.3 
	245.2,911.4 236.5,893.2 237.9,867.3 230.5,846.1 229.9,834.1 239.2,819.3 242.4,792.4 255,752.7 256.7,724.3 252.4,707.6 
	209.1,610.4 208.4,596.9 200.3,581 204.7,556.7 201.7,555.2 210.6,531.9 214.4,516.7 195.4,482.5 176.4,459.7 180.2,444.5 
	187.8,421.7 192.2,393.6 203,368.5 225.8,391.3 226.5,391.3 233.4,410.3 244.8,421.7 237.2,459.7 225.8,482.5 229.6,493.9 
	218.2,531.9 244.8,554.7 260,596.5 275.2,642.2 279,665 305.6,699.2 320.8,676.4 324.6,695.4 332.2,691.6 347.4,680.2 355,657.4 
	385.4,672.6 385.4,687.8 412,706.8 434.8,706.8 438.6,725.8 472.8,741 476.6,752.4 480.4,782.8 488,794.2 499.4,809.4 507,843.6 
	537.4,847.4 556.4,858.8 564,851.2 "/>
<polygon class="st0" points="1026.1,341.5 1005.4,377.4 993.2,386.3 958.7,396.5 942,405.6 927.8,425.8 909.6,434.3 894.4,446.1 
	871.1,474.7 862.6,506.3 840.1,522.9 830.6,547.7 807.3,512.9 792.1,505.3 780.7,482.5 710.8,482.5 716.1,459.7 723.7,452.1 
	712.3,433.1 712.3,421.7 700.9,383.7 700.9,360.9 738.9,338.1 746,302.5 750.3,281.1 761.7,265.9 780.7,250.7 782.8,203.3 
	785.8,212.3 828.6,211.9 838,206.4 851.1,211.8 872.2,210.7 889.5,204.3 900.1,205 914.2,198.7 921.1,199.6 931.6,212.5 
	943.3,266.8 950.5,267.7 967.6,258.8 979,259.9 986.9,275.2 984.1,298.9 986.3,308.1 1009.7,316.8 1019.2,324.7 "/>
<polygon class="st0" points="309.1,422.8 279,440.7 271.4,452.1 267.6,463.5 248.6,490.1 229.6,493.9 225.8,482.5 237.2,459.7 
	244.8,421.7 233.4,410.3 226.5,391.3 248.6,391.3 260,387.5 263.8,383.7 275.2,383.7 282.8,379.9 305.6,379.9 305.6,414.1 "/>
<line class="st0" x1="226.5" y1="391.3" x2="225.9" y2="389.6"/>
<line class="st0" x1="192.9" y1="389.6" x2="192.2" y2="393.6"/>
<line class="st0" x1="331.9" y1="244.6" x2="330.7" y2="245.2"/>
<line class="st0" x1="217.8" y1="314.7" x2="212.9" y2="317.6"/>
<line class="st0" x1="749.9" y1="301.6" x2="746" y2="302.5"/>
<line class="st0" x1="782.9" y1="202.6" x2="782.8" y2="203.3"/>
<polygon class="st0" points="700.9,360.9 700.9,383.7 712.3,421.7 712.3,433.1 723.7,452.1 716.1,459.7 710.8,482.5 689.5,482.5 
	674.3,497.7 666.7,501.5 659,497.7 640,501.5 632.4,501.5 609.6,482.5 594.4,490.1 594.4,505.3 583,512.9 567.8,505.3 533.6,505.3 
	533.6,482.5 469,482.5 438.6,478.7 423.4,474.9 404.4,459.7 389.2,444.5 362.6,444.5 324.6,436.9 313.2,433.1 309.1,422.8 
	305.6,414.1 305.6,385.1 324.6,376.1 332.2,360.9 358.8,353.3 362.6,334.3 377.8,315.3 396.8,315.3 419.6,311.5 426.9,304.3 
	427.2,319.1 427.2,334.3 412,349.5 396.8,368.5 396.8,383.7 427.2,379.9 453.8,379.9 469,357.1 537.4,364.7 579.2,364.7 
	598.2,357.1 621,338.1 643.8,322.9 708.5,315.3 723.7,307.7 746,302.5 738.9,338.1 "/>
</svg>
