<?xml version="1.0" encoding="utf-8"?>
<!-- Generator: Adobe Illustrator 22.0.1, SVG Export Plug-In . SVG Version: 6.00 Build 0)  -->
<svg version="1.1" id="Capa_1" xmlns="http://www.w3.org/2000/svg" xmlns:xlink="http://www.w3.org/1999/xlink" x="0px" y="0px"
	 viewBox="0 0 1335.6 1949.4" style="enable-background:new 0 0 1335.6 1949.4;" xml:space="preserve">
<style type="text/css">
	.st0{fill:#F4F4F4;stroke:#00AFBE;stroke-width:3;stroke-linecap:round;stroke-linejoin:round;}
</style>
<path class="st0" d="M784.9,442.9l-3.6,8l-63.1,39.5l-29.9,22.7l-8.4,13.7l-6.5,27l1.3,37.3l6.1,16.5h-33.4l-28,9l-19,13l-32.3,3.9
	l9.3-9.9l17-31l-20-47l-9-34l-10-35l-39-27l-24-8h-26l-21-29l-4-10l18-18l7.8-5.4h0l8.2-5.6h16l12-9l22-14l15-5l15-20v-63l-25-11
	l-14-42h-22l-13-21v-20.3l82.4-30l82.6-25v47.3l-9,12h-20v13l8,14v12l11,6c0,0,0,19,0,28s7,13,7,13l30,22.5l3,24l14.7,37.1
	l91.1,69.3L784.9,442.9z"/>
<path class="st0" d="M736.8,161.7l-4.6,2.2l-16-3.3l-10.9,8.1l-1.2,40.8l-32.8,51.9l2.4,19.7l-30-22.5c0,0-7-4-7-13s0-28,0-28l-11-6
	v-12l-8-14v-13h20l9-12v-47.3l50.9-15.4l5.3,9.8l-1.1,15.2l26.8,12.5L736.8,161.7z"/>
<polygon class="st0" points="555.5,262.7 555.5,325.7 540.5,345.7 525.5,350.7 503.5,364.7 491.5,373.7 475.5,373.7 467.3,379.3 
	467.3,379.3 439.5,379.7 418.5,379.7 418.5,372.7 411.5,356.7 411.5,328.7 406.5,263.7 394.5,263.7 389.5,237.7 389.5,195.7 
	384.5,183.7 377.5,154.7 377.5,132 423.1,128.3 478.7,169.4 481.5,168.4 481.5,188.7 494.5,209.7 516.5,209.7 530.5,251.7 "/>
<polygon class="st0" points="418.5,372.7 418.5,382.7 408.5,400.7 398.5,417.7 371.5,440.7 352.5,455.7 328.5,467.7 309.5,467.7 
	283.5,449.7 283.5,425.7 272.5,417.7 272.5,363.7 283.5,335.7 283.5,301.7 288.5,289.7 293.5,273.7 293.5,210.7 272.5,195.7 
	272.5,178.8 276.3,178.2 301.9,143.8 323.6,136.3 377.5,132 377.5,154.7 384.5,183.7 389.5,195.7 389.5,237.7 394.5,263.7 
	406.5,263.7 411.5,328.7 411.5,356.7 "/>
<polygon class="st0" points="293.5,210.7 293.5,273.7 288.5,289.7 283.5,301.7 283.5,335.7 272.5,363.7 272.5,417.7 283.5,425.7 
	283.5,449.7 273.5,456.7 273.5,477.7 246.5,490.7 219.5,506.7 202.5,520.7 173.5,533.7 151.5,533.7 128.7,543.7 129.3,538.6 
	121.5,523.3 110.1,522.1 92.9,531.1 85.7,530.2 74,475.9 79.8,473.2 81.4,463 68.5,438.8 69.2,423.6 77.3,406.1 91.6,399.3 
	95.5,387.6 106.9,372.5 109.7,356.3 101.9,336.9 102,328.4 108.6,317.5 138,286.2 135.6,256.8 146.3,236.1 144,212.3 155.2,187.7 
	174,188.8 211.8,205.7 218.9,192 218.9,176.9 262.2,180.5 272.5,178.8 272.5,195.7 "/>
<polygon class="st0" points="594.5,592.7 577.5,623.7 568.2,633.6 561.5,640.7 550.5,644.7 541.5,676.7 541.5,719.7 547.5,737.7 
	547.5,739.7 513.5,730.7 493.5,722.7 472.5,722.7 451.5,730.7 430.3,739.4 435.6,725.4 425.2,670.1 417.7,663.6 406.3,663.8 
	397.4,667.6 386.3,679.2 368.7,681.7 343.6,667.8 330.3,668.4 324.4,657.2 311.5,647.4 307.2,640 292.6,636.2 262.9,597 
	245.7,587.8 240.4,587.6 232.4,598.3 220.2,596.3 214.1,598.7 209.6,596.1 205.3,600.2 192,589.4 178.2,591.4 161.6,588.1 
	152.2,580.2 128.8,571.5 126.6,562.3 128.7,543.7 151.5,533.7 173.5,533.7 202.5,520.7 219.5,506.7 246.5,490.7 273.5,477.7 
	273.5,456.7 283.5,449.7 309.5,467.7 328.5,467.7 352.5,455.7 371.5,440.7 398.5,417.7 408.5,400.7 418.5,382.7 418.5,379.7 
	439.5,379.7 467.3,379.3 459.5,384.7 441.5,402.7 445.5,412.7 466.5,441.7 492.5,441.7 516.5,449.7 555.5,476.7 565.5,511.7 
	574.5,545.7 "/>
<polygon class="st0" points="832.4,782 819.3,793.6 819.3,793.6 803.5,801.7 796.5,806.7 796.5,836.4 784.5,832.7 761.5,808.7 
	723.5,821.7 723.5,831.7 710.5,838.7 682.5,848.7 581.5,848.7 555.5,871.7 574.5,810.7 578.5,802.7 547.5,762.7 547.5,737.7 
	541.5,719.7 541.5,676.7 550.5,644.7 561.5,640.7 568.2,633.6 600.5,629.7 619.5,616.7 647.5,607.7 680.9,607.7 681.3,608.7 
	736.9,657.3 751.5,681.9 782,700.3 786.5,712.3 781.8,732.4 783.7,740.5 830.1,774.2 "/>
<polygon class="st0" points="607.5,947.7 600.5,962.7 597.5,990.7 582.5,995.7 562.5,1005.7 542.5,1010.7 517.5,1010.7 
	489.5,1002.7 465.5,980.7 445.1,995.7 440.8,932.3 413.8,918 403.1,909 415.5,874.1 408.4,845.7 410.3,830.5 418.9,826.8 
	428.4,829.6 443.6,846.8 447.8,846.4 450.7,841.4 444.9,817 445.9,809.7 452.7,801 452.9,793.6 450.1,787.9 432,778 426.8,766.6 
	427.1,747.6 430.3,739.4 451.5,730.7 472.5,722.7 493.5,722.7 513.5,730.7 547.5,739.7 547.5,762.7 578.5,802.7 574.5,810.7 
	555.5,871.7 555.5,883.7 572.5,899.7 580.5,921.7 590.5,947.7 "/>
<polygon class="st0" points="682.5,1189.7 657.5,1204.7 629.1,1203.1 604.5,1201.7 533.5,1189.7 457.5,1189.7 431.2,1231.5 
	420.3,1222.2 416.2,1194 412,1186.8 398.4,1186.2 384.8,1192.6 378,1188 383.1,1134.4 389.1,1130.7 411.1,1136.4 424,1130.8 
	426,1115.5 420.7,1088.5 427.3,1079 443.5,1066.6 448.7,1048.9 445.1,995.7 445.1,995.7 465.5,980.7 489.5,1002.7 517.5,1010.7 
	542.5,1010.7 562.5,1005.7 582.5,995.7 597.5,990.7 596.5,1007.7 604.5,1031.7 612.5,1059.7 619.5,1073.7 631.5,1116.7 
	644.6,1135.4 "/>
<polygon class="st0" points="629.1,1203.1 619.5,1230.7 612.5,1274.7 574.5,1298.7 555.5,1312.7 521.5,1300.7 495.5,1299.7 
	489.5,1271.7 467.5,1273.7 445.5,1267.7 432.1,1259.8 434.5,1254 433.7,1233.6 431.2,1231.5 457.5,1189.7 533.5,1189.7 
	604.5,1201.7 "/>
<polygon class="st0" points="703.5,1327.7 682.5,1338.7 662.5,1343.7 620.5,1343.7 562.5,1357.7 528.5,1357.7 512.5,1378.7 
	477.5,1378.7 454.9,1385.1 453.4,1383 428.2,1371.8 419.3,1358.4 419.6,1347.7 428.9,1326.7 423.5,1280.1 432.1,1259.8 
	445.5,1267.7 467.5,1273.7 489.5,1271.7 495.5,1299.7 521.5,1300.7 555.5,1312.7 574.5,1298.7 612.5,1274.7 650.5,1302.7 
	667.5,1302.7 673.5,1312.7 "/>
<polygon class="st0" points="1267.1,1079.4 1263.4,1087.3 1230.2,1094.3 1218.5,1101.5 1211.9,1128.8 1180.5,1140.7 1180.5,1164.7 
	1135.5,1166.7 1117.5,1166.7 1097.5,1172.7 1092.5,1166.7 1092.5,1135.7 1080.5,1105.7 1080.5,1089.7 1088.5,1042.7 1105,1023.2 
	1123.5,1028.7 1186.5,1028.7 1202.5,1036.7 1240.5,1036.7 1258.8,1040.7 1258.8,1040.8 "/>
<polygon class="st0" points="1258.8,1040.7 1240.5,1036.7 1202.5,1036.7 1186.5,1028.7 1123.5,1028.7 1105,1023.2 1096.5,1020.7 
	1096.5,994.7 1074.5,979.7 1060.5,979.7 1060.5,955.7 1062.8,945.9 1063.9,948.3 1075.3,954.5 1124.5,942.1 1214.3,909.3 
	1233.4,907.4 1251.5,910.4 1242.1,925.8 1244,944.3 1237.1,969.2 1248.6,993.7 "/>
<path class="st0" d="M1265.1,1285.8l-3.5,12.7l-12.9,22.2l-13.4,47.8l-7.6,5.4l-12.7,2l-3.5,5.9l6,9l14.1,9.4l12.5,27.6l-11.6,45.2
	l-14.8,35.8l13.6,39.8h-15.8l-26,9l-11,15h-14l-17-26l-18,10h-37l-12-54l-13-11h-15l-8,5l-24-15l-24-6l-16,1l-19-9h-72l-21,7l-30,7
	v17c0,0-12,15-14,21s-14,0-14,0l-7-7h-25l-13.8,12.9l-2.1,0.4l-3.4,8.4l-7.9-1.7l-3.9,8.6l-7.6-7.8l-28.6,7.5l-6.1-9.9l-8.1-2.6
	l8.1-4.3l-3.6-3.2l-16.4-1.5l-9.6-6.1v-25.6l12-10v-6l16-24l6-15l26-13v-12l-8-27v-20l-12-17l-14-14.9l2-1.1l-30-15l-6-10h-17
	l-38-28l7-44l9.6-27.6l28.4,1.6l25-15l-37.9-54.3l42.9-45.7v-11l14-25l16-28l15-18l19-19l27-20v-22h18v-25l22-27v-15l-8-39l-14-4.3
	v-29.7l7-5l15.8-8.1l-2.3,2l-12.2,24.9l14.1-2.7l30.2-20.7l14.2-4.7l25.6-1.8l45.9-9.4l46.9-1l-2.3,13.6l7.6,7.1l0.2,7l10.7,6.5
	l-4.7,7.4l4.1,16.5L985,852.7l-3.5,16.9l6.1,6.5l52.2,19.7l23,50.1l-2.3,9.8v24h14l22,15v26l8.4,2.5l-16.4,19.5l-8,47v16l12,30v31
	l5,6l20-6h18l45-2v-24l31.4-11.9l-8.1,33.8l-2.4,38.4l7.2,39l14.2,26.1l22.5,9.9l7.5,7.1L1265.1,1285.8z"/>
<polygon class="st0" points="735.5,1407.7 735.5,1419.7 709.5,1432.7 703.5,1447.7 687.5,1471.7 687.5,1477.7 675.5,1487.7 
	675.5,1513.3 675.4,1513.2 672.6,1523.2 665.4,1518.6 660.2,1537.4 656.6,1537.7 650.3,1531.3 643.3,1534.2 629.6,1585.5 
	630.3,1603.4 655.3,1638.4 654,1645 631.9,1652.7 605.1,1655.4 591.1,1662.1 579.4,1659.7 573.8,1653.6 570.9,1644.9 573.8,1608.4 
	564,1593.8 563.7,1587.1 585,1562.2 626.2,1543.3 632.6,1532.7 626.8,1504.7 612.5,1475.7 615.3,1451.8 609.6,1449.7 567.7,1454.8 
	545.9,1449.7 497.2,1451 487.4,1447.2 487,1420.7 482.1,1409.3 473.8,1407.5 468.5,1396.6 461.6,1394.3 454.9,1385.1 477.5,1378.7 
	512.5,1378.7 528.5,1357.7 562.5,1357.7 620.5,1343.7 662.5,1343.7 682.5,1338.7 701.5,1328.7 715.5,1343.7 727.5,1360.7 
	727.5,1380.7 "/>
<path class="st0" d="M1238.6,1660.7l-7.5,5.9l-74.3-7.8l-13.5,2.9l-22.3,47.2l-19.5,58.4l-8.5,71.9l-0.9,2.7l-48-3.3l-11.8,2
	l0.6,7.4l-5.9,3.6l-26.3-40.7l-58.5-75.6l-15.6-35.5l-88.8-10.8l-29.3,17.4l-11.1-2.7l-10.7-9.6l-4.9-10.1l1.2-11.9l5.2-9.5
	l36.9-31.8l1.4-5.2l-13.4-22.4l-16.1-10.9l-9.5-10.9l-10-2l-12.9,5.9l-3.9-2.8l14.6-45.6l-8.1-11.7l-2.5,0.4l13.8-12.9h25l7,7
	c0,0,12,6,14,0s14-21,14-21v-17l30-7l21-7h72l19,9l16-1l24,6l24,15l8-5h15l13,11l12,54h37l18-10l17,26h14l11-15l26-9h15.8l0.1,0.2
	l2.4,6.9L1238.6,1660.7z"/>
<line class="st0" x1="796.5" y1="838.7" x2="796.5" y2="836.4"/>
<line class="st0" x1="824.1" y1="791.1" x2="819.3" y2="793.6"/>
<polygon class="st0" points="818.5,879.7 818.5,894.7 796.5,921.7 796.5,946.7 778.5,946.7 778.5,968.7 751.5,988.7 732.5,1007.7 
	717.5,1025.7 701.5,1053.7 687.5,1078.7 687.5,1089.7 644.6,1135.4 631.5,1116.7 619.5,1073.7 612.5,1059.7 604.5,1031.7 
	596.5,1007.7 597.5,990.7 600.5,962.7 607.5,947.7 590.5,947.7 580.5,921.7 572.5,899.7 555.5,883.7 555.5,871.7 581.5,848.7 
	682.5,848.7 710.5,838.7 723.5,831.7 723.5,821.7 761.5,808.7 784.5,832.7 796.5,836.4 810.5,840.7 "/>
<line class="st0" x1="445.1" y1="995.7" x2="445.1" y2="995.7"/>
<line class="st0" x1="701.5" y1="1328.7" x2="700.5" y2="1327.7"/>
<line class="st0" x1="675.5" y1="1516.7" x2="675.5" y2="1513.3"/>
<line class="st0" x1="764.8" y1="1525.6" x2="762.5" y2="1527.7"/>
<line class="st0" x1="682.5" y1="607.7" x2="680.9" y2="607.7"/>
<line class="st0" x1="675.2" y1="282.4" x2="673.6" y2="281.2"/>
<line class="st0" x1="272.5" y1="178.8" x2="272.5" y2="178.7"/>
<line class="st0" x1="430.3" y1="739.4" x2="430" y2="739.5"/>
</svg>
