<?xml version="1.0" encoding="utf-8"?>
<!-- Generator: Adobe Illustrator 22.0.1, SVG Export Plug-In . SVG Version: 6.00 Build 0)  -->
<svg version="1.1" id="Capa_1" xmlns="http://www.w3.org/2000/svg" xmlns:xlink="http://www.w3.org/1999/xlink" x="0px" y="0px"
	 viewBox="0 0 900 1200" style="enable-background:new 0 0 900 1200;" xml:space="preserve">
<style type="text/css">
	.st0{fill:#F4F4F4;stroke:#00AFBE;stroke-width:3;stroke-linecap:round;stroke-linejoin:round;}
	.st1{fill:none;stroke:#00AFBE;stroke-width:3;stroke-linecap:round;stroke-linejoin:round;}
</style>
<path class="st0" d="M814.1,298.2l-6.7,7.9l2,11.8l-3.4,7.6l-0.6,10.8l-6.1,12.3l-7.7,8.3l-0.8,14.8l2.3,5.6l-2.6,3.1l0.9,5.7
	l-9.8,13.5l-22.9,13.9l-10.4-4.8l-4.5,1.9l-5.8-1.4l-10.7,7.9l-10.5-1.5l-4.7,3c-6.8,0.4-13.2,0.6-13.2,0.6s-13.5,29.1-13.5,30.1
	c0,1-2.1-2.1-2.1,4.1s23.9,10.4-1,7.3c-24.9-3.1-30.1-6.2-30.1-6.2s-3.1-1-3.1,0c0,1-4.1,3.1-4.1,3.1l-8.3-1l-12.5-7.3l1-17.7
	l-1-12.5l-6.2,6.2h-5.2l-10.4,2.1c0,0-2.1,5.2-2.1,6.2s-3.1,3.1-3.1,3.1l-4.1-3.1l-3.1-5.2l-2.1,4.2h-31.2V443l7.3,4.2l-0.2,0.7
	l-0.9,3.5l-10.4,4.2l-15.6,6.2l-7.3,2.1l-4.2,5.2l-6.2,4.2l10.4,3.1l-10.4,23.9l-4.2,8.3l-2.1,7.3v3.1l-6.6,9.8h0l-2.3,1.9l-0.8-0.9
	l-5.9-6.7v-9.4l-15.6,2.1c0,0-7.3-1-8.3-1c-1,0-6.2-1-9.3-1c-3.1,0-10.4-2.1-10.4-2.1l-3.1-3.1L436.1,498l-13.5,2.1l-9.6-0.9
	l-1.9-0.2v-7.3l-2.1-8.3v-27l4.1-12.5l-3.1-17.1l0.4-1.8l5.9-4.7l0.3-5.2l-5.7-2.7l0,3.9l-2.3,2.1l-16.5-42.2L373,350l-5.3-16.4
	l6.9,4.9l2.6-2l3-7.5l-3-10l-8.4-8.1l-7.5-2l0.3-4.9l-3.1-1.2l-3.8-7.4l-4.8-2.1l-20.2-0.4l-7.3-2.6l-9.7,8.5l-4.7,0.5l-0.9-2.6
	l1.3-23.9l6.2-18.4l7.1-3.2l11.2,0.8l4-3.6l0.6-10.6l11.4-2.4l-2.3-9L329.9,212l2.1-6.9l-6.7-30.3l1.8-24l6.8-13.5l49.4-1.6
	l-2.3,6.4l15.4,25.5l-6.5,18.4l12,3.8l2.7-3.4l8.6,0.3l9.4-13.2l37.4-33.6l7.1-0.1l8.8-5.1l10.1-10.6l10.6,5.4l10,1.4l11.6,6.5
	l12.2,3.2l1.2,7.3l7.6,4.1l9.5-1.3l20.5-16.1l10.7-13.7l5.8-3.4l3-12l5.4-8.3l10.1-2.1l4.2-4.8l5.7,4.8l-1.5,29.2l7.4-4l4.5,0.9
	l21.5,16.9l7.2,1.8l8.1-4.3l4.9,2.3l62.4,66.8l19.1,30.1l59.7,43.2l7.6,7.2l1.7,5.1L814.1,298.2z"/>
<path class="st0" d="M575.8,606.3l-1,3.5l5.7,4.2l3.4,9.6l1.1,14.9l-4.8,6.8l-13.2,4.4l0.5,8.1l-8.8,6.2l-3.2,7.2l-3.7,2.8l-17-16
	l-8.3,9.3l-9.3,1l-7.3-3.1l-10.4,26l-23.9-3.1h-55.1l-8.3,11.4l-9.3-17.7l-22.9,6.2l4.2-8.3L363.4,657l11.4-21.8v-59.2L325,588.4
	l6.2,15.6l-0.5,0.1l-32.7,5.1v-29.1l7.3-11.4V552l14,4.7l5.2-3.1l7.3-5.2L339,538l10.4-2.1c0,0,7.3-6.2,9.4-7.3
	c2.1-1,3.1-5.2,3.1-5.2l4.2-1l12.5,11.4l11.4-8.3l8.3-6.2l3.1-3.1l7.3-5.2l4.5-11.8l9.6,0.9l13.5-2.1l14.5,10.4l3.1,3.1
	c0,0,7.3,2.1,10.4,2.1c3.1,0,8.3,1,9.3,1c1,0,8.3,1,8.3,1l15.6-2.1v9.4l5.9,6.7l-10.1,9.9h18.7l5.2,5.2l14.5,8.3l-5.2,5.2v5.2
	l2.1,10.4h31.2l7.3-5.2c0,0,7.3-3.1,10.4-3.1c3.1,0,0,2.1,0,2.1l9.5,22.8l-0.7,0.1l-4.2,9.9L575.8,606.3z"/>
<path class="st0" d="M644.5,533.7l-0.2,0l-5.3,8.7l-0.3,11.7l-6.6,2.6l-0.7,6.8l-26.8,23.9l-17.7,3.1l-9.5-22.8c0,0,3.1-2.1,0-2.1
	c-3.1,0-10.4,3.1-10.4,3.1l-7.3,5.2h-31.2l-2.1-10.4v-5.2l5.2-5.2l-14.5-8.3l-5.2-5.2h-18.7l10.1-9.9l0.8,0.9l0.6,0.7l1.7-2.6h0
	l6.6-9.8v-3.1l2.1-7.3l4.2-8.3l10.4-23.9l-10.4-3.1l6.2-4.2l4.2-5.2l7.3-2.1l15.6-6.2l10.4-4.2l0.9-3.5l11.6,9.7v15.6l-1,11.4V497
	h28l21.8,6.2l19.7,7.3L644.5,533.7z"/>
<path class="st0" d="M713.9,473.4l5.7,18l-4,25.2l-12.8,9.2l-15.3-0.6l-4.9,4.8l-8.4,2l-7.7-1.2l-22.1,2.8l-0.6-23.2l-19.7-7.3
	l-21.8-6.2h-28v-12.5l1-11.4v-15.6l-11.6-9.7l0.2-0.7l-7.3-4.2v-10.4h31.2l2.1-4.2l3.1,5.2l4.1,3.1c0,0,3.1-2.1,3.1-3.1
	s2.1-6.2,2.1-6.2l10.4-2.1h5.2l6.2-6.2l1,12.5l-1,17.7l12.5,7.3l8.3,1c0,0,4.1-2.1,4.1-3.1c0-1,3.1,0,3.1,0s5.2,3.1,30.1,6.2
	c24.9,3.1,1-1,1-7.3s2.1-3.1,2.1-4.1c0-1,13.5-30.1,13.5-30.1s6.4-0.2,13.2-0.6l-2.6,1.7l-0.6,8.1l3.8,6.7l0.2,6.6l6.2,7.7l1.5,5.3
	L713.9,473.4z"/>
<polygon class="st0" points="504.7,531.3 504.1,530.6 506.4,528.6 "/>
<path class="st0" d="M603.8,865.3l-5.7,5.3l-14.1,3.2l-29.1,25.6l-14,1.5l-3.1,5.9l-6.4,0.9l-5,11.6l-2,1.2l-4.6-2.4l-5.2,5.5
	l-1.8,8.7l-6.6,8.8l3.4,8.8l-6.1,10.2l11.3,34.8l2.7,23l-3.7,4.5l6.9,21.3l-5.4,18.1l1.7,4.8l-3,1.9l1.8,6.3l-2.7,9.1l-6.3,4.8
	l-7.5,2.2l-15.1-17.5l-11.4-9.4v-6.2h-12.5l-9.4-11.4l-7.3-2.1l-11.4-1l10.4-17.7l-3.1-17.7L447,993l1-11.4l1-13.5l6.2-20.8
	l3.1-12.5l-6.2-8.3l-16.6-15.6l-6.2,28l-10.4,9.3l-20.8-1l-14,5.7l5.2-53l8.3-28l24.9-37.4h14.5l6.2-4.1l8.3-5.2l17.7-18.7
	l15.6-11.4h14.5c0,0,7.3,5.2,7.3,0c0-5.2,6.2-14.5,6.2-14.5l12.5,5.2l19.7,11.4v8.3l6.2,6.2l9.3-2.1l9.3-6.2l5.2,5.2l25,3.8
	l-4.4,10.2l3.8,11.5l-1.4,12.6l5.4,9.9L603.8,865.3z"/>
<path class="st0" d="M618.2,794.6l-5.5,4l-2.2,6.6l-7.2,0.4l-3,7l-25-3.8l-5.2-5.2l-9.3,6.2l-9.3,2.1l-6.2-6.2v-8.3l-19.7-11.4
	l-12.5-5.2c0,0-6.2,9.3-6.2,14.5c0,5.2-7.3,0-7.3,0h-14.5l-15.6,11.4l-17.7,18.7l-8.3,5.2l-6.2,4.1h-14.5L397.7,872l-8.3,28l-5.2,53
	l14-5.7l20.8,1l10.4-9.3l6.2-28l16.6,15.6l6.2,8.3l-3.1,12.5l-6.2,20.8l-1,13.5l-1,11.4l-7.3,14.5l3.1,17.7l-10.4,17.7l11.4,1
	l7.3,2.1l9.4,11.4H473v6.2l11.4,9.4l15.1,17.5l-0.3,0.1l-9.3,9.5l6,15.5l7.3,6.5l0.9,17.7l-21-8.2l-11.7,0.5l-7.9,4.2l-9.5-1.9
	l-11.8,2.3l-11.5-3l-13.3-10.4l-9.2-3.6l-20.4-13.2l2.1-13.7l-1.4-8l-12.3-11.6l-9.5-5.6l-6.4-0.1l-3.2-4.1l1.7-4.2l6.2-2l0.4-2.9
	l-7.6-0.4l-14.4-6.1h-10l-14,8.1L296,1062l-3.4,26.3l-4.5,4.4l-11.7,5.6l-2.8,7.9l-5,3.2l-10.1-12.8l4-11.3l-4.2-8.8l-6.7-4.1
	l-17.8-4.7l-13.2,5.8l-5.3-4.4l2-6.7l29.9-26.4l1.4-4l-2.4-6.2l1.9-8.6l-1-3.7l-8.8-4.4l-2.8-0.1v-16.5l-8.3-26v-9.3l8.3-4.2
	l-8.3-3.1v-7.3l12.5-30.1v-6.8l3.6-4.2v-18.7l4.1-15.6l10.4-22.9l-8.3-6.2v-11.4l5.2-6.2v-7.3h-6.2v-11.4l-5.2-3.1v-7.3l4.1-21.8
	l3.1-2.1h5.2l4.2-6.2l-3.1-6.2l-1-14.5l-5.2-11.4l5.2-14.5l7.2-12l2.2-3.6l20.8-18.7c0,0,4.2-2.1,7.3-3.1c3.1-1,3.1-7.3,3.1-7.3
	s3.1-7.3,3.1-9.4c0-2.1,9.4-5.2,9.4-5.2l17.7-7.3V646l4.2-14.5v-27.5l0.5-0.1l-6.2-15.6l49.9-12.5v59.2L363.4,657l20.8,22.9
	l-4.2,8.3l22.9-6.2l9.3,17.7l8.3-11.4h55.1l23.9,3.1l10.4-26l7.3,3.1l9.3-1l8.3-9.3l17,16l-2.2,1.7l-1.5,8.6l3.3,14.4l-5.1,6.5
	l4,13.3l-2.4,17.3l3.7,4.7l13.3,1l12.8,8.7l20-3.4l17,4.2l2,2.4l-0.4,6l-7.6,14.7l1,2.9l7.9,5.4L618.2,794.6z"/>
<path class="st0" d="M330.7,604.1v27.5l-4.2,14.5v2.1l-17.7,7.3c0,0-9.4,3.1-9.4,5.2c0,2.1-3.1,9.4-3.1,9.4s0,6.2-3.1,7.3
	c-3.1,1-7.3,3.1-7.3,3.1L265.2,699l-2.2,3.6l-9.3-11.9l-2.1-8.3l-2.1-5.2l-6.2-30.1l-11.4,1l-5.2-4.2h-8.3l-5.2,7.3l-8.3,6.2v6.2
	l-11.4,7.3l7.3,9.3l-7.3,6.2l-7.3,11.4l-8.1-0.5h5.5l-22.9-21.8l4.2-22.8V632l-7.3-18.7v-15.6l6.2-19.7l-6.2-6.2l-10.4-8.3l-8.3-3.1
	v-7l53.4-47.6l-0.3-3.4l4.7-2.6l6,4.9l5.2,6.2v23.9l8.3,12.5l11.4,8.3l14.5,2.1l13.5,7.3h8.3l10.4-3.1l6.2-8.3l5.2-3.1l9.4-1
	l9.9,2.6v16.6l-7.3,11.4v29.1L330.7,604.1z"/>
<polygon class="st0" points="257.9,844.5 247.5,867.3 243.4,882.9 243.4,901.6 239.8,905.8 239.8,912.5 227.3,942.6 227.3,949.9 
	235.6,953 227.3,957.2 227.3,966.5 235.6,992.5 235.6,1009 206.7,1007.9 207.8,1002.8 202,988.1 206.5,982.7 205.2,975.4 
	207.8,968.2 202.7,964.1 209.9,958.3 210.4,954.3 204.9,956.2 199.6,955.1 195.2,959.8 190.8,958 181,961.4 170.3,952.3 
	156.9,948.2 151.1,948.2 146.5,952.7 141.7,951.6 129.9,955.2 108.2,946.8 99.2,948.1 93,954 82.7,948.7 91.1,946.6 108.4,920.9 
	110.2,913.8 109.2,901.6 118.6,885.4 122.4,859.9 145.8,827.8 148.3,797.5 145.7,790.5 141.1,785.8 111.1,770.1 108.2,766.1 
	102.9,740.7 94.8,741.4 89.9,736.1 77.2,735.6 76.1,730.3 85,732.2 86.8,722.8 77.2,717.4 73.8,704.8 78,695.1 71.2,686.1 
	87.3,652.4 90.8,635.9 107,594.1 119.9,570.4 139,553.4 139,560.3 147.3,563.5 157.7,571.8 163.9,578 157.7,597.7 157.7,613.3 
	165,632 165,652.8 160.8,675.6 183.7,697.5 163.9,697.5 163.9,728.6 168.1,736.9 168.1,743.2 157.7,748.4 165,748.4 165,768.1 
	188.9,775.4 193.3,778.4 212.2,778 223.7,781.1 233,785.2 239.2,789.4 243.4,791.5 243.4,798.8 248.6,801.9 248.6,813.3 
	254.8,813.3 254.8,820.6 249.6,826.8 249.6,838.2 "/>
<path class="st0" d="M411.2,499.1l1.9,0.2l-4.5,11.8l-7.3,5.2l-3.1,3.1l-8.3,6.2l-11.4,8.3L366,522.4l-4.2,1c0,0-1,4.2-3.1,5.2
	c-2.1,1-9.4,7.3-9.4,7.3L339,538l-7.3,10.4l-7.3,5.2l-5.2,3.1l-14-4.7v-18.7l-7.3-20.8V497l-8.9-17.8l4.7,0.7l39.9-4.6l32.1-16.8
	l23-6.8l12.6-6.7l5.5-4.8l3.2-13.4l3.1,17.1l-4.1,12.5v27l2.1,8.3V499.1z"/>
<polygon class="st0" points="305.2,533.3 305.2,552 295.3,549.4 286,550.5 280.8,553.6 274.6,561.9 264.2,565 255.9,565 
	242.4,557.8 227.8,555.7 216.4,547.4 208.1,534.9 208.1,511 202.9,504.8 196.8,499.8 236.2,478.3 246.6,475.7 259.3,475 
	289.1,479.2 289.1,479.2 297.9,497 297.9,512.6 "/>
<g id="ToJ3PG_1_">
	
		<image style="overflow:visible;" width="420" height="467" id="ToJ3PG" xlink:href="C19DC92BFFA0864C.jpg"  transform="matrix(2.2629 0 0 2.2629 -1791 48)">
	</image>
</g>
<polyline class="st0" points="193.3,778.4 202.4,784.7 202.4,793 206.5,806.5 209.6,826.3 209.6,838.8 209.6,847.1 216.9,857.4 
	220,875.1 233.5,879.3 239.8,879.3 239.8,890.7 239.8,905.8 "/>
<line class="st0" x1="552.4" y1="674.6" x2="551.7" y2="674"/>
<line class="st0" x1="410.1" y1="426.9" x2="409.1" y2="421.1"/>
<path class="st0" d="M712.1,418.5c7.4-0.4,15.4-0.9,15.9-1.5"/>
<line class="st0" x1="588.5" y1="594.5" x2="586.8" y2="590.5"/>
<line class="st0" x1="504.5" y1="528.5" x2="503.3" y2="529.7"/>
<line class="st0" x1="563.7" y1="447.8" x2="562.9" y2="447.1"/>
<line class="st0" x1="644.5" y1="534.5" x2="644.5" y2="533.7"/>
<line class="st0" x1="330.7" y1="604.1" x2="330.7" y2="603.5"/>
<polygon class="st0" points="256.9,755.1 260,761.4 255.9,767.6 250.7,767.6 247.5,769.7 243.4,791.5 239.2,789.4 233,785.2 
	223.7,781.1 212.2,778 193.3,778.4 188.9,775.4 165,768.1 165,748.4 157.7,748.4 168.1,743.2 168.1,736.9 163.9,728.6 163.9,697.5 
	178.1,697.5 186.3,698 193.5,686.6 200.8,680.3 193.5,671 205,663.7 205,657.5 213.3,651.2 218.5,644 226.8,644 232,648.1 
	243.4,647.1 249.6,677.2 251.7,682.4 253.8,690.7 263.1,702.6 255.9,714.6 250.7,729.1 255.9,740.6 "/>
<line class="st0" x1="600.5" y1="812.5" x2="600.3" y2="812.5"/>
<line class="st1" x1="499.5" y1="1090.5" x2="499.5" y2="1090.5"/>
</svg>
