<?xml version="1.0" encoding="utf-8"?>
<!-- Generator: Adobe Illustrator 22.0.1, SVG Export Plug-In . SVG Version: 6.00 Build 0)  -->
<svg version="1.1" id="Capa_1" xmlns="http://www.w3.org/2000/svg" xmlns:xlink="http://www.w3.org/1999/xlink" x="0px" y="0px"
	 viewBox="0 0 900 1200" style="enable-background:new 0 0 900 1200;" xml:space="preserve">
<style type="text/css">
	.st0{fill:#F4F4F4;stroke:#00AFBE;stroke-width:3;stroke-linecap:round;stroke-linejoin:round;}
</style>
<polygon class="st0" points="318.4,708.4 304.7,723.1 304.7,748.3 295.2,771.4 278.4,804 278.4,826 267.9,851.3 273.2,880.7 
	273.2,898.3 264.1,897 257.2,902.8 255.8,908.9 253,908.9 251.5,902.8 252.5,896.5 247.8,892.7 242.7,894.6 242.2,889.4 
	232.8,884.6 228.2,885.5 227.7,881.2 232.8,879.3 232.8,875 224.9,873.1 222.6,867.9 224.4,864.1 219.3,850.2 220.2,839.7 
	217,830.1 213.2,828.6 211.8,814.9 203,815.4 196.9,809.1 199.2,806.3 200.7,809.6 206.7,807.7 208.6,810.6 210.9,809.6 209,796.2 
	206.2,795.3 210.4,783.4 201.6,768.5 191.3,760.9 183.8,756.6 156.7,739.9 125,719.4 42.8,673 35.7,668.3 37.1,664.4 32.9,660.6 
	31.1,664.4 28.3,664.4 14.3,657.7 28.9,650.8 35.7,638.1 47.3,631.6 67.3,596.5 77.3,594.8 87.1,585.5 93.2,585 130.3,617.3 
	139,628.8 162.1,637.4 175.8,645.3 194.4,662.8 204.3,664 228.3,660.5 236.4,645.4 242.2,621.8 245.9,626.4 245.9,639 257.4,639 
	263.2,644.8 267.9,649.5 278.4,657.9 279.5,685.2 293.2,708.4 304.7,697.8 310,685.2 "/>
<polygon class="st0" points="735.8,685.1 734.2,698 721.8,713 704.3,723.8 695.5,738.1 680.9,755 675.9,769.9 670.3,805.5 
	665.4,814.8 630.7,847.7 603.6,882.7 570.6,908.3 556.1,902.2 526.2,895.5 519.2,890.8 506.5,889.1 506.5,875.4 517,856.5 
	517,838.6 522.9,829.3 524.3,827.1 545.3,808.2 560,800.8 560,778.8 577.9,755.6 585.2,744.1 601,744.1 608.4,715.7 621,715.7 
	640.9,690.5 645.4,686.9 651.5,682.1 681.9,682.1 699.8,669.5 734.3,669.5 "/>
<polygon class="st0" points="645.7,662.6 645.4,686.9 640.9,690.5 621,715.7 608.4,715.7 601,744.1 585.2,744.1 577.9,755.6 
	560,778.8 560,800.8 545.3,808.2 524.3,827.1 522.9,829.3 507,826.6 472.3,826.6 450.2,802.4 492.3,756.2 478.6,742.5 472.3,732 
	458.6,718.3 450.2,711 466,704.7 474.4,686.8 495.4,697.3 512.2,697.3 517.5,693.1 531.1,686.8 541.7,686.8 548,682.6 548,669 
	551.7,664.8 555.2,664.8 560.6,661.6 586.8,649 595.2,644.8 595.2,620.6 617.3,620.6 626.8,632.2 626.8,657.4 "/>
<polygon class="st0" points="551.7,664.8 548,669 548,682.6 541.7,686.8 531.1,686.8 517.5,693.1 512.2,697.3 495.4,697.3 
	474.4,686.8 466,704.7 450.2,711 458.6,718.3 472.3,732 478.6,742.5 492.3,756.2 450.2,802.4 472.3,826.6 507,826.6 522.9,829.3 
	517,838.6 517,856.5 506.5,875.4 506.5,889.1 496.8,887.9 469.2,883.1 440.3,885.5 438.9,882.7 435.1,882.2 418.3,891.3 
	414.5,891.3 412.7,888.4 393.1,891.3 353.4,889.8 324.9,885.1 313.2,888.9 297.8,890.3 293.1,898.9 288,893.7 280.5,900.4 
	282.4,904.6 281,908 275.4,908 276.3,900.8 274.5,898.4 273.2,898.3 273.2,880.7 267.9,851.3 278.4,826 278.4,804 295.2,771.4 
	304.7,748.3 304.7,723.1 318.4,708.4 310,685.2 304.7,697.8 293.2,708.4 279.5,685.2 278.4,657.9 267.9,649.5 263.2,644.8 
	263.2,637.4 276.9,628 276.9,616.4 286.3,608 286.3,597.5 298.9,592.2 318.9,605.9 341,616.4 349.4,624.8 349.4,634.3 362,624.8 
	369.3,644.8 369.3,669 381.9,669 380.9,686.8 373.5,708.9 388.2,723.6 381.9,734.1 381.9,762.5 396.6,745.7 403,723.6 427.1,701.5 
	427.1,669 431.3,664.8 436.6,649 443.3,638 447.6,638 464.4,649.5 471.8,635.9 471.8,625.3 472.3,624.8 492.3,624.8 522.7,635.3 
	542.7,635.3 542.7,664.8 "/>
<polygon class="st0" points="728.2,607.2 734.3,669.5 699.8,669.5 681.9,682.1 651.5,682.1 645.4,686.9 645.7,662.6 626.8,657.4 
	626.8,632.2 617.3,620.6 595.2,620.6 595.2,603.8 607.8,575.4 614.2,561.8 608.9,545 626.8,536.6 635.2,525 635.2,507.1 
	646.7,495.6 660.4,501.9 670.9,507.1 670.9,495.6 690.8,514.5 703,527.6 702.9,527.6 713.4,546.5 722.9,553.9 731.3,553.9 
	731.3,580.2 738.2,586.1 730.9,591.7 "/>
<polygon class="st0" points="722.9,515 722.9,522.4 713.4,522.4 703,527.6 690.8,514.5 670.9,495.6 670.9,507.1 660.4,501.9 
	646.7,495.6 635.2,507.1 635.2,525 626.8,536.6 608.9,545 597.3,536.6 586.8,531.3 567.9,531.3 562.7,536.6 524.8,536.6 
	514.3,542.9 507,546 478.6,551.3 471.2,566 482.8,578.6 477.5,578.6 479.7,592.2 486,612.2 472.3,624.8 471.8,625.3 471.8,635.9 
	464.4,649.5 447.6,638 430.8,638 427.6,625.3 435,610.6 435,598 443.4,586.5 438.2,566.5 431.8,566.5 418.7,562.5 418.2,562.3 
	419.5,559.8 431.8,536 431.8,485.6 439.2,471.9 439.2,452 450.8,445.7 465.5,426.8 471.8,418.4 471.8,399.4 490.7,388.9 
	490.7,364.8 506.5,371.1 545.3,371.4 529.3,385.6 527,393 533,398 547.7,391.5 567.5,396.8 575,401.3 579.7,411 575.2,423.6 
	586.4,437.9 591.9,434.3 595,425.5 608.1,419.3 613.1,414.4 616.8,385.1 642.8,378.3 658.4,369.2 669.5,369.2 685.5,376 
	693.9,376.4 693.5,379.7 686.7,381.9 684.8,386.6 688.4,391.2 695.6,391.3 706.1,397.5 718,408.7 702.9,437.3 713.4,453 
	702.9,467.7 702.9,483.5 713.4,493 "/>
<polygon class="st0" points="430.8,638 443.3,638 436.6,649 431.3,664.8 427.1,669 427.1,701.5 403,723.6 396.6,745.7 381.9,762.5 
	381.9,734.1 388.2,723.6 373.5,708.9 380.9,686.8 381.9,669 369.3,669 369.3,644.8 362,624.8 380.9,611.2 388.2,592.2 403,592.2 
	409.2,581.8 418.7,572.3 418.7,562.5 431.8,566.5 438.2,566.5 443.4,586.5 435,598 435,610.6 427.6,625.3 "/>
<polygon class="st0" points="564.2,351.7 562.6,356.1 545.3,371.4 506.5,371.1 490.7,364.8 490.7,388.9 471.8,399.4 471.8,418.4 
	465.5,426.8 450.8,445.7 439.2,452 439.2,469.7 426.1,473.5 412.4,479.8 424,493.5 422.1,507.4 398.8,514.5 387.2,525 381.9,528.2 
	381.9,577.5 385.4,587.1 374.6,600.7 362,603.8 362,624.8 349.4,634.3 349.4,624.8 341,616.4 318.9,605.9 298.9,592.2 298.9,583.8 
	307.3,579.6 307.3,554.4 311.5,537.6 307.3,525 312.2,520.8 314.7,518.7 341,518.7 341,479.8 347.3,473.5 347.3,454.6 349.3,423 
	351.5,427.3 362,412.6 374.6,412.6 394.5,400 394.5,387.4 418.7,384.2 429.2,392.6 435.5,392.6 447.1,364.2 458.6,364.2 467,355.8 
	472.3,347.4 472.3,336.9 516.4,315.9 517.2,315.2 518.8,319.2 517.5,324.9 552.8,326.3 562.6,331.2 563.7,335.3 561.5,344.8 "/>
<polygon class="st0" points="426.1,473.5 439.2,469.7 439.2,471.9 431.8,485.6 431.8,536 419.5,559.8 407.2,551.3 407.2,533.4 
	414.5,525 421.9,509.2 422.1,507.4 424,493.5 412.4,479.8 "/>
<polygon class="st0" points="307.3,525 311.5,537.6 307.3,554.4 307.3,579.6 298.9,583.8 298.9,592.2 286.3,597.5 286.3,608 
	276.9,616.4 276.9,628 263.2,637.4 263.2,644.8 257.4,639 245.9,639 245.9,626.4 242.2,621.8 248,598.2 257.3,580.8 257,563.9 
	270,533.9 272,508.1 272.9,507.3 302.1,520.8 312.2,520.8 "/>
<polygon class="st0" points="349.3,423 349.3,423 347.3,454.6 347.3,473.5 341,479.8 341,518.7 314.7,518.7 312.2,520.8 
	302.1,520.8 272.9,507.3 277,503.4 298.9,501.2 288.9,472.6 281.8,440.5 282,430.3 287.9,406.6 294.7,397.7 311.8,383.2 
	320.9,367.5 324.1,371.6 331.5,389.5 341,406.3 "/>
<polygon class="st0" points="374.6,412.6 362,412.6 351.5,427.3 349.3,423 349.3,423 341,406.3 331.5,389.5 324.1,371.6 
	320.9,367.5 320.9,367.5 328.7,354 327.1,346.9 314.4,324 312.5,316.3 342,320.1 342,336.9 348.3,356.9 348.3,364.2 356.7,372.6 
	359.9,382.1 370.4,400 "/>
<polygon class="st0" points="521,269.6 513,276.1 518.7,280.7 515.8,288.7 517.2,296.8 512.3,302.9 517.2,315.2 516.4,315.9 
	472.3,336.9 472.3,347.4 467,355.8 458.6,364.2 447.1,364.2 435.5,392.6 429.2,392.6 418.7,384.2 394.5,387.4 394.5,400 
	374.6,412.6 370.4,400 359.9,382.1 356.7,372.6 348.3,364.2 348.3,356.9 342,336.9 342,320.1 312.5,316.3 302.9,277 309,270.5 
	326.4,268.8 342.3,260.8 355.3,241.9 359.1,247.6 374.2,251.8 379.5,259 391,264.9 397.9,258.3 407.9,256.9 432,266.2 445.2,262.2 
	450.5,263.4 455.6,258.5 462,258.5 477,263 488.9,273.1 499.8,269.4 504.7,271.3 509.6,266.2 515.5,267.3 521.6,265.2 "/>
<polygon class="st0" points="876,499.1 867.3,518.2 854.8,520.8 852,530.6 847.9,535 841,533.7 837.8,529.3 827.3,531.9 
	817.5,540.6 812.3,552.3 801.3,556.8 795.8,575.5 748.1,582.1 739.3,585.2 738.2,586.1 731.3,580.2 731.3,553.9 722.9,553.9 
	713.4,546.5 702.9,527.6 703,527.6 713.4,522.4 722.9,522.4 722.9,515 713.4,493 702.9,483.5 702.9,467.7 713.4,453 702.9,437.3 
	718,408.7 719.8,410.5 721.4,419.3 719.1,434.6 741.8,449.3 752,453.3 766.8,464.9 779.7,468.2 792.8,465.7 803.4,467.8 
	812.2,463.2 825.3,462.6 848.6,471.7 863.1,478.5 871.2,479.4 874.8,483.6 "/>
<line class="st0" x1="273.2" y1="908" x2="273.2" y2="898.3"/>
<polygon class="st0" points="614.2,561.8 607.8,575.4 595.2,603.8 595.2,644.8 586.8,649 560.6,661.6 555.2,664.8 542.7,664.8 
	542.7,635.3 522.7,635.3 492.3,624.8 472.3,624.8 486,612.2 479.7,592.2 477.5,578.6 482.8,578.6 471.2,566 478.6,551.3 507,546 
	514.3,542.9 524.8,536.6 562.7,536.6 567.9,531.3 586.8,531.3 597.3,536.6 608.9,545 "/>
<line class="st0" x1="703.5" y1="528.2" x2="703" y2="527.6"/>
<line class="st0" x1="551.5" y1="371.5" x2="545.3" y2="371.4"/>
<line class="st0" x1="472.3" y1="624.8" x2="472.3" y2="624.8"/>
<line class="st0" x1="418.7" y1="562.5" x2="418.7" y2="561.8"/>
<line class="st0" x1="518.7" y1="309.6" x2="513.2" y2="315.2"/>
<polygon class="st0" points="387.9,593.1 380.9,611.2 362,624.8 362,603.8 374.6,600.7 385.4,587.1 "/>
<polygon class="st0" points="407.2,533.4 407.2,551.3 419.5,559.8 418.2,562.3 418.7,562.5 418.7,572.3 409.2,581.8 403,592.2 
	388.2,592.2 387.9,593.1 385.4,587.1 381.9,577.5 381.9,528.2 387.2,525 398.8,514.5 422.1,507.4 421.9,509.2 414.5,525 "/>
<line class="st0" x1="422.9" y1="507.1" x2="422.1" y2="507.4"/>
<line class="st0" x1="314.7" y1="520.8" x2="312.2" y2="520.8"/>
<line class="st0" x1="272.9" y1="507.3" x2="272.7" y2="507.1"/>
</svg>
