<?xml version="1.0" encoding="utf-8"?>
<!-- Generator: Adobe Illustrator 22.0.1, SVG Export Plug-In . SVG Version: 6.00 Build 0)  -->
<svg version="1.1" id="Capa_1" xmlns="http://www.w3.org/2000/svg" xmlns:xlink="http://www.w3.org/1999/xlink" x="0px" y="0px"
	 viewBox="0 0 1593.5 1274.7" style="enable-background:new 0 0 1593.5 1274.7;" xml:space="preserve">
<style type="text/css">
	.st0{fill:#F4F4F4;stroke:#00AFBE;stroke-width:3;stroke-linecap:round;stroke-linejoin:round;}
</style>
<line class="st0" x1="588.3" y1="163.2" x2="587.1" y2="163.8"/>
<line class="st0" x1="1039.3" y1="121.2" x2="1039.2" y2="121.9"/>
<polygon class="st0" points="799.8,1115.6 796.7,1117.2 796.2,1114.8 797.9,1112.3 799.1,1110.6 794.9,1107.1 794.9,1107.1 
	792.1,1104.7 785.1,1108.8 785.7,1113.6 781.6,1116.6 788,1120.7 790.3,1118.3 797.9,1121.3 800,1115.9 800.2,1115.4 "/>
<polygon class="st0" points="815.4,1082.6 817.7,1075.5 803.1,1074.3 794.4,1085.6 785.5,1086.4 780.4,1086.8 769.9,1076.7 
	767,1064.8 753,1052.9 732,1066 727.3,1062.4 724.9,1053.4 718.5,1051.6 716.8,1051.1 657.3,1061.2 652.7,1065.9 650.9,1079 
	663.7,1087.9 691.8,1094.5 707.5,1092.1 711,1089.1 715.6,1088.9 732,1088.5 758.2,1102.2 767.5,1102.8 775.1,1110.6 776.3,1107.6 
	770.4,1099.8 773.9,1095.7 789.2,1099.2 790.5,1098.7 804.9,1092.7 821.8,1092.1 "/>
<polygon class="st0" points="406.9,1027.2 405.3,1027.4 396.4,1028.4 395.8,1031.4 405.3,1034.2 405.7,1034.4 410.4,1031.4 "/>
<polygon class="st0" points="303.1,993.3 303.1,993.2 300.7,993.2 300.7,997.4 304.2,1002.2 304.2,1009.9 311.8,1014.1 
	316.5,1009.9 316.5,1000.4 "/>
<polygon class="st0" points="388.9,1004.6 370.8,1009.4 349.2,999.9 345.7,992 338.7,995.1 326.4,990.3 319.5,993.4 323,1000.5 
	338.7,999.3 348.1,1002.3 358.4,1020.8 368.5,1016 381.9,1015.4 397.6,1010 "/>
<polygon class="st0" points="380.1,986.7 376,987.9 371.4,996.2 376.6,998 379.5,995.1 381.9,990.8 "/>
<polygon class="st0" points="811.9,1057.6 811.9,1051.7 801.4,1039.2 781.6,1020.7 770.5,1015.3 767.6,1007.5 767.6,989.1 
	754.8,986.1 752.8,986.3 742.2,987.5 736.6,989.7 735.9,1000.2 738.5,1016.8 722.1,1043.9 722.7,1048.7 727.9,1054.6 732,1062.7 
	752.3,1050.1 769.9,1061.2 777.5,1079.6 782.9,1079.8 791.5,1080.2 795,1070.1 811.9,1067.1 816.6,1060.6 "/>
<polygon class="st0" points="488.1,983.7 478.7,986.1 478.2,989 482.8,993.8 491,990.3 "/>
<polygon class="st0" points="649.7,1032.6 614.7,996.9 610.3,983.8 609.5,981.4 599,976.6 583.9,989.1 585.4,992 596.7,1013.5 
	604.3,1016.5 603.7,1020 612.4,1027.8 621.2,1030.2 638.1,1046.9 643.3,1046.9 650.9,1037.4 "/>
<polygon class="st0" points="303.1,993.3 303.1,993.2 300.7,993.2 300.7,997.4 304.2,1002.2 304.2,1009.9 311.8,1014.1 
	316.5,1009.9 316.5,1000.4 "/>
<polygon class="st0" points="380.1,986.7 376,987.9 371.4,996.2 376.6,998 379.5,995.1 381.9,990.8 "/>
<polygon class="st0" points="388.9,1004.6 370.8,1009.4 349.2,999.9 345.7,992 338.7,995.1 326.4,990.3 319.5,993.4 323,1000.5 
	338.7,999.3 348.1,1002.3 358.4,1020.8 368.5,1016 381.9,1015.4 397.6,1010 "/>
<polygon class="st0" points="406.9,1027.2 405.3,1027.4 396.4,1028.4 395.8,1031.4 405.3,1034.2 405.7,1034.4 410.4,1031.4 "/>
<polygon class="st0" points="488.1,983.7 478.7,986.1 478.2,989 482.8,993.8 491,990.3 "/>
<polygon class="st0" points="609.5,981.4 599,976.6 583.9,989.1 585.4,992 590.5,988 608.5,983.8 610.3,983.8 "/>
<polygon class="st0" points="303.1,993.3 303.1,993.2 300.7,993.2 300.7,997.4 304.2,1002.2 304.2,1009.9 311.8,1014.1 
	316.5,1009.9 316.5,1000.4 "/>
<polygon class="st0" points="380.1,986.7 376,987.9 371.4,996.2 376.6,998 379.5,995.1 381.9,990.8 "/>
<polygon class="st0" points="388.9,1004.6 370.8,1009.4 349.2,999.9 345.7,992 338.7,995.1 326.4,990.3 319.5,993.4 323,1000.5 
	338.7,999.3 348.1,1002.3 358.4,1020.8 368.5,1016 381.9,1015.4 397.6,1010 "/>
<polygon class="st0" points="406.9,1027.2 405.3,1027.4 396.4,1028.4 395.8,1031.4 405.3,1034.2 405.7,1034.4 410.4,1031.4 "/>
<polygon class="st0" points="488.1,983.7 478.7,986.1 478.2,989 482.8,993.8 491,990.3 "/>
<polygon class="st0" points="609.5,981.4 599,976.6 583.9,989.1 585.4,992 590.5,988 608.5,983.8 610.3,983.8 "/>
<polygon class="st0" points="303.1,993.3 303.1,993.2 300.7,993.2 300.7,997.4 304.2,1002.2 304.2,1009.9 311.8,1014.1 
	316.5,1009.9 316.5,1000.4 "/>
<polygon class="st0" points="380.1,986.7 376,987.9 371.4,996.2 376.6,998 379.5,995.1 381.9,990.8 "/>
<polygon class="st0" points="388.9,1004.6 370.8,1009.4 349.2,999.9 345.7,992 338.7,995.1 326.4,990.3 319.5,993.4 323,1000.5 
	338.7,999.3 348.1,1002.3 358.4,1020.8 368.5,1016 381.9,1015.4 397.6,1010 "/>
<polygon class="st0" points="406.9,1027.2 405.3,1027.4 396.4,1028.4 395.8,1031.4 405.3,1034.2 405.7,1034.4 410.4,1031.4 "/>
<polygon class="st0" points="488.1,983.7 478.7,986.1 478.2,989 482.8,993.8 491,990.3 "/>
<polygon class="st0" points="609.5,981.4 599,976.6 583.9,989.1 585.4,992 590.5,988 608.5,983.8 610.3,983.8 "/>
<polygon class="st0" points="303.1,993.3 303.1,993.2 300.7,993.2 300.7,997.4 304.2,1002.2 304.2,1009.9 311.8,1014.1 
	316.5,1009.9 316.5,1000.4 "/>
<polygon class="st0" points="380.1,986.7 376,987.9 371.4,996.2 376.6,998 379.5,995.1 381.9,990.8 "/>
<polygon class="st0" points="388.9,1004.6 370.8,1009.4 349.2,999.9 345.7,992 338.7,995.1 326.4,990.3 319.5,993.4 323,1000.5 
	338.7,999.3 348.1,1002.3 358.4,1020.8 368.5,1016 381.9,1015.4 397.6,1010 "/>
<polygon class="st0" points="406.9,1027.2 405.3,1027.4 396.4,1028.4 395.8,1031.4 405.3,1034.2 405.7,1034.4 410.4,1031.4 "/>
<polygon class="st0" points="488.1,983.7 478.7,986.1 478.2,989 482.8,993.8 491,990.3 "/>
<polygon class="st0" points="609.5,981.4 599,976.6 583.9,989.1 585.4,992 590.5,988 608.5,983.8 610.3,983.8 "/>
<polygon class="st0" points="303.1,993.3 303.1,993.2 300.7,993.2 300.7,997.4 304.2,1002.2 304.2,1009.9 311.8,1014.1 
	316.5,1009.9 316.5,1000.4 "/>
<polygon class="st0" points="380.1,986.7 376,987.9 371.4,996.2 376.6,998 379.5,995.1 381.9,990.8 "/>
<polygon class="st0" points="388.9,1004.6 370.8,1009.4 349.2,999.9 345.7,992 338.7,995.1 326.4,990.3 319.5,993.4 323,1000.5 
	338.7,999.3 348.1,1002.3 358.4,1020.8 368.5,1016 381.9,1015.4 397.6,1010 "/>
<polygon class="st0" points="406.9,1027.2 405.3,1027.4 396.4,1028.4 395.8,1031.4 405.3,1034.2 405.7,1034.4 410.4,1031.4 "/>
<polygon class="st0" points="488.1,983.7 478.7,986.1 478.2,989 482.8,993.8 491,990.3 "/>
<polygon class="st0" points="609.5,981.4 599,976.6 583.9,989.1 585.4,992 590.5,988 608.5,983.8 610.3,983.8 "/>
<polygon class="st0" points="303.1,993.3 303.1,993.2 300.7,993.2 300.7,997.4 304.2,1002.2 304.2,1009.9 311.8,1014.1 
	316.5,1009.9 316.5,1000.4 "/>
<polygon class="st0" points="380.1,986.7 376,987.9 371.4,996.2 376.6,998 379.5,995.1 381.9,990.8 "/>
<polygon class="st0" points="388.9,1004.6 370.8,1009.4 349.2,999.9 345.7,992 338.7,995.1 326.4,990.3 319.5,993.4 323,1000.5 
	338.7,999.3 348.1,1002.3 358.4,1020.8 368.5,1016 381.9,1015.4 397.6,1010 "/>
<polygon class="st0" points="406.9,1027.2 405.3,1027.4 396.4,1028.4 395.8,1031.4 405.3,1034.2 405.7,1034.4 410.4,1031.4 "/>
<polygon class="st0" points="488.1,983.7 478.7,986.1 478.2,989 482.8,993.8 491,990.3 "/>
<polygon class="st0" points="609.5,981.4 599,976.6 583.9,989.1 585.4,992 590.5,988 608.5,983.8 610.3,983.8 "/>
<polygon class="st0" points="303.1,993.3 303.1,993.2 300.7,993.2 300.7,997.4 304.2,1002.2 304.2,1009.9 311.8,1014.1 
	316.5,1009.9 316.5,1000.4 "/>
<polygon class="st0" points="380.1,986.7 376,987.9 371.4,996.2 376.6,998 379.5,995.1 381.9,990.8 "/>
<polygon class="st0" points="388.9,1004.6 370.8,1009.4 349.2,999.9 345.7,992 338.7,995.1 326.4,990.3 319.5,993.4 323,1000.5 
	338.7,999.3 348.1,1002.3 358.4,1020.8 368.5,1016 381.9,1015.4 397.6,1010 "/>
<polygon class="st0" points="406.9,1027.2 405.3,1027.4 396.4,1028.4 395.8,1031.4 405.3,1034.2 405.7,1034.4 410.4,1031.4 "/>
<polygon class="st0" points="488.1,983.7 478.7,986.1 478.2,989 482.8,993.8 491,990.3 "/>
<polygon class="st0" points="609.5,981.4 599,976.6 583.9,989.1 585.4,992 590.5,988 608.5,983.8 610.3,983.8 "/>
<polygon class="st0" points="787.4,1178.1 785,1175.1 781.5,1153.7 761.1,1160.2 758.8,1163.8 761.7,1166.2 761.1,1171.6 
	753.6,1172.7 736.7,1151.9 735.5,1145.9 740.7,1147.7 742.5,1145.3 735.5,1138.2 730.2,1138.2 724.4,1132.8 706.9,1134 
	703.4,1130.5 699.4,1129.5 679.3,1154.1 694.6,1157.3 764,1181.7 792.6,1181.7 792.6,1176.9 "/>
<polygon class="st0" points="639.2,643.5 638,644.5 648.4,663.2 "/>
<polygon class="st0" points="609.5,981.4 599,976.6 583.9,989.1 585.4,992 590.5,988 608.5,983.8 610.3,983.8 "/>
<polygon class="st0" points="488.1,983.7 478.7,986.1 478.2,989 482.8,993.8 491,990.3 "/>
<polygon class="st0" points="406.9,1027.2 405.3,1027.4 396.4,1028.4 395.8,1031.4 405.3,1034.2 405.7,1034.4 410.4,1031.4 "/>
<polygon class="st0" points="388.9,1004.6 370.8,1009.4 349.2,999.9 345.7,992 338.7,995.1 326.4,990.3 319.5,993.4 323,1000.5 
	338.7,999.3 348.1,1002.3 358.4,1020.8 368.5,1016 381.9,1015.4 397.6,1010 "/>
<polygon class="st0" points="380.1,986.7 376,987.9 371.4,996.2 376.6,998 379.5,995.1 381.9,990.8 "/>
<polygon class="st0" points="303.1,993.3 303.1,993.2 300.7,993.2 300.7,997.4 304.2,1002.2 304.2,1009.9 311.8,1014.1 
	316.5,1009.9 316.5,1000.4 "/>
<polygon class="st0" points="609.5,981.4 599,976.6 583.9,989.1 585.4,992 590.5,988 608.5,983.8 610.3,983.8 "/>
<polygon class="st0" points="488.1,983.7 478.7,986.1 478.2,989 482.8,993.8 491,990.3 "/>
<polygon class="st0" points="406.9,1027.2 405.3,1027.4 396.4,1028.4 395.8,1031.4 405.3,1034.2 405.7,1034.4 410.4,1031.4 "/>
<polygon class="st0" points="388.9,1004.6 370.8,1009.4 349.2,999.9 345.7,992 338.7,995.1 326.4,990.3 319.5,993.4 323,1000.5 
	338.7,999.3 348.1,1002.3 358.4,1020.8 368.5,1016 381.9,1015.4 397.6,1010 "/>
<polygon class="st0" points="380.1,986.7 376,987.9 371.4,996.2 376.6,998 379.5,995.1 381.9,990.8 "/>
<polygon class="st0" points="303.1,993.3 303.1,993.2 300.7,993.2 300.7,997.4 304.2,1002.2 304.2,1009.9 311.8,1014.1 
	316.5,1009.9 316.5,1000.4 "/>
<polygon class="st0" points="609.5,981.4 599,976.6 583.9,989.1 585.4,992 590.5,988 608.5,983.8 610.3,983.8 "/>
<polygon class="st0" points="488.1,983.7 478.7,986.1 478.2,989 482.8,993.8 491,990.3 "/>
<polygon class="st0" points="406.9,1027.2 405.3,1027.4 396.4,1028.4 395.8,1031.4 405.3,1034.2 405.7,1034.4 410.4,1031.4 "/>
<polygon class="st0" points="388.9,1004.6 370.8,1009.4 349.2,999.9 345.7,992 338.7,995.1 326.4,990.3 319.5,993.4 323,1000.5 
	338.7,999.3 348.1,1002.3 358.4,1020.8 368.5,1016 381.9,1015.4 397.6,1010 "/>
<polygon class="st0" points="380.1,986.7 376,987.9 371.4,996.2 376.6,998 379.5,995.1 381.9,990.8 "/>
<polygon class="st0" points="303.1,993.3 303.1,993.2 300.7,993.2 300.7,997.4 304.2,1002.2 304.2,1009.9 311.8,1014.1 
	316.5,1009.9 316.5,1000.4 "/>
<polygon class="st0" points="609.5,981.4 599,976.6 583.9,989.1 585.4,992 590.5,988 608.5,983.8 610.3,983.8 "/>
<polygon class="st0" points="488.1,983.7 478.7,986.1 478.2,989 482.8,993.8 491,990.3 "/>
<polygon class="st0" points="406.9,1027.2 405.3,1027.4 396.4,1028.4 395.8,1031.4 405.3,1034.2 405.7,1034.4 410.4,1031.4 "/>
<polygon class="st0" points="388.9,1004.6 370.8,1009.4 349.2,999.9 345.7,992 338.7,995.1 326.4,990.3 319.5,993.4 323,1000.5 
	338.7,999.3 348.1,1002.3 358.4,1020.8 368.5,1016 381.9,1015.4 397.6,1010 "/>
<polygon class="st0" points="380.1,986.7 376,987.9 371.4,996.2 376.6,998 379.5,995.1 381.9,990.8 "/>
<polygon class="st0" points="303.1,993.3 303.1,993.2 300.7,993.2 300.7,997.4 304.2,1002.2 304.2,1009.9 311.8,1014.1 
	316.5,1009.9 316.5,1000.4 "/>
<polygon class="st0" points="895.1,1086 895.1,1059.7 888.7,1010.1 888.7,985.9 869.8,985.9 847.6,968 820.2,968 807.6,979.6 
	788.6,981.7 752.8,974.3 752.8,985.4 765.7,986.2 770.9,991 772.7,1008.9 815.3,1042.3 836.2,1072 845.6,1080.4 852.6,1100 
	888.2,1098.3 897.1,1095 "/>
<polygon class="st0" points="897.2,1095.5 891.1,1101.8 877.1,1101.2 862.5,1104.7 860.2,1107.1 861.9,1111.3 884.1,1127.9 
	902.7,1126.1 904.2,1126.5 "/>
<polygon class="st0" points="982.5,936.4 982.5,904.8 976.2,896.3 976.2,853.1 960.4,853.1 915.1,839.4 915.1,864.7 907.7,901.6 
	902.4,920.6 921.4,940.6 951.9,949 951.9,968 990.9,974.1 990.9,962.7 "/>
<path class="st0" d="M995,1168.9l-4.1,6.5l-8.2,3l-5.8-2.4l-0.6-7.1l-8.7,6l-6.4-6l-4.7-0.1l-3.5-5.8l-10.5,4.2l-11.7-4.8l-9,4.2
	c-0.7,6,1.3,16.4,3.2,24.2l14.5-5.2l5.8,1.8l27.5-5.4l11.7,1.8l11.6-6.5L995,1168.9z"/>
<polygon class="st0" points="993.4,491.7 998.1,476 995.6,440.1 974.1,428.5 905.6,428.5 863.4,429.2 863.4,429.6 852.9,436.9 
	851.1,445.6 846.6,467.5 930.9,467.5 914,491.7 914,523.3 906.6,552.8 906.6,572.9 905.6,580.2 907.7,586 909.8,591.8 936.1,618.2 
	951.9,625.5 967.8,631.9 980.1,636.7 972.8,630.5 969.2,605.4 965.4,599 953.4,598.4 941.2,604.1 935.1,600 939.7,552.2 945,549 
	964.7,553.9 976.1,549 977.9,535.4 973.1,511.3 979,502.8 "/>
<polygon class="st0" points="990.9,974.1 990.9,975.4 999.4,975.4 "/>
<polygon class="st0" points="1037.3,1138.7 999.4,1110.2 976.2,1104.5 976.2,1109.3 980.3,1117 991.4,1125.9 1021.8,1131.9 
	1028.2,1141.4 1038.7,1145 1042.7,1145.5 1046,1143.2 "/>
<polygon class="st0" points="609.5,981.4 599,976.6 583.9,989.1 585.4,992 590.5,988 608.5,983.8 610.3,983.8 "/>
<polygon class="st0" points="488.1,983.7 478.7,986.1 478.2,989 482.8,993.8 491,990.3 "/>
<polygon class="st0" points="406.9,1027.2 405.3,1027.4 396.4,1028.4 395.8,1031.4 405.3,1034.2 405.7,1034.4 410.4,1031.4 "/>
<polygon class="st0" points="388.9,1004.6 370.8,1009.4 349.2,999.9 345.7,992 338.7,995.1 326.4,990.3 319.5,993.4 323,1000.5 
	338.7,999.3 348.1,1002.3 358.4,1020.8 368.5,1016 381.9,1015.4 397.6,1010 "/>
<polygon class="st0" points="380.1,986.7 376,987.9 371.4,996.2 376.6,998 379.5,995.1 381.9,990.8 "/>
<polygon class="st0" points="303.1,993.3 303.1,993.2 300.7,993.2 300.7,997.4 304.2,1002.2 304.2,1009.9 311.8,1014.1 
	316.5,1009.9 316.5,1000.4 "/>
<polygon class="st0" points="609.5,981.4 599,976.6 583.9,989.1 585.4,992 590.5,988 608.5,983.8 610.3,983.8 "/>
<polygon class="st0" points="488.1,983.7 478.7,986.1 478.2,989 482.8,993.8 491,990.3 "/>
<polygon class="st0" points="406.9,1027.2 405.3,1027.4 396.4,1028.4 395.8,1031.4 405.3,1034.2 405.7,1034.4 410.4,1031.4 "/>
<polygon class="st0" points="388.9,1004.6 370.8,1009.4 349.2,999.9 345.7,992 338.7,995.1 326.4,990.3 319.5,993.4 323,1000.5 
	338.7,999.3 348.1,1002.3 358.4,1020.8 368.5,1016 381.9,1015.4 397.6,1010 "/>
<polygon class="st0" points="380.1,986.7 376,987.9 371.4,996.2 376.6,998 379.5,995.1 381.9,990.8 "/>
<polygon class="st0" points="303.1,993.3 303.1,993.2 300.7,993.2 300.7,997.4 304.2,1002.2 304.2,1009.9 311.8,1014.1 
	316.5,1009.9 316.5,1000.4 "/>
<polygon class="st0" points="609.5,981.4 599,976.6 583.9,989.1 585.4,992 590.5,988 608.5,983.8 610.3,983.8 "/>
<polygon class="st0" points="488.1,983.7 478.7,986.1 478.2,989 482.8,993.8 491,990.3 "/>
<polygon class="st0" points="406.9,1027.2 405.3,1027.4 396.4,1028.4 395.8,1031.4 405.3,1034.2 405.7,1034.4 410.4,1031.4 "/>
<polygon class="st0" points="388.9,1004.6 370.8,1009.4 349.2,999.9 345.7,992 338.7,995.1 326.4,990.3 319.5,993.4 323,1000.5 
	338.7,999.3 348.1,1002.3 358.4,1020.8 368.5,1016 381.9,1015.4 397.6,1010 "/>
<polygon class="st0" points="380.1,986.7 376,987.9 371.4,996.2 376.6,998 379.5,995.1 381.9,990.8 "/>
<polygon class="st0" points="303.1,993.3 303.1,993.2 300.7,993.2 300.7,997.4 304.2,1002.2 304.2,1009.9 311.8,1014.1 
	316.5,1009.9 316.5,1000.4 "/>
<polygon class="st0" points="595.8,581.3 595.8,606.6 590.5,616.1 572.6,638.2 555.8,638.2 551.6,663.5 535.8,696.1 523.1,714.1 
	509.4,730.9 507.3,748.8 501,760.4 471.5,760.4 470.4,782.5 457.8,801.5 449.4,812 418.8,832.1 383,804.7 368.2,799.4 358.7,793.1 
	345,746.7 345,713 331.3,694 371.4,676.1 385.1,663.5 451.5,663.5 455.7,619.2 471.5,607.6 484.1,592.9 463,586.6 431.4,586.6 
	403,600.3 387.2,606.6 359.8,602.4 341.9,601.3 326,599.1 327.6,595 342.5,582.2 352,566.7 353.6,519.1 362.7,490.9 363.2,486.2 
	432.5,524.4 486.2,543.4 514.7,551.8 556.8,561.3 "/>
<path class="st0" d="M689.6,518.1v46.4l-6.3,16.9l-17.9,19l-0.4,39h-20.7l-2,1.7l-8.6-9L620,620.3l-24.2-17.4v-21.6l-39-20
	l-42.2-9.5l-28.4-8.4l-53.7-19l-69.3-38.2l3.8-37.4l7.7-16.1l-4.5-27.3l4.5-14.4l11.5-9.2l17.7,1.6l6.2-3.6l20.5-41.5l8.9-8.7
	l5.3-13.4l85.6-0.4l21.1,27.4l15.8,7.4h58l16.9,37.9c11.6,12.6,11.6,31.6,11.6,31.6v8.4h23.2v72.7L689.6,518.1z"/>
<polygon class="st0" points="652.7,670.9 638,717.2 629.1,733 623.2,743.6 623.2,758.3 597.9,791 579,817.3 565.3,843.7 560,853.1 
	526.3,830 501,830 485.2,833.1 468.3,828.9 449.4,812 457.8,801.5 470.4,782.5 471.5,760.4 501,760.4 507.3,748.8 509.4,730.9 
	523.1,714.1 535.8,696.1 551.6,663.5 555.8,638.2 572.6,638.2 590.5,616.1 595.8,606.6 595.8,602.9 620,620.3 633.7,631.9 
	642.3,640.9 639.2,643.5 638,644.5 648.4,663.2 "/>
<path class="st0" d="M804.2,719.3l-4,7.4l-10.5,17.9l-17.9,21.1l-13.7,51.6V909l-43.2,13.7H678v27.4h74.8l-20,33.7l-11.6,21.1h-22.1
	c0,0-13.7,13.7-13.7,0c0-13.7,0-13.7,0-13.7l-36.9-7.4h-32.8l-0.4-4.1h-5.8l-8.2-6.5l-35.6-3l-7.6-9.5l-7.6,1.2l-1.2,4.2l-9.3,0.6
	l-7.6-6h-7.6l-2.9,3l-2.9-7.1l-2.9-0.6h-29.8l-2.9-1.8l0.6-3.6l11.6,0.6l4.1-4.8l-0.6-6.5l-10.5-6.5l0.6-3.6l-5.2,7.1l6.5-0.3
	l4.7,3.1l1.6,6.7l-11,0.6l-19.2,8.4l-5.8-10.8l-0.6-9.5l-6.4-6.5l-10.5-1.2l-7.6-8.9l-3.5-10.8l-9.9-4.8l-1.8,3.6l8.7,2.4l9.3,20.8
	l14.6,6.5v6l-11.7,4.8l-4.7-5.4l-8-0.7l-4.1,4.3v6.5l2.9,1.2l-2.3,3l-11.7-3l1.2-8.4l-4.1-4.8h-16.9l-4.1,1.2v-9l-2.9-3l-8.8,5.4
	l4.1,2.4l4.7-4.8v9.5l5.2,3l4.1-2.4l10.5,2.4l3.5,10.1l10.5,4.2h12.2l5.8-3l-19.8,29.2l-16.3-2.4l-8.2,1.8l-5.2-3.6l-15.1-0.6
	l-5.2,6.6l-8.2,1.2l-15.7-9.5L326,976l-12.2,10.1l1.8,7.1l-5.8,0.6l-13.4-8.4l-18.1-4.2l-8.1,4.2l-6.4-3.6l0.6,4.8l9.3,3l9.9-4.7
	l6.4,6.5l-0.6,8.4l-9.3,0.6l-1.2,3.6l-6.4,3h7l5.2-3.6l3.5,4.2l-0.6,11.9l2.3,1.2l4.7-2.4l4.1-8.4l12.2,9.5h7.6l7.6-9.5l8.7-2.4
	l7.6,13.7l21,12.5l12.8-0.6l3.5-6l7-2.4l6.4,4.1l5.2,10.1l7,1.1v5c0,3.1-7.7,31.3-12,46.8l-79.2-15l-87.5-9.5l-70.6-22l-1.1-10.5
	l-6.7-8.6l-38.3-12.7l-16.3-9.3l-13.4-13.8l2.7-13.5l9.1-10.2l12.2-5.7l14.7-2.1l16.8-14.7l23.4-10.8l33.3-33.4l12-7.8l13.3-27.2
	l14.4-17.2l27.7-11l2.5-7.1l-1.6-11.3l-13.7-8.6l-6.3-12.7l-1.2-25.6l32.6-66.5l32.6-48.9l21.6-57.1l15.8,2.2l17.9,1l27.4,4.2
	l15.8-6.3l28.5-13.7H463l21.1,6.3l-12.6,14.8l-15.8,11.6l-4.2,44.2h-66.4l-13.7,12.6l-40,17.9l13.7,19v33.7l13.7,46.4l9.5,6.3
	l14.8,5.3l35.8,27.4l30.6-20l19,16.9l16.9,4.2L501,830h25.3l33.7,23.2l5.3-9.5l13.7-26.3l19-26.3l25.3-32.7v-14.8l5.9-10.5l19.4,5.3
	l16.9,14.8l43.2,28.4l25.3-11.6l6.3-20l12.6-17.9l20-12.6H804.2z"/>
<path class="st0" d="M699.4,1129.5l-20.2,24.6l-100.8-21.2l-103.9-25.6l-81.3-15.4c4.3-15.5,12-43.8,12-46.8v-5l0.6,0.1l7.6-6.6
	l-1.8-9.5l18.1-7.7l8.8-13.1l4.7-0.6l1.2,4.8h4.1l9.9-3.6l-0.6-3l3.5-1.2l15.7,3l34.5-14.9h7.6l12.8,12.5l14.6,1.8l5.8,8.4l-1.2,8.9
	l5.2-0.6l1.4,1.1l9.1,7.3l14.6,18.5l11.7,8.4L620,1088l-3.5,4.1l-4.7-0.7l-11.1-7.6l-8.2-1.2h-15.2l-24.5,5.4l-19.2-8.9l-5.2-10.1
	l-7-3l-14,1.2l-14,9.5l25.1-8.4l21,19.7l14,5.4h28.6l12.8,7.8l20.5,3.6l28-2.4l13.4,9.5l4.7,7.8l10.5,4.2l4.7,7.8l14-4.1
	L699.4,1129.5z"/>
<path class="st0" d="M925,1190.7l-10.7,3.8l-39.7-0.6l-14.6-8.3l-11.1-10.7l-21.6-33.3l1.2-10.1l8.8-16.6l7-6l7.6,0.6l37.9,22
	l15.6-0.6l4.3,12.1l11.6,9.5c0,0,2,1.5,2.2,5.2l-1.5,0.6l-10.5,13.1l10.3-4.8C921.2,1172.5,923.2,1182.9,925,1190.7z"/>
<polygon class="st0" points="1512.2,1193.9 1504.6,1191.5 1505.8,1196.3 1500,1199.3 1489.5,1192.7 1451.5,1188 1439.9,1187.4 
	1438.7,1192.2 1436.4,1192.2 1425.9,1186.9 1416,1195.2 1410.7,1195.2 1408.4,1190.5 1372.8,1189.3 1367,1198.2 1358.2,1197.7 
	1354.7,1192.9 1350.1,1192.4 1348.9,1196.5 1341.9,1195.3 1337.8,1203.1 1330.8,1199.5 1328.5,1207.3 1312.8,1204.3 1311.6,1209.1 
	1308.7,1209.7 1306.4,1203.8 1300,1203.2 1297.6,1209.7 1294.1,1209.7 1291.8,1205.6 1284.8,1202.6 1250.9,1197.8 1239.9,1188.9 
	1227,1194.8 1213,1194.2 1141.3,1181.5 1170.1,1154.5 1170.1,1115.5 1185.9,1115.5 1265.3,1080.2 1299.3,1062.2 1305.2,1056.3 
	1308.9,1059.5 1318.7,1061.9 1344.8,1046.4 1424,1056 1437.8,1087.6 1489.9,1154.9 1513.4,1191.2 "/>
<polygon class="st0" points="1295.9,1031.4 1294.9,1042 1299.4,1051 1305.2,1056.3 1299.3,1062.2 1265.3,1080.2 1185.9,1115.5 
	1170.1,1115.5 1170.1,1154.5 1141.3,1181.5 1140.1,1181.3 1033.3,1175.8 1025.7,1171.1 1026.9,1165.1 1047.9,1153.2 1063.1,1152 
	1063.2,1152 1073.6,1145.5 1079.5,1155 1084.7,1157.4 1085.9,1161 1083,1164.5 1087,1168.1 1088.8,1156.2 1083.5,1152.6 
	1080,1144.2 1072.5,1143.7 1066.6,1147.8 1061.4,1145.4 1069,1132.9 1082.4,1135.9 1085.9,1132.3 1081.8,1134.1 1070.1,1129.4 
	1067.2,1115.1 1062,1111 1053.2,1109.8 1038.7,1099.1 1029.3,1074.7 1028.8,1064.6 1021.2,1059.2 1021.2,1063.4 1025.3,1067 
	1025.3,1070 1022.3,1069.9 1010.7,1058.8 1010.7,1056.2 1004.3,1054.4 1025.9,1075.3 1027.1,1090.8 1038.1,1106.8 1044,1112.8 
	1061.5,1117.6 1066.1,1123.5 1065,1129.5 1046,1143.2 1037.3,1138.7 999.4,1110.2 976.2,1104.5 976.2,1102.2 973.3,1100.3 
	973.3,1103.7 965.6,1101.8 951.9,1101.8 936.1,1091.3 927.7,1066 944.6,1043.9 961.4,1021.7 961.4,998.5 981.5,1004.9 999.4,1004.9 
	1015.2,991.2 999.4,974.3 1015.2,968 1015.2,918.5 1041.5,877.4 1060.5,894.2 1157.9,888 1161.9,907.2 1156.1,916.6 1119.5,933.5 
	1100.5,955.6 1100.7,961.6 1109.4,974.6 1106.8,1007.2 1109.4,1014.9 1114.4,1020.3 1124.9,1022.5 1137.4,1016.5 1161.2,1014.1 
	1180.9,1007.2 1182.1,1001.3 1159.8,970.2 1159.2,954.2 1171.5,908.5 1177.6,905.9 1183.3,911.7 1186.5,911.5 1191.2,894.7 
	1197.5,898.8 1200,889.8 1208.7,895.4 1223.3,896.8 1226.6,899.6 1219.4,903.4 1226.6,905.7 1232,914.5 1257.5,907.8 1264.3,914.8 
	1267.7,907.1 1274.7,908.6 1277.7,901.2 1281.8,900.4 1289,910.9 1275.9,951.5 1279.5,954 1290.9,948.8 1299.8,950.6 1308.2,960.3 
	1322.7,970 1334.7,989.9 1333.4,994.6 1300.5,1022.9 "/>
<polygon class="st0" points="875.2,605.4 867.7,696.1 864.6,701.8 864.6,701.8 850.8,710.9 826.6,719.3 804.2,719.3 807.6,713 
	807.6,705.6 800.2,680.3 800.2,663.5 771.8,663.5 771.8,637.1 786.5,620.3 794.6,598.9 800.2,600.3 835,600.3 867.7,611.8 "/>
<path class="st0" d="M1156.7,882.2l-12.8-25.8l2.5-21.2l-5.1-1.9l-37.4,4.5l-19.4-4.5l-43.4,1.2l-8.7-3.4l-0.3-23.6l-4.3-10.2
	l-7.4-1.6l-4.7-9.7l-6.1-2l-7.4-10l-22.5-10l-8-11.9l0.3-9.5l8.3-18.7l-4.8-41.5l9.8-23.2l-0.6-18.2l-4.7-4l0,0l-12.3-4.9l-15.8-6.3
	l-15.8-7.4l-26.3-26.3l-2.1-5.8l-26.3,14.2l-6.1,5.2l-7.6,90.7l-3,5.6h0l-13.8,9.1l-24.2,8.4h-22.4l-4,7.4l-10.5,17.9l-17.9,21.1
	l-13.7,51.6V909l-43.2,13.7H678v27.4h74.8l-20,33.7l-11.6,21.1h-22.1c0,0-13.7,13.7-13.7,0c0-13.7,0-13.7,0-13.7l-36.9-7.4h-32.8
	l0.7,6.7l5.8,2.4l11.6,14.3l9.9,7.1l15.1,26.8l9.9,3l1.2,6.5l19.8-0.6l2.9-3.6l11.1,3.6l12.8-1.8l2.5-3.6l14.5-21.4l2.3-14.3
	L733,997l2.9-7.8l11.7-4.2l5.3,0.3v-11.1l35.8,7.4l19-2.1l12.6-11.6h27.4l22.1,17.9h19v24.2l6.3,49.5v26.3l2,9l1-0.4l-0.9,0.9
	l7,30.9l14.9,3.8l-13.6,0.5l4.3,12.1l11.6,9.5c0,0,2,1.5,2.2,5.2l8.9-3.5l34.5,2.4l11.1-3.6l4.7,2.4l9.9-8.4l16.9-2.4l1.8-4.8
	l-22.8-10.8l-11.1-11.3l-4.1-8.3v-5.6l-7.7-1.9h-13.7l-15.8-10.5l-8.4-25.3l16.9-22.1l16.9-22.1v-23.2l20,6.3h17.9l15.8-13.7
	l-15.8-16.9l15.8-6.3v-49.5l26.3-41.1l19,16.9l97.4-6.2L1156.7,882.2z M990.9,975.4v-1.3l-39-6.1v-19l-30.5-8.4l-19-20l5.3-19
	l7.4-36.9v-25.3l45.3,13.7h15.8v43.2l6.3,8.4v31.6l8.4,26.3v11.3l8.4,1.3H990.9z"/>
<path class="st0" d="M863.4,373.7v55.8l-10.5,7.4l-1.8,8.7l-16.1-0.2l-26.3-11.6l-47.4-5.3H653.8v-8.4c0,0,0-19-11.6-31.6
	l-16.9-37.9h-58l-15.8-7.4l-21.1-27.4l-85.6,0.4l1.4-3.6l9.5-10l40.7-12.1l45.8-2.6l23.1-7.4l5.1-4.1l2.3-6l63,18l6.3,7.4l6.3,6.3
	l16.9-6.3l17.9-8.4l6.3-6.3l48.5-3.2h43.2l17.9,3.2h9.5l16.8,33.7l9.5,19v24.2l15.8,15.8H863.4z"/>
<polygon class="st0" points="995.5,262.8 994.7,269.3 999.7,291 997.2,295.5 993.5,295.8 980,280.6 971.5,278.1 963.9,281.4 
	962.1,295 968.5,320.2 957.4,351.3 966.9,359.4 991,372.1 995.6,440.1 974.1,428.5 905.6,428.5 890.1,428.8 889.8,413.8 
	909.8,401.1 922.4,389.5 922.4,353.7 929.8,323.1 936.1,307.3 943.5,291.5 975.1,263.1 1001.6,253.3 1001.6,255 "/>
<polygon class="st0" points="1001.7,248.5 1001.6,253.3 975.1,263.1 943.5,291.5 936.1,307.3 929.8,323.1 922.4,353.7 922.4,389.5 
	909.8,401.1 889.8,413.8 890.1,428.8 863.4,429.2 863.4,364.2 872.9,317.9 895.1,317.9 895.1,306.3 917.2,277.8 922.4,241 
	936.1,206.2 936.1,189.3 930.9,180.9 930.9,169.3 922.4,163 917.2,151.4 917.9,143.9 926.8,148.8 942.4,146.6 952.3,136.2 
	960.3,132.8 970.4,132.7 977.1,138.4 986.3,187.7 978.8,207.5 978.4,224.4 983.1,234.6 999.2,243.4 "/>
<polygon class="st0" points="936.1,189.3 936.1,206.2 922.4,241 917.2,277.8 895.1,306.3 895.1,317.9 872.9,317.9 863.4,364.2 
	863.4,373.7 850.8,373.7 835,357.9 835,333.7 825.5,314.7 808.7,281 799.2,281 781.3,277.8 785.5,251.5 800.2,230.4 800.2,215.7 
	791.8,215.7 791.8,174.6 765.5,174.6 768.6,151.4 777,137.7 714.9,137.7 714.9,122.9 719.8,121.4 730.6,113.5 749,81.5 742.2,65.5 
	757,68.4 769.3,66.7 781.2,76.2 785,72.6 789,75 794.4,72.8 805.3,74.6 812.4,65 817.1,65.1 832.5,73.3 859,108.2 871.9,111.7 
	875.8,118.3 887.3,127 892.5,136.9 904.4,136.5 917.9,143.9 917.2,151.4 922.4,163 930.9,169.3 930.9,180.9 "/>
<polygon class="st0" points="800.2,215.7 800.2,230.4 785.5,251.5 781.3,277.8 738.1,277.8 689.6,281 683.3,287.3 665.4,295.7 
	648.5,302.1 642.2,295.7 635.8,288.4 572.8,270.4 583.3,243.3 603.3,228.4 610.9,200.2 631.6,174.7 645.2,164.3 661.5,156.7 
	674.1,138.7 689.1,130.5 714.9,122.9 714.9,137.7 777,137.7 768.6,151.4 765.5,174.6 791.8,174.6 791.8,215.7 "/>
<path class="st0" d="M405.3,1027.2c0,0,0,0.1,0,0.2c0,0.8,0,3.6,0,6.8c0,1.9,0,4,0,5.9"/>
<path class="st0" d="M393.3,1092c-1.6,6-2.8,10.1-2.8,10.1"/>
<line class="st0" x1="897.2" y1="1095.5" x2="897.1" y2="1095"/>
<polygon class="st0" points="869.8,467.5 858.2,493.8 827.6,514.9 803.4,514.9 753.9,572.9 731.7,587.6 725.6,592.8 706.4,608.7 
	690.6,624.5 670.6,639.2 665,639.2 665.4,600.3 683.3,581.3 689.6,564.4 689.6,518.1 676.9,501.2 676.9,428.5 761.2,428.5 
	808.7,433.8 835,445.4 851.1,445.6 846.6,467.5 "/>
<polygon class="st0" points="807.6,705.6 807.6,713 804.2,719.3 772.8,719.3 752.8,732 740.2,749.9 733.8,769.9 708.6,781.5 
	665.4,753 648.5,738.3 629.1,733 638,717.2 652.7,670.9 648.4,663.2 639.2,643.5 644.3,639.2 670.6,639.2 690.6,624.5 706.4,608.7 
	725.6,592.8 768.6,592.9 794.6,598.9 786.5,620.3 771.8,637.1 771.8,663.5 800.2,663.5 800.2,680.3 "/>
<line class="st0" x1="572.8" y1="270.4" x2="572.3" y2="270.2"/>
<line class="st0" x1="863.4" y1="429.2" x2="863.3" y2="429.2"/>
<line class="st0" x1="981.3" y1="637.2" x2="980.1" y2="636.7"/>
<polygon class="st0" points="930.9,467.5 914,491.7 914,523.3 906.6,552.8 906.6,572.9 905.6,580.2 907.7,586 881.4,600.3 
	875.2,605.4 867.7,611.8 835,600.3 800.2,600.3 794.6,598.9 768.6,592.9 725.6,592.8 731.7,587.6 753.9,572.9 803.4,514.9 
	827.6,514.9 858.2,493.8 869.8,467.5 "/>
<line class="st0" x1="875.3" y1="605.2" x2="875.2" y2="605.4"/>
<polyline class="st0" points="864.6,701.8 860.3,709.8 860.3,774.1 860.3,812 889.8,839.4 915.1,839.4 "/>
<polyline class="st0" points="976.2,853.1 988.8,853.1 1031,825.7 "/>
<line class="st0" x1="976.2" y1="1104.5" x2="973.3" y2="1103.7"/>
<line class="st0" x1="1141.3" y1="1181.5" x2="1135.3" y2="1187.1"/>
<line class="st0" x1="915.1" y1="839.4" x2="915.1" y2="837.3"/>
<line class="st0" x1="629.1" y1="733" x2="625.3" y2="732"/>
<line class="st0" x1="444.9" y1="316.2" x2="440.3" y2="316.2"/>
</svg>
