<?xml version="1.0" encoding="utf-8"?>
<!-- Generator: Adobe Illustrator 16.0.3, SVG Export Plug-In . SVG Version: 6.00 Build 0)  -->
<!DOCTYPE svg PUBLIC "-//W3C//DTD SVG 1.1//EN" "http://www.w3.org/Graphics/SVG/1.1/DTD/svg11.dtd">
<svg version="1.1" id="Capa_1" xmlns="http://www.w3.org/2000/svg" xmlns:xlink="http://www.w3.org/1999/xlink" x="0px" y="0px"
	 width="595.279px" height="841.89px" viewBox="0 0 595.279 841.89" enable-background="new 0 0 595.279 841.89"
	 xml:space="preserve">
<path fill="#F4F4F4" stroke="#00AFBE" stroke-width="3" stroke-linecap="round" stroke-linejoin="round" d="M261.181,100.296
	l-14.287-19.578l-25.795-16.932l-11.574-8.929l-24.936-16.933L174.8,30.78l-9.789-5.357l-32.477-5.887l-1.852,2.447l-12.303,4.432
	l-7.738,6.747l-1.323,4.696l-7.144,3.175l-11.31,4.167l-2.447,3.704l-6.549-0.529l0.464,15.808l-1.853,5.358l-8.003,3.241
	l-0.529,2.447l4.101,16.602l-4.895,9.194l-9.392,6.548l-25.333,4.101l-2.183,2.778l-1.72,4.695l-1.389,3.771l-16.271,4.63
	l-0.728,2.117l62.835,0.132l12.501,26.722l2.646-7.144l8.004-2.646l7.144-3.572h11.442l4.432,13.361c0,0,0.926,8.003,5.357,7.143
	c4.432-0.926,13.36-3.57,13.36-3.57l25.796,3.57h45.439l8.003,3.572l-3.571,19.578l-17.792,7.144l-2.646,11.575l-3.571,6.217
	l-1.786,11.575l-6.217,13.36l-6.218,14.221l-5.406,5.918c1.185,0.442,2.366,0.889,3.538,1.343c0.213,0.083,0.424,0.17,0.636,0.253
	c3.184-1.784,6.373-3.56,9.564-5.33c2.653-2.432,5.317-4.75,7.935-6.924c0.283-0.235,0.574-0.429,0.869-0.592
	c-0.561-3.183,2.652-3.126,5.538-1.312c4.109,2.584,5.632,0.456,5.964-2.466c1.835-1.029,3.673-2.053,5.504-3.087
	c-0.689-1.289-0.739-2.892,0.344-4.532c1.845-2.797,3.603-5.646,5.293-8.536c0.018-1.979,0.024-3.96,0.024-5.94
	c0.001-3.579,3.08-5.162,5.822-4.769c0.017-0.03,0.034-0.061,0.051-0.09l-0.104-0.05l2.051-2.713v-13.359l7.143-15.147l14.22-8.003
	l6.219-9.789v-47.226l11.111-12.766L261.181,100.296z"/>
<rect id="_x3C_Sector_x3E_" x="10.14" y="12.445" fill="none" width="260" height="264"/>
<polygon fill="#F4F4F4" stroke="#00AFBE" stroke-width="3" stroke-linecap="round" stroke-linejoin="round" points="
	542.498,249.901 530.659,249.901 527.154,252.547 509.295,254.333 497.72,254.333 494.149,251.687 488.791,256.979 483.5,264.122 
	485.285,273.911 488.791,279.269 490.577,290.843 479.928,286.412 472.784,282.84 461.21,278.409 454.992,276.623 445.203,276.623 
	438.259,281.385 437.2,278.409 432.702,265.048 432.702,249.901 424.699,240.972 424.699,217.822 411.339,214.25 401.55,202.676 
	393.546,202.676 388.189,204.461 376.614,202.676 361.402,205.454 367.553,195.995 373.373,191.167 383.294,189.381 
	395.663,183.891 404.261,183.825 406.907,181.643 421.392,183.693 431.181,188.389 440.97,193.085 451.223,200.757 456.646,213.258 
	461.475,213.06 465.972,219.211 487.799,219.211 497.125,221.857 514.19,221.195 524.905,221.658 529.005,226.09 535.884,225.561 
	540.316,246.991 "/>
<polygon fill="#F4F4F4" stroke="#00AFBE" stroke-width="3" stroke-linecap="round" stroke-linejoin="round" points="494.149,387.94 
	492.562,399.581 490.643,402.293 478.671,408.312 465.443,409.635 461.077,414.331 437.2,428.882 417.556,418.233 393.877,421.342 
	385.94,421.342 378.863,413.339 338.781,413.339 332.497,408.841 329.785,405.468 325.42,399.978 311.133,380.334 285.338,363.401 
	273.763,354.538 248.827,337.606 238.972,330.462 229.183,325.105 196.707,319.218 197.17,318.623 201.866,317.896 210.993,316.176 
	216.682,309.297 231.167,303.344 236.723,296.862 233.746,290.38 234.673,288.661 237.252,290.248 246.578,288.528 258.947,281.12 
	264.04,270.935 270.257,269.744 271.845,262.402 274.953,257.64 296.053,248.512 307.164,223.51 306.503,218.814 311.993,216.433 
	313.051,212.597 317.681,208.43 344.006,206.313 350.554,209.158 356.374,209.158 360.939,206.115 361.402,205.454 376.614,202.676 
	388.189,204.461 393.546,202.676 401.55,202.676 411.339,214.25 424.699,217.822 424.699,240.972 432.702,249.901 432.702,265.048 
	437.2,278.409 438.259,281.385 437.2,282.112 437.2,286.412 450.561,286.412 450.561,317.565 466.568,330.925 474.571,337.143 
	480.788,347.858 480.788,359.433 490.577,372.793 "/>
<polygon fill="#F4F4F4" stroke="#00AFBE" stroke-width="3" stroke-linecap="round" stroke-linejoin="round" points="
	480.391,472.867 467.56,495.025 454.596,505.938 449.437,512.75 446.394,525.119 435.348,525.119 425.559,530.411 412.86,530.411 
	417.159,525.516 417.159,502.367 407.304,492.578 402.872,465.855 402.872,445.351 399.301,439.134 397.515,421.342 
	393.877,421.342 417.556,418.233 437.2,428.882 461.077,414.331 460.813,414.596 469.478,450.18 479.2,467.509 "/>
<polygon fill="#F4F4F4" stroke="#00AFBE" stroke-width="3" stroke-linecap="round" stroke-linejoin="round" points="
	457.771,584.449 441.235,586.037 437.399,589.673 435.944,609.185 426.023,631.873 426.286,644.705 420.797,655.023 
	413.124,640.007 408.693,634.65 405.981,629.292 406.907,625.722 413.985,615.933 413.985,592.783 411.339,589.21 413.985,577.636 
	415.77,571.419 415.77,558.917 413.124,553.56 413.124,544.697 414.381,530.411 425.559,530.411 435.348,525.119 446.394,525.119 
	445.005,530.742 444.807,538.414 450.231,562.82 "/>
<polygon fill="#F4F4F4" stroke="#00AFBE" stroke-width="3" stroke-linecap="round" stroke-linejoin="round" points="
	420.797,655.023 419.209,657.933 410.412,693.65 404.327,705.091 386.139,707.738 378.664,706.878 364.51,693.583 354.192,687.564 
	336.664,681.083 330.05,672.351 306.437,651.847 307.562,645.763 318.277,645.763 318.277,603.894 333.423,595.031 380.582,567.384 
	390.636,553.494 392.224,551.377 402.872,538.017 410.875,532.66 412.86,530.411 414.381,530.411 413.124,544.697 413.124,553.56 
	415.77,558.917 415.77,571.419 413.985,577.636 411.339,589.21 413.985,592.783 413.985,615.933 406.907,625.722 405.981,629.292 
	408.693,634.65 413.124,640.007 "/>
<polygon fill="#F4F4F4" stroke="#00AFBE" stroke-width="3" stroke-linecap="round" stroke-linejoin="round" points="530.659,283.7 
	525.367,289.058 538.729,295.275 552.089,303.344 557.38,317.565 558.108,318.094 552.287,326.031 549.113,347.593 541.176,361.219 
	541.969,371.471 540.448,377.49 525.963,399.184 518.82,400.904 514.851,395.48 503.408,392.306 500.565,387.94 492.562,399.581 
	494.149,387.94 490.577,372.793 480.788,359.433 480.788,356.919 502.152,358.507 502.152,354.075 495.935,342.5 491.503,331.785 
	488.791,327.354 488.791,307.776 468.354,301.558 462.995,296.201 450.561,290.843 450.561,286.412 437.2,286.412 437.2,282.112 
	445.203,276.623 454.992,276.623 461.21,278.409 472.784,282.84 479.928,286.412 490.577,290.843 488.791,279.269 485.285,273.911 
	483.5,264.122 488.791,256.979 494.149,251.687 497.72,254.333 509.295,254.333 527.154,252.547 530.659,249.901 542.498,249.901 
	542.763,250.298 568.096,263.593 571.932,267.561 574.115,273.448 573.983,274.837 549.377,274.837 545.806,278.409 
	536.017,278.409 "/>
<polygon fill="#F4F4F4" stroke="#00AFBE" stroke-width="3" stroke-linecap="round" stroke-linejoin="round" points="
	502.152,354.075 502.152,358.507 480.788,356.919 480.788,347.858 474.571,337.143 466.568,330.925 450.561,317.565 
	450.561,290.843 462.995,296.201 468.354,301.558 488.791,307.776 488.791,327.354 491.503,331.785 495.935,342.5 "/>
<polygon fill="#F4F4F4" stroke="#00AFBE" stroke-width="3" stroke-linecap="round" stroke-linejoin="round" points="
	573.983,274.837 571.998,298.913 558.108,318.094 557.38,317.565 552.089,303.344 538.729,295.275 525.367,289.058 530.659,283.7 
	536.017,278.409 545.806,278.409 549.377,274.837 "/>
<polygon fill="#F4F4F4" stroke="#00AFBE" stroke-width="3" stroke-linecap="round" stroke-linejoin="round" points="
	417.159,502.367 417.159,525.516 412.86,530.411 410.875,532.66 402.872,538.017 392.224,551.377 390.636,553.494 381.045,549.128 
	373.042,541.125 373.042,538.414 373.903,534.908 374.828,521.547 377.474,517.976 373.042,509.046 365.899,512.619 
	359.682,509.046 343.675,510.833 337.392,512.619 331.174,513.544 324.957,514.404 315.168,514.404 308.884,517.976 
	296.449,517.976 289.041,514.404 291.092,511.693 291.092,498.398 298.236,483.251 312.456,475.181 318.74,465.392 318.74,418.233 
	329.785,405.468 332.497,408.841 338.781,413.339 378.863,413.339 385.94,421.342 397.515,421.342 399.301,439.134 402.872,445.351 
	402.872,465.855 407.304,492.578 "/>
<line fill="none" stroke="#00AFBE" stroke-width="3" stroke-linecap="round" stroke-linejoin="round" x1="438.854" y1="283.039" x2="438.259" y2="281.385"/>
<line fill="none" stroke="#00AFBE" stroke-width="3" stroke-linecap="round" stroke-linejoin="round" x1="361.402" y1="205.454" x2="356.837" y2="206.313"/>
<line fill="none" stroke="#00AFBE" stroke-width="3" stroke-linecap="round" stroke-linejoin="round" x1="465.972" y1="411.354" x2="461.077" y2="414.331"/>
<line fill="none" stroke="#00AFBE" stroke-width="3" stroke-linecap="round" stroke-linejoin="round" x1="412.86" y1="530.411" x2="411.339" y2="530.411"/>
<polyline fill="#F4F4F4" stroke="#00AFBE" stroke-width="3" stroke-linecap="round" stroke-linejoin="round" points="
	234.077,561.63 252.796,561.63 258.154,551.775 267.943,544.697 277.732,544.697 277.732,538.48 281.303,527.765 285.735,518.835 
	289.041,514.404 "/>
<line fill="none" stroke="#00AFBE" stroke-width="3" stroke-linecap="round" stroke-linejoin="round" x1="420.995" y1="655.419" x2="420.797" y2="655.023"/>
</svg>
