<svg xmlns="http://www.w3.org/2000/svg" viewBox="1320 1560 60 60">
  <defs>
    <style>
      .cls-1 {
        fill: #05579f;
      }
    </style>
  </defs>
  <path id="necesidades_basicas" data-name="necesidades basicas" class="cls-1" d="M1-1066a.945.945,0,0,1-1-1v-29a.907.907,0,0,1,.3-.7l6.7-6.7V-1118a.944.944,0,0,1,1-1h8a.945.945,0,0,1,1,1v4.6l12.3-12.3a.967.967,0,0,1,1.4,0l29,29a.9.9,0,0,1,.3.7v29a.945.945,0,0,1-1,1Zm8-37a.908.908,0,0,1-.3.7L2-1095.6v27.6H58v-27.6l-28-28-13.3,13.3a.914.914,0,0,1-1.1.2.875.875,0,0,1-.6-.9v-6H9Zm2,33v-2H6v2H4v-10H6v2h5v-2h2v2H32a.945.945,0,0,1,1,1v1H47v2H33v1a.945.945,0,0,1-1,1H13v2Zm18-4h2v-2H29Zm-4,0h2v-2H25Zm-4,0h2v-2H21Zm-4,0h2v-2H17Zm-4,0h2v-2H13Zm-7,0h5v-2H6Zm38.4-6.4a1.932,1.932,0,0,0-2.8,0,4.109,4.109,0,0,1-4.9.6A11.822,11.822,0,0,1,31-1090a11.822,11.822,0,0,1,5.7-10.2,3.937,3.937,0,0,1,4.9.6c.1.1.2.1.3.2-.5-2.2-1.9-4.6-3.9-4.6v-2c3.4,0,5.5,3.7,5.9,6.7.2,0,.4-.2.5-.3a4.11,4.11,0,0,1,4.9-.6A11.821,11.821,0,0,1,55-1090a11.822,11.822,0,0,1-5.7,10.2,3.6,3.6,0,0,1-2,.6A4,4,0,0,1,44.4-1080.4Zm-6.6-18.1a10.025,10.025,0,0,0-4.8,8.6,9.857,9.857,0,0,0,4.8,8.5,2.017,2.017,0,0,0,2.4-.4A3.63,3.63,0,0,1,43-1083a3.927,3.927,0,0,1,2.8,1.1,1.868,1.868,0,0,0,2.4.4A9.858,9.858,0,0,0,53-1090a9.86,9.86,0,0,0-4.8-8.5,2.018,2.018,0,0,0-2.4.4,3.783,3.783,0,0,1-2.8,1.2,3.948,3.948,0,0,1-2.8-1.2,2.187,2.187,0,0,0-1.512-.678A1.512,1.512,0,0,0,37.8-1098.5ZM11-1082a.945.945,0,0,1-1-1v-10H8a.945.945,0,0,1-1-1v-4a.944.944,0,0,1,1-1h7a.945.945,0,0,1,1,1,2.006,2.006,0,0,0,2,2,2.006,2.006,0,0,0,2-2,.945.945,0,0,1,1-1h7a.944.944,0,0,1,1,1v4a.945.945,0,0,1-1,1H26v10a.945.945,0,0,1-1,1Zm-2-13h2a.945.945,0,0,1,1,1v10H24v-10a.945.945,0,0,1,1-1h2v-2H21.9a4.078,4.078,0,0,1-3.9,3,3.989,3.989,0,0,1-3.9-3H9Z" transform="translate(1320 2686)"/>
</svg>
