<svg xmlns="http://www.w3.org/2000/svg" viewBox="1472 1566.306 98 54.494">
  <defs>
    <style>
      .cls-1 {
        fill: none;
        stroke: #05579f;
        stroke-linecap: round;
        stroke-linejoin: round;
        stroke-miterlimit: 10;
        stroke-width: 2px;
      }
    </style>
  </defs>
  <g id="fundamentos" transform="translate(39 1119)">
    <path id="Path_25" data-name="Path 25" class="cls-1" d="M.5,22.3H13.684c5.273,0,11.266,2.037,16.779,4.914,3.236,1.678,9.348,5.393,9.348,5.393" transform="translate(1433.5 452.133)"/>
    <path id="Path_26" data-name="Path 26" class="cls-1" d="M.5,34.3H12.485c6.712,0,13.184,3.236,19.416,6.352,5.873,2.876,11.386,5.633,16.539,5.633s10.667-2.757,16.419-5.633C71.092,37.536,77.564,34.3,84.4,34.3H96.5" transform="translate(1433.5 454.515)"/>
    <path id="Path_27" data-name="Path 27" class="cls-1" d="M.5,28.12H12.485c6.712,0,13.184,3.236,19.416,6.232,5.873,2.876,11.386,5.633,16.539,5.633s10.667-2.757,16.419-5.633C71.092,31.236,77.564,28,84.4,28H96.5" transform="translate(1433.5 453.264)"/>
    <path id="Path_28" data-name="Path 28" class="cls-1" d="M47.7,32.607s5.993-3.715,9.348-5.393C62.561,24.337,68.674,22.3,73.827,22.3H87.011" transform="translate(1442.869 452.133)"/>
    <path id="Path_29" data-name="Path 29" class="cls-1" d="M55.019.5C50.225.5,44.113,7.811,44.113,7.811S38,.5,33.206.5a10.939,10.939,0,0,0-7.431,18.936h0l18.337,17.5,18.1-17.258a11.058,11.058,0,0,0,3.835-8.27A11.129,11.129,0,0,0,55.019.5Z" transform="translate(1437.827 447.806)"/>
  </g>
</svg>
