<?xml version="1.0" encoding="utf-8"?>
<!-- Generator: Adobe Illustrator 22.0.1, SVG Export Plug-In . SVG Version: 6.00 Build 0)  -->
<svg version="1.1" id="Layer_1" xmlns:amcharts="http://amcharts.com/ammap"
	 xmlns="http://www.w3.org/2000/svg" xmlns:xlink="http://www.w3.org/1999/xlink" x="0px" y="0px" viewBox="0 0 6000 6000"
	 enable-background="new 0 0 6000 6000" xml:space="preserve">
<defs>
	
	
		<amcharts:ammap  bottomLatitude="13.152442" leftLongitude="-90.125247" projection="mercator" rightLongitude="-87.683841" topLatitude="14.450692">
		</amcharts:ammap>
</defs>
<path id="SV-AH" fill="#F4F4F4" stroke="#00AFBE" stroke-width="9" stroke-linecap="round" stroke-linejoin="round" d="
	M863.704,2371.833l18.167,8.647l18.096,8.647l19.039,14.24l9.957,23.182l9.009-0.433l8.284,11.407h40.4l17.223,4.87l31.614-1.162
	l0,0l19.764,0.794l7.699,8.217l12.646-1.018l8.21,39.675l4.578,6.1l46.871,24.638l7.125,7.338l3.995,10.9l-3.854,47.161
	l-36.475,50.215l-5.961,39.818l-14.604,25.214l1.451,18.97l-2.834,11.191l-26.885,40.108l-13.153,3.202l0,0l-7.338-10.03
	l-21.217-5.891l-5.309-8.059l-18.237,26.592l-22.237,11.117l-24.489,2.474l-8.501,9.158l16.058,65.833l17.877,32.045l2.252,9.957
	l-23.762,41.057l-23.908,20.201l-9.59,12.576l-8.285,33.203l-0.292,14.313l10.031,45.056l13.951,40.042l-30.593,3.05l-7.05,6.611
	l-2.763,36.188l-18.309,42.005l0.507,23.686l-13.153,24.49l-16.279,66.123l-11.262,21.224l-33.715,4.792l-13.809-1.595
	l-26.158-24.562l-19.111-11.119l-32.486-11.991l-12.135-16.203l-52.026-45.199l-8.576,0.724l-13.732,12.94l-14.026,2.396
	l-28.048,49.192l-16.279,9.158l-9.521,17.802l-20.49,9.665l0,0l-18.386-13.299l-18.309-4.719l-64.818-32.774l-87.129-38.228
	l-11.12-6.029l-0.653-4.648l5.886,5.379l27.541,4.649l19.618,14.098l29.432,7.339l-2.544-6.686l-7.268-3.998l-17.077,1.963
	l-11.698-7.99l-6.543-6.766l3.924-5.299l-13.149-2.037l-7.196,1.309l-17.655-16.063l-15.045,2.036l-0.653,6.685l-3.272,0.654
	l-79.28-35.461l-11.116-2.032l-15.041-9.374l1.962-3.344l-3.924-5.373l-14.459,3.34l-71.361-29.506l14.534-4.576l25.288,12.427
	l9.158-2.11l14.533-19.764l4.141-13.443l10.318-1.161l4.215-8.791l-2.398-6.03l-13.153-2.69l-22.524-40.186l-17.734,5.156
	l-5.014-6.607l3.559-46.074l5.451-10.974l6.251-8.569l7.487-6.108l-1.454-9.518l5.591-4.289l-12.276-52.1l21.434-16.641
	l12.21-14.171l15.623-32.7l5.666-1.381l8.867-12.352l7.483-21.731l30.159-8.57l2.615-6.979l3.197-8.647l3.996-5.159l46.871-7.63
	l17.443-12.065l9.009-17.001l-7.558-30.741l1.018-4.579l14.75-5.957l3.488-9.882l-0.873-29.216l12.134,0.948l4.506-6.832
	l21.002-7.703l13.224-5.813l2.47-8.644l14.317-12.425l22.818-8.214l4.216-5.597l8.647-1.378l16.928-3.197l10.538-12.646
	l26.743-11.117l10.392-11.991l-5.524-11.992l1.743-3.124l4.726,2.907l17.293-3.197l22.818-13.66l9.52-18.893l11.483-2.183
	l2.831-13.586l5.812-8.794l39.023-16.931l20.636-46.213l-1.234-8.725l10.105-4.358l1.958-7.192l8.65-7.703l48.684-3.925
	l12.135,5.303h10.755l8.43-5.593l12.207-18.75l10.758-8.938l18.383-3.344l22.96-10.099l15.846-0.217l4.938-3.925L863.704,2371.833z"
	/>
<path id="SV-CA" fill="#F7FF66" stroke="#00AFBE" stroke-width="9" stroke-linecap="round" stroke-linejoin="round" d="
	M3650.475,2476.834l49.49,37.643l12.205,0.507l16.932-10.536l14.313,2.469l25.291,26.817l21.077,35.169l10.459,5.233l64.678-10.536
	l24.197,3.124l7.41,1.816l38.944,22.163l23.112,24.127l0.504,12.862l-23.539,39.531l-9.955,38.22l7.268,16.641l-7.991,16.423
	l38.221,77.171l3.265,15.045l-4.571,17l4.067,15.336l10.098,3.197l0,0l-11.191,24.561l2.256,23.762l-10.68,20.785l2.398,29.355
	l-29.365,31.249l-6.613,10.97l-0.141,8.504l7.848,19.33l-2.839,16.203l-11.403,15.189l-3.854,11.624l-14.313,6.831l-8.069,17.512
	l-0.723,15.188l12.93,24.198l-1.668,10.174l-5.74,2.686l0,0l-10.46-12.859l-6.905-0.943l-14.1,6.317l-10.611-0.724l-17.293,6.463
	l-21.076,1.098l-13.148-5.381l-9.445,5.449l-42.728,0.438l-6.977-21.219l-7.849-3.125l-10.389-10.539l3.918-27.754l-29.57,0.214
	l-19.764-7.63l-23.334-16.857l-33.424-2.615l-18.748-12.063l-2.61-13.009l-20.786-7.63l-5.883,1.455l-16.72,15.112h-35.821
	l-14.393-10.315l-37.348,11.553l-15.916-5.085l-12.206,6.101l-6.616-3.994l-11.331-22.602l-4.436,7.701l-4.506,1.309l-17.437-7.117
	l-10.246,1.087l-16.861-5.887l-10.176,4.072l-7.188,11.915l-16.208-4.359l-17.877,4.8l-56.53,32.839l-24.496,1.309l-29.136-5.594
	l-13.441,1.382l-16.713-6.03l-41.421,4.215l-10.317,7.119l-22.822,28.342l-5.664,1.164l0,0h-6.472l-8.353-5.236l-10.176-17.876
	l-46.871-39.021l-19.033-6.828l-18.096,3.34l-8.869-1.889l-5.663-31.465l-9.957-10.025l-12.135-5.67l-4.945-7.123l1.312-13.881
	l-7.92-28.99l-23.693-17.949l-13.881-15.263l-6.174-1.815l-14.895,3.778l-19.331-10.899l-38.072-29.504l-17.229-21.072l-3.555,0.073
	l0.22-34.081l5.663-26.089l44.551-43.09l34.516-64.601l0,0l15.4,8.356l4.002,9.886l-1.533,7.339l6.761,1.456l19.111,15.909
	l2.832-0.291l-0.361-6.538l-6.395-12.355l-6.764-5.593l10.469-12.355l20.061-9.158l7.266,0.871l0.725,6.835l6.316-0.581
	l-2.754,6.538l4.215,2.617l8.502-3.124l19.033,2.032l12.502,7.413l33.715-1.378l13.881-8.357l18.238-4.8l7.047,5.38l19.699-15.626
	l14.967-5.958l6.975-17.221l23.76-2.763l2.256,2.686l-5.961,14.17l15.336-8.643l22.886-3.492l18.818-23.835l8.289-2.249
	l10.46-11.992l1.313,11.337l4.721,3.124l28.199-15.115l5.663,0.291l4.288,4.726l5.52-0.731l13.376-10.532l41.635-21.947l7.337-6.685
	l8.07-15.185l23.546-9.665l9.664-11.701l24.419-4.719l29.57-0.875l97.377-31.174l3.051-9.956l0,0l15.549,9.444l7.266-1.672
	l22.674-16.133l19.982,7.707l8.863-8.357l23.334,3.271l8.281-10.54L3650.475,2476.834z"/>
<path id="SV-CH" fill="#F4F4F4" stroke="#00AFBE" stroke-width="9" stroke-linecap="round" stroke-linejoin="round" d="
	M2443.986,1708.748l39.966-3.127l72.745-19.254l11.482,0.798l20.275,16.498l62.561,26.959l21.658,1.598l29.5,20.419l10.68,23.832
	l6.252,44.985l-14.896,26.81l6.103,13.3l87.491,55.665l37.427,61.545l-0.582,10.105l-8.581,9.662l5.38,10.246l21.147,4.361
	l25.504,19.985l66.784,1.088l45.708-3.344l23.759,27.904l34.232,15.696l32.118,8.357l13.15,9.444l28.556,75.139l32.195,53.122
	l44.615,100.5l19.039,11.914l19.982,1.889l46.361-4.869l56.168-12.495l14.534-0.438l14.319,5.376l33.426,32.557l37.496,60.093
	l14.172,16.276l53.696,51.957l17.806,10.393l0,0l-3.051,9.956l-97.377,31.174l-29.57,0.875l-24.419,4.719l-9.664,11.701
	l-23.546,9.665l-8.07,15.185l-7.337,6.685l-41.635,21.947l-13.376,10.532l-5.52,0.731l-4.288-4.726l-5.663-0.291l-28.199,15.115
	l-4.721-3.124l-1.313-11.337l-10.46,11.992l-8.289,2.249l-18.818,23.835l-22.886,3.492l-15.336,8.643l5.961-14.17l-2.256-2.686
	l-23.76,2.763l-6.975,17.221l-14.967,5.958l-19.699,15.626l-7.047-5.38l-18.238,4.8l-13.881,8.357l-33.715,1.378l-12.502-7.413
	l-19.033-2.032l-8.502,3.124l-4.215-2.617l2.754-6.538l-6.316,0.581l-0.725-6.835l-7.266-0.871l-20.061,9.158l-10.469,12.355
	l6.764,5.593l6.395,12.355l0.361,6.538l-2.832,0.291l-19.111-15.909l-6.761-1.456l1.533-7.339l-4.002-9.886l-15.4-8.356l0,0
	l-26.383-7.266l-2.25,12.062l4.436,11.554l-9.963-3.558l-2.974,8.794l-7.777,6.825l-3.854-4.433l-10.531-2.323l6.614-13.229
	l-8.43,1.529l-2.548-3.484l8.864-3.495l-1.015-2.686l-11.773,1.889l-8.714,12.208l-6.833-1.309l-8.722,3.348l-0.723,6.317
	l27.683,4.072l8.069,4.142l-2.038,11.481l10.9,29.646l-3.705,2.326l-16.79-25.361h-10.389l-7.487,22.237l-13.298,10.9l7.266-25.43
	l-6.685-14.028l-4.286-1.742l-14.746,22.525l5.591-30.158l-15.257-12.351l-6.33-15.626l1.746-5.229l-11.845-2.252l-7.848-9.882
	l-0.072-6.104l-4.067-2.106l-19.841,17.434l8.941-16.783l0.866-16.424l-5.882-10.172l-12.789,0.654l-2.25-2.617l11.113-11.697
	l4.436-15.479l-11.482-14.751l-13.66,5.45l-8.36-3.271l15.626-9.955l0.071-7.049l-6.826-4.142l6.245-9.298l-0.943-4.436
	l-12.497,3.705l-4.074,4.579l-12.135-5.884l-2.256,9.805l-3.633,1.676l-5.521-11.48l-14.675,7.846l-10.758-2.833l0.653-5.597
	l17.443-7.556l3.562-22.454l3.271-3.201l7.558-1.014l6.032,6.832l12.858,5.013l4.215-1.958l-6.614-10.757l0.944-6.035
	l-14.314-13.149l-3.413,0.217l-2.981,6.108l-7.047-3.131l5.082-8.865l-5.082-3.561l0.433-15.986l-3.122-1.235l-1.817,7.997
	l-9.523,2.032l5.229,12.79l-29.57,1.234l-2.399-4.726l15.115-18.525l-26.526,2.396l9.303-13.444l11.553-6.468l-4.728-4.068
	l-17.144,1.529l1.958-15.843l-14.313,14.899l-5.812-11.484l-4.436-0.147l-13.589-10.9l-5.733-0.654l-10.979,9.375l-13.661-4.87
	l-3.775,9.375l10.531,11.774l-4.286,5.52l-10.609-5.52l-6.905-8.14l-9.948-2.253l-7.487-10.683l-11.702-6.759l0.369-13.005
	l-21.296-19.621l-5.521-11.702l-6.762-0.728l-10.603,7.78l-4.868,8.28l0,0l-6.472,2.33l2.761-13.153l-11.191,5.013l-5.379,14.461
	l-15.548,6.174l-12.788,23.476l-14.895,0.503l-13.952,4.873l-3.129-8.798l-16.783-15.258l3.705-13.807l-3.051-11.914l-10.318-8.647
	l-5.886-0.29l-20.275,10.683l-16.35,17.584l-21.875,8.5l-8.139,1.235l-22.307-15.406l-41.127-6.905l-10.467,4.436l-4.286,12.863
	l-23.978,6.317l-10.393-3.774l-10.535,12.932l0,0l-6.759-5.082l-6.759-18.533l-9.3-4.792l-6.032,1.158l-7.632,8.066l-8.935-1.452
	l-14.101,6.318l-8.501-0.581l-3.56-4.939l-5.087-35.897l-8.577-6.468l-9.008,0.364l-24.49,3.781l-27.978,27.176l-23.978,10.753
	l-12.863,0.07l-13.515-7.115l-8.575,1.955l-6.54,8.868l-2.399,18.313l-11.41,11.775l-2.396,16.419l-3.708,1.676l-14.75-8.29
	l-17.949,7.052l0,0l-26.598-6.468l-31.171,5.307l-19.908-13.52l-20.786-1.595l-5.74-7.343l3.704-27.033l-6.173-20.778l7.92-10.176
	l-5.23-22.524l2.324-13.373l9.158-7.049l4.938-11.19l13.806-9.665l-0.798-12.642l20.637-6.832l7.487-10.609l-1.747-23.179
	l-5.229-14.972l-8.941-6.611l1.599-5.45l9.666-9.085l6.54-15.479l28.705-5.013l41.854-37.353l1.018-10.536l10.318-3.994
	l0.507-18.239l8.286-13.59l34.808-4.358l11.989,1.815l13.079-3.127l7.706-7.555l23.833,0.948l19.984-14.392l6.177-39.384
	l-8.938-28.121l10.535-29.429l-2.324-8.284l-9.737-11.991l-0.366-10.315l-5.958-10.393l1.019-12.719l11.333-7.192l16.424,2.396
	l16.641-12.352l9.009,2.249l7.05-2.98l16.205,7.417l35.681-21.73l15.257-21.072l-1.452-8.868l4.141-4.866l-3.558-8.721l1.308-23.035
	l12.061-13.009l9.45-19.18l0.943-16.788l5.375-11.917l-3.125-18.382l10.466-12.282l4.577-12.503l-2.689-7.919l-11.843-11.19
	l-93.232-67.363l-29.791-47.01l-97.376-104.281l-7.699-3.634l0,0l2.249-3.267l44.112,39.308l77.605,39.176l92.796,24.119
	l82.257,5.306l40.549,19.404l72.234,64.382l51.81,15.038L2443.986,1708.748z"/>
<path id="SV-CU" fill="#F4F4F4" stroke="#00AFBE" stroke-width="9" stroke-linecap="round" stroke-linejoin="round" d="
	M2441.815,2401.115l4.868-8.28l10.603-7.78l6.762,0.728l5.521,11.702l21.296,19.621l-0.369,13.005l11.702,6.759l7.487,10.683
	l9.948,2.253l6.905,8.14l10.609,5.52l4.286-5.52l-10.531-11.774l3.775-9.375l13.661,4.87l10.979-9.375l5.733,0.654l13.589,10.9
	l4.436,0.147l5.812,11.484l14.313-14.899l-1.958,15.843l17.144-1.529l4.728,4.068l-11.553,6.468l-9.303,13.444l26.526-2.396
	l-15.115,18.525l2.399,4.726l29.57-1.234l-5.229-12.79l9.523-2.032l1.817-7.997l3.122,1.235l-0.433,15.986l5.082,3.561l-5.082,8.865
	l7.047,3.131l2.981-6.108l3.413-0.217l14.314,13.149l-0.944,6.035l6.614,10.757l-4.215,1.958l-12.858-5.013l-6.032-6.832
	l-7.558,1.014l-3.271,3.201l-3.562,22.454l-17.443,7.556l-0.653,5.597l10.758,2.833l14.675-7.846l5.521,11.48l3.633-1.676
	l2.256-9.805l12.135,5.884l4.074-4.579l12.497-3.705l0.943,4.436l-6.245,9.298l6.826,4.142l-0.071,7.049l-15.626,9.955l8.36,3.271
	l13.66-5.45l11.482,14.751l-4.436,15.479l-11.113,11.697l2.25,2.617l12.789-0.654l5.882,10.172l-0.866,16.424l-8.941,16.783
	l19.841-17.434l4.067,2.106l0.072,6.104l7.848,9.882l11.845,2.252l-1.746,5.229l6.33,15.626l15.257,12.351l-5.591,30.158
	l14.746-22.525l4.286,1.742l6.685,14.028l-7.266,25.43l13.298-10.9l7.487-22.237h10.389l16.79,25.361l3.705-2.326l-10.9-29.646
	l2.038-11.481l-8.069-4.142l-27.683-4.072l0.723-6.317l8.722-3.348l6.833,1.309l8.714-12.208l11.773-1.889l1.015,2.686l-8.864,3.495
	l2.548,3.484l8.43-1.529l-6.614,13.229l10.531,2.323l3.854,4.433l7.777-6.825l2.974-8.794l9.963,3.558l-4.436-11.554l2.25-12.062
	l26.383,7.266l0,0l-34.516,64.601l-44.551,43.09l-5.663,26.089l-0.22,34.081l3.555-0.073l17.229,21.072l38.072,29.504l19.331,10.899
	l14.895-3.778l6.174,1.815l13.881,15.263l23.693,17.949l7.92,28.99l-1.312,13.881l4.945,7.123l12.135,5.67l9.957,10.025
	l5.663,31.465l8.869,1.889l18.096-3.34l19.033,6.828l46.871,39.021l10.176,17.876l8.353,5.236h6.472l0,0l3.052,4.285l7.268,49.482
	l-13.441,11.269l-0.298,19.474l-14.817,9.154l-2.327,8.14l7.99,19.764l-1.234,23.767l12.865,18.743l-1.015,11.921l-44.842,25.432
	l-21.581,26.379l0,0l-45.346,6.468l-22.594,10.826l-18.238,4.215l-6.982,10.97l-3.846,22.602l-27.037,21.801l-13.001-9.303
	l-30.884-14.023l-41.5-31.465l-54.428-13.59l0,0l-9.438-20.783l1.235-3.707l46.431-21.649l-8.792-52.834l-17.806,10.103
	l-11.411,11.696l-7.118-1.015l-5.017-6.975l-15.335-6.976l-18.522,7.699l2.25-11.19l-48.908-99.769l-18.018-48.615l-31.395-46.65
	l-3.342-28.194l-66.203-13.23l-17.436-30.591l-14.242-16.202l-13.008-36.772l-7.699-12.425l-10.468-9.301l-8.649-2.977
	l-22.014,5.158l-14.1-1.309l-5.671-7.052l-5.01-28.12l-16.79-7.699v-6.836l5.521-8.063l30.67-11.702l41.564-36.914l-0.731-4.723
	l-17.287-16.059l-23.766-7.482l-19.401-19.911l-9.013-28.775l-9.154-12.355l-15.477-35.68l-22.524-39.602l4.287-14.751
	l21.069-14.391l18.6-52.174l3.86-41.421l-4.292-23.833l-8.864-10.246l0.511-21.146l17.436-21.146L2441.815,2401.115z"/>
<path id="SV-LI" fill="#F4F4F4" stroke="#00AFBE" stroke-width="9" stroke-linecap="round" stroke-linejoin="round" d="
	M1874.354,2465.136l17.949-7.052l14.75,8.29l3.708-1.676l2.396-16.419l11.41-11.775l2.399-18.313l6.54-8.868l8.575-1.955
	l13.515,7.115l12.863-0.07l23.978-10.753l27.978-27.176l24.49-3.781l9.008-0.364l8.577,6.468l5.087,35.897l3.56,4.939l8.501,0.581
	l14.101-6.318l8.935,1.452l7.632-8.066l6.032-1.158l9.3,4.792l6.759,18.533l6.759,5.082l0,0l0.87,7.997l-9.736,8.137l-2.398,9.518
	l-12.791,6.181l0.22,17.945l-7.628,26.6l-1.817,2.469l-5.816-1.819l-4.793,5.597l2.178,14.531l-3.854,11.117l20.494,34.519
	l4.648,1.599l9.232-4.432l14.313,14.383l3.925,1.893l6.613-3.925l8.211,21.583l12.354,8.283l1.817,5.523l-2.98,2.977l-13.079,3.344
	l-4.651,5.16l4.793,14.244l44.547,19.4l53.337,8.717l3.998,9.452l1.451,26.015l-3.197,16.493l-21.945,15.042l-1.526,24.417
	l-13.589,10.826l-5.234,60.098l-10.389,43.6l-12.937,37.352l-9.154,41.781l-18.894,37.86l5.378,34.731l-27.54,93.379l-13.516,31.464
	l-8.866,9.808l3.268,5.741l6.468,2.69l31.029-13.149l8.792,1.89l-3.196,17.072l-23.763,25.071l-0.216,9.376l4.286,6.974l-8.647,7.05
	l1.02,6.029l25.213,6.903l48.322,21.219l5.234,7.779l8.937,38.364l6.83,15.553l4.36,7.121l22.673,14.609l4.507,6.463l-4.361,7.92
	l-18.312,4.146l-4.942,3.925l-7.122,16.35l-3.924,24.486l1.019,5.961l5.304,2.903l22.964,0.22l17.51,7.85l-0.728,4.72l-16.782,16.35
	l-7.416,19.331l2.764,19.984l-7.849,15.406l1.817,19.039l14.533,21.216l7.121,16.935l-4.431,35.97l-13.881,21.728l-4.942,15.185
	l-0.362,13.954l21.293,45.709l10.535,15.185l6.177,25.362l18.021,17.146l1.887,14.752l-5.01,12.719l0.653,6.756l10.463,6.613
	l23.762,2.396l24.703,8.21l7.848-6.611l-1.014-18.819l4.506-7.989l-3.705-4.436l1.746-4.069l39.747-0.58l0,0l1.667,14.604
	l-4.358,24.491l14.676,3.994l39.462-6.464l4.79,2.829l0.511,6.396l-11.41,41.351l-5.883,9.665l-14.385,15.402l-19.621,8.286
	l0.503,4.796l6.615,3.635l2.98,7.699l-12.788,28.848l0,0l-30.521-20.127l-19.622-4.652l-43.888-22.087l-3.271-7.997l-15.041-1.378
	l-29.503-20.058l-72.667-31.465l-7.192-5.304l-0.656-4.722h-12.426l-81.243-34.155l-7.193-6.031l-26.231-5.308l-20.931,2.69
	l-4.578-4.071h-17.73l-8.502,13.447l-7.849,3.994l-7.848-6.685l-38.661-10.028l-15.038,6.684l-18.315-14.096l-15.768-5.303
	l-28.775,0.652l-14.389-6.033l-9.881,4.652l-9.155-7.34l-7.196,4.723l-9.154,0.655l-11.12-2.69h-13.153l-9.158-2.688l-16.351,8.068
	l-29.429-8.722l-11.19,3.999l-18.309-3.346l-11.12-2.031l-35.389-9.302l-13.079,4.645l-11.773,2.041l-55.011-6.035l-7.848,2.69
	l-2.029,3.994l-23.546,5.381l-24.926,1.305l-17.659-7.335l-21.581-12.066h-10.463l-21.001-0.653l-18.965-8.721l-16.35-2.033
	l-12.5-2.617l-15.041-3.413l-31.465-1.312l-1.962-4.648l-6.539-2.037l-3.269,2.691l-12.43-1.379l-7.191-7.996l-23.617-8.865l0,0
	l46.29-35.97l38.001-49.05l48.617-46.069l6.976-13.079l7.773-49.921l6.977-20.856l20.565-23.762l12.351-19.984l24.49-15.189
	l17.368-20.998l2.325-18.166l-10.68-109.221l3.778-21.727l11.699-9.008l12.355-4.365l66.854-9.301l7.771-26.159l15.406-6.394
	l7.341-16.42l13.661-12.135l14.824-3.635l4.361,6.104l9.736,1.816l5.812-6.105l3.782-13.807l17.656-3.564l12.135-26.739l-1.667-21.8
	l-5.088-5.889l-11.337-1.307l-20.349-9.445l0,0l-1.451-27.684l-11.481-10.176l-9.3-24.196l14.534-14.825l12.206-3.561l9.811-7.555
	l4.14-14.245l-2.76-9.81l4.726-2.906l-2.689-7.412l8.427-28.195l-10.826-33.21l5.742-6.975l-4.216-35.823l-17.658-54.284
	l9.519-15.913l-5.304-13.66l10.244-13.737l2.764-13.513l8.065-8.504l7.122,3.778l3.125-1.889l7.849-18.022l10.027-1.378l4.797-9.155
	l21.8-2.4l45.417-39.895l22.016-5.013l8.938-8.213l-0.221-13.37l-8.501-15.479l2.256-19.691l-5.89-17.948l11.557-26.887
	l11.188-0.654l3.491-10.245l8.647-6.178l-1.164-19.04l-12.28-8.427l-1.526-4.579l11.915-22.892l0.583-9.375L1874.354,2465.136z"/>
<path id="SV-MO" fill="#F4F4F4" stroke="#00AFBE" stroke-width="9" stroke-linecap="round" stroke-linejoin="round" d="
	M4890.385,2555.967l22.531,15.192l59.518,3.994l0.795,46.724l15.84,23.472l11.338,10.099l17.076,30.741l78.045,110.889l11.34,43.67
	l123.165-70.486l12.503,12.211l0,0l-18.465,46.503l-3.484,27.251l0.361,18.315l10.688,60.531l2.904,66.483l-19.254,85.752
	l5.152,7.556l33.353-4.289l6.181,4.943l4.577,34.589l10.76,23.759l-4.509,49.998l-12.573,27.105l-19.252,64.747l-67.366,145.915
	l3.343,26.158l-22.595,61.475l-21.147,29.793l-50.655,22.017l-8.351,7.851l0,0l-18.019-2.977l-19.118,1.885l-89.81,32.777
	l-49.199,12.426l-11.404-6.179l-24.129-52.537l-52.172-19.694l-6.109-6.467l3.49-16.932l12.206-14.457l-4.136-16.498l4.719-7.412
	l-10.682-6.469l-0.149-7.051l-7.556-7.045l2.255-13.59l-46.871,1.018l-45.927,9.448l-25.576,1.819l-14.172,4.646l-30.229,20.712
	l-14.095,2.686l12.208-24.85l15.405-13.664l-2.249-7.846l-46.438-33.645l-1.889-8.066l4.647-20.128l-4.436-11.987l-30.513-18.391
	l-14.604-24.633l-55.594-48.608l-6.472-17.515l-1.305-37.354l6.473-26.959l8.35-13.733l29.941-22.745l63.07-39.527l3.564-7.998
	l-2.611-31.244l-91.133-69.324l-14.676-37.06l-5.377-43.746l32.849-51.884l1.233-40.837l10.899-8.139l15.989,3.271l4.648-2.184
	l-8.354-26.305l-26.815-12.499l1.157-15.189l-5.301-9.805l0,0l13.006-5.817l93.303-80.299l-3.412-50.575l9.013-33.497l2.69-38.587
	l13.801-0.217l5.018-7.053l24.049,0.151l1.313,8.28l7.771,5.814l13.518,3.34l18.457-1.815l8.936-0.434l7.125,13.88l7.629,0.797
	l8.863-4.289l6.472,1.746l4.868,4.506l10.318-2.106l13.08-1.019l8.279-12.642l11.41,2.76l4.656-4.653l14.313,6.035l26.448-8.218
	l23.979-14.747L4890.385,2555.967z"/>
<path id="SV-PA" fill="#F4F4F4" stroke="#00AFBE" stroke-width="9" stroke-linecap="round" stroke-linejoin="round" d="
	M3019.948,4183.413l15.037,6.688l5.89,12.715l-39.313-9.374l-8.501-6.031l1.305-3.994h25.583V4183.413z M2942.051,4143.301
	l4.578,2.69l1.959,7.992l-6.537-2.689V4143.301z M2932.238,4141.269l6.541,10.025l-18.314-3.994l0.652-4.653L2932.238,4141.269z
	 M3029.393,3330.308l-4.797,62.346l15.988,37.131l-15.988,62.568l16.422,8.721l31.904,7.121l55.154-3.418l33.281-9.374l6.543,3.344
	l-4.435,24.272l8.139,15.914l0.581,13.52l43.381,97.226l4.215,16.714l-1.674,28.41l-12.568,39.676l-3.2,26.891l-9.303,14.82
	l0.653,11.987l7.415,21.293l-1.385,25.873l8.651,18.164l-1.455,17.95l7.338,10.028l23.617,10.242l8.721,25.292l21.658,20.78
	l21.289,9.662l12.426,20.495l-2.03,9.882l-15.696,20.129l-1.021,21.149l-3.414,8.569l-7.196,7.196l-19.543,3.344l-10.104,9.883
	l-0.725,7.266l10.608,14.387l-8.721,23.403l2.548,19.183l-3.35,12.642l6.686,14.898l15.413,19.036l1.519,14.388l-23.035,23.255
	l-19.473,1.525l-10.246,4.58l-9.809,14.461l-9.885,7.338l-2.98,5.962l2.98,8.646l-2.107,4.866l-10.899,10.029l-8.36,17.658
	l1.816,9.302l-3.704,10.393l0.149,17.944l0,0l-69.467-38.73l-32.125-9.374l-11.119-12.063l1.312-14.023l4.067,2.688l1.816,9.374
	l10.467,7.997h5.23l22.893-18.021l3.484,0.65l7.629,5.38l1.965,8.717l5.229,1.382l-5.882-12.064l-9.814-6.686l2.618-14.021
	l27.47-4.651l2.611-9.375l-3.264-7.343l5.301-6.755l-5.229,2.036l-3.271,6.034l4.507,5.736l-1.023,5.087l-30.953,7.269
	l-2.611,14.024l-6.544,7.992l-4.144,3.414l-9.588,0.581l-4.576-12.061l6.535-8.718l-10.467,4.72l-13.732-16.061l-3.924-1.305
	l-4.576-0.654l-7.85-11.341l5.884-2.687l0.659-3.998l-2.618,0.657l-3.925-7.342l-13.078-10.681l-27.541-0.65l-7.195-6.033
	l0.658,5.375h-7.195l-3.27,6.688l-5.23-0.657l-2.471-4.067l-4.072,3.341l-5.891-0.65l-10.459-11.338l-10.461-22.745l-15.697-8.721
	l-7.195,3.341l-14.172-1.669l-6.834-16.422l-1.958,3.343l4.798,8.864l-0.221,4.507l10.467,3.994l0.654,3.998l-21.588,5.376
	l-13.874-13.517l-32.338-5.232l-7.487-13.301l-6.536,2.04l-9.161-4.649l-15.69-2.034l-8.501-6.686l-3.279-7.343l-5.23,0.657
	l8.509,8.717l-1.313,3.341l3.924,4.653l26.889,5.381l22.886,15.401h18.968l24.851,16.718l24.27-2.69l20.274,7.989l24.922,26.089
	l43.898,20.058l19.614,2.032l13.085,13.369l3.918,10.033l-10.46,3.34l-20.274-6.029l-100.86-54.137l-130.942-59.517l-11.78-2.032
	l-77.236-30.741l-3.279-9.375l-5.229-1.305l-1.306,3.994l-11.12-2.031l-32.118-13.374l-53.045-32.118l-182.32-101.658l0,0
	l12.788-28.778l-3.051-7.703l-6.615-3.631l-0.504-4.799l19.615-8.21l14.391-15.405l5.883-9.592l11.411-41.348l-0.511-6.396
	l-4.868-2.833l-39.385,6.469l-14.753-3.998l4.436-24.487l-1.746-14.534l0,0l13.156-37.639l17.584-11.269l3.414-15.041l8.941-12.567
	l-1.384-26.891l17.294-18.092l4.287-13.223l-6.104-20.643l0.22-25.432l-3.271-12.572l-27.322-34.588l-6.323-26.959l-9.594-15.337
	l2.76-7.919l20.565-7.993l90.401-6.901l11.262-9.232l26.455-45.415l18.309-18.894l36.262,12.135l11.184-4.067l1.533-10.103
	l6.975-0.359l14.966,4.865l22.092,17.004l15.044,2.109l7.699-4.509l14.902-18.093l9.005-0.797l6.905-8.646l16.861-8.283
	l21.651-0.148l10.176-22.668l-5.741-0.657l-10.318-13.443l0,0l54.351,13.659l41.492,31.467l30.955,14.023l13.015,9.301l27.031-21.8
	l3.853-22.597l7.047-10.975l18.238-4.215l22.602-10.826L3029.393,3330.308z"/>
<path id="SV-SA" fill="#F4F4F4" stroke="#00AFBE" stroke-width="9" stroke-linecap="round" stroke-linejoin="round" d="
	M1871.523,1487.041l11.552-6.249l6.976,1.378l33.573,26.379l11.191,2.759l12.646-6.684l0,0l7.699,3.634l97.376,104.281l29.791,47.01
	l93.232,67.363l11.843,11.19l2.689,7.919l-4.577,12.503l-10.466,12.282l3.125,18.382l-5.375,11.917l-0.943,16.788l-9.45,19.18
	l-12.061,13.009l-1.308,23.035l3.558,8.721l-4.141,4.866l1.452,8.868l-15.257,21.072l-35.681,21.73l-16.205-7.417l-7.05,2.98
	l-9.009-2.249l-16.641,12.352l-16.424-2.396l-11.333,7.192l-1.019,12.719l5.958,10.393l0.366,10.315l9.737,11.991l2.324,8.284
	l-10.535,29.429l8.938,28.121l-6.177,39.384l-19.984,14.392l-23.833-0.948l-7.706,7.555l-13.079,3.127l-11.989-1.815l-34.808,4.358
	l-8.286,13.59l-0.507,18.239l-10.318,3.994l-1.018,10.536l-41.854,37.353l-28.705,5.013l-6.54,15.479l-9.666,9.085l-1.599,5.45
	l8.941,6.611l5.229,14.972l1.747,23.179l-7.487,10.609l-20.637,6.832l0.798,12.642l-13.806,9.665l-4.938,11.19l-9.158,7.049
	l-2.324,13.373l5.23,22.524l-7.92,10.176l6.173,20.778l-3.704,27.033l5.74,7.343l20.786,1.595l19.908,13.52l31.171-5.307
	l26.598,6.468l0,0l3.051,3.778l-0.583,9.375l-11.915,22.892l1.526,4.579l12.28,8.427l1.164,19.04l-8.647,6.178l-3.491,10.245
	l-11.188,0.654l-11.557,26.887l5.89,17.948l-2.256,19.691l8.501,15.479l0.221,13.37l-8.938,8.213l-22.016,5.013l-45.417,39.895
	l-21.8,2.4l-4.797,9.155l-10.027,1.378l-7.849,18.022l-3.125,1.889l-7.122-3.778l-8.065,8.504l-2.764,13.513l-10.244,13.737
	l5.304,13.66l-9.519,15.913l17.658,54.284l4.216,35.823l-5.742,6.975l10.826,33.21l-8.427,28.195l2.689,7.412l-4.726,2.906
	l2.76,9.81l-4.14,14.245l-9.811,7.555l-12.206,3.561l-14.534,14.825l9.3,24.196l11.481,10.176l1.451,27.684l0,0l-32.7-12.715
	l-18.237,0.727l-12.355,6.469l-14.895-2.979l-18.458,3.63l-18.022-4.646l-20.71-16.28l-14.387-5.597l-31.827-20.639l3.342-21.437
	l-2.253-12.425l-19.256-18.092l-14.75-8.72l-10.031-0.221l-5.084-6.395l2.615-6.611l9.59-3.125l0.583-4.578l-11.844-0.58
	l-22.453-9.449h-15.552l-21.875,12.643l-36.333,9.596l-5.23,41.061l-7.05,6.823l-18.311,8.794l-4.358,12.282l-7.777,5.01
	l-15.697-19.981l6.323-17.658l-6.613-13.66l-10.461-6.32l-27.761-7.34l-20.636,9.012l-8.359-6.902l3.201-10.47l46.722-41.27
	l2.178-6.179l-3.704-9.664l3.051-13.369l-1.597-5.818l-13.661-6.824l-49.49-1.967l1.746-7.92l-9.083-22.964l6.904-8.5l-1.962-11.333
	l3.995-11.19l-7.919-6.472l11.191-9.085l0.869-6.243l-8.573,2.977l-8.285-1.6l-6.901,7.267l-6.904-2.761l-15.187,5.233
	l-16.712-14.098l-21.005-6.394h-9.008l-7.122,6.901l-7.486-1.672l-18.529,5.597l-33.789-13.01l-14.025,1.894l-9.665,9.297
	l-16.131-8.353l0,0l13.153-3.202l26.885-40.108l2.834-11.191l-1.451-18.97l14.604-25.214l5.961-39.818l36.475-50.215l3.854-47.161
	l-3.995-10.9l-7.125-7.338l-46.871-24.638l-4.578-6.1l-8.21-39.675l-12.646,1.018l-7.699-8.217l-19.764-0.794l0,0l-1.673-8.36
	l13.808,2.984l2.832-14.535l-15.041-8.5l-5.163-19.624l6.397-15.259l-10.535-13.954l25.068-52.681l5.524-25.725l25.213-65.183
	l20.203-37.058l113.216-100.86l-0.44-5.233l68.742-37.643l16.279-3.994l19.692-1.095l53.918,7.633l62.277-7.122l50.139-26.306
	l35.897-10.536l19.622-10.39l8.643-7.413l5.67-23.762l9.155-7.34l0.511-8.139l-8.864-4.146l0.071,6.034l-3.563,3.34l-25.794-65.907
	l-30.23-41.127l-8.211-25.582l10.754,7.706l4.069-3.053l4.648-11.628l-4.648-15.623l-13.078-12.641l-11.702-3.054l0.511-7.707
	l-4.797-1.885l-5.961-11.554l-7.483-3.271l-31.462-0.584l-11.34-4.064l-15.116,13.222l-7.337,0.802l-1.38-3.999l1.962-37.275
	l9.665-28.636l11.117-4.939l17.44,1.309l6.251-5.593l0.944-16.571l17.805-3.704l-3.633-14.101l-26.236-22.961l3.271-10.754
	l-10.393-47.234l2.835-37.426l10.68-21.069l77.102-2.546l-3.562,10.03l24.053,39.752l-10.102,28.628l18.678,5.96l4.286-5.311
	l13.37,0.511l14.682-20.564l58.35-52.391l11.046-0.221l13.806-7.919l15.768-16.567l16.567,8.426l15.626,2.184l18.095,10.103
	l19.111,5.013l1.959,11.406l11.843,6.396l14.754-2.033l32.048-25.071l16.641-21.436l9.012-5.307l4.718-18.745l8.432-12.936
	l15.768-3.341l6.614-7.486l8.938,7.486L1871.523,1487.041z"/>
<path id="SV-SM" fill="#F4F4F4" stroke="#00AFBE" stroke-width="9" stroke-linecap="round" stroke-linejoin="round" d="
	M4518.189,2776.444l5.301,9.805l-1.157,15.189l26.815,12.499l8.354,26.305l-4.648,2.184l-15.989-3.271l-10.899,8.139l-1.233,40.837
	l-32.849,51.884l5.377,43.746l14.676,37.06l91.133,69.324l2.611,31.244l-3.564,7.998l-63.07,39.527l-29.941,22.745l-8.35,13.733
	l-6.473,26.959l1.305,37.354l6.472,17.515l55.594,48.608l14.604,24.633l30.513,18.391l4.436,11.987l-4.647,20.128l1.889,8.066
	l46.438,33.645l2.249,7.846l-15.405,13.664l-12.208,24.85l14.095-2.686l30.229-20.712l14.172-4.646l25.576-1.819l45.927-9.448
	l46.871-1.018l-2.255,13.59l7.556,7.045l0.149,7.051l10.682,6.469l-4.719,7.412l4.136,16.498l-12.206,14.457l-3.49,16.932
	l6.109,6.467l52.172,19.694l24.129,52.537l11.404,6.179l49.199-12.426l89.81-32.777l19.118-1.885l18.019,2.977l0,0l-9.376,15.405
	l1.889,18.528l-6.828,24.854l11.484,24.486l18.449,85.675l-3.703,7.924l-33.212,7.045l-11.696,7.195l-14.674,61.042l-2.397,38.439
	l7.188,39.025l14.242,26.084l22.53,9.957l7.487,7.121l12.275,2.612l-3.49,12.72l-12.93,22.237L5056,4047.094l-7.635,5.449
	l-12.717,1.959l-3.491,5.884l6.03,9.015l14.102,9.445l12.496,27.614l-11.625,45.202l-14.752,35.749l16.059,46.945l4.868,104.854
	l-7.479,5.884l-74.342-7.772l-13.51,2.903l-22.313,47.161l-19.473,58.354l-8.5,71.938l0,0l-0.951,2.694l-47.956-3.348l-11.775,1.966
	l0.655,7.417l-5.956,3.553l0,0l-26.313-40.689l-58.487-75.576l-15.555-35.459l-88.797-10.761l-29.288,17.446l-11.111-2.691
	l-10.687-9.588l-4.941-10.106l1.165-11.914l5.229-9.515l36.914-31.762l1.385-5.234l-13.448-22.377l-16.129-10.9l-9.451-10.899
	l-9.95-2.036l-12.867,5.885l-3.922-2.761l14.604-45.636l-8.063-11.697l-4.584,0.797l-3.405,8.36l-7.849-1.676l-3.932,8.578
	l-7.551-7.847l-28.634,7.483l-6.104-9.883l-8.067-2.544l8.067-4.287l-3.632-3.194l-16.429-1.528l-9.807-6.252l-2.762,10.03
	l-7.195-4.58l-5.23,18.82l-3.561,0.293l-6.316-6.468l-6.982,2.907l-13.662,51.304l0.66,17.947l24.994,34.956l-1.305,6.616
	l-22.098,7.699l-26.811,2.689l-13.953,6.754l-11.693-2.469l-5.601-6.105l-2.908-8.649l2.908-36.549l-9.813-14.608l-0.283-6.684
	l21.289-24.854l41.129-18.892l6.467-10.61l-5.813-28.048l-14.32-28.996l2.838-23.831l-5.742-2.185l-41.93,5.091l-21.723-5.091
	l-48.76,1.309l-9.814-3.777l-0.361-26.448l-4.868-11.481l-8.288-1.745l-5.303-10.899l-6.902-2.327l-8.283-11.264l-25.141-11.19
	l-8.943-13.442l0.299-10.685l9.366-20.998l-5.448-46.58l10.97-26.088l-0.724-20.415l-13.439-11.411l-4.074-28.194l-4.215-7.195
	l-13.582-0.655l-13.668,6.468l-6.756-4.647l5.087-53.63l6.033-3.635l22.021,5.667l12.857-5.593l2.036-15.259l-5.378-27.032
	l6.613-9.522l16.201-12.426l5.238-17.658l-7.92-116.628l-27.037-14.241l-10.681-9.016l12.426-34.952l-7.125-28.337l1.966-15.263
	l8.571-3.704l9.518,2.834l15.192,17.15l4.215-0.364l2.832-5.016l-5.742-24.413l1.016-7.27l6.764-8.717l0.221-7.344l-2.84-5.739
	l-18.096-9.882l-5.23-11.411l0.362-18.962l8.503-22.238l-10.39-55.297l-7.558-6.469l-11.334,0.143l-8.939,3.855l-11.113,11.551
	l-17.585,2.473l-25.149-13.807l-13.299,0.512l-5.883-11.195l-12.867-9.738l-4.355-7.412l-14.533-3.848l-29.72-39.168l-17.223-9.23
	l-5.301-0.217l-7.999,10.756l-12.205-2.033l-6.031,2.471l-4.506-2.62l-4.288,4.071l-13.298-10.756l-13.81,1.963l-16.632-3.268l0,0
	l-9.454-7.92l-23.396-8.721l-2.181-9.235l2.761-23.685l-7.848-15.26l-11.412-1.164l-17.15,8.938l-7.188-0.871l-11.702-54.357l0,0
	l5.74-2.686l1.668-10.174l-12.93-24.198l0.723-15.188l8.069-17.512l14.313-6.831l3.854-11.624l11.403-15.189l2.839-16.203
	l-7.848-19.33l0.141-8.504l6.613-10.97l29.365-31.249l-2.398-29.355l10.68-20.785l-2.256-23.762l11.191-24.561l0,0l18.748,1.092
	l37.858,16.861l7.048-13.741v-15.039l43.316,3.562l14.162-2.253l25.584-34.445l21.721-7.486l99.414-7.994l55.663,41.131
	l85.235-31.028L4518.189,2776.444z"/>
<path id="SV-SO" fill="#F4F4F4" stroke="#00AFBE" stroke-width="9" stroke-linecap="round" stroke-linejoin="round" d="
	M532.056,3332.776l20.49-9.665l9.521-17.802l16.279-9.158l28.048-49.192l14.026-2.396l13.732-12.94l8.576-0.724l52.026,45.199
	l12.135,16.203l32.486,11.991l19.111,11.119l26.158,24.562l13.809,1.595l33.715-4.792l11.262-21.224l16.279-66.123l13.153-24.49
	l-0.507-23.686l18.309-42.005l2.763-36.188l7.05-6.611l30.593-3.05l-13.951-40.042l-10.031-45.056l0.292-14.313l8.285-33.203
	l9.59-12.576l23.908-20.201l23.762-41.057l-2.252-9.957l-17.877-32.045l-16.058-65.833l8.501-9.158l24.489-2.474l22.237-11.117
	l18.237-26.592l5.309,8.059l21.217,5.891l7.338,10.03l0,0l16.131,8.353l9.665-9.297l14.025-1.894l33.789,13.01l18.529-5.597
	l7.486,1.672l7.122-6.901h9.008l21.005,6.394l16.712,14.098l15.187-5.233l6.904,2.761l6.901-7.267l8.285,1.6l8.573-2.977
	l-0.869,6.243l-11.191,9.085l7.919,6.472l-3.995,11.19l1.962,11.333l-6.904,8.5l9.083,22.964l-1.746,7.92l49.49,1.967l13.661,6.824
	l1.597,5.818l-3.051,13.369l3.704,9.664l-2.178,6.179l-46.722,41.27l-3.201,10.47l8.359,6.902l20.636-9.012l27.761,7.34l10.461,6.32
	l6.613,13.66l-6.323,17.658l15.697,19.981l7.777-5.01l4.358-12.282l18.311-8.794l7.05-6.823l5.23-41.061l36.333-9.596l21.875-12.643
	h15.552l22.453,9.449l11.844,0.58l-0.583,4.578l-9.59,3.125l-2.615,6.611l5.084,6.395l10.031,0.221l14.75,8.72l19.256,18.092
	l2.253,12.425l-3.342,21.437l31.827,20.639l14.387,5.597l20.71,16.28l18.022,4.646l18.458-3.63l14.895,2.979l12.355-6.469
	l18.237-0.727l32.7,12.715l0,0l20.349,9.445l11.337,1.307l5.088,5.889l1.667,21.8l-12.135,26.739l-17.656,3.564l-3.782,13.807
	l-5.812,6.105l-9.736-1.816l-4.361-6.104l-14.824,3.635l-13.661,12.135l-7.341,16.42l-15.406,6.394l-7.771,26.159l-66.854,9.301
	l-12.355,4.365l-11.699,9.008l-3.778,21.727l10.68,109.221l-2.325,18.166l-17.368,20.998l-24.49,15.189l-12.351,19.984
	l-20.565,23.762l-6.977,20.856l-7.773,49.921l-6.976,13.079l-48.617,46.069l-38.001,49.05l-46.29,35.97l0,0l-20.274-8.573
	l-41.929-9.374l-9.81-6.686l-31.466-3.998l-38.583-6.686l-40.623,3.341l-1.961-3.994l-5.23-0.651l-23.616,12.715h-5.234l-2.615-4.07
	l-27.469,4.07l-55.664-2.034l-39.967-6.685l-16.421,5.303l-21.581,2.031l-6.542,12.066l-7.196-7.34l-10.459,9.374l2.615,5.958
	l-1.962,4.723h-7.848l1.306-10.025l-2.612-3.346l-14.462-2.034l-9.81,8.069l-1.962,8.648h-3.925l-1.958-8.648l1.305-8.721
	l-6.543-5.377l-7.192,2.688l-0.652-7.34l-13.224-6.684l-6.469,1.304l-0.657-6.03l7.196-2.687v-6.03l-11.12-2.69l-3.268-7.34
	l2.615-5.303l-7.196-19.477l1.313-14.679l-4.581-13.438l-5.233-2.184l-1.959-19.183l-12.426,0.65l-8.501-8.717l3.268-3.999
	l1.961,4.653l8.503-2.687l2.618,4.063l3.268-1.377l-2.616-18.747l-3.924-1.309l5.882-16.717l-12.425-20.782l-14.458-10.754
	l-10.464-5.955l-38.005-23.473l-44.473-28.775l-115.249-64.967l-9.885-6.685l1.966-5.376l-5.89-5.381l-2.611,5.381h-3.925
	L532.056,3332.776z"/>
<path id="SV-SS" fill="#F4F4F4" stroke="#00AFBE" stroke-width="9" stroke-linecap="round" stroke-linejoin="round" d="
	M2139.155,2434.542l10.535-12.932l10.393,3.774l23.978-6.317l4.286-12.863l10.467-4.436l41.127,6.905l22.307,15.406l8.139-1.235
	l21.875-8.5l16.35-17.584l20.275-10.683l5.886,0.29l10.318,8.647l3.051,11.914l-3.705,13.807l16.783,15.258l3.129,8.798
	l13.952-4.873l14.895-0.503l12.788-23.476l15.548-6.174l5.379-14.461l11.191-5.013l-2.761,13.153l6.472-2.33l0,0l-9.744,31.105
	l-17.436,21.146l-0.511,21.146l8.864,10.246l4.292,23.833l-3.86,41.421l-18.6,52.174l-21.069,14.391l-4.287,14.751l22.524,39.602
	l15.477,35.68l9.154,12.355l9.013,28.775l19.401,19.911l23.766,7.482l17.287,16.059l0.731,4.723l-41.564,36.914l-30.67,11.702
	l-5.521,8.063v6.836l16.79,7.699l5.01,28.12l5.671,7.052l14.1,1.309l22.014-5.158l8.649,2.977l10.468,9.301l7.699,12.425
	l13.008,36.772l14.242,16.202l17.436,30.591l66.203,13.23l3.342,28.194l31.395,46.65l18.018,48.615l48.908,99.769l-2.25,11.19
	l18.522-7.699l15.335,6.976l5.017,6.975l7.118,1.015l11.411-11.696l17.806-10.103l8.792,52.834l-46.431,21.649l-1.235,3.707
	l9.438,20.783l0,0l10.317,13.369l5.749,0.658l-10.105,22.666l-21.651,0.152l-16.861,8.279l-6.905,8.65l-9.012,0.725l-14.896,18.166
	l-7.7,4.436l-15.044-2.037l-22.163-17.076l-14.966-4.869l-6.982,0.367l-1.519,10.172l-11.199,4.068l-36.254-12.062l-18.316,18.894
	l-26.448,45.415l-11.191,9.23l-90.394,6.903l-20.494,7.992l-2.838,7.92l9.666,15.334l6.323,26.961l27.328,34.586l3.264,12.571
	l-0.142,25.435l6.032,20.639l-4.216,13.223l-17.372,18.092l1.383,26.89l-8.934,12.646l-3.421,14.964l-17.584,11.34l-13.079,37.57
	l0,0l-39.747,0.58l-1.746,4.069l3.705,4.436l-4.506,7.989l1.014,18.819l-7.848,6.611l-24.703-8.21l-23.762-2.396l-10.463-6.613
	l-0.653-6.756l5.01-12.719l-1.887-14.752l-18.021-17.146l-6.177-25.362l-10.535-15.185l-21.293-45.709l0.362-13.954l4.942-15.185
	l13.881-21.728l4.431-35.97l-7.121-16.935l-14.533-21.216l-1.817-19.039l7.849-15.406l-2.764-19.984l7.416-19.331l16.782-16.35
	l0.728-4.72l-17.51-7.85l-22.964-0.22l-5.304-2.903l-1.019-5.961l3.924-24.486l7.122-16.35l4.942-3.925l18.312-4.146l4.361-7.92
	l-4.507-6.463l-22.673-14.609l-4.36-7.121l-6.83-15.553l-8.937-38.364l-5.234-7.779l-48.322-21.219l-25.213-6.903l-1.02-6.029
	l8.647-7.05l-4.286-6.974l0.216-9.376l23.763-25.071l3.196-17.072l-8.792-1.89l-31.029,13.149l-6.468-2.69l-3.268-5.741l8.866-9.808
	l13.516-31.464l27.54-93.379l-5.378-34.731l18.894-37.86l9.154-41.781l12.937-37.352l10.389-43.6l5.234-60.098l13.589-10.826
	l1.526-24.417l21.945-15.042l3.197-16.493l-1.451-26.015l-3.998-9.452l-53.337-8.717l-44.547-19.4l-4.793-14.244l4.651-5.16
	l13.079-3.344l2.98-2.977l-1.817-5.523l-12.354-8.283l-8.211-21.583l-6.613,3.925l-3.925-1.893l-14.313-14.383l-9.232,4.432
	l-4.648-1.599l-20.494-34.519l3.854-11.117l-2.178-14.531l4.793-5.597l5.816,1.819l1.817-2.469l7.628-26.6l-0.22-17.945
	l12.791-6.181l2.398-9.518l9.736-8.137L2139.155,2434.542z"/>
<path id="SV-SV" fill="#F4F4F4" stroke="#00AFBE" stroke-width="9" stroke-linecap="round" stroke-linejoin="round" d="
	M3097.773,3102.499l5.664-1.164l22.822-28.342l10.317-7.119l41.421-4.215l16.713,6.03l13.441-1.382l29.136,5.594l24.496-1.309
	l56.53-32.839l17.877-4.8l16.208,4.359l7.188-11.915l10.176-4.072l16.861,5.887l10.246-1.087l17.437,7.117l4.506-1.309l4.436-7.701
	l11.331,22.602l6.616,3.994l12.206-6.101l15.916,5.085l37.348-11.553l14.393,10.315h35.821l16.72-15.112l5.883-1.455l20.786,7.63
	l2.61,13.009l18.748,12.063l33.424,2.615l23.334,16.857l19.764,7.63l29.57-0.214l-3.918,27.754l10.389,10.539l7.849,3.125
	l6.977,21.219l42.728-0.438l9.445-5.449l13.148,5.381l21.076-1.098l17.293-6.463l10.611,0.724l14.1-6.317l6.905,0.943l10.46,12.859
	l0,0l11.702,54.357l7.188,0.871l17.15-8.938l11.412,1.164l7.848,15.26l-2.761,23.685l2.181,9.235l23.396,8.721l9.454,7.92l0,0
	l6.896,16.779l-20.636,35.828l-12.206,8.938l-34.517,10.176l-16.719,9.154l-14.164,20.201l-18.238,8.504l-15.193,11.771
	l-23.255,28.557l-8.572,31.683l-22.452,16.567l-14.242,37.206l-5.742,4.651l-25.944,8.285l-51.377,2.906l-45.7,13.59l-10.688,11.337
	l-7.55,19.11l-10.035,9.734l-22.962,46.511l-6.97,4.065l-19.842-1.816l-12.936,10.319l-5.09,16.208l5.09,30.663l-8.65,18.021
	l-4.791,47.23l-10.316,31.683l-1.746,53.412l-10.609,17.438l-16.713,14.318l-25.943,68.74l-36.553,54.868l-36.619,74.623
	l1.377,28.705l7.047,14.244l15.336,9.736l1.816,12.645l-2.84,7.92l-31.096,12.281l-16.058,19.405l-14.975,30.517l-13.439,8.717
	l-37.278,37.573l-26.307,12.061l-18.818,16.498l-16.5,2.396l-13.66,6.469l-10.098,11.409l-3.123,15.187l15.037,15.409l18.316,10.535
	l42.947,14.236l7.479,9.666l1.307,11.778l0,0l-88.436-27.478l-48.468-26.662l-6.535,3.344l-9.084-5.454l0,0l-0.149-17.874
	l3.705-10.394l-1.816-9.298l8.359-17.585l10.9-10.032l2.035-4.869l-2.98-8.717l2.98-5.958l9.887-7.343l9.807-14.53l10.246-4.505
	l19.473-1.529l23.035-23.248l-1.455-14.391l-15.405-19.037l-6.756-14.973l3.421-12.645l-2.549-19.18l8.721-23.476l-10.608-14.384
	l0.724-7.265l10.1-9.886l19.62-3.346l7.196-7.121l3.414-8.574l1.021-21.146l15.696-20.127l2.03-9.887l-12.426-20.491l-21.367-9.588
	l-21.572-20.855l-8.729-25.291l-23.617-10.243l-7.338-10.028l1.455-17.952l-8.651-18.165l1.385-25.869l-7.415-21.292l-0.576-11.919
	l9.226-14.825l3.271-26.883l12.575-39.674l1.666-28.414l-4.285-16.711l-43.309-97.232l-0.653-13.517l-8.139-15.913l4.435-24.27
	l-6.543-3.34l-33.281,9.374l-55.154,3.485l-31.904-7.119l-16.422-8.721l15.988-62.498l-15.988-37.201l4.797-62.275l0,0
	l21.581-26.379l44.842-25.432l1.015-11.921l-12.865-18.743l1.234-23.767l-7.99-19.764l2.327-8.14l14.817-9.154l0.298-19.474
	l13.441-11.269l-7.268-49.482L3097.773,3102.499z"/>
<path id="SV-UN" fill="#F4F4F4" stroke="#00AFBE" stroke-width="9" stroke-linecap="round" stroke-linejoin="round" d="
	M5873.352,4509.104l3.926,8.573v16.063l-6.545-6.029l-3.264-10.688L5873.352,4509.104z M5794.725,4408.024l1.966,5.307l15.043-1.306
	l18.453,5.161l3.2,16.922l11.119,18.027l2.611,12.063l1.306,7.99l2.478,13.881l-4.436,8.871l7.777,7.92l-0.583,10.826l8.503,4.648
	l-2.761,10.028h-6.394l-7.849,7.99l-12.427-3.994l-8.506,12.061l-4.573-4.646l4.573-10.036l-10.973-7.479l-7.337,1.448l-2.613,6.03
	l-7.196,3.352l-13.006,0.65l-0.077-9.301l4.001-6.104l-0.652-16.571l-4.584-5.375l-7.85-1.309l2.617-6.031l-5.881-7.339l3.264-7.334
	l-3.916-12.72l7.848-11.55l-5.236-21.15l13.084-18.021L5794.725,4408.024z M5678.096,4332.603l20.927,6.027l9.886,9.886
	l1.958,16.056l7.849-0.65l3.273,3.341l-2.619,6.033l1.966,11.985l-3.272,6.03l-7.047-4.788l-3.414,1.447l-4.582,8.722v12.715
	l-9.807,8h-7.199l-24.196-13.377l-4.577-13.369l1.384-10.68l-4.656-3.344l-0.071-7.347l-5.229-7.989l0.653-4.146l5.883-2.54
	l-4.57-6.684l2.613-7.336l8.498-6.685L5678.096,4332.603z M5741.75,4234.786l12.426,4.799l5.89,14.678l-3.924,3.999l-6.614-1.383
	l-4.506,5.377l-6.536-1.304l-4.583,3.995l-7.119-10.758L5741.75,4234.786z M5737.756,4206.812l1.965,3.999l-9.232,6.61l-0.58-5.229
	L5737.756,4206.812z M5737.756,4164.013l2.619,10.684l-11.12,11.406l-13.15,3.999l2.03,7.191l-7.195,5.523l7.195,8.718l-3.266,7.996
	l4.57,5.378l-14.384,7.993l-16.278-3.414l-13.221,1.889l5.881-11.846l-3.271-12.719l0.653-17.368l-3.918-6.684l1.958-10.685
	l7.196,0.728v-4.722l6.543-3.34v6.03l4.066,3.995l10.39-5.958l11.772,6.686l7.194-7.343L5737.756,4164.013z M5490.254,3991.138
	l1.89,15.696l-9.083,14.678l-15.045,1.382l-17.074,16.714l-4.576-6.762l-10.467-4.575l1.305-7.34l10.469-5.38l9.303-18.092
	l24.779,0.728L5490.254,3991.138z M5407.853,2765.905l22.154,15.548l14.975-0.507l13.88,7.196l27.178-1.672l48.249,16.714
	l22.745,1.161l47.162-13.807l58.644,46.728l49.411,20.346l8.793,6.975l7.197,14.533l5.009,47.886l9.013,12.789l14.966,8.868
	l14.39,14.457l21.652,2.841l22.169,13.878l3.337,21.071l-5.152,62.782l-25,40.478l-19.984,18.819l-9.957,22.453l1.021,15.553
	l14.535,11.48l1.814,13.01l-14.318,37.57l-38.513,38.289l-9.374,17.584l-3.271,23.117l7.123,52.971l-6.251,51.085l-5.16,13.224
	l-0.503,67.578l-16.067,14.461l-25.865,37.063l-5.159,23.108l-22.383,8.284l0.214,5.67l12.716,7.191l-11.623,10.537l-4.647,10.246
	l2.396,17.289l-6.107,21.73l10.324,22.312l-15.045,19.04l0.944,7.92l17.735,10.609l3.482,16.489l13.229-2.899l25.071,10.168
	l7.487-2.902l21.289-18.822l5.301,1.017l5.741,16.788l6.755,0.577l12.064-8.644l11.481,1.451l31.834,14.387l1.737,15.479
	l-7.627,20.132l15.547,57.914l-11.19,30.301l-1.013,18.385l-5.162,6.174l-34.807-0.87l-23.184,20.131l-8.934-0.87l-6.615-5.888
	L5671.041,3916l-5.447,12.061l-30.374,1.894l-19.835,30.304l-39.745,1.524l-14.392-14.682l-20.275-9.518l-32.771-6.541l-5.884-7.34
	l15.69-35.46l0.659-9.374l-4.582-4.649l-1.961-9.374l2.613-3.999l8.5-0.654l17.663,10.028l11.844-1.308l13.591-17.512l3.342-15.258
	l13.732-10.685l-3.273-1.307l-11.113,8.721l-13.085,3.34l-1.305,9.375l3.271,9.444l-6.613,10.609h-13.007l-9.155-8.721l-7.848-2.686
	l-11.773,4.723l-0.582,22.089l-12.496,9.377l-11.773,22.089l-17.074,16.714l-2.619,10.61l-10.459,13.516l-3.854,13.951
	l-10.681,12.862l0.724,27.397l-2.619,4.647l-5.228,1.383l-9.808-7.993l-1.965,2.031l11.119,10.684l0.653,10.688l11.12,7.334
	l-3.273,20.055l3.926,15.405l5.23,6.686l18.967,9.375l8.502-4.649l5.301,1.162l1.896,5.306l-4.506,6.321l5.884,8.647l12.353,0.658
	l7.92,11.406l12.355,3.341l5.229-2.032l12.434,7.339l11.623,1.305l11.41,14.101l12.276-0.077l4.579,7.344l-6.537,6.685l7.19,14.023
	l23.616,8.573l17.01,19.548l8.502-2.033l4.719,3.198l9.665,14.171v5.376l11.772,6.031l0.654,7.342h-5.23l-5.23-4.656l-7.85,3.346
	l-1.306,18.021l-4.583,1.309l-5.232,12.062l-1.964,10.68l-9.153,9.375l-5.884,2.69l-2.548,6.684l-22.964,15.405l-0.653,11.334
	l-7.188,2.037l-9.162,16.714l-15.037,1.381l-16.352,20.717l-12.424,4.138l-3.926,8.577l-11.19,0.576l-5.159,3.491l-21.51-1.896
	l-11.267,3.781l-10.46,11.555l-2.619,8.72l-21.65,7.34l-1.89,6.615l-7.267,5.376l-7.196,5.38l-4.577,3.341l-3.27-1.313l0.652-7.479
	l-7.195-0.58l-22.162,8.791l-2.619,6.755l-7.268-0.147l-9.807,11.341l-13.079-0.654l-3.271-3.345l-17.003,17.368l-6.542,3.341
	l-15.044,10.679l-5.224,8.722l1.307,3.998l-4.586,4.727l-6.534-1.309l-5.229,3.344v2.689l7.847,1.306l15.037-2.036l1.313-6.026
	l18.963-13.377l5.89-15.406l3.917-2.683v12.72l-7.189,14.674l1.966,30.079l9.156,9.375l14.383,3.421l2.619,3.918l13.15,0.658
	l9.742,22.094l-7.85,14.021l-24.852-2.037l-9.16,3.346l-8.5-11.334l-9.738-2.761l-9.887,2.761l6.545,7.988l-3.271,2.69
	l-18.316-13.88l-23.616-5.45l-23.54,6.686l-19.039-7.409l-5.89,2.76l-7.188-2.69l-1.966,10.688h-11.113l-11.119-8.722l2.616-4.655
	l-1.964-6.022l-11.119-0.662l-0.653,5.38l3.923,2.69l-5.229,1.304l-60.169-8.864l-138.287-10.535l-2.613-4.649l6.467-8.065
	l11.984,1.233l-9.297-5.232h-3.924l-3.199,6.537l-12.497,10.177l-54.499-7.34l0,0l8.5-71.941l19.401-58.273l22.312-47.164
	l13.52-2.912l74.404,7.78l7.487-5.884l-4.868-104.861l-16.059-46.943l14.752-35.752l11.625-45.268l-12.496-27.614l-14.102-9.451
	l-6.033-9.008l3.491-5.888l12.718-1.958l7.631-5.45l13.439-47.815l12.938-22.237l3.49-12.643l-12.284-2.615l-7.487-7.123
	l-22.524-9.955l-14.242-26.085l-7.196-39.024l2.47-38.44l14.612-60.968l11.765-7.191l33.143-7.053l3.774-7.846l-18.528-85.748
	l-11.481-24.486l6.832-24.781l-1.887-18.529l9.367-15.405l0,0l8.359-7.851l50.646-22.017l21.147-29.793l22.601-61.479l-3.35-26.155
	l67.367-145.914l19.182-64.75l12.574-27.103l4.578-49.995l-10.822-23.691l-4.585-34.586l-6.175-5.018l-33.353,4.291l-5.165-7.561
	l19.26-85.674l-2.91-66.559l-10.672-60.461l-0.371-18.313l3.422-27.25l18.451-46.507l0,0l5.52,4.358l8.871-6.105h8.863l32.7,16.061
	l41.635-28.264l10.546-1.672l23.316,7.192h14.393L5407.853,2765.905z"/>
<path id="SV-US" fill="#F4F4F4" stroke="#00AFBE" stroke-width="9" stroke-linecap="round" stroke-linejoin="round" d="
	M4038.299,4432.805l7.847,6.685l-3.271,4.656l0.66,2.688l3.917-2.037l-2.612,6.686l-8.501-3.341l-2.618,2.69l-7.189-4.657
	l4.57-3.337l-0.653-5.377L4038.299,4432.805z M3953.857,4372.642l9.084,2.609l2.689,10.106l5.236,3.994l23.617-14.681l15.689,13.369
	l3.272,13.369l11.772,11.341l15.697-1.305l9.807-12.719l16.35,1.308l-2.617,7.99l7.195,10.687l-18.962,0.654l-17.663,7.335
	l-17.074-3.994l-3.922,4.647l6.541,8.722l-1.313,3.345l-8.502-8.717l-10.466-0.658l-29.423-15.406l-23.546,0.651l-3.923,3.352
	l-17.663,2.683l-31.466-7.339l-14.384-10.029l1.966-14.682l5.229-5.299L3953.857,4372.642z M3606.072,4345.895l3.932,4.657
	l-5.238,3.34l-11.111-3.34l0.652-3.345L3606.072,4345.895z M3489.521,4307.818l15.045,7.994v10.683l-5.238,4.646l-8.5-4.646v-8.726
	l-3.925-5.368v-4.657h2.618V4307.818z M3515.75,4304.479l13.738,5.372l7.92-3.483l3.924,8.863l24.198,10.68l20.275-5.369
	l9.807,6.031l-17.656,6.022l-15.045,0.661l-11.261,5.374l-11.631-20.708l-10.46-3.346l-17.656,1.309l-3.925-7.992L3515.75,4304.479z
	 M3575.99,4300.406l1.966,4.652l-2.619,4.723l-3.271,3.345l-5.883-2.04l5.23-9.371L3575.99,4300.406z M3996.443,4299.756
	l14.393,3.341v20.708l3.262,8.722l12.426,6.029l22.241,20.716l11.772,14.023v6.686l5.23,3.34l-5.23,7.34l-18.969,3.341
	l-3.926,11.341l-15.695-0.653l-8.501-20.713l-19.835-12.426l-22.744,14.091l-4.583-9.004l-5.884-6.685l-0.652-5.307l18.387-30.451
	l-2.909-18.6l0.794-11.773l6.332-2.471L3996.443,4299.756z M3697.133,4297.065l3.264,7.336l-9.153,4.002l-5.229-5.377l0.652-3.345
	L3697.133,4297.065z M3821.602,4289.073l11.773,5.371l5.891,17.373l39.307,40.108l1.313,5.38l-8.503,10.681h-5.882l-18.97-18.751
	l-9.813-2.68l-9.808-8.73l0.653-3.987l-8.502-3.349l-14.391-27.393L3821.602,4289.073z M3982.352,3266.653l16.632,3.268l13.81-1.963
	l13.298,10.753l4.288-4.068l4.506,2.62l6.031-2.471l12.205,2.033l7.999-10.756l5.301,0.143l17.223,9.231l29.72,39.165l14.533,3.854
	l4.355,7.412l12.867,9.735l5.883,11.19l13.299-0.508l25.149,13.808l17.585-2.474l11.113-11.623l8.939-3.778l11.334-0.217
	l7.558,6.465l10.319,55.301l-8.503,22.232l-0.362,18.971l5.23,11.48l18.098,9.809l2.828,5.74l-0.218,7.336l-6.757,8.725
	l-0.945,7.266l5.672,24.42l-2.838,5.009l-4.217,0.362l-15.114-17.146l-9.518-2.76l-8.571,3.705l-1.966,15.258l7.125,28.342
	l-12.426,34.879l10.681,9.081l27.028,14.175l7.929,116.625l-5.238,17.662l-16.201,12.426l-6.542,9.518l5.378,27.107l-2.037,15.257
	l-12.859,5.523l-22.018-5.593l-6.031,3.635l-5.089,53.625l6.834,4.649l13.659-6.396l13.513,0.655l4.215,7.195l4.073,28.194
	l13.369,11.411l0.724,20.415l-10.97,26.088l5.448,46.58l-9.374,20.998l-0.362,10.685l8.941,13.369l25.214,11.264l8.283,11.264
	l6.902,2.257l5.232,10.9l8.287,1.741l4.869,11.407l0.361,26.449l9.807,3.78l48.76-1.308l21.729,5.086l41.926-5.012l5.748,2.178
	l-2.84,23.838l14.314,28.995l5.813,28.043l-6.465,10.61l-41.132,18.896l-21.288,24.851l0.221,6.685l9.807,14.604l-2.91,36.556
	l2.91,8.651l5.592,6.104l11.779,2.47l13.951-6.758l26.812-2.697l22.09-7.77l1.313-6.542l-25-34.952l-0.659-17.949l13.738-51.229
	l6.903-2.907l6.396,6.468l3.561-0.293l5.23-18.82l7.119,4.58l2.767-10.03l9.808,6.255l16.42,1.525l3.635,3.194l-8.063,4.287
	l8.063,2.544l6.102,9.883l28.635-7.483l7.558,7.772l3.847-8.573l7.85,1.673l3.418-8.357l4.576-0.798l8.07,11.697l-14.682,45.637
	l3.994,2.759l12.865-5.888l9.957,2.037l9.447,10.899l16.199,10.901l13.447,22.381l-1.383,5.231l-36.916,31.753l-5.23,9.525
	l-1.092,11.913l5.016,10.106l10.68,9.584l11.05,2.69l29.279-17.441l88.806,10.757l15.548,35.46l58.494,75.499l26.307,40.77l0,0
	l-1.307,3.051l-8.501-2.689l1.307,5.379l-6.536,3.341l-11.781-7.335l-42.577-5.31l-13.079-0.651l-1.313,5.377h-2.61l-11.772-6.03
	l-11.12,9.374h-5.884l-2.619-5.307l-39.965-1.309l-6.543,10.029l-9.808-0.653l-3.923-5.3l-5.23-0.654l-1.307,4.648l-7.85-1.312
	l-4.583,8.721l-7.849-3.994l-2.613,8.72l-17.654-3.344l-1.313,5.38l-3.271,0.654l-2.612-6.686l-7.194-0.653l-2.613,7.339h-3.932
	l-2.61-4.656l-7.85-3.344l-38.007-5.37l-12.42-10.035l-14.39,6.684l-15.699-0.649l-81.892-14.535l-119.83-6.174l-8.501-5.307
	l1.305-6.685l23.619-13.369l17.074-1.309l11.778-7.335l6.536,10.679l5.882,2.689l1.315,3.995l-3.273,3.996l4.577,4.001l1.966-13.378
	l-5.89-3.994l-3.923-9.374l-8.503-0.654l-6.534,4.648l-5.893-2.683l8.503-14.026l15.044,3.34l3.926-3.996l-4.578,2.037
	l-13.087-5.307l-3.263-16.06l-5.891-4.649l-9.808-1.304l-16.35-11.991l-10.468-27.4l-0.654-11.334l-8.5-6.031v4.727l4.576,3.994
	v3.344l-3.27-0.073l-13.08-12.433v-2.902l-7.195-2.036l24.27,23.406l1.313,17.364l12.426,18.018l6.543,6.686l19.614,5.376
	l5.238,6.685l-1.313,6.686l-24.923,18.025l-4.577-0.654l-11.772-4.003l-7.196-10.679l-34.077-6.685l-12.426-10.025l-4.583-8.644
	v-8.001l-3.265-2.035v10.036l4.578,9.367l12.424,12.717l25.576,12.063l-1.958,5.377l-18.97,2.69l-11.121,9.375l-5.229-2.69
	l-12.426,3.995l-38.66-2.684l-11.768,4.649l-11.771,14.674l21.65-10.025l13.086,5.381l11.767-4.657l3.924,6.542l5.229,0.144
	l7.196,6.692l9.808-6.692l0.659,7.997l6.534,2.689l9.162-3.345l4.576-7.342l1.307,9.383l-13.078,7.335l-13.078-2.036l-30.813,6.03
	l-6.543-2.036l-28.193,10.037l-44.543-0.662l-16.353-9.375l-12.424-11.983l-24.27-37.426l1.306-11.334l9.814-18.677l7.848-6.686
	l8.502,0.651l42.578,24.711l32.771-1.313l-18.309-4.648l-20.927,2.029l-24.852-18.67l-1.965-4.649l2.617-2.689l16.35-3.995
	l15.698,0.654l7.841-8l-11.113,4.146l-39.967,1.888l-7.849-22.02l-10.458-9.367l-23.546-33.432l-47.815-37.419l-1.966-20.062
	l-5.813-5.376l-20.423-1.309l-13.071,4.652l-3.278,8.725l3.278,13.369l-2.619,16.053l-18.969,28.051l-14.392,2.036l-12.418-3.994
	l-3.273,3.994l-22.238,0.653l-1.307-7.338l-11.119-3.34l-17.004-30.085l-11.119-7.996l-13.078-16.06l-6.543-2.689l-1.306-12.063
	h-6.543l-9.153-7.338l-39.969-3.345l-8.5-10.68l-8.503,1.308l-1.304,4.723l-10.469,0.655l-8.5-6.686h-8.501l-3.272,3.345
	l-3.264-7.997l-3.273-0.653h-33.43l-3.264-2.032l0.651-3.999l13.079,0.653l4.577-5.376l-0.652-7.339l-11.774-7.342l0.654-3.995
	l-5.884,7.989l7.269-0.36l5.229,3.491l1.816,7.482l-12.354,0.727l-21.58,9.376l-6.543-12.065l-0.653-10.679l-7.196-7.34
	l-11.772-1.312l-8.501-10.025l-3.917-12.065l-11.122-5.375l-1.965,3.998l9.809,2.686l10.467,23.402l16.35,7.336v6.684l-13.078,5.38
	l-5.309-6.03l-9.005-0.801l-4.655,4.869v7.34l3.271,1.308l-2.61,3.345l-13.086-3.345l1.307-9.375l-4.57-5.376h-18.969l-4.578,1.381
	v-10.102l-3.271-3.342l-9.813,6.027l4.584,2.689l5.229-5.375v10.683l5.883,3.345l4.584-2.689l11.768,2.689l3.924,11.333
	l11.771,4.653h13.738l6.537-3.345l-22.233,32.773l-18.315-2.689l-9.154,2.035l-5.883-3.994l-17.004-0.658l-5.889,7.344l-9.154,1.308
	l-17.656-10.685l-20.935-2.686l-13.731,11.334l1.967,7.993l-6.545,0.657l-15.043-9.374l-20.346-4.656l-9.154,4.656l-7.195-3.999
	l0.652,5.373l10.467,3.344l11.113-5.303l7.196,7.34l-0.653,9.374l-10.46,0.651l-1.313,3.998l-7.195,3.34h7.85l5.889-3.995
	l3.924,4.649l-0.65,13.377l2.61,1.305l5.236-2.69l4.57-9.375l13.739,10.68h8.502l8.501-10.68l9.807-2.689l8.503,15.409
	l23.616,14.027l14.39-0.658l3.926-6.684l7.848-2.691l7.195,4.657l5.884,11.33l8.501,1.314l8.502-7.346l-1.96-10.68l20.347-8.643
	l9.814-14.682l5.23-0.655l1.305,5.373h4.576l11.12-3.994l-0.651-3.345l3.924-1.305l17.654,3.341l38.662-16.71h8.502l14.391,14.021
	l16.352,2.038l6.534,9.376l-1.305,10.025l5.882-0.654l11.773,9.374l16.351,20.709l13.079,9.375l30.158,38.076l-3.924,4.648
	l-5.23-0.793l-12.433-8.581l-9.154-1.304h-17.002l-27.542,6.029l-21.58-10.025l-5.89-11.341l-7.849-3.34l-15.697,1.312
	l-15.689,10.68l28.193-9.375l23.545,22.09l15.697,6.034h32.119l14.385,8.721l22.963,3.995l31.387-2.69l15.044,10.68l5.238,8.724
	l11.766,4.728l5.237,8.712l15.696-4.647l14.384,3.344l3.925,3.994l19.621-1.308l6.536,6.034h5.891l7.849,7.989l-1.966,2.69
	l-5.883-2.028l1.306,6.686l18.968,23.394l8.502-1.312l0.652-6.03l-3.271-2.684l2.619-4.002l22.887-7.339l3.932,24.056l2.61,3.342
	l5.89-1.313v5.381h-32.117l-77.904-27.393l-130.289-27.396l-116.558-28.705l-180.07-34.079l-98.243-10.687l-79.279-24.703l0,0
	l-1.235-11.771l-7.558-9.664l-42.945-14.245l-18.318-10.466l-15.037-15.472l3.053-15.116l10.168-11.479l13.668-6.399l16.492-2.393
	l18.892-16.499l26.233-12.066l37.35-37.491l13.447-8.791l14.896-30.521l16.129-19.33l31.033-12.355l2.831-7.919l-1.816-12.646
	l-15.335-9.664l-7.048-14.241l-1.307-28.705l36.555-74.623l36.547-54.864l25.943-68.74l16.713-14.318l10.68-17.441l1.746-53.408
	l10.248-31.683l4.797-47.234l8.643-18.025l-5.081-30.66l5.081-16.133l12.938-10.32l19.84,1.815l6.977-4.067l23.035-46.582
	l10.027-9.738l7.557-19.109l10.68-11.26l45.709-13.591l51.377-2.911l25.944-8.279l5.733-4.652l14.25-37.132l22.453-16.64
	l8.572-31.682l23.254-28.559l15.258-11.774l18.245-8.501l14.164-20.201l16.79-9.158l34.445-10.173l12.206-8.937l20.636-35.897
	L3982.352,3266.653z"/>
</svg>
