<?xml version="1.0" encoding="utf-8"?>
<!-- Generator: Adobe Illustrator 15.0.0, SVG Export Plug-In . SVG Version: 6.00 Build 0)  -->
<!DOCTYPE svg PUBLIC "-//W3C//DTD SVG 1.1//EN" "http://www.w3.org/Graphics/SVG/1.1/DTD/svg11.dtd">
<svg version="1.1" id="XMLID_2_" xmlns="http://www.w3.org/2000/svg" xmlns:xlink="http://www.w3.org/1999/xlink" x="0px" y="0px"
	 width="72.5957px" height="72.5957px" viewBox="0 0 72.5957 72.5957" enable-background="new 0 0 72.5957 72.5957"
	 xml:space="preserve">
<g id="boton_contacto01">
	<circle fill="#FFFFFF" cx="36.2979" cy="36.2979" r="36.2979"/>
	<path fill="#F49715" d="M56.0137,23.1211c0-0.0352-0.002-0.0693-0.0039-0.1045c-0.002-0.0244-0.0039-0.0498-0.0059-0.0742
		C56,22.9092,55.9941,22.877,55.9883,22.8438c-0.0039-0.0254-0.0098-0.0508-0.0137-0.0771
		c-0.0078-0.0303-0.0156-0.0596-0.0234-0.0908c-0.0078-0.0264-0.0156-0.0547-0.0234-0.0811
		c-0.0098-0.0264-0.0195-0.0537-0.0313-0.0811c-0.0098-0.0273-0.0215-0.0566-0.0332-0.084
		c-0.0117-0.0254-0.0234-0.0488-0.0352-0.0723c-0.0137-0.0293-0.0293-0.0596-0.0449-0.0879
		c-0.0117-0.0215-0.0254-0.043-0.0391-0.0645c-0.0195-0.0293-0.0371-0.0586-0.0566-0.0859
		c-0.0059-0.0098-0.0117-0.0176-0.0176-0.0273c-0.0098-0.0117-0.0215-0.0234-0.0293-0.0352
		c-0.0195-0.0254-0.041-0.0508-0.0625-0.0752c-0.0195-0.0225-0.0371-0.0439-0.0586-0.0654
		c-0.0195-0.0195-0.0391-0.0391-0.0586-0.0586c-0.0234-0.0225-0.0469-0.0439-0.0703-0.0645
		c-0.0195-0.0166-0.0391-0.0332-0.0586-0.0488c-0.0254-0.0195-0.0527-0.0391-0.0801-0.0586
		c-0.0195-0.0137-0.041-0.0283-0.0625-0.043c-0.0273-0.0166-0.0547-0.0332-0.0801-0.0488
		c-0.0254-0.0137-0.0508-0.0264-0.0762-0.0391c-0.0254-0.0137-0.0508-0.0254-0.0762-0.0371
		c-0.0273-0.0127-0.0566-0.0244-0.0859-0.0352c-0.0254-0.0098-0.0488-0.0186-0.0723-0.0273
		c-0.0313-0.0098-0.0625-0.0195-0.0957-0.0283c-0.0234-0.0068-0.0488-0.0127-0.0723-0.0186
		c-0.0313-0.0078-0.0625-0.0137-0.0938-0.0195c-0.0273-0.0049-0.0547-0.0098-0.084-0.0127
		c-0.0273-0.0029-0.0566-0.0068-0.0859-0.0088c-0.0332-0.0029-0.0645-0.0039-0.0977-0.0059c-0.0156,0-0.0293-0.002-0.0449-0.002
		H18.3711c-0.0156,0-0.0313,0.002-0.0469,0.002c-0.0313,0.002-0.0645,0.0029-0.0957,0.0059
		c-0.0293,0.002-0.0586,0.0059-0.0879,0.0088c-0.0273,0.0029-0.0547,0.0068-0.082,0.0127
		c-0.0313,0.0059-0.0625,0.0117-0.0938,0.0195c-0.0254,0.0059-0.0488,0.0117-0.0723,0.0176
		c-0.0332,0.0098-0.0645,0.0195-0.0957,0.0293c-0.0234,0.0078-0.0488,0.0176-0.0703,0.0264
		c-0.0313,0.0117-0.0605,0.0234-0.0879,0.0361c-0.0254,0.0117-0.0508,0.0234-0.0762,0.0361
		c-0.0254,0.0137-0.0508,0.0264-0.0762,0.04c-0.0254,0.0156-0.0527,0.0313-0.0781,0.0488c-0.0234,0.0137-0.0449,0.0273-0.0664,0.043
		c-0.0254,0.0195-0.0508,0.0381-0.0781,0.0586c-0.0195,0.0156-0.0391,0.0322-0.0586,0.0488
		c-0.0234,0.0205-0.0469,0.041-0.0703,0.0645c-0.0215,0.0195-0.0391,0.0391-0.0605,0.0586
		c-0.0195,0.0215-0.0391,0.043-0.0586,0.0645c-0.0195,0.0254-0.041,0.0508-0.0605,0.0762
		c-0.0098,0.0117-0.0195,0.0234-0.0293,0.0352c-0.0059,0.0088-0.0117,0.0176-0.0176,0.0273
		c-0.0195,0.0273-0.0391,0.0566-0.0566,0.0859c-0.0137,0.0215-0.0273,0.043-0.0391,0.0645
		c-0.0156,0.0283-0.0313,0.0586-0.0449,0.0879c-0.0117,0.0234-0.0254,0.0469-0.0352,0.0723
		c-0.0137,0.0273-0.0234,0.0557-0.0352,0.084c-0.0098,0.0273-0.0195,0.0537-0.0293,0.0811
		c-0.0078,0.0264-0.0156,0.0547-0.0234,0.0811c-0.0078,0.0313-0.0156,0.0605-0.0215,0.0898
		c-0.0059,0.0254-0.0117,0.0527-0.0156,0.0781c-0.0059,0.0332-0.0117,0.0654-0.0156,0.0986
		c-0.002,0.0244-0.0039,0.0498-0.0059,0.0742c-0.0039,0.0342-0.0039,0.0693-0.0059,0.1045c0,0.0098-0.002,0.0205-0.002,0.0313
		v26.291c0,0.9912,0.8027,1.793,1.793,1.793h35.8535c0.9902,0,1.791-0.8018,1.791-1.793v-26.291
		C56.0156,23.1416,56.0156,23.1309,56.0137,23.1211L56.0137,23.1211z M48.748,24.9453l-12.4512,9.1299l-12.4492-9.1299H48.748z
		 M20.1641,47.6514V26.6895l15.0723,11.0537c0.3164,0.2314,0.6895,0.3477,1.0605,0.3477c0.373,0,0.7461-0.1162,1.0605-0.3477
		l15.0742-11.0537v20.9619H20.1641z M20.1641,47.6514"/>
</g>
</svg>
