<?xml version="1.0" encoding="utf-8"?>
<!-- Generator: Adobe Illustrator 15.0.0, SVG Export Plug-In . SVG Version: 6.00 Build 0)  -->
<!DOCTYPE svg PUBLIC "-//W3C//DTD SVG 1.1//EN" "http://www.w3.org/Graphics/SVG/1.1/DTD/svg11.dtd">
<svg version="1.1" id="XMLID_1_" xmlns="http://www.w3.org/2000/svg" xmlns:xlink="http://www.w3.org/1999/xlink" x="0px" y="0px"
	 width="260.2715px" height="101.6172px" viewBox="0 0 260.2715 101.6172" enable-background="new 0 0 260.2715 101.6172"
	 xml:space="preserve">
<g id="datos06">
	<rect x="90.3516" y="49.2949" fill="none" width="82.7715" height="37.4141"/>
	<text transform="matrix(1 0 0 1 117.3516 77.5283)" fill="#FFFFFF" font-family="'Lato-Bold'" font-size="38">55</text>
	<g>
		<path fill="#98D9D5" d="M196.5781,69.3125v-3.2207c-1.7539-0.5313-3.0342-2.1602-3.0342-4.084V49.6016
			c-1.9395,4.0625-3.0264,8.6074-3.0264,13.4004c0,4.0508,0.7754,7.9238,2.1855,11.4785
			C193.2441,72.2793,194.6689,70.4258,196.5781,69.3125L196.5781,69.3125z M196.5781,69.3125"/>
		<path fill="#98D9D5" d="M246.8223,73.9922v7.5781c1.71-2.3027,3.1094-4.8496,4.1377-7.5781H246.8223z M246.8223,73.9922"/>
		<path fill="#98D9D5" d="M232.3926,92.3516c-2.125-1.793-3.376-4.4082-3.376-7.2559v-7.6836h-3.1357
			c-2.8525,0-5.1719-2.3203-5.1719-5.1719c0-2.8535,2.3193-5.1719,5.1719-5.1719h20.8701v-2.291
			c-2.2119-0.3672-4.165-1.7051-5.3037-3.6563h-9.6094c-0.9219,2.0693-2.9863,3.4453-5.3135,3.4453
			c-3.207,0-5.8154-2.6074-5.8154-5.8145v-3.5156c0-0.6816,0.5508-1.2324,1.2324-1.2324h7.9336v-2.293
			c0-2.1855,1.6885-4.1855,3.8457-4.5508c0.0684-0.0107,0.1367-0.0176,0.2051-0.0176h3.9316v-2.1504h-2.0537
			c-0.6807,0-1.2324-0.5508-1.2324-1.2324c0-0.6797,0.5518-1.2324,1.2324-1.2324h5.3252l-0.0469-4.0137
			c-2.7471-2.1738-5.8672-3.8984-9.248-5.0566c-1.2764,4.418-5.3877,7.5957-10.0957,7.5957s-8.8193-3.1777-10.0957-7.5957
			c-2.6924,0.9238-5.2188,2.2051-7.5244,3.7852h4.4336c2.7588,0,5.0039,2.2461,5.0039,5.0059c0,1.7832-0.9619,3.4219-2.4639,4.3105
			v14.7148c0,0.6797-0.5518,1.2324-1.2324,1.2324s-1.2324-0.5527-1.2324-1.2324v-0.3887c-3.0107,0.0547-5.2002,0.0664-6.5508,0.0371
			v1.0859c0,1.9238-1.2803,3.5527-3.0332,4.084v2.2734c0.543-0.1133,1.1045-0.1719,1.6807-0.1719
			c4.4443,0,8.0791,3.5273,8.2529,7.9297h1.957c3.3076,0,5.999,2.6914,5.999,5.998c0,2.4766-1.542,4.6816-3.7842,5.5762v5.3242
			c2.7305,0.7813,5.6113,1.2012,8.5898,1.2012C225.4785,94.2227,229.0664,93.5605,232.3926,92.3516L232.3926,92.3516z
			 M225.8643,48.9063c0-0.6797,0.5518-1.2324,1.2324-1.2324s1.2324,0.5527,1.2324,1.2324v1.2852
			c0,0.6797-0.5518,1.2324-1.2324,1.2324s-1.2324-0.5527-1.2324-1.2324V48.9063z M225.8643,48.9063"/>
		<path fill="#6DA8D6" d="M244.3574,84.502V72.7598c0-0.6797,0.5508-1.2324,1.2324-1.2324h6.1855
			c0.7715-2.7109,1.1836-5.5703,1.1836-8.5254c0-8.7227-3.5977-16.6211-9.3857-22.291l0.0352,3.0352
			c0.0039,0.3301-0.124,0.6465-0.3555,0.8809s-0.5469,0.3652-0.877,0.3652h-2.0537v3.3828c0,0.6816-0.5508,1.2334-1.2324,1.2334
			h-5.0459c-0.918,0.2061-1.7041,1.166-1.7041,2.1025v3.5254c0,0.6797-0.5518,1.2324-1.2324,1.2324h-7.9336v2.2832
			c0,1.8477,1.5029,3.3496,3.3506,3.3496c1.5322,0,2.8672-1.0352,3.2461-2.5176l0.0098,0.002
			c0.0977-0.3633,0.3975-0.9297,1.3105-0.9297h11.1074c0.4863,0,0.9277,0.2871,1.126,0.7305
			c0.8193,1.8379,2.6484,3.0273,4.6592,3.0273c0.6807,0,1.2324,0.5508,1.2324,1.2324v4.6543c0,0.6797-0.5518,1.2324-1.2324,1.2324
			h-22.1035c-1.4922,0-2.7061,1.2129-2.7061,2.7051c0,1.4941,1.2139,2.707,2.7061,2.707h4.3691
			c0.6807,0,1.2324,0.5527,1.2324,1.2324v8.918c0,2.5508,1.3623,4.8516,3.5908,6.1328
			C238.5723,89.5684,241.7178,87.2773,244.3574,84.502L244.3574,84.502z M244.3574,84.502"/>
		<path fill="#FFFFFF" d="M214.0049,32.752c0.9678,3.3926,4.1201,5.8359,7.7334,5.8359s6.7656-2.4434,7.7334-5.8359
			c-2.4736-0.6328-5.0645-0.9707-7.7334-0.9707C219.0703,31.7813,216.4785,32.1191,214.0049,32.752L214.0049,32.752z
			 M214.0049,32.752"/>
		<path fill="#6DA8D6" d="M210.6836,92.1992v-5.4121c0-0.584,0.4082-1.0879,0.9785-1.207c1.626-0.3398,2.8057-1.7949,2.8057-3.457
			c0-1.9492-1.5859-3.5352-3.5342-3.5352H207.75c-0.6797,0-1.2324-0.5508-1.2324-1.2324v-0.9043c0-3.1934-2.5996-5.793-5.7939-5.793
			c-3.1963,0-5.7959,2.5996-5.7959,5.793v2.5332C198.5195,84.9844,204.0664,89.6855,210.6836,92.1992L210.6836,92.1992z
			 M210.6836,92.1992"/>
		<path fill="#6DA8D6" d="M197.8105,63.8086c0.9932,0,1.8008-0.8086,1.8008-1.8008v-2.3789c0-0.3809,0.1768-0.7402,0.4775-0.9727
			c0.2871-0.2227,0.6572-0.3066,1.0107-0.2324c0.5615,0.0703,4.0586,0.0547,7.5273-0.0039V45.7871
			c0-0.5156,0.3213-0.9785,0.8047-1.1563c0.9932-0.3672,1.6592-1.3242,1.6592-2.3828c0-1.4004-1.1387-2.5391-2.5391-2.5391h-7.5762
			c-1.8711,1.6699-3.541,3.5605-4.9668,5.6309v16.666C196.0088,63,196.8164,63.8086,197.8105,63.8086L197.8105,63.8086z
			 M197.8105,63.8086"/>
		<path fill="#FFCC75" d="M257.8086,60.6172c-1.2334-18.9336-17.0771-33.7656-36.0703-33.7656
			c-19.9336,0-36.1504,16.2168-36.1504,36.1504c0,7.3125,2.1729,14.3564,6.2832,20.3691c0.2168,0.3193,0.2734,0.7207,0.1514,1.0859
			l-4.1309,12.3906l12.3916-4.1289c0.3662-0.123,0.7676-0.0664,1.0859,0.1504c6.0146,4.1113,13.0586,6.2832,20.3691,6.2832
			c18.9932,0,34.8369-14.8301,36.0703-33.7656c0.0439-0.6719,0.6201-1.1816,1.29-1.1504c0.0137-0.4082,0.0225-0.8203,0.0225-1.2344
			c0-0.4121-0.0088-0.8242-0.0225-1.2344C258.4287,61.8027,257.8525,61.291,257.8086,60.6172L257.8086,60.6172z M246.6172,85.6895
			c-0.0742,0.1113-0.167,0.2109-0.2734,0.2939c-2.9951,3.2041-6.6045,5.8252-10.6426,7.6709
			c-0.0908,0.0586-0.1914,0.1016-0.2949,0.1328c-4.1797,1.8633-8.8037,2.9004-13.668,2.9004c-3.5186,0-6.9111-0.543-10.1016-1.5469
			c-0.0723-0.0176-0.1426-0.0391-0.209-0.0684c-7.8975-2.5469-14.5303-7.9316-18.6895-14.9492
			c-0.0752-0.0938-0.1367-0.1992-0.1826-0.3105c-2.8633-4.9512-4.5029-10.6914-4.5029-16.8105
			c0-6.8652,2.0664-13.2559,5.6074-18.5879c0.0527-0.1133,0.123-0.2168,0.2061-0.3086c1.6123-2.3691,3.5186-4.5234,5.666-6.4102
			c0.0869-0.1055,0.1904-0.1953,0.3076-0.2676c3.5293-3.0273,7.6895-5.3359,12.2539-6.7012
			c0.0723-0.0293,0.1475-0.0527,0.2266-0.0684c2.9893-0.873,6.1504-1.3418,9.418-1.3418s6.4287,0.4688,9.418,1.3418
			c0.0791,0.0156,0.1543,0.0391,0.2266,0.0684c4.2617,1.2754,8.1709,3.373,11.543,6.1094c0.1152,0.0664,0.2178,0.1504,0.3047,0.248
			c7.4443,6.1836,12.1934,15.5059,12.1934,25.918c0,3.4902-0.5332,6.8574-1.5225,10.0234c-0.0166,0.0801-0.043,0.1563-0.0752,0.2285
			C252.332,77.9219,249.8467,82.1504,246.6172,85.6895L246.6172,85.6895z M246.6172,85.6895"/>
		<path fill="#082947" d="M255.4238,63.002c0-10.4121-4.749-19.7344-12.1934-25.918c-0.0869-0.0977-0.1904-0.1816-0.3047-0.248
			c-3.3721-2.7363-7.2813-4.834-11.543-6.1094c-0.0723-0.0293-0.1475-0.0527-0.2266-0.0684
			c-2.9893-0.873-6.1504-1.3418-9.418-1.3418s-6.4287,0.4688-9.418,1.3418c-0.0791,0.0156-0.1543,0.0391-0.2266,0.0684
			c-4.5645,1.3652-8.7246,3.6738-12.2539,6.7012c-0.1172,0.0723-0.2207,0.1621-0.3076,0.2676
			c-2.1475,1.8867-4.0537,4.041-5.666,6.4102c-0.083,0.0918-0.1533,0.1953-0.2061,0.3086
			c-3.541,5.332-5.6074,11.7227-5.6074,18.5879c0,6.1191,1.6396,11.8594,4.502,16.8105c0.0469,0.1113,0.1084,0.2168,0.1836,0.3105
			c4.1592,7.0176,10.792,12.4043,18.6895,14.9492c0.0664,0.0293,0.1367,0.0508,0.209,0.0684
			c3.1904,1.0039,6.583,1.5469,10.1016,1.5469c4.8633,0,9.4883-1.0371,13.668-2.9004c0.1035-0.0313,0.2031-0.0742,0.2949-0.1328
			c4.0371-1.8457,7.6475-4.4668,10.6416-7.6709c0.1074-0.083,0.2002-0.1807,0.2744-0.2939
			c3.2295-3.5391,5.7148-7.7676,7.209-12.4336c0.0322-0.0742,0.0576-0.1504,0.0752-0.2305
			C254.8906,69.8594,255.4238,66.4922,255.4238,63.002L255.4238,63.002z M221.7383,38.5898c-3.6133,0-6.7656-2.4453-7.7334-5.8379
			c2.4736-0.6328,5.0654-0.9707,7.7334-0.9707c2.6689,0,5.2598,0.3379,7.7334,0.9707
			C228.5039,36.1445,225.3516,38.5898,221.7383,38.5898L221.7383,38.5898z M194.9277,76.4512c0-3.1934,2.5996-5.793,5.7959-5.793
			c3.1943,0,5.7939,2.5996,5.7939,5.793v0.9043c0,0.6816,0.5527,1.2324,1.2324,1.2324h3.1836c1.9482,0,3.5342,1.5859,3.5342,3.5352
			c0,1.6621-1.1797,3.1172-2.8047,3.457c-0.5713,0.1191-0.9795,0.623-0.9795,1.207v5.4121
			c-6.6172-2.5137-12.1641-7.2148-15.7559-13.2148V76.4512z M200.9756,39.709h7.5762c1.4004,0,2.5391,1.1387,2.5391,2.5391
			c0,1.0586-0.666,2.0156-1.6592,2.3828c-0.4834,0.1777-0.8047,0.6406-0.8047,1.1563v12.6328
			c-3.4688,0.0586-6.9658,0.0742-7.5273,0.0039c-0.3535-0.0742-0.7236,0.0098-1.0107,0.2324
			c-0.3008,0.2324-0.4775,0.5918-0.4775,0.9727v2.3789c0,0.9922-0.8076,1.8008-1.8008,1.8008c-0.9941,0-1.8018-0.8086-1.8018-1.8008
			v-16.668C197.4346,43.2695,199.1045,41.3789,200.9756,39.709L200.9756,39.709z M193.5439,49.6016v12.4043
			c0,1.9258,1.2803,3.5547,3.0342,4.084v3.2227c-1.9092,1.1133-3.334,2.9668-3.875,5.166
			c-1.4102-3.5527-2.1855-7.4258-2.1855-11.4766C190.5176,58.209,191.6045,53.6641,193.5439,49.6016L193.5439,49.6016z
			 M213.1484,87.6973c2.2422-0.8945,3.7842-3.0996,3.7842-5.5762c0-3.3066-2.6914-5.998-5.999-5.998h-1.957
			c-0.1738-4.4023-3.8086-7.9297-8.2529-7.9297c-0.5762,0-1.1387,0.0586-1.6807,0.1719v-2.2734
			c1.7529-0.5313,3.0332-2.1602,3.0332-4.084v-1.0859c1.3506,0.0293,3.54,0.0176,6.5508-0.0371v0.3887
			c0,0.6797,0.5518,1.2324,1.2324,1.2324s1.2324-0.5527,1.2324-1.2324V46.5586c1.502-0.8887,2.4639-2.5273,2.4639-4.3105
			c0-2.7598-2.2451-5.0059-5.0049-5.0059h-4.4336c2.3066-1.5801,4.833-2.8633,7.5254-3.7852
			c1.2764,4.418,5.3877,7.5957,10.0957,7.5957s8.8184-3.1777,10.0947-7.5957c3.3818,1.1582,6.502,2.8828,9.249,5.0566l0.0469,4.0137
			h-5.3252c-0.6807,0-1.2324,0.5527-1.2324,1.2324c0,0.6816,0.5518,1.2324,1.2324,1.2324h2.0537v2.1504h-3.9316
			c-0.0684,0-0.1367,0.0068-0.2051,0.0176c-2.1572,0.3652-3.8457,2.3652-3.8457,4.5508v2.293h-7.9336
			c-0.6816,0-1.2324,0.5508-1.2324,1.2324v3.5156c0,3.207,2.6084,5.8145,5.8154,5.8145c2.3271,0,4.3916-1.376,5.3135-3.4453h9.6094
			c1.1387,1.9512,3.0918,3.2891,5.3037,3.6563v2.291h-20.8711c-2.8516,0-5.1709,2.3184-5.1709,5.1719
			c0,2.8516,2.3193,5.1719,5.1709,5.1719h3.1367v7.6836c0,2.8477,1.251,5.4629,3.375,7.2559
			c-3.3252,1.209-6.9131,1.8711-10.6533,1.8711c-2.9785,0-5.8604-0.4199-8.5898-1.2012V87.6973z M235.0723,91.2285
			c-2.2275-1.2813-3.5908-3.582-3.5908-6.1328v-8.918c0-0.6797-0.5518-1.2324-1.2324-1.2324h-4.3682
			c-1.4932,0-2.707-1.2129-2.707-2.707c0-1.4922,1.2139-2.7051,2.707-2.7051h22.1025c0.6816,0,1.2324-0.5527,1.2324-1.2324v-4.6543
			c0-0.6816-0.5508-1.2324-1.2324-1.2324c-2.0107,0-3.8398-1.1895-4.6592-3.0273c-0.1982-0.4434-0.6387-0.7305-1.126-0.7305
			h-11.1074c-0.9131,0-1.2129,0.5664-1.3105,0.9297l-0.0098-0.002c-0.3789,1.4824-1.7139,2.5176-3.2461,2.5176
			c-1.8477,0-3.3506-1.502-3.3506-3.3496v-2.2832h7.9336c0.6807,0,1.2324-0.5527,1.2324-1.2324v-3.5254
			c0-0.9365,0.7871-1.8965,1.7041-2.1025h5.0469c0.6807,0,1.2324-0.5518,1.2324-1.2334v-3.3828h2.0537
			c0.3291,0,0.6455-0.1309,0.876-0.3652c0.2324-0.2344,0.3594-0.5508,0.3555-0.8809l-0.0352-3.0352
			c5.7881,5.6699,9.3857,13.5684,9.3857,22.291c0,2.9551-0.4121,5.8145-1.1836,8.5254h-6.1855
			c-0.6807,0-1.2324,0.5527-1.2324,1.2324V84.502C241.7178,87.2773,238.5723,89.5684,235.0723,91.2285L235.0723,91.2285z
			 M246.8223,73.9922h4.1377c-1.0283,2.7285-2.4287,5.2754-4.1377,7.5781V73.9922z M246.8223,73.9922"/>
		<path fill="#082947" d="M227.0967,51.4238c0.6807,0,1.2324-0.5527,1.2324-1.2324v-1.2852c0-0.6797-0.5518-1.2324-1.2324-1.2324
			s-1.2324,0.5527-1.2324,1.2324v1.2852C225.8643,50.8711,226.416,51.4238,227.0967,51.4238L227.0967,51.4238z M227.0967,51.4238"/>
		<path fill="#082947" d="M259.1191,64.2363c-0.0078,0-0.0137,0-0.0205,0c-0.6699-0.0313-1.2461,0.4785-1.29,1.1504
			c-1.2334,18.9355-17.0771,33.7656-36.0703,33.7656c-7.3105,0-14.3545-2.1719-20.3691-6.2832
			c-0.3184-0.2168-0.7197-0.2715-1.0859-0.1504l-12.3916,4.1309l4.1309-12.3926c0.1221-0.3652,0.0654-0.7666-0.1514-1.0859
			c-4.1104-6.0127-6.2832-13.0566-6.2832-20.3691c0-19.9336,16.2168-36.1504,36.1504-36.1504
			c18.9932,0,34.8369,14.832,36.0703,33.7656c0.0439,0.6738,0.6201,1.1855,1.29,1.1504c0.0068,0,0.0127,0,0.0205,0
			c0.6787-0.0449,1.1934-0.6309,1.1494-1.3105c-0.6367-9.7695-4.9268-18.8574-12.0801-25.5879
			c-7.1855-6.7598-16.5791-10.4824-26.4502-10.4824c-10.3145,0-20.0117,4.0176-27.3057,11.3105
			c-7.293,7.293-11.3096,16.9902-11.3096,27.3047c0,7.6035,2.2002,14.9375,6.3701,21.25l-4.7197,14.1563
			c-0.1465,0.4414-0.0322,0.9316,0.2988,1.2598c0.3301,0.332,0.8174,0.4453,1.2598,0.2988l14.1572-4.7188
			c6.3125,4.1699,13.6455,6.3691,21.249,6.3691c9.8711,0,19.2646-3.7227,26.4502-10.4824
			c7.1533-6.7285,11.4434-15.8164,12.0791-25.5879C260.3125,64.8672,259.7979,64.2813,259.1191,64.2363L259.1191,64.2363z
			 M259.1191,64.2363"/>
	</g>
	<g>
		<path fill="#D7E6D8" d="M66.0186,65.7637c0,17.6816-14.334,32.0156-32.0156,32.0156c-17.6826,0-32.0166-14.334-32.0166-32.0156
			s14.334-32.0176,32.0166-32.0176C51.6846,33.7461,66.0186,48.082,66.0186,65.7637L66.0186,65.7637z M66.0186,65.7637"/>
		<g>
			<defs>
				<rect id="SVGID_1_" width="68" height="100.0039"/>
			</defs>
			<clipPath id="SVGID_2_">
				<use xlink:href="#SVGID_1_"  overflow="visible"/>
			</clipPath>
			<path clip-path="url(#SVGID_2_)" fill="#4FC497" d="M43.2637,17.7891c0,5.1133-4.1465,9.2598-9.2607,9.2598
				s-9.2598-4.1465-9.2598-9.2598c0-5.1152,9.2598-15.7617,9.2598-15.7617S43.2637,12.6738,43.2637,17.7891L43.2637,17.7891z
				 M43.2637,17.7891"/>
			<path clip-path="url(#SVGID_2_)" fill="#333333" d="M35.9893,31.8203v-2.9648c5.2568-0.9395,9.2607-5.543,9.2607-11.0664
				c0-2.5723-1.6328-6.1504-4.9912-10.9395c-2.3467-3.3477-4.6592-6.0137-4.7578-6.127c-0.377-0.4336-0.9229-0.6816-1.498-0.6816
				s-1.1221,0.248-1.499,0.6816c-0.0967,0.1113-2.4102,2.7793-4.7578,6.127c-3.3574,4.7891-4.9893,8.3672-4.9893,10.9395
				c0,5.5234,4.0029,10.125,9.2588,11.0664v2.9648C14.1885,32.8535,0,47.6816,0,65.7637c0,18.748,15.2539,34.002,34.0029,34.002
				s34.002-15.2539,34.002-34.002C68.0049,47.6816,53.8164,32.8535,35.9893,31.8203L35.9893,31.8203z M62.9482,57.7617
				c-2.6357-1.8477-6.2441-3.4199-10.7012-4.6113c-1.0596-0.2852-2.1484,0.3457-2.4316,1.4043
				c-0.2832,1.0605,0.3467,2.1504,1.4053,2.4336c7.7822,2.0801,12.8115,5.5234,12.8115,8.7754
				c0,3.5957-6.0518,7.4805-15.7568,9.4844c0.3662-3.043,0.5566-6.2285,0.5566-9.4844c0-8.8008-1.3877-17.1016-3.9043-23.3789
				c-0.873-2.1738-1.8594-4.0371-2.9375-5.5703C52.1348,39.6172,60.1406,47.6191,62.9482,57.7617L62.9482,57.7617z M21.1357,65.6797
				c1.0986,0.0293,2.0088-0.8379,2.0371-1.9336c0.0732-2.8945,0.2998-5.625,0.6475-8.1602
				c2.7539-0.3789,5.6602-0.6055,8.6445-0.6641c1.0977-0.0215,1.9697-0.9277,1.9482-2.0234
				c-0.0215-1.0977-0.9287-1.9727-2.0244-1.9492c-2.6943,0.0527-5.3311,0.2363-7.8691,0.543
				c2.0146-9.7578,5.917-15.7578,9.4834-15.7578c5.1348,0,10.8555,12.332,10.8555,30.0293c0,3.6406-0.2422,7.0566-0.6719,10.1836
				c-3.127,0.4297-6.542,0.6719-10.1836,0.6719c-17.6973,0-30.0293-5.7207-30.0293-10.8555c0-2.4336,2.7861-5,7.6465-7.0391
				c2.376-0.998,5.1172-1.8164,8.1123-2.4375c-0.2871,2.377-0.4668,4.8418-0.5322,7.3574
				C19.1719,64.7402,20.0391,65.6523,21.1357,65.6797L21.1357,65.6797z M26.7295,17.7891c0-2.7402,3.9971-8.5986,7.2734-12.6641
				c3.2754,4.0654,7.2734,9.9238,7.2734,12.6641c0,3.3223-2.2393,6.127-5.2871,6.9961v-8.377c0-1.0957-0.8896-1.9863-1.9863-1.9863
				c-1.0977,0-1.9873,0.8906-1.9873,1.9863v8.377C28.9688,23.916,26.7295,21.1113,26.7295,17.7891L26.7295,17.7891z
				 M26.0195,36.8125c-0.9609,1.3652-1.8496,2.9883-2.6475,4.8613c-1.2842,3.0137-2.2998,6.5645-3.0107,10.4473
				c-3.8096,0.6973-7.2979,1.6875-10.2803,2.9414c-1.9434,0.8145-3.624,1.7285-5.0283,2.7168
				C7.8564,47.627,15.8672,39.6172,26.0195,36.8125L26.0195,36.8125z M5.0537,73.75c1.5322,1.0781,3.3965,2.0664,5.5713,2.9375
				c6.2764,2.5195,14.5781,3.9043,23.3779,3.9043c3.2549,0,6.4424-0.1895,9.4844-0.5566
				c-2.0039,9.7051-5.8877,15.7578-9.4844,15.7578c-3.2344,0-6.6689-4.9922-8.75-12.7168c-0.2861-1.0586-1.376-1.6855-2.4355-1.4004
				s-1.6865,1.375-1.4004,2.4355c1.1885,4.4082,2.751,7.9824,4.5859,10.5977C15.8594,91.9023,7.8564,83.8965,5.0537,73.75
				L5.0537,73.75z M41.9902,94.7129c1.0781-1.5332,2.0645-3.3965,2.9375-5.5703c1.1514-2.8711,2.0654-6.166,2.7188-9.7363
				c3.5703-0.6543,6.8652-1.5664,9.7354-2.7188c2.1748-0.8711,4.0381-1.8594,5.5703-2.9375
				C60.1484,83.9004,52.1396,91.9082,41.9902,94.7129L41.9902,94.7129z M41.9902,94.7129"/>
		</g>
		<path fill="#333333" d="M21.3691,73.5625c0.0488,0,0.0977-0.002,0.1475-0.0059c1.0947-0.0801,1.917-1.0322,1.835-2.127
			c-0.0498-0.6934-0.0928-1.4043-0.125-2.1113c-0.0498-1.0977-0.9805-1.9453-2.0742-1.8945
			c-1.0967,0.0508-1.9443,0.9785-1.8945,2.0762c0.0342,0.7441,0.0781,1.4902,0.1318,2.2207
			C19.4668,72.7656,20.3379,73.5625,21.3691,73.5625L21.3691,73.5625z M21.3691,73.5625"/>
		<path fill="#333333" d="M37.668,54.9668c0.7051,0.0273,1.1113,0.0645,1.6729,0.1133c0.2393,0.0234,0.498,0.0449,0.8076,0.0703
			c0.0547,0.0039,0.1074,0.0059,0.1611,0.0059c1.0254,0,1.8945-0.7891,1.9775-1.8281c0.0879-1.0938-0.7275-2.0508-1.8213-2.1377
			c-0.2959-0.0244-0.5439-0.0459-0.7744-0.0674c-0.5713-0.0508-1.0635-0.0938-1.8672-0.125
			c-1.0986-0.0449-2.0205,0.8086-2.0625,1.9063C35.7188,54,36.5723,54.9238,37.668,54.9668L37.668,54.9668z M37.668,54.9668"/>
	</g>
	<text transform="matrix(1 0 0 1 83.7734 78.9551)" fill="#3F494A" font-family="'Lato-Bold'" font-size="38">=</text>
</g>
</svg>
