<?xml version="1.0" encoding="utf-8"?>
<!-- Generator: Adobe Illustrator 15.0.0, SVG Export Plug-In . SVG Version: 6.00 Build 0)  -->
<!DOCTYPE svg PUBLIC "-//W3C//DTD SVG 1.1//EN" "http://www.w3.org/Graphics/SVG/1.1/DTD/svg11.dtd">
<svg version="1.1" id="XMLID_2_" xmlns="http://www.w3.org/2000/svg" xmlns:xlink="http://www.w3.org/1999/xlink" x="0px" y="0px"
	 width="224.4629px" height="85.3477px" viewBox="0 0 224.4629 85.3477" enable-background="new 0 0 224.4629 85.3477"
	 xml:space="preserve">
<g id="datos02">
	<g>
		<circle fill="#3F494A" cx="7.9717" cy="3.7754" r="3.7754"/>
		<path fill="#3F494A" d="M11.96,11.6621c0-1.5293-1.252-2.7813-2.7822-2.7813H6.7656c-1.5293,0-2.7813,1.252-2.7813,2.7813v3.9004
			c-0.0381,0.1387-0.0654,0.2813-0.0654,0.4316v19.5156c0,0.8984,0.7363,1.6348,1.6357,1.6348l0,0
			c0.8994,0,1.6357-0.7363,1.6357-1.6348V23.5371h1.5625v11.9727c0,0.8984,0.7363,1.6348,1.6367,1.6348
			c0.8994,0,1.6357-0.7363,1.6357-1.6348V15.9941c0-0.1504-0.0273-0.293-0.0654-0.4316V11.6621z"/>
		<path fill="#3F494A" d="M14.6777,9.1484c-0.6963,0-1.2656,0.5703-1.2656,1.2656v11.8281c0,0.6973,0.5693,1.2676,1.2656,1.2676
			s1.2656-0.5703,1.2656-1.2676V10.4141C15.9434,9.7188,15.374,9.1484,14.6777,9.1484z"/>
		<path fill="#3F494A" d="M1.2656,9.1484C0.5693,9.1484,0,9.7188,0,10.4141v11.8281c0,0.6973,0.5693,1.2676,1.2656,1.2676
			s1.2666-0.5703,1.2666-1.2676V10.4141C2.5322,9.7188,1.9619,9.1484,1.2656,9.1484z"/>
	</g>
	<g>
		<circle fill="#3F494A" cx="33.3057" cy="3.7754" r="3.7754"/>
		<path fill="#3F494A" d="M37.293,11.6621c0-1.5293-1.252-2.7813-2.7813-2.7813h-2.4131c-1.5293,0-2.7813,1.252-2.7813,2.7813
			v3.9004c-0.0381,0.1387-0.0654,0.2813-0.0654,0.4316v19.5156c0,0.8984,0.7363,1.6348,1.6357,1.6348l0,0
			c0.9004,0,1.6357-0.7363,1.6357-1.6348V23.5371h1.5635v11.9727c0,0.8984,0.7363,1.6348,1.6357,1.6348s1.6357-0.7363,1.6357-1.6348
			V15.9941c0-0.1504-0.0273-0.293-0.0654-0.4316V11.6621z"/>
		<path fill="#3F494A" d="M40.0107,9.1484c-0.6963,0-1.2656,0.5703-1.2656,1.2656v11.8281c0,0.6973,0.5693,1.2676,1.2656,1.2676
			s1.2666-0.5703,1.2666-1.2676V10.4141C41.2773,9.7188,40.707,9.1484,40.0107,9.1484z"/>
		<path fill="#3F494A" d="M26.5996,9.1484c-0.6963,0-1.2656,0.5703-1.2656,1.2656v11.8281c0,0.6973,0.5693,1.2676,1.2656,1.2676
			s1.2656-0.5703,1.2656-1.2676V10.4141C27.8652,9.7188,27.2959,9.1484,26.5996,9.1484z"/>
	</g>
	<g>
		<circle fill="#FFFFFF" cx="58.6387" cy="3.7754" r="3.7754"/>
		<path fill="#FFFFFF" d="M62.626,11.6621c0-1.5293-1.252-2.7813-2.7813-2.7813h-2.4121c-1.5303,0-2.7813,1.252-2.7813,2.7813
			v3.9004c-0.0391,0.1387-0.0654,0.2813-0.0654,0.4316v19.5156c0,0.8984,0.7354,1.6348,1.6357,1.6348l0,0
			c0.8994,0,1.6357-0.7363,1.6357-1.6348V23.5371h1.5625v11.9727c0,0.8984,0.7363,1.6348,1.6357,1.6348
			c0.9004,0,1.6357-0.7363,1.6357-1.6348V15.9941c0-0.1504-0.0273-0.293-0.0654-0.4316V11.6621z"/>
		<path fill="#FFFFFF" d="M65.3447,9.1484c-0.6963,0-1.2656,0.5703-1.2656,1.2656v11.8281c0,0.6973,0.5693,1.2676,1.2656,1.2676
			s1.2656-0.5703,1.2656-1.2676V10.4141C66.6104,9.7188,66.041,9.1484,65.3447,9.1484z"/>
		<path fill="#FFFFFF" d="M51.9326,9.1484c-0.6963,0-1.2656,0.5703-1.2656,1.2656v11.8281c0,0.6973,0.5693,1.2676,1.2656,1.2676
			s1.2656-0.5703,1.2656-1.2676V10.4141C53.1982,9.7188,52.6289,9.1484,51.9326,9.1484z"/>
	</g>
	<g>
		<circle fill="#FFFFFF" cx="84.8447" cy="3.7754" r="3.7754"/>
		<path fill="#FFFFFF" d="M88.832,11.6621c0-1.5293-1.251-2.7813-2.7813-2.7813h-2.4121c-1.5293,0-2.7813,1.252-2.7813,2.7813
			v3.9004c-0.0381,0.1387-0.0654,0.2813-0.0654,0.4316v19.5156c0,0.8984,0.7363,1.6348,1.6357,1.6348l0,0
			c0.8994,0,1.6357-0.7363,1.6357-1.6348V23.5371h1.5625v11.9727c0,0.8984,0.7363,1.6348,1.6357,1.6348
			c0.9004,0,1.6357-0.7363,1.6357-1.6348V15.9941c0-0.1504-0.0264-0.293-0.0654-0.4316V11.6621z"/>
		<path fill="#FFFFFF" d="M91.5508,9.1484c-0.6963,0-1.2656,0.5703-1.2656,1.2656v11.8281c0,0.6973,0.5693,1.2676,1.2656,1.2676
			s1.2656-0.5703,1.2656-1.2676V10.4141C92.8164,9.7188,92.2471,9.1484,91.5508,9.1484z"/>
		<path fill="#FFFFFF" d="M78.1387,9.1484c-0.6963,0-1.2656,0.5703-1.2656,1.2656v11.8281c0,0.6973,0.5693,1.2676,1.2656,1.2676
			s1.2666-0.5703,1.2666-1.2676V10.4141C79.4053,9.7188,78.835,9.1484,78.1387,9.1484z"/>
	</g>
	<g>
		<circle fill="#FFFFFF" cx="111.0518" cy="3.7754" r="3.7754"/>
		<path fill="#FFFFFF" d="M115.0391,11.6621c0-1.5293-1.252-2.7813-2.7822-2.7813h-2.4121c-1.5293,0-2.7813,1.252-2.7813,2.7813
			v3.9004c-0.0381,0.1387-0.0654,0.2813-0.0654,0.4316v19.5156c0,0.8984,0.7363,1.6348,1.6357,1.6348l0,0
			c0.9004,0,1.6357-0.7363,1.6357-1.6348V23.5371h1.5635v11.9727c0,0.8984,0.7363,1.6348,1.6357,1.6348s1.6357-0.7363,1.6357-1.6348
			V15.9941c0-0.1504-0.0273-0.293-0.0654-0.4316V11.6621z"/>
		<path fill="#FFFFFF" d="M117.7568,9.1484c-0.6963,0-1.2656,0.5703-1.2656,1.2656v11.8281c0,0.6973,0.5693,1.2676,1.2656,1.2676
			s1.2656-0.5703,1.2656-1.2676V10.4141C119.0225,9.7188,118.4531,9.1484,117.7568,9.1484z"/>
		<path fill="#FFFFFF" d="M104.3457,9.1484c-0.6963,0-1.2666,0.5703-1.2666,1.2656v11.8281c0,0.6973,0.5703,1.2676,1.2666,1.2676
			s1.2656-0.5703,1.2656-1.2676V10.4141C105.6113,9.7188,105.042,9.1484,104.3457,9.1484z"/>
	</g>
	<g>
		<g>
			<defs>
				<rect id="SVGID_1_" x="143.3164" y="0.4551" width="81.1465" height="84.8926"/>
			</defs>
			<clipPath id="SVGID_2_">
				<use xlink:href="#SVGID_1_"  overflow="visible"/>
			</clipPath>
			<path clip-path="url(#SVGID_2_)" fill="#F4F4F4" d="M156.0566,59.541c-0.3516,0-0.7061-0.1348-0.9756-0.4043
				c-15.6875-15.6797-15.6875-41.2012,0-56.8887c0.542-0.541,1.416-0.541,1.957,0c0.543,0.543,0.543,1.4229,0,1.9658
				c-14.6025,14.6025-14.6025,38.3623,0,52.9639c0.543,0.541,0.543,1.416,0,1.959C156.7676,59.4063,156.416,59.541,156.0566,59.541
				L156.0566,59.541z M156.0566,59.541"/>
		</g>
		<path fill="#F4F4F4" d="M210.9854,59.541c-0.3525,0-0.7109-0.1348-0.9814-0.4043c-0.543-0.543-0.543-1.418,0-1.959
			c7.0635-7.0625,10.9512-16.4639,10.9512-26.4824c0-10.0176-3.8877-19.4258-10.9512-26.4814c-0.543-0.543-0.543-1.4229,0-1.9658
			c0.541-0.541,1.4209-0.541,1.9639,0c7.5859,7.5859,11.7646,17.6836,11.7646,28.4473c0,10.7559-4.1787,20.8555-11.7646,28.4414
			C211.6973,59.4063,211.3369,59.541,210.9854,59.541L210.9854,59.541z M210.9854,59.541"/>
		<path fill="#DDDDDD" d="M161.9482,53.6563c-0.3584,0-0.7109-0.1367-0.9814-0.4063c-12.4424-12.4355-12.4424-32.6797,0-45.1152
			c0.541-0.543,1.415-0.543,1.958,0c0.541,0.541,0.541,1.416,0,1.957c-11.3594,11.3574-11.3594,29.8438,0,41.1992
			c0.541,0.543,0.541,1.418,0,1.959C162.6523,53.5195,162.3008,53.6563,161.9482,53.6563L161.9482,53.6563z M161.9482,53.6563"/>
		<path fill="#DDDDDD" d="M205.1006,53.6563c-0.3525,0-0.7109-0.1367-0.9766-0.4063c-0.5479-0.541-0.5479-1.416,0-1.959
			c11.3516-11.3555,11.3516-29.8418,0-41.1992c-0.5479-0.541-0.5479-1.416,0-1.957c0.543-0.543,1.417-0.543,1.957,0
			c12.4434,12.4355,12.4434,32.6797,0,45.1152C205.8115,53.5195,205.459,53.6563,205.1006,53.6563L205.1006,53.6563z
			 M205.1006,53.6563"/>
		<path fill="#C6C6C6" d="M167.8281,47.7695c-0.3516,0-0.7109-0.1348-0.9756-0.4043c-4.4492-4.4443-6.9014-10.3633-6.9014-16.6758
			c0-6.3066,2.4521-12.2246,6.9014-16.6699c0.542-0.541,1.416-0.541,1.957,0c0.543,0.543,0.543,1.416,0,1.957
			c-8.1152,8.1152-8.1152,21.3164,0,29.4297c0.543,0.541,0.543,1.416,0,1.959C168.5391,47.6426,168.1865,47.7695,167.8281,47.7695
			L167.8281,47.7695z M167.8281,47.7695"/>
		<path fill="#C6C6C6" d="M199.2207,47.7695c-0.3594,0-0.7109-0.1348-0.9814-0.4043c-0.543-0.543-0.543-1.418,0-1.959
			c8.1123-8.1133,8.1123-21.3145,0-29.4297c-0.543-0.541-0.543-1.4141,0-1.957c0.541-0.541,1.415-0.541,1.957,0
			c4.4492,4.4453,6.9014,10.3711,6.9014,16.6758c0,6.3066-2.4521,12.2256-6.9014,16.6758
			C199.9248,47.6426,199.5723,47.7695,199.2207,47.7695L199.2207,47.7695z M199.2207,47.7695"/>
		<path fill="#DC691D" d="M191.8447,30.9746c0-4.5996-3.7246-8.3242-8.3232-8.3242c-4.5928,0-8.3174,3.7246-8.3174,8.3242
			c0,4.1289,3.0068,7.5508,6.9551,8.2012c0,0.0391-0.0264,0.0742-0.0264,0.1211V82.293c0,0.7734,0.6221,1.3887,1.3887,1.3887
			c0.7646,0,1.3877-0.6152,1.3877-1.3887V39.2969c0-0.0469-0.0195-0.082-0.0264-0.1211
			C188.8311,38.5254,191.8447,35.1035,191.8447,30.9746L191.8447,30.9746z M191.8447,30.9746"/>
	</g>
	<g>
		<circle fill="#3F494A" cx="7.9717" cy="51.5449" r="3.7754"/>
		<path fill="#3F494A" d="M11.96,59.4316c0-1.5293-1.252-2.7813-2.7822-2.7813H6.7656c-1.5293,0-2.7813,1.252-2.7813,2.7813v3.9004
			c-0.0381,0.1387-0.0654,0.2813-0.0654,0.4316v19.5156c0,0.8984,0.7363,1.6348,1.6357,1.6348l0,0
			c0.8994,0,1.6357-0.7363,1.6357-1.6348V71.3066h1.5625v11.9727c0,0.8984,0.7363,1.6348,1.6367,1.6348
			c0.8994,0,1.6357-0.7363,1.6357-1.6348V63.7637c0-0.1504-0.0273-0.293-0.0654-0.4316V59.4316z"/>
		<path fill="#3F494A" d="M14.6777,56.9199c-0.6963,0-1.2656,0.5684-1.2656,1.2656v11.8281c0,0.6953,0.5693,1.2656,1.2656,1.2656
			s1.2656-0.5703,1.2656-1.2656V58.1855C15.9434,57.4883,15.374,56.9199,14.6777,56.9199z"/>
		<path fill="#3F494A" d="M1.2656,56.9199C0.5693,56.9199,0,57.4883,0,58.1855v11.8281c0,0.6953,0.5693,1.2656,1.2656,1.2656
			s1.2666-0.5703,1.2666-1.2656V58.1855C2.5322,57.4883,1.9619,56.9199,1.2656,56.9199z"/>
	</g>
	<g>
		<circle fill="#FFFFFF" cx="33.3057" cy="51.5449" r="3.7754"/>
		<path fill="#FFFFFF" d="M37.293,59.4316c0-1.5293-1.252-2.7813-2.7813-2.7813h-2.4131c-1.5293,0-2.7813,1.252-2.7813,2.7813
			v3.9004c-0.0381,0.1387-0.0654,0.2813-0.0654,0.4316v19.5156c0,0.8984,0.7363,1.6348,1.6357,1.6348l0,0
			c0.9004,0,1.6357-0.7363,1.6357-1.6348V71.3066h1.5635v11.9727c0,0.8984,0.7363,1.6348,1.6357,1.6348s1.6357-0.7363,1.6357-1.6348
			V63.7637c0-0.1504-0.0273-0.293-0.0654-0.4316V59.4316z"/>
		<path fill="#FFFFFF" d="M40.0107,56.9199c-0.6963,0-1.2656,0.5684-1.2656,1.2656v11.8281c0,0.6953,0.5693,1.2656,1.2656,1.2656
			s1.2666-0.5703,1.2666-1.2656V58.1855C41.2773,57.4883,40.707,56.9199,40.0107,56.9199z"/>
		<path fill="#FFFFFF" d="M26.5996,56.9199c-0.6963,0-1.2656,0.5684-1.2656,1.2656v11.8281c0,0.6953,0.5693,1.2656,1.2656,1.2656
			s1.2656-0.5703,1.2656-1.2656V58.1855C27.8652,57.4883,27.2959,56.9199,26.5996,56.9199z"/>
	</g>
	<g>
		<circle fill="#FFFFFF" cx="58.6387" cy="51.5449" r="3.7754"/>
		<path fill="#FFFFFF" d="M62.626,59.4316c0-1.5293-1.252-2.7813-2.7813-2.7813h-2.4121c-1.5303,0-2.7813,1.252-2.7813,2.7813
			v3.9004c-0.0391,0.1387-0.0654,0.2813-0.0654,0.4316v19.5156c0,0.8984,0.7354,1.6348,1.6357,1.6348l0,0
			c0.8994,0,1.6357-0.7363,1.6357-1.6348V71.3066h1.5625v11.9727c0,0.8984,0.7363,1.6348,1.6357,1.6348
			c0.9004,0,1.6357-0.7363,1.6357-1.6348V63.7637c0-0.1504-0.0273-0.293-0.0654-0.4316V59.4316z"/>
		<path fill="#FFFFFF" d="M65.3447,56.9199c-0.6963,0-1.2656,0.5684-1.2656,1.2656v11.8281c0,0.6953,0.5693,1.2656,1.2656,1.2656
			s1.2656-0.5703,1.2656-1.2656V58.1855C66.6104,57.4883,66.041,56.9199,65.3447,56.9199z"/>
		<path fill="#FFFFFF" d="M51.9326,56.9199c-0.6963,0-1.2656,0.5684-1.2656,1.2656v11.8281c0,0.6953,0.5693,1.2656,1.2656,1.2656
			s1.2656-0.5703,1.2656-1.2656V58.1855C53.1982,57.4883,52.6289,56.9199,51.9326,56.9199z"/>
	</g>
	<g>
		<circle fill="#FFFFFF" cx="84.8447" cy="51.5449" r="3.7754"/>
		<path fill="#FFFFFF" d="M88.832,59.4316c0-1.5293-1.251-2.7813-2.7813-2.7813h-2.4121c-1.5293,0-2.7813,1.252-2.7813,2.7813
			v3.9004c-0.0381,0.1387-0.0654,0.2813-0.0654,0.4316v19.5156c0,0.8984,0.7363,1.6348,1.6357,1.6348l0,0
			c0.8994,0,1.6357-0.7363,1.6357-1.6348V71.3066h1.5625v11.9727c0,0.8984,0.7363,1.6348,1.6357,1.6348
			c0.9004,0,1.6357-0.7363,1.6357-1.6348V63.7637c0-0.1504-0.0264-0.293-0.0654-0.4316V59.4316z"/>
		<path fill="#FFFFFF" d="M91.5508,56.9199c-0.6963,0-1.2656,0.5684-1.2656,1.2656v11.8281c0,0.6953,0.5693,1.2656,1.2656,1.2656
			s1.2656-0.5703,1.2656-1.2656V58.1855C92.8164,57.4883,92.2471,56.9199,91.5508,56.9199z"/>
		<path fill="#FFFFFF" d="M78.1387,56.9199c-0.6963,0-1.2656,0.5684-1.2656,1.2656v11.8281c0,0.6953,0.5693,1.2656,1.2656,1.2656
			s1.2666-0.5703,1.2666-1.2656V58.1855C79.4053,57.4883,78.835,56.9199,78.1387,56.9199z"/>
	</g>
	<g>
		<circle fill="#FFFFFF" cx="111.0518" cy="51.5449" r="3.7754"/>
		<path fill="#FFFFFF" d="M115.0391,59.4316c0-1.5293-1.252-2.7813-2.7822-2.7813h-2.4121c-1.5293,0-2.7813,1.252-2.7813,2.7813
			v3.9004c-0.0381,0.1387-0.0654,0.2813-0.0654,0.4316v19.5156c0,0.8984,0.7363,1.6348,1.6357,1.6348l0,0
			c0.9004,0,1.6357-0.7363,1.6357-1.6348V71.3066h1.5635v11.9727c0,0.8984,0.7363,1.6348,1.6357,1.6348s1.6357-0.7363,1.6357-1.6348
			V63.7637c0-0.1504-0.0273-0.293-0.0654-0.4316V59.4316z"/>
		<path fill="#FFFFFF" d="M117.7568,56.9199c-0.6963,0-1.2656,0.5684-1.2656,1.2656v11.8281c0,0.6953,0.5693,1.2656,1.2656,1.2656
			s1.2656-0.5703,1.2656-1.2656V58.1855C119.0225,57.4883,118.4531,56.9199,117.7568,56.9199z"/>
		<path fill="#FFFFFF" d="M104.3457,56.9199c-0.6963,0-1.2666,0.5684-1.2666,1.2656v11.8281c0,0.6953,0.5703,1.2656,1.2666,1.2656
			s1.2656-0.5703,1.2656-1.2656V58.1855C105.6113,57.4883,105.042,56.9199,104.3457,56.9199z"/>
	</g>
</g>
</svg>
