<?xml version="1.0" encoding="utf-8"?>
<!-- Generator: Adobe Illustrator 15.0.0, SVG Export Plug-In . SVG Version: 6.00 Build 0)  -->
<!DOCTYPE svg PUBLIC "-//W3C//DTD SVG 1.1//EN" "http://www.w3.org/Graphics/SVG/1.1/DTD/svg11.dtd">
<svg version="1.1" id="XMLID_1_" xmlns="http://www.w3.org/2000/svg" xmlns:xlink="http://www.w3.org/1999/xlink" x="0px" y="0px"
	 width="248.5186px" height="77.2305px" viewBox="0 0 248.5186 77.2305" enable-background="new 0 0 248.5186 77.2305"
	 xml:space="preserve">
<g id="datos04">
	<g>
		<path fill="#3F494A" d="M32.6436,53.3672v-9.9258l2.5996,1.0742c0,0,0.8828,0.2949,2.1338,0.0293
			c-2.6279-2.043-5.7705-3.6953-9.2549-4.5781c4.082-2.748,6.8838-8.1602,6.8838-13.0313c0-6.8848-5.5781-12.4629-12.4531-12.4629
			c-6.874,0-12.4531,5.5781-12.4531,12.4629c0,4.8711,2.8125,10.2832,6.8936,13.0313C7.2324,42.4395,0,50.9141,0,57.1914
			C0,60.9023,11.2764,62.75,22.5527,62.75l-6.3145-6.3145l5.3125-12.8574h-0.0537l-2.0684-2.3691
			c1.002,0.3574,2.04,0.5781,3.124,0.5781c1.0752,0,2.1221-0.2207,3.1152-0.5781l-2.0684,2.3691h-0.0439l5.3115,12.8574
			L22.5527,62.75c5.1924,0,10.3848-0.3945,14.4746-1.1855C34.8574,59.6543,32.6436,56.8594,32.6436,53.3672L32.6436,53.3672z
			 M32.6436,53.3672"/>
		<path fill="#3F494A" d="M42.0361,43.8906c-3.7578,3.9238-7.5078,2.3711-7.5078,2.3711v7.1055
			c0,5.6328,7.5078,9.3926,7.5078,9.3926S49.5459,59,49.5459,53.3672v-7.1055C49.5459,46.2617,45.7949,47.8145,42.0361,43.8906
			L42.0361,43.8906z M42.0361,60.5996c-2.1035-1.2773-5.623-4.0723-5.623-7.2324v-4.9258c1.4512,0,3.5098-0.3867,5.623-2.0215
			V60.5996z M42.0361,60.5996"/>
	</g>
	<g>
		<rect x="66.2471" y="20.8555" fill="none" width="110.9951" height="35.5215"/>
		<text transform="matrix(1 0 0 1 93.248 49.0879)" fill="#00B1BC" font-family="'Lato-Bold'" font-size="38">130</text>
	</g>
	<g>
		<path fill="#98D9D5" d="M184.8242,44.9258v-3.2207c-1.7529-0.5313-3.0332-2.1602-3.0332-4.084V25.2158
			c-1.9395,4.0615-3.0264,8.6064-3.0264,13.3994c0,4.0508,0.7754,7.9238,2.1855,11.4785
			C181.4922,47.8926,182.916,46.0391,184.8242,44.9258L184.8242,44.9258z M184.8242,44.9258"/>
		<path fill="#98D9D5" d="M235.0693,49.6074v7.5762c1.71-2.3027,3.1084-4.8496,4.1377-7.5762H235.0693z M235.0693,49.6074"/>
		<path fill="#98D9D5" d="M220.6396,67.9648c-2.124-1.793-3.376-4.4063-3.376-7.2559v-7.6836h-3.1357
			c-2.8525,0-5.1719-2.3203-5.1719-5.1719c0-2.8535,2.3193-5.1719,5.1719-5.1719h20.8701v-2.291
			c-2.2119-0.3672-4.165-1.7051-5.3037-3.6563h-9.6094c-0.9209,2.0684-2.9863,3.4453-5.3135,3.4453
			c-3.207,0-5.8154-2.6074-5.8154-5.8145v-3.5156c0-0.6816,0.5508-1.2324,1.2324-1.2324h7.9336v-2.291
			c0-2.1875,1.6885-4.1875,3.8457-4.5527c0.0684-0.0117,0.1367-0.0166,0.2051-0.0166h3.9316v-2.1494h-2.0537
			c-0.6807,0-1.2324-0.5527-1.2324-1.2324c0-0.6816,0.5518-1.2324,1.2324-1.2324h5.3262l-0.0479-4.0156
			c-2.7471-2.1738-5.8672-3.8984-9.248-5.0566c-1.2764,4.418-5.3877,7.5977-10.0957,7.5977s-8.8193-3.1797-10.0957-7.5977
			c-2.6924,0.9238-5.2197,2.2051-7.5244,3.7871h4.4336c2.7598,0,5.0039,2.2441,5.0039,5.0039c0,1.7832-0.9619,3.4219-2.4639,4.3115
			v14.7139c0,0.6797-0.5518,1.2324-1.2324,1.2324s-1.2324-0.5527-1.2324-1.2324V36.498c-3.0107,0.0547-5.2002,0.0664-6.5508,0.0371
			v1.0859c0,1.9238-1.2803,3.5527-3.0342,4.084v2.2734c0.5439-0.1133,1.1055-0.1719,1.6816-0.1719
			c4.4434,0,8.0791,3.5273,8.2529,7.9297h1.957c3.3076,0,5.999,2.6914,5.999,5.998c0,2.4766-1.542,4.6816-3.7842,5.5762v5.3242
			c2.7305,0.7832,5.6113,1.2012,8.5898,1.2012C213.7256,69.8359,217.3135,69.1738,220.6396,67.9648L220.6396,67.9648z
			 M214.1113,24.5195c0-0.6787,0.5518-1.2324,1.2324-1.2324c0.6797,0,1.2324,0.5537,1.2324,1.2324v1.2852
			c0,0.6797-0.5527,1.2324-1.2324,1.2324c-0.6807,0-1.2324-0.5527-1.2324-1.2324V24.5195z M214.1113,24.5195"/>
		<path fill="#6DA8D6" d="M232.6045,60.1152V48.375c0-0.6816,0.5508-1.2324,1.2324-1.2324h6.1855
			c0.7715-2.7129,1.1836-5.5723,1.1836-8.5273c0-8.7227-3.5977-16.6211-9.3857-22.291l0.0352,3.0352
			c0.0039,0.3301-0.124,0.6475-0.3555,0.8809c-0.2314,0.2344-0.5469,0.3672-0.877,0.3672h-2.0537v3.3809
			c0,0.6816-0.5508,1.2324-1.2324,1.2324h-5.0459c-0.918,0.207-1.7041,1.166-1.7041,2.1055v3.5234
			c0,0.6797-0.5518,1.2324-1.2324,1.2324h-7.9336v2.2832c0,1.8486,1.5029,3.3506,3.3506,3.3506
			c1.5322,0,2.8672-1.0361,3.2461-2.5186l0.0098,0.0039c0.0977-0.3652,0.3975-0.9316,1.3105-0.9316h11.1074
			c0.4863,0,0.9277,0.2871,1.126,0.7305c0.8193,1.8379,2.6494,3.0273,4.6592,3.0273c0.6807,0,1.2324,0.5508,1.2324,1.2324v4.6543
			c0,0.6797-0.5518,1.2324-1.2324,1.2324H214.127c-1.4922,0-2.7061,1.2129-2.7061,2.707c0,1.4922,1.2139,2.7051,2.7061,2.7051
			h4.3691c0.6797,0,1.2324,0.5527,1.2324,1.2324v8.918c0,2.5508,1.3623,4.8516,3.5908,6.1328
			C226.8193,65.1816,229.9648,62.8906,232.6045,60.1152L232.6045,60.1152z M232.6045,60.1152"/>
		<path fill="#FFFFFF" d="M202.252,8.3652c0.9678,3.3926,4.1201,5.8379,7.7334,5.8379s6.7656-2.4453,7.7334-5.8379
			c-2.4736-0.6328-5.0645-0.9707-7.7334-0.9707C207.3174,7.3945,204.7266,7.7324,202.252,8.3652L202.252,8.3652z M202.252,8.3652"/>
		<path fill="#6DA8D6" d="M198.9307,67.8125v-5.4121c0-0.584,0.4082-1.0879,0.9785-1.207c1.626-0.3398,2.8057-1.7949,2.8057-3.457
			c0-1.9492-1.5859-3.5352-3.5342-3.5352h-3.1836c-0.6797,0-1.2324-0.5508-1.2324-1.2324v-0.9023
			c0-3.1953-2.5996-5.7949-5.7939-5.7949c-3.1963,0-5.7949,2.5996-5.7949,5.7949v2.5313
			C186.7666,60.5977,192.3135,65.2988,198.9307,67.8125L198.9307,67.8125z M198.9307,67.8125"/>
		<path fill="#6DA8D6" d="M186.0576,39.4219c0.9932,0,1.8008-0.8086,1.8008-1.8008v-2.3789c0-0.3809,0.1768-0.7402,0.4775-0.9727
			c0.2871-0.2227,0.6572-0.3066,1.0107-0.2324c0.5615,0.0723,4.0596,0.0547,7.5273-0.0039V21.4004
			c0-0.5156,0.3213-0.9766,0.8057-1.1563c0.9922-0.3672,1.6582-1.3232,1.6582-2.3828c0-1.4004-1.1387-2.5391-2.5391-2.5391h-7.5762
			c-1.8711,1.6699-3.541,3.5605-4.9668,5.6309v16.668C184.2559,38.6133,185.0635,39.4219,186.0576,39.4219L186.0576,39.4219z
			 M186.0576,39.4219"/>
		<path fill="#FFCC75" d="M246.0557,36.2324c-1.2334-18.9346-17.0771-33.7666-36.0703-33.7666
			c-19.9336,0-36.1504,16.2158-36.1504,36.1494c0,7.3125,2.1729,14.3555,6.2832,20.3691c0.2178,0.3184,0.2734,0.7207,0.1514,1.0859
			l-4.1309,12.3926l12.3926-4.1309c0.3652-0.123,0.7666-0.0664,1.085,0.1504c6.0146,4.1113,13.0586,6.2832,20.3691,6.2832
			c18.9932,0,34.8369-14.8301,36.0703-33.7656c0.0439-0.6719,0.6201-1.1816,1.29-1.1484c0.0137-0.4102,0.0225-0.8223,0.0225-1.2363
			c0-0.4121-0.0088-0.8242-0.0225-1.2334C246.6758,37.416,246.0996,36.9043,246.0557,36.2324L246.0557,36.2324z M234.8643,61.3027
			c-0.0742,0.1113-0.167,0.2109-0.2734,0.293c-2.9951,3.2051-6.6045,5.8262-10.6426,7.6719
			c-0.0908,0.0586-0.1914,0.1016-0.2949,0.1328c-4.1797,1.8633-8.8037,2.9004-13.668,2.9004c-3.5186,0-6.9111-0.543-10.1016-1.5469
			c-0.0723-0.0176-0.1426-0.0391-0.209-0.0684c-7.8975-2.5449-14.5303-7.9316-18.6895-14.9492
			c-0.0752-0.0938-0.1367-0.1973-0.1826-0.3105c-2.8633-4.9512-4.5029-10.6914-4.5029-16.8105
			c0-6.8652,2.0664-13.2559,5.6074-18.5879c0.0537-0.1133,0.123-0.2168,0.2061-0.3086c1.6123-2.3691,3.5186-4.5234,5.666-6.4102
			c0.0859-0.1055,0.1904-0.1953,0.3076-0.2676c3.5293-3.0254,7.6895-5.3359,12.2539-6.7012
			c0.0723-0.0293,0.1475-0.0527,0.2266-0.0684c2.9893-0.8711,6.1504-1.3418,9.418-1.3418c3.2686,0,6.4287,0.4707,9.418,1.3418
			c0.0791,0.0156,0.1553,0.0391,0.2275,0.0693c4.2607,1.2744,8.1699,3.373,11.542,6.1084c0.1152,0.0664,0.2178,0.1504,0.3037,0.248
			c7.4453,6.1846,12.1943,15.5059,12.1943,25.918c0,3.4902-0.5332,6.8574-1.5225,10.0234c-0.0166,0.0801-0.043,0.1563-0.0752,0.2305
			C240.5791,53.5352,238.0938,57.7637,234.8643,61.3027L234.8643,61.3027z M234.8643,61.3027"/>
		<path fill="#082947" d="M243.6709,38.6152c0-10.4121-4.749-19.7334-12.1943-25.918c-0.0859-0.0977-0.1895-0.1816-0.3037-0.248
			c-3.3721-2.7354-7.2813-4.834-11.542-6.1084c-0.0723-0.0303-0.1484-0.0537-0.2275-0.0693
			c-2.9893-0.8711-6.1494-1.3418-9.418-1.3418c-3.2676,0-6.4287,0.4707-9.418,1.3418c-0.0791,0.0156-0.1543,0.0391-0.2266,0.0693
			c-4.5645,1.3643-8.7246,3.6748-12.2539,6.7002c-0.1172,0.0723-0.2217,0.1621-0.3076,0.2676
			c-2.1475,1.8867-4.0537,4.041-5.666,6.4102c-0.083,0.0918-0.1523,0.1953-0.2061,0.3086
			c-3.541,5.332-5.6074,11.7227-5.6074,18.5879c0,6.1191,1.6396,11.8594,4.502,16.8105c0.0469,0.1133,0.1084,0.2168,0.1836,0.3105
			c4.1592,7.0176,10.792,12.4043,18.6895,14.9492c0.0664,0.0293,0.1367,0.0508,0.209,0.0684
			c3.1904,1.0039,6.583,1.5469,10.1016,1.5469c4.8633,0,9.4883-1.0371,13.668-2.9004c0.1035-0.0313,0.2031-0.0742,0.2949-0.1309
			c4.0371-1.8477,7.6475-4.4688,10.6416-7.6738c0.1074-0.082,0.2002-0.1797,0.2744-0.293c3.2295-3.5391,5.7148-7.7656,7.209-12.4336
			c0.0322-0.0723,0.0576-0.1504,0.0752-0.2285C243.1377,45.4727,243.6709,42.1055,243.6709,38.6152L243.6709,38.6152z
			 M209.9854,14.2031c-3.6133,0-6.7656-2.4453-7.7334-5.8379c2.4746-0.6328,5.0654-0.9707,7.7334-0.9707
			c2.6689,0,5.2598,0.3379,7.7334,0.9707C216.751,11.7578,213.5986,14.2031,209.9854,14.2031L209.9854,14.2031z M183.1758,52.0664
			c0-3.1953,2.5986-5.7949,5.7949-5.7949c3.1943,0,5.7939,2.5996,5.7939,5.7949v0.9023c0,0.6816,0.5527,1.2324,1.2324,1.2324h3.1836
			c1.9482,0,3.5342,1.5859,3.5342,3.5352c0,1.6621-1.1797,3.1172-2.8047,3.457c-0.5713,0.1191-0.9795,0.623-0.9795,1.207v5.4121
			c-6.6172-2.5137-12.1641-7.2148-15.7549-13.2148V52.0664z M189.2227,15.3223h7.5762c1.4004,0,2.5391,1.1387,2.5391,2.5391
			c0,1.0596-0.666,2.0156-1.6582,2.3828c-0.4844,0.1797-0.8057,0.6406-0.8057,1.1563v12.6328
			c-3.4678,0.0586-6.9658,0.0762-7.5273,0.0039c-0.3535-0.0742-0.7236,0.0098-1.0107,0.2324
			c-0.3008,0.2324-0.4775,0.5918-0.4775,0.9727v2.3789c0,0.9922-0.8076,1.8008-1.8008,1.8008c-0.9941,0-1.8018-0.8086-1.8018-1.8008
			v-16.668C185.6816,18.8828,187.3516,16.9922,189.2227,15.3223L189.2227,15.3223z M181.791,25.2158v12.4053
			c0,1.9238,1.2803,3.5527,3.0332,4.084v3.2207c-1.9082,1.1133-3.332,2.9668-3.874,5.166
			c-1.4102-3.5527-2.1855-7.4258-2.1855-11.4766C178.7646,33.8223,179.8516,29.2773,181.791,25.2158L181.791,25.2158z
			 M201.3955,63.3105c2.2422-0.8945,3.7842-3.0996,3.7842-5.5762c0-3.3066-2.6914-5.998-5.999-5.998h-1.957
			c-0.1738-4.4023-3.8096-7.9297-8.2529-7.9297c-0.5762,0-1.1387,0.0586-1.6816,0.1719v-2.2734
			c1.7539-0.5313,3.0342-2.1602,3.0342-4.084v-1.0859c1.3506,0.0293,3.54,0.0176,6.5508-0.0371v0.3887
			c0,0.6797,0.5518,1.2324,1.2324,1.2324s1.2324-0.5527,1.2324-1.2324V22.1729c1.502-0.8896,2.4639-2.5283,2.4639-4.3115
			c0-2.7598-2.2441-5.0039-5.0049-5.0039h-4.4336c2.3057-1.582,4.833-2.8652,7.5254-3.7871
			c1.2764,4.418,5.3877,7.5977,10.0957,7.5977s8.8193-3.1797,10.0947-7.5977c3.3818,1.1582,6.502,2.8828,9.249,5.0566l0.0479,4.0156
			h-5.3262c-0.6807,0-1.2324,0.5508-1.2324,1.2324c0,0.6797,0.5518,1.2324,1.2324,1.2324h2.0537v2.1494h-3.9316
			c-0.0684,0-0.1367,0.0049-0.2051,0.0166c-2.1572,0.3652-3.8457,2.3652-3.8457,4.5527v2.291h-7.9336
			c-0.6816,0-1.2324,0.5508-1.2324,1.2324v3.5156c0,3.207,2.6084,5.8145,5.8154,5.8145c2.3271,0,4.3926-1.377,5.3135-3.4453h9.6094
			c1.1387,1.9512,3.0918,3.2891,5.3037,3.6563v2.291H214.127c-2.8516,0-5.1709,2.3184-5.1709,5.1719
			c0,2.8516,2.3193,5.1719,5.1709,5.1719h3.1367v7.6836c0,2.8496,1.251,5.4629,3.375,7.2559
			c-3.3252,1.209-6.9131,1.8711-10.6533,1.8711c-2.9785,0-5.8604-0.418-8.5898-1.2012V63.3105z M223.3193,66.8418
			c-2.2275-1.2813-3.5908-3.582-3.5908-6.1328v-8.918c0-0.6797-0.5527-1.2324-1.2324-1.2324h-4.3682
			c-1.4932,0-2.707-1.2129-2.707-2.7051c0-1.4941,1.2139-2.707,2.707-2.707h22.1025c0.6816,0,1.2324-0.5527,1.2324-1.2324v-4.6543
			c0-0.6816-0.5508-1.2324-1.2324-1.2324c-2.0098,0-3.8398-1.1895-4.6592-3.0273c-0.1982-0.4434-0.6396-0.7305-1.126-0.7305
			h-11.1074c-0.9131,0-1.2129,0.5664-1.3105,0.9316l-0.0098-0.0039c-0.3789,1.4824-1.7139,2.5186-3.2461,2.5186
			c-1.8477,0-3.3506-1.502-3.3506-3.3506V32.082h7.9336c0.6807,0,1.2324-0.5527,1.2324-1.2324v-3.5234
			c0-0.9395,0.7871-1.8984,1.7041-2.1055h5.0469c0.6807,0,1.2324-0.5508,1.2324-1.2324v-3.3809h2.0537
			c0.3291,0,0.6455-0.1328,0.876-0.3672c0.2324-0.2334,0.3594-0.5508,0.3555-0.8809l-0.0352-3.0352
			c5.7881,5.6699,9.3857,13.5684,9.3857,22.291c0,2.9551-0.4121,5.8145-1.1836,8.5273h-6.1855
			c-0.6807,0-1.2324,0.5508-1.2324,1.2324v11.7402C229.9648,62.8906,226.8193,65.1816,223.3193,66.8418L223.3193,66.8418z
			 M235.0693,49.6074h4.1377c-1.0293,2.7266-2.4287,5.2734-4.1377,7.5762V49.6074z M235.0693,49.6074"/>
		<path fill="#082947" d="M215.3438,27.0371c0.6797,0,1.2324-0.5527,1.2324-1.2324v-1.2852c0-0.6787-0.5527-1.2324-1.2324-1.2324
			c-0.6807,0-1.2324,0.5537-1.2324,1.2324v1.2852C214.1113,26.4844,214.6631,27.0371,215.3438,27.0371L215.3438,27.0371z
			 M215.3438,27.0371"/>
		<path fill="#082947" d="M247.3662,39.8516c-0.0078,0-0.0137,0-0.0205,0c-0.6699-0.0332-1.2461,0.4766-1.29,1.1484
			c-1.2334,18.9355-17.0771,33.7656-36.0703,33.7656c-7.3105,0-14.3545-2.1719-20.3691-6.2832
			c-0.3184-0.2168-0.7197-0.2715-1.085-0.1504l-12.3926,4.1309l4.1309-12.3926c0.1221-0.3652,0.0664-0.7676-0.1514-1.0859
			c-4.1104-6.0137-6.2832-13.0566-6.2832-20.3691c0-19.9336,16.2168-36.1494,36.1504-36.1494
			c18.9932,0,34.8369,14.832,36.0703,33.7666c0.0439,0.6719,0.6201,1.1836,1.29,1.1494c0.0068,0,0.0127,0,0.0205,0
			c0.6787-0.0439,1.1934-0.6318,1.1494-1.3115c-0.6367-9.7695-4.9258-18.8564-12.0801-25.5879C229.25,3.7227,219.8555,0,209.9854,0
			c-10.3154,0-20.0107,4.0176-27.3057,11.3105c-7.293,7.2949-11.3096,16.9902-11.3096,27.3047c0,7.6035,2.2002,14.9375,6.3701,21.25
			l-4.7197,14.1563c-0.1465,0.4414-0.0322,0.9316,0.2988,1.2617c0.3291,0.3301,0.8174,0.4453,1.2607,0.2969l14.1563-4.7188
			c6.3125,4.1699,13.6455,6.3691,21.249,6.3691c9.8701,0,19.2646-3.7227,26.4502-10.4824
			c7.1533-6.7285,11.4434-15.8164,12.0791-25.5879C248.5596,40.4805,248.0449,39.8965,247.3662,39.8516L247.3662,39.8516z
			 M247.3662,39.8516"/>
	</g>
	<text transform="matrix(1 0 0 1 60.2471 49.5693)" fill="#3F494A" font-family="'Lato-Bold'" font-size="38">=</text>
</g>
</svg>
