<?xml version="1.0" encoding="utf-8"?>
<!-- Generator: Adobe Illustrator 15.0.0, SVG Export Plug-In . SVG Version: 6.00 Build 0)  -->
<!DOCTYPE svg PUBLIC "-//W3C//DTD SVG 1.1//EN" "http://www.w3.org/Graphics/SVG/1.1/DTD/svg11.dtd">
<svg version="1.1" id="XMLID_1_" xmlns="http://www.w3.org/2000/svg" xmlns:xlink="http://www.w3.org/1999/xlink" x="0px" y="0px"
	 width="241.5493px" height="79.3633px" viewBox="0 0 241.5493 79.3633" enable-background="new 0 0 241.5493 79.3633"
	 xml:space="preserve">
<g id="datos01">
	<g>
		<path fill="#FFFFFF" d="M42.022,49.5195c-3.4644-1.8672-7.3809-2.998-11.5415-3.1797v3.5371c0,0.6543-0.5317,1.1875-1.1875,1.1875
			s-1.1875-0.5332-1.1875-1.1875v-3.5371c-4.1606,0.1816-8.0771,1.3125-11.5415,3.1797l11.5415,11.543V54.627
			c0-0.6563,0.5317-1.1875,1.1875-1.1875s1.1875,0.5313,1.1875,1.1875v6.4355L42.022,49.5195z M42.022,49.5195"/>
		<path fill="#FFCC75" d="M16.4277,24.7402c0,7.0938,5.7715,12.8652,12.8652,12.8652s12.8652-5.7715,12.8652-12.8652
			c0-1.334-0.2036-2.6074-0.6162-3.8809c-1.4419-0.7207-3.0664-1.0977-4.7261-1.0977c-2.4644,0-4.8662,0.8672-6.7637,2.4473
			c-0.2197,0.1816-0.4897,0.2734-0.7593,0.2734c-0.27,0-0.5396-0.0918-0.7593-0.2734c-1.8975-1.5801-4.2988-2.4473-6.7637-2.4473
			c-1.6597,0-3.2842,0.377-4.7261,1.0977C16.6313,22.1328,16.4277,23.4063,16.4277,24.7402L16.4277,24.7402z M16.4277,24.7402"/>
		<path fill="#6DA8D6" d="M17.2588,18.1816c1.4272-0.5234,2.9585-0.7969,4.5112-0.7969c2.6987,0,5.335,0.8516,7.5229,2.4121
			c2.188-1.5605,4.8242-2.4121,7.5229-2.4121c1.5527,0,3.084,0.2734,4.5112,0.7969V7.5195c0-0.6543,0.5317-1.1875,1.1875-1.1875
			V3.957H17.2588V18.1816z M17.2588,18.1816"/>
		<path fill="#185F8D" d="M13.855,72.0449h42.3301c-0.3872-8.875-5.0923-16.6484-12.0615-21.2656L30.1328,64.7676
			c-0.0024,0.0039-0.0063,0.0059-0.0088,0.0098c-0.0249,0.0234-0.0503,0.0469-0.0771,0.0703
			c-0.0083,0.0059-0.0176,0.0117-0.0264,0.0176c-0.0225,0.0176-0.0439,0.0352-0.0674,0.0508
			c-0.0078,0.0059-0.0151,0.0098-0.0239,0.0137c-0.0244,0.0176-0.0493,0.0332-0.0757,0.0469
			c-0.0063,0.002-0.0117,0.0039-0.0181,0.0078c-0.0283,0.0146-0.0571,0.0293-0.0869,0.041
			c-0.0039,0.002-0.0088,0.0039-0.0137,0.0059c-0.0313,0.0117-0.063,0.0234-0.0957,0.0332c-0.0044,0.002-0.0083,0.002-0.0127,0.0039
			c-0.0327,0.0098-0.0659,0.0176-0.1001,0.0254c-0.0093,0.002-0.0186,0.002-0.0278,0.0039
			c-0.0283,0.0059-0.0581,0.0098-0.0874,0.0137c-0.0386,0.002-0.0786,0.0059-0.1182,0.0059s-0.0796-0.0039-0.1182-0.0059
			c-0.0293-0.0039-0.0591-0.0078-0.0874-0.0137c-0.0093-0.002-0.0186-0.002-0.0278-0.0039
			c-0.0342-0.0078-0.0674-0.0156-0.1001-0.0254c-0.0044-0.002-0.0083-0.002-0.0127-0.0039
			c-0.0327-0.0098-0.0649-0.0215-0.0962-0.0332c-0.0044-0.002-0.0083-0.0039-0.0132-0.0059
			c-0.0298-0.0117-0.0586-0.0264-0.0869-0.041c-0.0063-0.0039-0.0127-0.0059-0.0181-0.0078
			c-0.0264-0.0137-0.0513-0.0293-0.0757-0.0469c-0.0088-0.0039-0.0166-0.0078-0.0239-0.0137
			c-0.0234-0.0156-0.0454-0.0332-0.0674-0.0508c-0.0083-0.0059-0.0181-0.0117-0.0264-0.0176
			c-0.0269-0.0234-0.0522-0.0469-0.0771-0.0703c-0.0024-0.0039-0.0063-0.0059-0.0083-0.0098L14.4624,50.7793
			C7.4932,55.3965,2.7881,63.1699,2.4009,72.0449h6.7036c0.6558,0,1.1875,0.5313,1.1875,1.1875h2.375
			C12.667,72.5762,13.1992,72.0449,13.855,72.0449L13.855,72.0449z M13.855,72.0449"/>
		<path fill="#082947" d="M44.7241,48.3438c-0.0835-0.0703-0.1748-0.125-0.2695-0.168c-4.4258-2.6875-9.6157-4.2363-15.1616-4.2363
			s-10.7358,1.5488-15.1616,4.2363c-0.0947,0.043-0.186,0.0977-0.2695,0.168C5.5474,53.5176,0,62.7383,0,73.2324
			c0,0.6543,0.5317,1.1875,1.1875,1.1875h7.917c0.6558,0,1.1875-0.5332,1.1875-1.1875c0-0.6563-0.5317-1.1875-1.1875-1.1875H2.4009
			c0.3872-8.875,5.0923-16.6484,12.0615-21.2656l13.9912,13.9883c0.002,0.0039,0.0059,0.0059,0.0083,0.0098
			c0.0249,0.0234,0.0503,0.0469,0.0771,0.0703c0.0083,0.0059,0.0181,0.0117,0.0264,0.0176
			c0.0225,0.0176,0.0439,0.0352,0.0674,0.0508c0.0073,0.0059,0.0151,0.0098,0.0239,0.0137
			c0.0244,0.0176,0.0493,0.0332,0.0757,0.0469c0.0063,0.002,0.0117,0.0039,0.0181,0.0078c0.0283,0.0146,0.0571,0.0293,0.0869,0.041
			c0.0039,0.002,0.0088,0.0039,0.0132,0.0059c0.0317,0.0117,0.0635,0.0234,0.0962,0.0332c0.0044,0.002,0.0083,0.002,0.0127,0.0039
			c0.0327,0.0098,0.0659,0.0176,0.1001,0.0254c0.0093,0.002,0.0186,0.002,0.0278,0.0039c0.0283,0.0059,0.0581,0.0098,0.0874,0.0137
			c0.0386,0.002,0.0786,0.0059,0.1182,0.0059s0.0796-0.0039,0.1182-0.0059c0.0293-0.0039,0.0591-0.0078,0.0874-0.0137
			c0.0093-0.002,0.0186-0.002,0.0278-0.0039c0.0342-0.0078,0.0674-0.0156,0.1001-0.0254c0.0044-0.002,0.0083-0.002,0.0127-0.0039
			c0.0327-0.0098,0.0649-0.0215,0.0957-0.0332c0.0049-0.002,0.0088-0.0039,0.0137-0.0059c0.0298-0.0117,0.0586-0.0264,0.0869-0.041
			c0.0063-0.0039,0.0127-0.0059,0.0181-0.0078c0.0264-0.0137,0.0513-0.0293,0.0757-0.0469
			c0.0088-0.0039,0.0161-0.0078,0.0239-0.0137c0.0234-0.0156,0.0454-0.0332,0.0674-0.0508
			c0.0088-0.0059,0.0181-0.0117,0.0264-0.0176c0.0269-0.0234,0.0522-0.0469,0.0771-0.0703
			c0.0024-0.0039,0.0063-0.0059,0.0088-0.0098l13.9907-13.9883c6.9692,4.6172,11.6743,12.3906,12.0615,21.2656H13.855
			c-0.6558,0-1.188,0.5313-1.188,1.1875c0,0.6543,0.5322,1.1875,1.188,1.1875h43.5435c0.6553,0,1.1875-0.5332,1.1875-1.1875
			C58.5859,62.7383,53.0386,53.5176,44.7241,48.3438L44.7241,48.3438z M29.293,53.4395c-0.6558,0-1.1875,0.5313-1.1875,1.1875
			v6.4355L16.564,49.5195c3.4644-1.8672,7.3809-2.998,11.5415-3.1797v3.5371c0,0.6543,0.5317,1.1875,1.1875,1.1875
			s1.1875-0.5332,1.1875-1.1875v-3.5371c4.1606,0.1816,8.0771,1.3125,11.5415,3.1797l-11.5415,11.543V54.627
			C30.4805,53.9707,29.9487,53.4395,29.293,53.4395L29.293,53.4395z M29.293,53.4395"/>
		<path fill="#082947" d="M1.1875,3.957h13.6963v15.875c-0.5566,1.6113-0.8311,3.2188-0.8311,4.9082
			c0,8.4023,6.8369,15.2402,15.2402,15.2402s15.2402-6.8379,15.2402-15.2402c0-1.6895-0.2744-3.2969-0.8311-4.9082V7.5195
			c0-0.6543-0.5322-1.1875-1.1875-1.1875c-0.6558,0-1.1875,0.5332-1.1875,1.1875v10.6621
			c-1.4272-0.5234-2.9585-0.7969-4.5112-0.7969c-2.6987,0-5.335,0.8516-7.5229,2.4121c-2.188-1.5605-4.8242-2.4121-7.5229-2.4121
			c-1.5527,0-3.084,0.2734-4.5112,0.7969V3.957h35.7852v20.5469l-1.7271,4.1699c-0.2515,0.6055,0.0361,1.3008,0.6426,1.5527
			c0.606,0.25,1.3003-0.0371,1.5513-0.6445l0.7207-1.7383l0.7207,1.7383c0.1895,0.459,0.6318,0.7344,1.0981,0.7344
			c0.1514,0,0.3052-0.0293,0.4536-0.0898c0.6055-0.252,0.8936-0.9473,0.6426-1.5527l-1.7275-4.1699V3.957h1.9795
			c0.6553,0,1.1875-0.5313,1.1875-1.1875c0-0.6543-0.5322-1.1875-1.1875-1.1875h-1.9795V1.1875C55.4189,0.5313,54.8872,0,54.2314,0
			c-0.6553,0-1.1875,0.5313-1.1875,1.1875V1.582H1.1875C0.5317,1.582,0,2.1152,0,2.7695C0,3.4258,0.5317,3.957,1.1875,3.957
			L1.1875,3.957z M21.77,19.7617c2.4644,0,4.8662,0.8672,6.7637,2.4473c0.2197,0.1816,0.4893,0.2734,0.7593,0.2734
			c0.2695,0,0.5396-0.0918,0.7593-0.2734c1.8975-1.5801,4.2988-2.4473,6.7637-2.4473c1.6597,0,3.2842,0.377,4.7261,1.0977
			c0.4126,1.2734,0.6162,2.5488,0.6162,3.8809c0,7.0938-5.7715,12.8652-12.8652,12.8652S16.4277,31.834,16.4277,24.7402
			c0-1.334,0.2036-2.6074,0.6162-3.8809C18.4858,20.1387,20.1104,19.7617,21.77,19.7617L21.77,19.7617z M21.77,19.7617"/>
	</g>
	<g>
		<path fill="#FFFFFF" d="M241.5493,30.0957v-0.5078c0-2.209-1.791-4-4-4H150.833v8.5078h86.7163
			C239.7583,34.0957,241.5493,32.3047,241.5493,30.0957z"/>
		<rect x="77.5039" y="25.5879" fill="#3F494A" width="73.3291" height="8.5078"/>
		<circle fill="#3F494A" cx="151.1665" cy="30.0547" r="9"/>
		<g>
			<rect x="130.5" y="47.3633" fill="none" width="54.9995" height="32"/>
			<text transform="matrix(1 0 0 1 130.5 60.7373)" fill="#3F494A" font-family="'Lato-Bold'" font-size="18">45%</text>
		</g>
	</g>
</g>
</svg>
