<svg id="Layer_1" data-name="Layer 1" xmlns="http://www.w3.org/2000/svg" xmlns:xlink="http://www.w3.org/1999/xlink" viewBox="0 0 1209.28 330.21"><defs><style>.cls-1,.cls-2,.cls-29{fill:#00afbe;}.cls-1{opacity:0.25;}.cls-2{opacity:0.65;}.cls-3{font-size:29px;}.cls-11,.cls-3{fill:#fff;font-family:Lato-Thin, Lato;}.cls-4{letter-spacing:-0.03em;}.cls-5{letter-spacing:-0.01em;}.cls-6{letter-spacing:0em;}.cls-7{letter-spacing:-0.02em;}.cls-8{letter-spacing:-0.01em;}.cls-9{letter-spacing:-0.01em;}.cls-10{letter-spacing:-0.01em;}.cls-11{font-size:22px;}.cls-12{letter-spacing:-0.01em;}.cls-13{letter-spacing:-0.01em;}.cls-14{letter-spacing:-0.02em;}.cls-15{letter-spacing:-0.02em;}.cls-16{letter-spacing:-0.01em;}.cls-17{letter-spacing:0em;}.cls-18{letter-spacing:-0.01em;}.cls-19{letter-spacing:0em;}.cls-20{letter-spacing:-0.03em;}.cls-21{font-size:21px;}.cls-22{letter-spacing:-0.03em;}.cls-23{letter-spacing:-0.02em;}.cls-24{letter-spacing:-0.01em;}.cls-25{letter-spacing:-0.01em;}.cls-26{letter-spacing:-0.01em;}.cls-27{letter-spacing:-0.01em;}.cls-28{letter-spacing:-0.01em;}.cls-29{opacity:0.3;}.cls-30{font-size:41px;fill:#fdffff;font-family:Lato-Regular, Lato;}</style></defs><title>esquema02</title><image width="1199" height="324" transform="translate(1.43 5.25)" xlink:href="acerca de img-01.png"/><rect class="cls-1" width="1205.15" height="330.21"/><rect class="cls-2" x="743.3" y="6.09" width="465.98" height="321.74"/><text class="cls-3" transform="translate(761.86 56.7)">Ap<tspan class="cls-4" x="34.54" y="0">r</tspan><tspan x="43.7" y="0">eciamos mucho su </tspan><tspan class="cls-5" x="280.37" y="0">c</tspan><tspan class="cls-6" x="293.68" y="0">onsulta al </tspan><tspan class="cls-7" x="0" y="34.8">M</tspan><tspan class="cls-6" x="25.51" y="34.8">apa de </tspan><tspan class="cls-8" x="116.13" y="34.8">I</tspan><tspan x="123.16" y="34.8">niciati</tspan><tspan class="cls-9" x="195.24" y="34.8">v</tspan><tspan x="209.32" y="34.8">as </tspan><tspan class="cls-10" x="243.48" y="34.8">S</tspan><tspan class="cls-6" x="258.72" y="34.8">ociales</tspan></text><text class="cls-11" transform="translate(763.31 137.97)"><tspan class="cls-12">E</tspan><tspan x="12.57" y="0">stamos actualizando la i</tspan><tspan class="cls-13" x="233.39" y="0">n</tspan><tspan class="cls-14" x="245.27" y="0">f</tspan><tspan x="252.17" y="0">ormación de las </tspan><tspan x="0" y="26.4">fichas de las o</tspan><tspan class="cls-15" x="132.03" y="26.4">r</tspan><tspan x="139.18" y="26.4">ganizaciones aliadas que</tspan><tspan class="cls-16" x="0" y="52.8">c</tspan><tspan class="cls-17" x="10.1" y="52.8">onsta</tspan><tspan class="cls-18" x="61.4" y="52.8">n</tspan><tspan class="cls-19" x="73.27" y="52.8">t</tspan><tspan class="cls-17" x="80.61" y="52.8">eme</tspan><tspan class="cls-18" x="120.9" y="52.8">n</tspan><tspan class="cls-19" x="132.77" y="52.8">t</tspan><tspan x="140.11" y="52.8">e </tspan><tspan class="cls-20" x="157.65" y="52.8">r</tspan><tspan class="cls-17" x="164.6" y="52.8">ecibimos. </tspan><tspan class="cls-21"><tspan class="cls-22" x="0" y="104.4">P</tspan><tspan x="11.22" y="104.4">o</tspan><tspan class="cls-23" x="22.85" y="104.4">r</tspan><tspan x="29.68" y="104.4" xml:space="preserve"> aho</tspan><tspan class="cls-24" x="68.67" y="104.4">r</tspan><tspan x="75.73" y="104.4">a pueden </tspan><tspan class="cls-25" x="165.11" y="104.4">c</tspan><tspan x="174.75" y="104.4">onsulta</tspan><tspan class="cls-23" x="239.64" y="104.4">r</tspan><tspan x="246.47" y="104.4" xml:space="preserve"> las </tspan><tspan class="cls-26" x="0" y="129.6">I</tspan><tspan x="5.09" y="129.6">niciati</tspan><tspan class="cls-27" x="57.29" y="129.6">v</tspan><tspan x="67.48" y="129.6">as </tspan><tspan class="cls-28" x="92.22" y="129.6">S</tspan><tspan x="103.25" y="129.6">ociales de:</tspan></tspan></text><rect class="cls-29" x="2.06" y="223.71" width="413.4" height="106.19"/><text class="cls-30" transform="translate(16.49 289.69)">¡MUCHAS GRACIAS!</text></svg>