<?xml version="1.0" encoding="utf-8"?>
<!-- Generator: Adobe Illustrator 15.0.0, SVG Export Plug-In . SVG Version: 6.00 Build 0)  -->
<!DOCTYPE svg PUBLIC "-//W3C//DTD SVG 1.1//EN" "http://www.w3.org/Graphics/SVG/1.1/DTD/svg11.dtd">
<svg version="1.1" id="XMLID_1_" xmlns="http://www.w3.org/2000/svg" xmlns:xlink="http://www.w3.org/1999/xlink" x="0px" y="0px"
	 width="30.7578px" height="30.7578px" viewBox="0 0 30.7578 30.7578" enable-background="new 0 0 30.7578 30.7578"
	 xml:space="preserve">
<g id="funde_x5F_red03">
	<rect fill="#0D3F6F" width="30.7578" height="30.7578"/>
	<path fill="#FFFFFF" d="M23.2451,14.0342l-0.1328-0.2764l-0.2227-0.1748c-0.292-0.2285-1.7676,0.0166-2.165-0.3447
		c-0.2822-0.2607-0.3242-0.7285-0.4102-1.3604c-0.1582-1.2256-0.2598-1.2891-0.4502-1.7041
		c-0.6953-1.4756-2.5791-2.585-3.875-2.7393h-3.5088c-2.7607,0-5.0156,2.2617-5.0156,5.0225v5.8564
		c0,2.7539,2.2549,5.0098,5.0156,5.0098h5.7656c2.7598,0,4.999-2.2559,5.0156-5.0098l0.0313-4.0566L23.2451,14.0342z
		 M12.5439,11.5381h2.7813c0.5313,0,0.9609,0.4307,0.9609,0.9561s-0.4297,0.9609-0.9609,0.9609h-2.7813
		c-0.5313,0-0.96-0.4355-0.96-0.9609S12.0127,11.5381,12.5439,11.5381z M18.1963,19.1934h-5.6523c-0.5313,0-0.96-0.4346-0.96-0.9551
		c0-0.5254,0.4287-0.9551,0.96-0.9551h5.6523c0.5264,0,0.9561,0.4297,0.9561,0.9551
		C19.1523,18.7588,18.7227,19.1934,18.1963,19.1934z"/>
</g>
</svg>
