<?xml version="1.0" encoding="utf-8"?>
<!-- Generator: Adobe Illustrator 15.0.0, SVG Export Plug-In . SVG Version: 6.00 Build 0)  -->
<!DOCTYPE svg PUBLIC "-//W3C//DTD SVG 1.1//EN" "http://www.w3.org/Graphics/SVG/1.1/DTD/svg11.dtd">
<svg version="1.1" id="XMLID_2_" xmlns="http://www.w3.org/2000/svg" xmlns:xlink="http://www.w3.org/1999/xlink" x="0px" y="0px"
	 width="30.9063px" height="30.9063px" viewBox="0 0 30.9063 30.9063" enable-background="new 0 0 30.9063 30.9063"
	 xml:space="preserve">
<g id="funde_x5F_red02">
	<rect fill="#0D3F6F" width="30.9063" height="30.9063"/>
	<path fill="#FFFFFF" d="M23.3398,10.5615c-0.5811,0.2578-1.2051,0.4316-1.8584,0.5098c0.668-0.4014,1.1816-1.0342,1.4229-1.79
		c-0.625,0.3701-1.3174,0.6406-2.0547,0.7852c-0.5908-0.6289-1.4316-1.0215-2.3623-1.0215c-1.7871,0-3.2363,1.4482-3.2363,3.2354
		c0,0.2539,0.0283,0.501,0.084,0.7373c-2.6895-0.1348-5.0732-1.4229-6.6699-3.3818c-0.2783,0.4795-0.4385,1.0342-0.4385,1.6279
		c0,1.1221,0.5713,2.1133,1.4395,2.6934c-0.5303-0.0166-1.0293-0.1631-1.4658-0.4053v0.041c0,1.5674,1.1162,2.876,2.5957,3.1729
		c-0.2705,0.0742-0.5576,0.1143-0.8525,0.1143c-0.208,0-0.4111-0.0205-0.6084-0.0586c0.4111,1.2852,1.6064,2.2207,3.0225,2.2471
		c-1.1074,0.8682-2.502,1.3857-4.0195,1.3857c-0.2607,0-0.5176-0.0156-0.7715-0.0459c1.4326,0.918,3.1328,1.4541,4.9619,1.4541
		c5.9512,0,9.2061-4.9307,9.2061-9.207c0-0.1396-0.0039-0.2793-0.0088-0.4189C22.3564,11.7803,22.9053,11.2109,23.3398,10.5615z"/>
</g>
</svg>
