<?xml version="1.0" encoding="utf-8"?>
<!-- Generator: Adobe Illustrator 15.0.0, SVG Export Plug-In . SVG Version: 6.00 Build 0)  -->
<!DOCTYPE svg PUBLIC "-//W3C//DTD SVG 1.1//EN" "http://www.w3.org/Graphics/SVG/1.1/DTD/svg11.dtd">
<svg version="1.1" id="XMLID_2_" xmlns="http://www.w3.org/2000/svg" xmlns:xlink="http://www.w3.org/1999/xlink" x="0px" y="0px"
	 width="30.7578px" height="30.7578px" viewBox="0 0 30.7578 30.7578" enable-background="new 0 0 30.7578 30.7578"
	 xml:space="preserve">
<path id="mido_x5F_red05" fill="#FFFFFF" d="M0,0v30.7578h30.7578V0H0z M15.3789,6.9707c1.5254,0,2.958,0.4082,4.1914,1.1201
	c-1.0215,0.1982-2.0049,0.5049-2.9395,0.9063c-0.3184-0.2998-0.748-0.4834-1.2197-0.4834c-0.332,0-0.6416,0.0918-0.9082,0.25
	c-0.6553-0.4746-1.3506-0.8965-2.0811-1.2559C13.3418,7.1621,14.3379,6.9707,15.3789,6.9707z M12.5781,13.4043
	c0.5449-0.6016,1.1465-1.1543,1.7939-1.6484c0.2939,0.209,0.6523,0.334,1.0391,0.334c0.248,0,0.4844-0.0488,0.6992-0.1406
	c1.0762,1.2803,1.9131,2.7656,2.4414,4.3887c-0.1953,0.1641-0.3535,0.3691-0.4648,0.5996c-1.9443-0.2881-3.752-1.0059-5.3213-2.0557
	c0.0537-0.168,0.082-0.3486,0.082-0.5361C12.8477,14,12.748,13.6777,12.5781,13.4043z M10.9658,8.2227
	c0.9795,0.3945,1.9014,0.9053,2.75,1.5117c-0.0596,0.1797-0.0938,0.3691-0.0938,0.5674c0,0.1436,0.0195,0.2822,0.0518,0.416
	c-0.7578,0.5693-1.457,1.2129-2.0859,1.9189c-0.168-0.0508-0.3457-0.0791-0.5283-0.0791c-0.2793,0-0.541,0.0654-0.7754,0.1787
	c-0.6416-0.7129-1.2041-1.4961-1.6787-2.3379C9.2432,9.5313,10.0459,8.791,10.9658,8.2227z M6.9717,15.3779
	c0-1.3564,0.3232-2.6387,0.8945-3.7744c0.4561,0.7246,0.9766,1.4063,1.5508,2.0371c-0.0938,0.2158-0.1475,0.4551-0.1475,0.7051
	c0,0.4063,0.1387,0.7813,0.3672,1.0801c-0.7041,1.3105-1.2139,2.7402-1.4824,4.2539C7.4043,18.4199,6.9717,16.9502,6.9717,15.3779z
	 M9.2305,21.1113c0.1484-1.7969,0.6602-3.4932,1.4629-5.0137c0.1191,0.0254,0.2402,0.0371,0.3662,0.0371
	c0.3418,0,0.6611-0.0967,0.9326-0.2637c1.6758,1.1348,3.5996,1.9258,5.6738,2.2705c-2.2939,1.1553-4.1982,2.8877-5.5596,4.9834
	C11.0088,22.6621,10.0322,21.9688,9.2305,21.1113z M18.9268,23c-1.0781,0.5029-2.2783,0.7871-3.5479,0.7871
	c-0.7051,0-1.3877-0.0889-2.043-0.252c1.2979-1.8896,3.0898-3.4346,5.2314-4.4385c0.1719,0.1406,0.3701,0.248,0.5859,0.3193
	c0.0254,0.3164,0.0381,0.6387,0.0381,0.9629C19.1914,21.2764,19.1006,22.1523,18.9268,23z M20.334,22.1699
	c0.0713-0.5859,0.1104-1.1855,0.1104-1.791c0-0.3457-0.0127-0.6875-0.0381-1.0254c0.4678-0.2031,0.832-0.5986,0.9912-1.0879
	c0.6787-0.0645,1.3457-0.1777,1.9941-0.334C22.8438,19.6504,21.7578,21.1289,20.334,22.1699z M23.7031,16.5547
	c-0.7588,0.2246-1.5479,0.3789-2.3574,0.46c-0.2666-0.6318-0.8887-1.0771-1.6152-1.0908c-0.5869-1.793-1.5176-3.4316-2.7148-4.835
	c0.1172-0.2383,0.1846-0.5029,0.1846-0.7871c0-0.0605-0.0029-0.1182-0.0088-0.1787c1.1973-0.5078,2.4844-0.8477,3.832-0.9766
	c1.6973,1.5381,2.7637,3.7607,2.7637,6.2314C23.7871,15.7773,23.7578,16.1699,23.7031,16.5547z"/>
</svg>
