<?xml version="1.0" encoding="utf-8"?>
<!-- Generator: Adobe Illustrator 15.0.0, SVG Export Plug-In . SVG Version: 6.00 Build 0)  -->
<!DOCTYPE svg PUBLIC "-//W3C//DTD SVG 1.1//EN" "http://www.w3.org/Graphics/SVG/1.1/DTD/svg11.dtd">
<svg version="1.1" id="XMLID_2_" xmlns="http://www.w3.org/2000/svg" xmlns:xlink="http://www.w3.org/1999/xlink" x="0px" y="0px"
	 width="30.9053px" height="30.9063px" viewBox="0 0 30.9053 30.9063" enable-background="new 0 0 30.9053 30.9063"
	 xml:space="preserve">
<path id="mido_x5F_red03" fill="#FFFFFF" d="M0,0v30.9063h30.9053V0H0z M21.7256,12.2363c0.0049,0.1387,0.0088,0.2793,0.0088,0.4189
	c0,4.2764-3.2549,9.2061-9.2061,9.2061c-1.8291,0-3.5293-0.5352-4.9619-1.4531c0.2529,0.0293,0.5107,0.0459,0.7715,0.0459
	c1.5176,0,2.9121-0.5176,4.0195-1.3857c-1.416-0.0264-2.6113-0.9609-3.0225-2.248c0.1973,0.0391,0.4004,0.0596,0.6084,0.0596
	c0.2949,0,0.5811-0.04,0.8525-0.1143c-1.4795-0.2969-2.5957-1.6055-2.5957-3.1738v-0.04c0.4365,0.2422,0.9355,0.3887,1.4658,0.4053
	c-0.8682-0.5801-1.4395-1.5713-1.4395-2.6934c0-0.5938,0.1602-1.1484,0.4385-1.6279c1.5957,1.959,3.9805,3.2471,6.6689,3.3818
	c-0.0547-0.2373-0.083-0.4834-0.083-0.7383c0-1.7861,1.4492-3.2354,3.2363-3.2354c0.9297,0,1.7715,0.3936,2.3623,1.0225
	c0.7373-0.1445,1.4297-0.415,2.0537-0.7852c-0.2402,0.7559-0.7539,1.3887-1.4229,1.7891c0.6543-0.0781,1.2783-0.252,1.8584-0.5098
	C22.9043,11.2109,22.3564,11.7803,21.7256,12.2363z"/>
</svg>
