<?xml version="1.0" encoding="utf-8"?>
<!-- Generator: Adobe Illustrator 15.0.0, SVG Export Plug-In . SVG Version: 6.00 Build 0)  -->
<!DOCTYPE svg PUBLIC "-//W3C//DTD SVG 1.1//EN" "http://www.w3.org/Graphics/SVG/1.1/DTD/svg11.dtd">
<svg version="1.1" id="XMLID_2_" xmlns="http://www.w3.org/2000/svg" xmlns:xlink="http://www.w3.org/1999/xlink" x="0px" y="0px"
	 width="30.7578px" height="30.7578px" viewBox="0 0 30.7578 30.7578" enable-background="new 0 0 30.7578 30.7578"
	 xml:space="preserve">
<path id="mido_x5F_red04" fill="#FFFFFF" d="M0,0v30.7578h30.7578V0H0z M23.04,9.293l-7.6621,6.041L7.6758,9.293H23.04z
	 M23.8887,20.7979c0,0.3682-0.2578,0.667-0.5752,0.667H7.4443c-0.3174,0-0.5752-0.2988-0.5752-0.667V9.96
	c0-0.0088,0.001-0.0166,0.001-0.0244l8.2529,6.4746C15.2012,16.4697,15.29,16.5,15.3789,16.5c0.0898,0,0.1787-0.0303,0.2559-0.0918
	l8.252-6.5059c0,0.0176,0.002,0.0381,0.002,0.0576V20.7979z"/>
</svg>
