<?xml version="1.0" encoding="utf-8"?>
<!-- Generator: Adobe Illustrator 15.0.0, SVG Export Plug-In . SVG Version: 6.00 Build 0)  -->
<!DOCTYPE svg PUBLIC "-//W3C//DTD SVG 1.1//EN" "http://www.w3.org/Graphics/SVG/1.1/DTD/svg11.dtd">
<svg version="1.1" id="XMLID_1_" xmlns="http://www.w3.org/2000/svg" xmlns:xlink="http://www.w3.org/1999/xlink" x="0px" y="0px"
	 width="30.9424px" height="30.9424px" viewBox="0 0 30.9424 30.9424" enable-background="new 0 0 30.9424 30.9424"
	 xml:space="preserve">
<g id="mido_x5F_red02">
	<path fill="#FFFFFF" d="M20.3359,15.6084c0,2.5938-2.1719,4.6973-4.8506,4.6973c-2.6777,0-4.8496-2.1035-4.8496-4.6973
		c0-0.4668,0.0713-0.915,0.2012-1.3398H9.4043v6.5908c0,0.3408,0.2793,0.6182,0.6201,0.6182h10.8643
		c0.3418,0,0.6191-0.2773,0.6191-0.6182v-6.5908h-1.3721C20.2656,14.6934,20.3359,15.1416,20.3359,15.6084z"/>
	<ellipse fill="#FFFFFF" cx="15.4854" cy="15.4375" rx="3.1338" ry="3.0361"/>
	<path fill="#FFFFFF" d="M19.0361,12.4912h1.7627c0.3867,0,0.7031-0.3164,0.7031-0.7031v-1.6816
		c0-0.3857-0.3164-0.7031-0.7031-0.7031h-1.7627c-0.3867,0-0.7031,0.3174-0.7031,0.7031v1.6816
		C18.333,12.1748,18.6494,12.4912,19.0361,12.4912z"/>
	<path fill="#FFFFFF" d="M0,0v30.9424h30.9424V0H0z M23.2715,21.2705c0,1.1006-0.9004,2.001-2.002,2.001H9.6738
		c-1.1016,0-2.0039-0.9004-2.0039-2.001V9.6738c0-1.1016,0.9023-2.0029,2.0039-2.0029h11.5957c1.1016,0,2.002,0.9014,2.002,2.0029
		V21.2705z"/>
</g>
</svg>
