<?xml version="1.0" encoding="utf-8"?>
<!-- Generator: Adobe Illustrator 15.0.0, SVG Export Plug-In . SVG Version: 6.00 Build 0)  -->
<!DOCTYPE svg PUBLIC "-//W3C//DTD SVG 1.1//EN" "http://www.w3.org/Graphics/SVG/1.1/DTD/svg11.dtd">
<svg version="1.1" id="XMLID_1_" xmlns="http://www.w3.org/2000/svg" xmlns:xlink="http://www.w3.org/1999/xlink" x="0px" y="0px"
	 width="72.5957px" height="72.5947px" viewBox="0 0 72.5957 72.5947" enable-background="new 0 0 72.5957 72.5947"
	 xml:space="preserve">
<g id="boton_contacto">
	<circle fill="#FFFFFF" cx="36.2979" cy="36.2979" r="36.2979"/>
	<path fill="#F49715" d="M30.0098,20.1064c0-3.4707,2.8164-6.2871,6.2891-6.2871c3.4707,0,6.2871,2.8164,6.2871,6.2871
		c0,3.4727-2.8164,6.2871-6.2871,6.2871C32.8262,26.3936,30.0098,23.5791,30.0098,20.1064L30.0098,20.1064z M39.3203,30.6768
		c0.0625-1.3691,0.5332-2.6348,1.291-3.6836c-0.5313-0.1113-1.082-0.1689-1.6445-0.1689h-5.334
		c-0.5645,0-1.1133,0.0576-1.6426,0.1689c0.8066,1.1182,1.291,2.4854,1.2988,3.9629c0.9785-0.5391,2.1055-0.8447,3.2988-0.8447
		C37.5586,30.1113,38.4824,30.3135,39.3203,30.6768L39.3203,30.6768z M40.3828,31.2402c1.8281,1.1455,3.1074,3.083,3.3418,5.334
		c0.7422,0.3467,1.5703,0.5479,2.4473,0.5479c3.1992,0,5.793-2.5938,5.793-5.793s-2.5938-5.793-5.793-5.793
		C43.002,25.5361,40.4316,28.085,40.3828,31.2402L40.3828,31.2402z M36.5879,43.1035c3.2012,0,5.793-2.5947,5.793-5.793
		c0-3.1992-2.5918-5.7939-5.793-5.7939c-3.1992,0-5.793,2.5947-5.793,5.7939C30.7949,40.5088,33.3887,43.1035,36.5879,43.1035
		L36.5879,43.1035z M39.0449,43.4961h-4.9141c-4.0898,0-7.418,3.3291-7.418,7.418v6.0127l0.0156,0.0938l0.4141,0.1289
		c3.9023,1.2188,7.293,1.625,10.0859,1.625c5.4512,0,8.6094-1.5527,8.8066-1.6533l0.3848-0.1943h0.041v-6.0127
		C46.4629,46.8252,43.1348,43.4961,39.0449,43.4961L39.0449,43.4961z M48.6289,37.5176h-4.877
		c-0.0527,1.9521-0.8848,3.708-2.2031,4.9717c3.6367,1.082,6.2969,4.4531,6.2969,8.4336v1.8535
		c4.8145-0.1777,7.5898-1.543,7.7734-1.6338l0.3848-0.1953h0.043v-6.0146C56.0469,40.8438,52.7188,37.5176,48.6289,37.5176
		L48.6289,37.5176z M26.4238,37.1221c1.1328,0,2.1875-0.332,3.0801-0.8945c0.2852-1.8516,1.2793-3.4707,2.6953-4.5732
		c0.0059-0.1084,0.0176-0.2139,0.0176-0.3252c0-3.1992-2.5938-5.791-5.793-5.791s-5.793,2.5918-5.793,5.791
		S23.2246,37.1221,26.4238,37.1221L26.4238,37.1221z M31.627,42.4893c-1.3105-1.2559-2.1426-3.0059-2.2031-4.9453
		c-0.1797-0.0117-0.3594-0.0264-0.543-0.0264h-4.9141c-4.0918,0-7.418,3.3262-7.418,7.415v6.0127l0.0137,0.0938l0.4141,0.1299
		c3.1309,0.9775,5.9258,1.4277,8.3555,1.5693v-1.8154C25.332,46.9424,27.9902,43.5713,31.627,42.4893L31.627,42.4893z
		 M31.627,42.4893"/>
</g>
</svg>
