<?xml version="1.0" encoding="utf-8"?>
<!-- Generator: Adobe Illustrator 15.0.0, SVG Export Plug-In . SVG Version: 6.00 Build 0)  -->
<!DOCTYPE svg PUBLIC "-//W3C//DTD SVG 1.1//EN" "http://www.w3.org/Graphics/SVG/1.1/DTD/svg11.dtd">
<svg version="1.1" id="XMLID_2_" xmlns="http://www.w3.org/2000/svg" xmlns:xlink="http://www.w3.org/1999/xlink" x="0px" y="0px"
	 width="249.6836px" height="89.168px" viewBox="0 0 249.6836 89.168" enable-background="new 0 0 249.6836 89.168"
	 xml:space="preserve">
<g id="datos03">
	<g>
		<circle fill="#3F494A" cx="59.6494" cy="16.1089" r="6.6704"/>
		<path fill="#3F494A" d="M66.6948,30.0439c0-2.7031-2.2114-4.9141-4.9141-4.9141h-4.2622c-2.7026,0-4.9141,2.2109-4.9141,4.9141
			v6.8906c-0.0679,0.2441-0.1157,0.4961-0.1157,0.7617v34.4785c0,1.5898,1.3008,2.8906,2.8901,2.8906l0,0
			c1.5894,0,2.8901-1.3008,2.8901-2.8906V51.0225h2.7612v21.1523c0,1.5898,1.3008,2.8906,2.8901,2.8906s2.8901-1.3008,2.8901-2.8906
			V37.6963c0-0.2656-0.0479-0.5176-0.1157-0.7617V30.0439z"/>
		<path fill="#3F494A" d="M71.4976,25.6025c-1.2305,0-2.2368,1.0078-2.2368,2.2363v20.8984c0,1.2305,1.0063,2.2363,2.2368,2.2363
			c1.23,0,2.2363-1.0059,2.2363-2.2363V27.8389C73.7339,26.6104,72.7275,25.6025,71.4976,25.6025z"/>
		<path fill="#3F494A" d="M47.8022,25.6025c-1.2305,0-2.2368,1.0078-2.2368,2.2363v20.8984c0,1.2305,1.0063,2.2363,2.2368,2.2363
			c1.23,0,2.2363-1.0059,2.2363-2.2363V27.8389C50.0386,26.6104,49.0322,25.6025,47.8022,25.6025z"/>
	</g>
	<g>
		<path fill="#3F494A" d="M33.2168,58.9229L25.625,30.083l0,0c0-2.6992-2.0342-4.9082-4.52-4.9082h-3.9199
			c-2.4858,0-4.52,2.209-4.52,4.9082L5.0732,58.9229h7.4854v13.2539c0,1.5879,1.1963,2.8887,2.6582,2.8887l0,0
			c1.4619,0,2.6582-1.3008,2.6582-2.8887V58.9229h1.27h1.27v13.2539c0,1.5879,1.1963,2.8887,2.6582,2.8887
			s2.6582-1.3008,2.6582-2.8887V58.9229H33.2168z"/>
		<g>
			<path fill="#3F494A" d="M8.52,26.4385c-1.1826-0.334-2.4238,0.3613-2.7583,1.543L0.084,48.0732
				c-0.334,1.1836,0.3604,2.4238,1.543,2.7578c1.1826,0.3359,2.4238-0.3594,2.7578-1.541l5.6777-20.0938
				C10.3965,28.0146,9.7026,26.7744,8.52,26.4385z"/>
			<path fill="#3F494A" d="M29.77,26.4385c1.1826-0.334,2.4238,0.3613,2.7583,1.543l5.6777,20.0918
				c0.334,1.1836-0.3604,2.4238-1.543,2.7578c-1.1826,0.3359-2.4238-0.3594-2.7578-1.541l-5.6777-20.0938
				C27.8936,28.0146,28.5874,26.7744,29.77,26.4385z"/>
		</g>
		<circle fill="#3F494A" cx="19.145" cy="16.1025" r="6.6641"/>
	</g>
	<rect x="62.0229" y="4.5049" fill="none" width="110.9946" height="79.4941"/>
	<text transform="matrix(1 0 0 1 89.0234 32.7363)"><tspan x="0" y="0" fill="#00B1BC" font-family="'Lato-Bold'" font-size="38">750</tspan><tspan x="0" y="45.6016" fill="#00B1BC" font-family="'Lato-Bold'" font-size="38">MIL</tspan></text>
	<g>
		<path fill="#B27C4F" d="M193.5879,74.2334l-9.0771-3.9004V10.4893h9.0771V74.2334z M193.5879,74.2334"/>
		<path fill="#A46F3E" d="M203.4082,54.8779v-0.1328c0-3.0859,10.3604-5.5879,23.1357-5.5879c1.3398,0,2.6426,0.0371,3.9189,0.0879
			l3.4795-13.0605V10.4893H193.626v63.7441h20.2627C207.583,70.1045,203.4082,62.9834,203.4082,54.8779L203.4082,54.8779z
			 M203.4082,54.8779"/>
		<path fill="#F9EA80" d="M210.5293,40.7061h-4.7578c-3.8359,0-6.9482-3.1113-6.9482-6.9473V29.001h4.7578
			c3.8359,0,6.9482,3.1113,6.9482,6.9473V40.7061z M210.5293,40.7061"/>
		<path fill="#F9EA80" d="M215.7314,40.7061h4.7578c3.8428,0,6.9492-3.1113,6.9492-6.9473V29.001h-4.7568
			c-3.8379,0-6.9502,3.1113-6.9502,6.9473V40.7061z M215.7314,40.7061"/>
		<path fill="#F9EA80" d="M213.1211,34.8506l3.3662-3.3613c2.7129-2.7188,2.7129-7.1133,0-9.8262l-3.3662-3.3652l-3.3672,3.3652
			c-2.7129,2.7129-2.7129,7.1074,0,9.8262L213.1211,34.8506z M213.1211,34.8506"/>
		<path fill="#EFE7D0" d="M235.5684,49.6006l4.8789-18.2949c0-0.7168-0.584-1.3027-1.2949-1.3027h-2.6045
			c-0.7168,0-1.3027,0.5859-1.3027,1.3027l-4.7822,17.9395c-1.2764-0.0508-2.5791-0.0879-3.9131-0.0879
			c-12.7813,0-23.1416,2.502-23.1416,5.5879v0.1328c0,12.7813,10.3604,23.1367,23.1416,23.1367
			c12.7734,0,23.1338-10.3555,23.1338-23.1367v-0.1328C249.6836,52.4326,243.8652,50.4502,235.5684,49.6006L235.5684,49.6006z
			 M235.5684,49.6006"/>
		<path fill="#FFF5BB" d="M235.5684,49.6006l4.8789-18.2949c0-0.7168-0.584-1.3027-1.2949-1.3027h-2.6045
			c-0.7168,0-1.3027,0.5859-1.3027,1.3027l-4.7822,17.9395c-1.2764-0.0508-2.5791-0.0879-3.9131-0.0879
			c-12.7813,0-23.1416,2.502-23.1416,5.5879c0,3.082,10.3604,5.584,23.1416,5.584c12.7734,0,23.1338-2.502,23.1338-5.584
			C249.6836,52.4326,243.8652,50.4502,235.5684,49.6006L235.5684,49.6006z M235.5684,49.6006"/>
		<path fill="#D2D5D7" d="M235.5684,49.6006l4.8789-18.2949c0-0.7168-0.584-1.3027-1.2949-1.3027h-2.6045
			c-0.7168,0-1.3027,0.5859-1.3027,1.3027l-4.7822,17.9395l-0.8525,3.252l5.0381,0.9219L235.5684,49.6006z M235.5684,49.6006"/>
		<path fill="#ED8F20" d="M220.9336,56.0225h-2.5967c0-0.7168-0.5859-1.3027-1.3027-1.3027c-0.7178,0-1.3027,0.5859-1.3027,1.3027
			h-2.5967c0-2.1543,1.7461-3.9004,3.8994-3.9004C219.1865,52.1221,220.9336,53.8682,220.9336,56.0225L220.9336,56.0225z
			 M220.9336,56.0225"/>
		<path fill="#ED8F20" d="M231.3457,57.3252h-2.6055c0-0.7168-0.583-1.3027-1.3018-1.3027c-0.7109,0-1.2949,0.5859-1.2949,1.3027
			h-2.6055c0-2.1543,1.7539-3.9063,3.9004-3.9063C229.5928,53.4189,231.3457,55.1709,231.3457,57.3252L231.3457,57.3252z
			 M231.3457,57.3252"/>
	</g>
</g>
</svg>
