<?xml version="1.0" encoding="utf-8"?>
<!-- Generator: Adobe Illustrator 15.0.0, SVG Export Plug-In . SVG Version: 6.00 Build 0)  -->
<!DOCTYPE svg PUBLIC "-//W3C//DTD SVG 1.1//EN" "http://www.w3.org/Graphics/SVG/1.1/DTD/svg11.dtd">
<svg version="1.1" id="XMLID_2_" xmlns="http://www.w3.org/2000/svg" xmlns:xlink="http://www.w3.org/1999/xlink" x="0px" y="0px"
	 width="324.1064px" height="72.9355px" viewBox="0 0 324.1064 72.9355" enable-background="new 0 0 324.1064 72.9355"
	 xml:space="preserve">
<g id="datos05">
	<rect x="67.0972" y="28.2188" fill="none" width="188.4614" height="36.082"/>
	<text transform="matrix(1 0 0 1 96.731 50.5088)" fill="#FFFFFF" font-family="'Lato-Bold'" font-size="30">81,8 años</text>
	<g>
		<path fill="#E74424" d="M32.6035,22.8379c0.1714-0.4766,0.6519-0.7715,1.1553-0.7051c0.502,0.0645,0.8921,0.4727,0.9355,0.9785
			l1.7236,20.1426l3.229-11.6367c0.1318-0.4756,0.5679-0.8027,1.064-0.791c0.4927,0.0117,0.916,0.3564,1.0269,0.8359l1.7979,7.8008
			l3.0703-12.8984c0.1196-0.5039,0.5825-0.8496,1.1001-0.8262c0.5181,0.0234,0.9453,0.4121,1.0176,0.9277l2.2905,16.332
			l1.0269-3.3203c0.1406-0.4512,0.5586-0.7578,1.0313-0.7578h24.2964v-5.5625c0-5.1338-4.1626-9.2969-9.2998-9.2969H53.3081V9.2988
			C53.3081,4.1621,49.146,0,44.0103,0h-6.2178c-5.1348,0-9.2998,4.1621-9.2998,9.2988v14.7617H13.731
			c-5.1323,0-9.2969,4.1631-9.2969,9.2969v5.6797H26.791L32.6035,22.8379z M32.6035,22.8379"/>
		<path fill="#E74424" d="M51.6475,48.25c-0.1489,0.4844-0.6147,0.7988-1.1172,0.7578c-0.5034-0.041-0.9116-0.4258-0.9819-0.9277
			L47.3809,32.627l-2.8125,11.8164c-0.1157,0.4863-0.5498,0.8281-1.0493,0.8281h-0.0039c-0.5015,0-0.9351-0.3457-1.0469-0.8359
			l-1.8779-8.1445L36.894,49.6094c-0.1304,0.4707-0.5591,0.791-1.0381,0.791c-0.0337,0-0.0674,0-0.1011-0.0039
			c-0.52-0.0479-0.9307-0.4609-0.9751-0.9824l-1.8145-21.1953l-4.3994,12.2617c-0.1533,0.4297-0.5596,0.7148-1.0156,0.7148H4.5781
			c0.7661,4.3633,4.5732,7.6777,9.1533,7.6777h14.7612v14.7617c0,5.1367,4.165,9.3008,9.2998,9.3008h6.2178
			c5.1357,0,9.2979-4.1641,9.2979-9.3008V48.873h14.7617c4.6255,0,8.4595-3.375,9.1768-7.7969H53.8682L51.6475,48.25z
			 M51.6475,48.25"/>
		<path fill="#F7F1E6" d="M81.1348,38.9199H53.0732c-0.4736,0-0.8916,0.3066-1.0308,0.7578l-1.0273,3.3203l-2.2915-16.332
			c-0.0713-0.5156-0.4995-0.9043-1.0176-0.9277c-0.5176-0.0234-0.9805,0.3223-1.1001,0.8262l-3.0693,12.8984l-1.7979-7.8008
			c-0.1118-0.4795-0.5342-0.8242-1.0278-0.8359c-0.4961-0.0117-0.9321,0.3154-1.064,0.791l-3.229,11.6367l-1.7236-20.1426
			c-0.0435-0.5059-0.4326-0.9141-0.9355-0.9785c-0.5034-0.0664-0.9839,0.2285-1.1553,0.7051L26.792,39.0371H1.0786
			C0.4829,39.0371,0,39.5215,0,40.1172s0.4829,1.0781,1.0786,1.0781h26.4717c0.4556,0,0.8618-0.2852,1.0156-0.7148l4.3994-12.2617
			l1.8145,21.1953c0.0444,0.5215,0.4551,0.9346,0.9751,0.9824c0.0337,0.0039,0.0674,0.0039,0.1001,0.0039
			c0.48,0,0.9087-0.3203,1.0391-0.791l3.6953-13.3203l1.8779,8.1465c0.1128,0.4902,0.5464,0.8359,1.0474,0.8359h0.0044
			c0.499,0,0.9336-0.3418,1.0493-0.8281l2.8125-11.8164l2.1675,15.4531c0.0703,0.502,0.4785,0.8867,0.9819,0.9277
			c0.5024,0.041,0.9673-0.2734,1.1172-0.7578l2.2207-7.1738h27.2666c0.5957,0,1.0791-0.4824,1.0791-1.0781
			C82.2139,39.4004,81.7305,38.9199,81.1348,38.9199L81.1348,38.9199z M81.1348,38.9199"/>
	</g>
	<g>
		<path fill="#3F494A" d="M305.7607,24.0215c2.8613,0,5.1787-2.3164,5.1787-5.1777s-2.3174-5.1797-5.1787-5.1797
			c-2.8604,0-5.1777,2.3184-5.1777,5.1797S302.9004,24.0215,305.7607,24.0215L305.7607,24.0215z M305.7607,24.0215"/>
		<g>
			<path fill="#3F494A" d="M282.0391,24.0215c2.8613,0,5.1787-2.3164,5.1787-5.1777s-2.3174-5.1797-5.1787-5.1797
				c-2.8604,0-5.1777,2.3184-5.1777,5.1797S279.1787,24.0215,282.0391,24.0215L282.0391,24.0215z M282.0391,24.0215"/>
			<path fill="#3F494A" d="M321.8018,40.7236c0.1641-0.7217-0.0801-1.5049-0.6963-1.9971l-4.6885-3.748l-4.3389-10.5469
				c-0.2646-0.6445-0.8301-1.0742-1.4658-1.1953c-1.1992,1.3223-2.9297,2.1553-4.8516,2.1553c-1.9209,0-3.6514-0.833-4.8506-2.1553
				c-0.6367,0.1211-1.2021,0.5508-1.4668,1.1953l-5.5439,13.4746l-5.543-13.4746c-0.2646-0.6445-0.8291-1.0742-1.4658-1.1953
				c-1.1992,1.3223-2.9297,2.1553-4.8516,2.1553c-1.9209,0-3.6523-0.833-4.8516-2.1553c-0.6367,0.1211-1.2012,0.5508-1.4668,1.1953
				l-7.3838,17.9492c-0.4189,1.0176,0.0664,2.1816,1.084,2.5996c0.2471,0.1016,0.5039,0.1504,0.7568,0.1504
				c0.7822,0,1.5254-0.4648,1.8418-1.2344l3.7412-9.0957v2.5195l-3.7139,11.6055c-0.625,1.9512,0.8311,3.9453,2.8799,3.9453h0.834
				v9.209c0,1.4775,1.2256,2.6699,2.7168,2.6172c1.4189-0.0508,2.5244-1.2598,2.5244-2.6807v-9.1455h2.0742v9.209
				c0,1.4775,1.2246,2.6699,2.7158,2.6172c1.4199-0.0508,2.5244-1.2598,2.5244-2.6807v-9.1455h0.834
				c2.0498,0,3.5059-1.9941,2.8809-3.9453l-3.7148-11.6055v-2.5195l2.9941,7.2793c0.4326,1.0488,1.4551,1.7344,2.5908,1.7344
				c1.1348,0,2.1582-0.6855,2.5889-1.7344l2.9922-7.2793v27.2793c0,1.4775,1.2256,2.6699,2.7168,2.6172
				c1.4189-0.0508,2.5234-1.2598,2.5234-2.6807V47.877c0-0.5527,0.417-1.0352,0.9688-1.0703
				c0.6045-0.0391,1.1064,0.4375,1.1064,1.0332v14.2402c0,1.4785,1.2256,2.6719,2.7158,2.6172
				c1.4199-0.0508,2.5244-1.2598,2.5244-2.6797V34.8008l0.8916,2.168c0.1289,0.3125,0.334,0.5879,0.5986,0.7979l4.7363,3.7861
				c-0.6104,0.6172-0.9873,1.4648-0.9873,2.3984V63.666c0,0.5059,0.3906,0.9473,0.8975,0.9629
				c0.5244,0.0156,0.9531-0.4043,0.9531-0.9238V43.998c0-0.8145,0.6035-1.5273,1.4131-1.6035
				c0.9297-0.0869,1.7139,0.6445,1.7139,1.5566v2.3262c0,0.5078,0.3906,0.9492,0.8975,0.9648
				c0.5234,0.0156,0.9541-0.4043,0.9541-0.9258v-2.3652C324.1064,42.457,323.1416,41.1836,321.8018,40.7236L321.8018,40.7236z
				 M321.8018,40.7236"/>
		</g>
	</g>
</g>
</svg>
