<?xml version="1.0" encoding="utf-8"?>
<!-- Generator: Adobe Illustrator 15.0.0, SVG Export Plug-In . SVG Version: 6.00 Build 0)  -->
<!DOCTYPE svg PUBLIC "-//W3C//DTD SVG 1.1//EN" "http://www.w3.org/Graphics/SVG/1.1/DTD/svg11.dtd">
<svg version="1.1" id="XMLID_1_" xmlns="http://www.w3.org/2000/svg" xmlns:xlink="http://www.w3.org/1999/xlink" x="0px" y="0px"
	 width="30.7578px" height="30.7578px" viewBox="0 0 30.7578 30.7578" enable-background="new 0 0 30.7578 30.7578"
	 xml:space="preserve">
<path id="mido_x5F_red06" fill="#FFFFFF" d="M0,0v30.7578h30.7578V0H0z M9.0977,7.1074c0.332-0.333,0.875-0.333,1.21,0
	l3.3047,3.3066c0.335,0.3359,0.335,0.875,0,1.2109l-1.1289,1.1309L7.9688,8.2383L9.0977,7.1074z M11.998,18.7783
	c-4.0078-4.0098-6.1006-8.416-4.6738-9.8447l14.5146,14.5195C20.4092,24.877,16.0059,22.7861,11.998,18.7783z M23.6328,21.6592
	l-1.1299,1.1299l-4.5146-4.5156l1.1279-1.1318c0.1602-0.1602,0.377-0.248,0.6064-0.248c0.2236,0,0.4414,0.0879,0.6025,0.248
	l3.3076,3.3076C23.9648,20.7842,23.9648,21.3232,23.6328,21.6592z"/>
</svg>
