<?xml version="1.0" encoding="utf-8"?>
<!-- Generator: Adobe Illustrator 15.0.0, SVG Export Plug-In . SVG Version: 6.00 Build 0)  -->
<!DOCTYPE svg PUBLIC "-//W3C//DTD SVG 1.1//EN" "http://www.w3.org/Graphics/SVG/1.1/DTD/svg11.dtd">
<svg version="1.1" id="XMLID_2_" xmlns="http://www.w3.org/2000/svg" xmlns:xlink="http://www.w3.org/1999/xlink" x="0px" y="0px"
	 width="143.856px" height="209.7627px" viewBox="0 0 143.856 209.7627" enable-background="new 0 0 143.856 209.7627"
	 xml:space="preserve">
<g id="pib">
	<g>
		<path fill="#D8D8D8" d="M123.6519,10.3604c2.6724,0.6221,5.3433-1.04,5.9653-3.7119c0.6221-2.6738-1.0396-5.3447-3.7119-5.9658
			c-2.6724-0.623-5.3433,1.0391-5.9668,3.7109C119.3164,7.0664,120.9795,9.7373,123.6519,10.3604"/>
	</g>
	<g>
		<path fill="#D8D8D8" d="M133.6694,26.9492c0.0532,0.3682,0.1035,0.751,0.1528,1.1436c0.3682-0.1152,0.8018-0.1992,1.2944-0.25
			C134.5669,27.6553,134.0732,27.3486,133.6694,26.9492"/>
	</g>
	<g>
		<path fill="#D8D8D8" d="M106.5425,35.4375v2.292c0.2646,0.0762,0.562,0.1455,0.8882,0.207
			c-0.1528-2.2998-0.5049-3.8906-0.8882-4.9824V35.4375z"/>
	</g>
	<g>
		<path fill="#D8D8D8" d="M104.0723,26.7334c-0.5073,0.2227-1.0654,0.3496-1.6548,0.3496c-0.5166,0-1.0117-0.1006-1.4688-0.2754
			c-0.0371,0.125-0.0737,0.2539-0.1108,0.3799h3.0913C103.9756,27.0342,104.0234,26.8828,104.0723,26.7334"/>
	</g>
	<g>
		<path fill="#D8D8D8" d="M104.3896,19.335c0.5386,0.2949,1.0015,0.71,1.3613,1.2021c0.0029,0.0049,0.0068,0.0088,0.0112,0.0137
			c0.4116-0.1396,0.772-0.4346,0.978-0.8564c0.6479-1.3164,1.4717-2.2578,2.4185-2.959c-0.6768,0.8125-1.731,2.4141-2.0913,3.1445
			c-0.229,0.4727-0.6152,0.8262-1.0791,1.0205c0.3506,0.6074,0.5542,1.3086,0.5542,2.0576c0,1.0762-0.4175,2.0537-1.0957,2.792
			c-0.0571,0.4824-0.105,0.9668-0.146,1.4453c0.0137,0,0.0273-0.001,0.041-0.001c0.0806,0,0.1597,0.0049,0.2358,0.0156
			c0.5049,0.0488,1.7803,0.541,2.8486,2.0332c1.375,1.9043,2.1855,4.8975,2.4077,8.8926c0.0244,0.4492-0.1284,0.8848-0.4297,1.2227
			c-0.3013,0.3359-0.7163,0.5352-1.168,0.5586c-0.0313,0.0039-0.061,0.0039-0.0938,0.0039c-0.6729,0-1.2563-0.3955-1.5293-0.9688
			v9.8516c0,1.0566,0.8564,1.916,1.915,1.916c1.0571,0,1.9141-0.8594,1.9141-1.916V38.2979c0.5718,0.0117,1.1514,0.0117,1.7231,0
			v10.5059c0,1.0566,0.8564,1.916,1.915,1.916c1.0571,0,1.9141-0.8594,1.9141-1.916v-10.834c0.54-0.0947,1.0107-0.208,1.3872-0.3408
			c0.1582-0.0537,0.3003-0.1133,0.4229-0.1758c0.3413-0.1748,0.5347-0.376,0.5347-0.6035c0,0,0.6152-7.2764-0.5347-13.4932
			c-0.1196-0.6523-0.2603-1.29-0.4229-1.9102c-0.2139-0.8174-0.4678-1.5967-0.7651-2.3184c0.2007,0.127,0.4053,0.2656,0.6152,0.4131
			c0.0503,0.0342,0.0996,0.0674,0.1499,0.1025c0.0068,0.0059,0.0151,0.0107,0.022,0.0156c-0.0068-0.0195-0.0151-0.0391-0.022-0.0586
			c-0.0054-0.0156-0.0107-0.0264-0.0151-0.041c0.0044,0.0029,0.0098,0.0068,0.0151,0.0098v-3.5
			c-1.0068-0.5537-2.0601-0.9629-3.2124-1.2119c0.2524-0.0107,0.5034-0.0186,0.7476-0.0186c0.9316,0,1.7817,0.0762,2.4648,0.166
			c0.1489,0.0195,0.2905,0.041,0.4229,0.0615v1.2471v3.5605v1.501c1.6685,6.3623,1.0181,14.7832,0.959,15.4912
			c-0.0078,0.4297-0.3203,0.7773-0.959,1.0527v10.0684c0,1.5088,1.2222,2.7324,2.731,2.7324c1.5078,0,2.73-1.2236,2.73-2.7324v-17.5
			h1.0244v17.5c0,1.5088,1.2222,2.7324,2.731,2.7324c1.5078,0,2.73-1.2236,2.73-2.7324v-8.6387
			c-0.2427,0.1758-0.5415,0.2803-0.8623,0.2803c-0.0547,0-0.1118-0.0039-0.1665-0.0107c-0.813-0.0928-1.3979-0.8271-1.3052-1.6387
			c0.3584-3.1455,1.1431-5.623,2.334-7.3848v-1.8125v-4.1826V17.458c0.1201,0.1914,0.2412,0.3916,0.3657,0.6201
			c0.585,1.0723,1.1987,2.5801,1.731,4.6592c0.5073-1.1719,1.5864-2.0371,2.8838-2.249c-0.6382-2.0889-1.3765-3.6602-2.1265-4.8564
			c-1.3877-2.2324-2.8774-3.0957-3.644-3.3936c-0.2646-0.1689-0.5781-0.2686-0.915-0.2686h-8.4131
			c-0.2197-0.0498-0.5811-0.1279-1.0503-0.207c-0.7612-0.127-1.8091-0.2588-3.0298-0.2959
			c-0.7764,1.6025-2.3984,2.6553-4.2456,2.6553c-0.3599,0-0.7217-0.043-1.0762-0.125c-0.832-0.1934-1.5605-0.5977-2.146-1.1436
			c-2.1104,0.999-4.1113,2.7207-5.3882,5.3584c-0.1216,0.25-0.1748,0.5166-0.1694,0.7773c0.1626,0.0449,0.3218,0.0977,0.4761,0.1611
			C104.1357,19.2061,104.2642,19.2686,104.3896,19.335"/>
	</g>
	<g>
		<path fill="#D8D8D8" d="M116.0791,11.458c0.1841-0.3369,0.3286-0.6992,0.4199-1.0908c0.5391-2.3164-0.9019-4.6318-3.2183-5.1709
			s-4.6323,0.9004-5.1714,3.2197c-0.3779,1.6182,0.2158,3.2373,1.3984,4.2471c0.5073,0.4355,1.1226,0.7617,1.8198,0.9219
			C113.2539,14.0342,115.1743,13.1123,116.0791,11.458"/>
	</g>
	<g>
		<path fill="#D8D8D8" d="M102.4185,26.6582c0.6738,0,1.3037-0.1826,1.8481-0.4971c0.2212-0.127,0.4272-0.2783,0.6167-0.4482
			c0.0532-0.0479,0.1089-0.0947,0.1597-0.1465c0.1938-0.1953,0.3628-0.4121,0.5088-0.6436
			c0.3574-0.5703,0.5674-1.2441,0.5674-1.9648c0-0.709-0.2031-1.3701-0.5483-1.9336c-0.082-0.1328-0.1704-0.2627-0.2686-0.3848
			c-0.0015,0-0.0029-0.0029-0.0029-0.0029c-0.3149-0.3916-0.7065-0.7158-1.1528-0.9521c-0.1255-0.0664-0.2563-0.123-0.3901-0.1758
			c-0.0503-0.0176-0.1006-0.0381-0.1528-0.0547c-0.3721-0.126-0.7705-0.1992-1.1851-0.1992c-2.0449,0-3.7012,1.6582-3.7012,3.7031
			c0,1.417,0.7954,2.6455,1.9644,3.2666c0.1255,0.0674,0.2563,0.126,0.3887,0.1787
			C101.4893,26.5664,101.9419,26.6582,102.4185,26.6582"/>
	</g>
	<g>
		<path fill="#D8D8D8" d="M95.6226,39.4951c0.0229,0.002,0.0474,0.002,0.0708,0.002c0.6685,0,1.229-0.5225,1.2656-1.1992
			c0.2241-4.0938,1.0767-6.1836,1.7573-7.1875v4.3271v3.8057v9.7314c0,0.9336,0.7583,1.6914,1.6929,1.6914
			s1.6914-0.7578,1.6914-1.6914v-8.6729h0.6343v8.6729c0,0.9336,0.7588,1.6914,1.6934,1.6914c0.9341,0,1.6914-0.7578,1.6914-1.6914
			v-9.7314V38.041v-0.4492v-2.1543v-4.3213c0.0562,0.082,0.1118,0.167,0.1689,0.2627c0.647,1.0869,1.3838,3.1621,1.5879,6.9189
			c0.0371,0.6768,0.5977,1.1992,1.2661,1.1992c0.0229,0,0.0479,0,0.0708-0.002c0.7002-0.0371,1.2363-0.6367,1.1978-1.3369
			c-0.2534-4.5791-1.2383-7.1592-2.3286-8.6689c-1.083-1.5117-2.2983-1.835-2.5659-1.8604
			c-0.0845-0.0127-0.1675-0.0127-0.2495-0.0088c-0.0234,0.002-0.0464,0.002-0.0684,0.0049
			c-0.0449-0.0068-0.0898-0.0146-0.1362-0.0146h-0.2153h-0.6045h-0.4434h-3.0776h-0.438h-0.5088
			c-0.0479,0-0.0913,0.0078-0.1377,0.0146c-0.104-0.0117-0.21-0.0117-0.3179,0.0039c-0.2676,0.0254-1.4829,0.3486-2.5659,1.8604
			c-1.0903,1.5098-2.0752,4.0898-2.3286,8.6689C94.3862,38.8584,94.9224,39.458,95.6226,39.4951"/>
	</g>
	<g>
		<path fill="#D8D8D8" d="M133.5479,26.1494c0.6099,0.8916,1.6343,1.4766,2.7954,1.4766c0.2822,0,0.5552-0.0381,0.8174-0.1025
			c0.1401-0.0352,0.2769-0.0781,0.4092-0.1279c1.2617-0.4941,2.1582-1.7168,2.1582-3.1543c0-1.8691-1.5156-3.3828-3.3848-3.3828
			c-0.0205,0-0.0396,0.0039-0.0601,0.0039c-0.146,0.002-0.2891,0.0137-0.4297,0.0352c-1.3984,0.2021-2.5181,1.2568-2.8159,2.623
			c-0.0503,0.2334-0.0791,0.4746-0.0791,0.7207C132.9585,24.9492,133.1772,25.6064,133.5479,26.1494"/>
	</g>
	<g>
		<path fill="#D8D8D8" d="M131.1743,36.666c0.3291-1.8018,0.7998-3.0752,1.2759-3.9736c-0.4805,2.7695-1.0249,6.4648-1.0249,9.002
			c0,0.4092,0.7383,0.7725,1.6919,1.041v6.6094c0,0.7588,0.6167,1.375,1.375,1.375c0.7598,0,1.375-0.6162,1.375-1.375v-6.1533
			c0.168,0.0088,0.3286,0.0146,0.4761,0.0146s0.3086-0.0059,0.4761-0.0146v6.1533c0,0.7588,0.6152,1.375,1.3755,1.375
			c0.7583,0,1.3735-0.6162,1.3735-1.375v-6.6094c0.9546-0.2686,1.6929-0.6318,1.6929-1.041c0-2.5371-0.5459-6.2354-1.0259-9.0039
			c0.6069,1.1406,1.2061,2.8984,1.5127,5.5762c0.0615,0.541,0.5186,0.9395,1.0493,0.9395c0.0396,0,0.0806-0.0029,0.1211-0.0068
			c0.5801-0.0674,0.9976-0.5908,0.9307-1.1709c-0.4653-4.082-1.5991-6.4492-2.7271-7.8184
			c-1.0122-1.2324-2.0039-1.6064-2.3257-1.6943c-0.2705-0.0908-0.6387-0.1768-1.1216-0.2354
			c-0.1338-0.0146-0.2769-0.0303-0.4297-0.042c-0.27-0.0205-0.5674-0.0322-0.9019-0.0322c-1.2046,0-1.9712,0.1484-2.4502,0.3086
			c-0.0068,0.001-0.0146,0.0039-0.02,0.0059c-0.0928,0.0254-0.2334,0.0752-0.4097,0.1543
			c-0.4648,0.2129-1.1758,0.6543-1.8999,1.5352c-0.1299,0.1582-0.2593,0.3311-0.3892,0.5156
			c-0.1431,0.2041-0.2837,0.4277-0.4229,0.668c-0.8267,1.4355-1.562,3.5439-1.915,6.6348
			c-0.0654,0.5801,0.3506,1.1035,0.9316,1.1709c0.041,0.0039,0.0806,0.0068,0.1216,0.0068c0.3516,0,0.6685-0.1777,0.8618-0.4551
			c0.0981-0.1387,0.1665-0.3018,0.187-0.4844C131.0039,37.6914,131.0845,37.1611,131.1743,36.666"/>
	</g>
	<g>
		<polygon fill="#D8D8D8" points="119.0762,180.6592 112.1787,187.5586 125.7686,187.5586 		"/>
	</g>
	<g>
		<path fill="#D8D8D8" d="M109.7051,209.6563l-2.0098,0.1064l-0.7129-13.4883l2.0098-0.1064L109.7051,209.6563z"/>
		<path fill="#D8D8D8" d="M116.4038,195.7764c0.8638-0.0449,1.6206,0.0156,2.27,0.1816c0.6494,0.167,1.1934,0.4229,1.6328,0.7656
			c0.4385,0.3457,0.7734,0.7715,1.0039,1.2803c0.2319,0.5088,0.3633,1.0801,0.3965,1.7129
			c0.0337,0.6318-0.0444,1.2188-0.2363,1.7588c-0.1914,0.541-0.4893,1.0137-0.895,1.418c-0.4063,0.4063-0.9209,0.7285-1.5449,0.9727
			c-0.625,0.2432-1.3506,0.3877-2.1768,0.4307l-2.0854,0.1104l0.2627,4.9678l-2.001,0.1055l-0.7129-13.4883L116.4038,195.7764z
			 M116.7705,202.7178c0.5068-0.0264,0.9497-0.1152,1.3281-0.2676s0.6904-0.3545,0.9375-0.6094
			c0.2471-0.2559,0.4277-0.5527,0.542-0.8955c0.1138-0.3408,0.1592-0.7168,0.1377-1.123c-0.043-0.8213-0.332-1.4521-0.8677-1.8955
			c-0.5347-0.4424-1.3223-0.6367-2.3613-0.582l-2.0854,0.1104l0.2837,5.373L116.7705,202.7178z"/>
		<path fill="#D8D8D8" d="M130.7783,197.2217c-0.0576,0.1094-0.1187,0.1914-0.1851,0.2441
			c-0.0659,0.0547-0.1528,0.084-0.2593,0.0898c-0.1123,0.0059-0.2437-0.0391-0.3926-0.1348
			c-0.1494-0.0967-0.3359-0.2012-0.5591-0.3184c-0.2227-0.1182-0.4868-0.2207-0.7935-0.3076
			c-0.3057-0.0869-0.6685-0.1191-1.0879-0.0967c-0.3945,0.0205-0.7383,0.0898-1.0303,0.208
			c-0.2915,0.1191-0.5327,0.2744-0.7241,0.4639c-0.1909,0.1885-0.332,0.4063-0.4224,0.6523
			c-0.0908,0.2471-0.1284,0.5117-0.1138,0.7939c0.019,0.3623,0.1279,0.6582,0.3252,0.8857
			c0.1968,0.2285,0.4507,0.4199,0.7603,0.5723c0.3091,0.1533,0.6582,0.2832,1.0474,0.3877
			c0.3882,0.1055,0.7861,0.2148,1.1948,0.3271c0.4072,0.1143,0.8071,0.249,1.1987,0.4043c0.3911,0.1533,0.7441,0.3574,1.0586,0.6074
			c0.3149,0.25,0.5742,0.5625,0.7798,0.9375c0.2046,0.376,0.3223,0.8418,0.3521,1.3994c0.0313,0.5957-0.0415,1.1582-0.2173,1.6885
			c-0.1763,0.5303-0.4482,1.001-0.8159,1.4092s-0.8291,0.7393-1.3843,0.9912c-0.5547,0.252-1.1924,0.3975-1.9121,0.4355
			c-0.4326,0.0225-0.8545,0.0029-1.2661-0.0605c-0.4111-0.0625-0.8027-0.1611-1.1733-0.2959
			c-0.3716-0.1338-0.7212-0.3018-1.0483-0.5c-0.3281-0.2002-0.6245-0.4277-0.8892-0.6836l0.522-0.9883
			c0.0527-0.0781,0.1167-0.1436,0.1924-0.1992c0.0762-0.0537,0.1636-0.083,0.2637-0.0879c0.1318-0.0068,0.2866,0.0537,0.4668,0.1816
			c0.1792,0.1289,0.4009,0.2695,0.6626,0.4229c0.2622,0.1514,0.5742,0.2881,0.9351,0.4063c0.3613,0.1201,0.7954,0.166,1.3027,0.1396
			c0.4136-0.0225,0.7798-0.0967,1.0996-0.2227c0.3198-0.1279,0.5859-0.2988,0.7974-0.5137
			c0.2119-0.2158,0.3691-0.4707,0.4731-0.7646c0.1035-0.2939,0.146-0.6172,0.1274-0.9668c-0.021-0.3945-0.1289-0.7129-0.3237-0.9551
			c-0.1948-0.2393-0.4468-0.4375-0.7563-0.5898c-0.3096-0.1533-0.6587-0.2793-1.0469-0.3779s-0.7861-0.2021-1.1938-0.3086
			c-0.4067-0.1074-0.8066-0.2363-1.1973-0.3848c-0.3911-0.1484-0.7437-0.3516-1.0591-0.6084
			c-0.3145-0.2559-0.5742-0.584-0.7769-0.9854c-0.2041-0.4004-0.3218-0.9014-0.3535-1.5029
			c-0.0254-0.4824,0.0444-0.9531,0.2085-1.4141c0.1636-0.4609,0.4165-0.874,0.7583-1.2412c0.3418-0.3662,0.77-0.6689,1.2856-0.9063
			c0.5142-0.2373,1.1099-0.374,1.7861-0.4102c0.7578-0.04,1.4609,0.0439,2.1094,0.251c0.6484,0.208,1.2188,0.5254,1.7129,0.9502
			L130.7783,197.2217z"/>
	</g>
	<g>
		<rect x="115.9414" y="56.917" fill="#D8D8D8" width="5.8086" height="118.1006"/>
	</g>
	<g>
		<path fill="#D8D8D8" d="M141.2202,98.4131c0,12.3154-9.9829,22.2988-22.2988,22.2988c-12.3154,0-22.3003-9.9834-22.3003-22.2988
			c0-12.3145,9.9849-22.2988,22.3003-22.2988C131.2373,76.1143,141.2202,86.0986,141.2202,98.4131"/>
	</g>
	<g>
		<path fill="#47443B" d="M111.7681,96.0117c-0.104,0.1348-0.2065,0.2646-0.3076,0.3896c-0.1006,0.125-0.1968,0.249-0.2886,0.3711
			c0.2935-0.1895,0.6191-0.3359,0.9766-0.4404c0.3579-0.1035,0.7446-0.1553,1.1602-0.1553c0.5195,0,1.0151,0.0859,1.4858,0.2568
			s0.8853,0.4219,1.2427,0.752c0.3579,0.3301,0.6406,0.7402,0.8486,1.2285c0.2075,0.4893,0.3115,1.0518,0.3115,1.6875
			c0,0.6055-0.1099,1.1729-0.3301,1.7021c-0.2202,0.5283-0.5303,0.9873-0.9307,1.375c-0.4009,0.3887-0.8794,0.6943-1.4355,0.917
			c-0.5566,0.2236-1.1738,0.335-1.8525,0.335c-0.6729,0-1.2793-0.1064-1.8208-0.3203c-0.541-0.2148-1.0024-0.5186-1.3848-0.9131
			s-0.6772-0.8711-0.8848-1.4307c-0.208-0.5596-0.312-1.1816-0.312-1.8662c0-0.5869,0.127-1.2061,0.3804-1.8574
			c0.2539-0.6514,0.6558-1.3467,1.2061-2.0869l3.293-4.4111c0.0913-0.1221,0.2197-0.2246,0.3848-0.3076
			c0.1655-0.082,0.355-0.123,0.5688-0.123h1.5957L111.7681,96.0117z M112.6118,102.9355c0.4219,0,0.8037-0.0684,1.1465-0.2061
			c0.3423-0.1377,0.6357-0.3252,0.8804-0.5635c0.2441-0.2393,0.4341-0.5234,0.5684-0.8535
			c0.1348-0.3301,0.2021-0.6875,0.2021-1.0732c0-0.4219-0.0659-0.7988-0.1973-1.1328c-0.1318-0.333-0.3149-0.6152-0.5503-0.8477
			s-0.5186-0.4102-0.8486-0.5322s-0.6968-0.1836-1.1006-0.1836c-0.4219,0-0.8008,0.0723-1.1372,0.2158s-0.6235,0.3359-0.8618,0.5781
			c-0.2388,0.2412-0.4219,0.5234-0.5503,0.8477s-0.1929,0.6641-0.1929,1.0186c0,0.4033,0.0581,0.7734,0.1743,1.1094
			c0.1162,0.3369,0.2871,0.624,0.5137,0.8623c0.2261,0.2383,0.5029,0.4248,0.8301,0.5596
			C111.8149,102.8691,112.1899,102.9355,112.6118,102.9355z"/>
		<path fill="#47443B" d="M128.0835,99.4785v1.0361c0,0.1045-0.0337,0.1924-0.1006,0.2656
			c-0.0674,0.0742-0.1621,0.1104-0.2842,0.1104h-1.5225v3.3936h-1.5684v-3.3936h-5.7783c-0.1343,0-0.2476-0.0381-0.3394-0.1143
			c-0.0918-0.0771-0.1528-0.1729-0.1831-0.2891l-0.1836-0.917l6.3647-8.4658h1.688v8.374H128.0835z M124.6079,99.4785v-5.1357
			c0-0.1777,0.0044-0.3662,0.0137-0.5645s0.0288-0.4053,0.0596-0.6191l-4.6133,6.3193H124.6079z"/>
	</g>
	<g>
		<path fill="#47443B" d="M27.7476,51.4678"/>
	</g>
	<g>
		<path fill="#47443B" d="M52.5659,33.915c-1.1582-2.7236-3.6152-2.7422-3.6152-2.7422c-0.2715,0-10.8057-3.2695-10.8057-3.2695
			c-0.499-0.1816-2.5425-1.6787-2.5425-1.6787c0.499,2.8135,0,8.5791,0,8.5791c-0.4097,2.8623-4.4038,11.2627-4.4038,11.2627
			l-0.6138-6.835c-0.3628-1.043-1.4746-2.9736-1.4746-2.9736c0.6123-0.4541,1.6558-1.6123,1.6558-1.6123
			c0.1597-0.1582,0.0234-0.293,0.0234-0.293l-2.27-2.499h-1.5444l-2.27,2.499c0,0-0.1362,0.1348,0.0234,0.293
			c0,0,1.0435,1.1582,1.6572,1.6123c0,0-1.1128,1.9307-1.4761,2.9736l-0.6123,6.835c0,0-3.9956-8.4004-4.4048-11.2627
			c0,0-0.4995-5.7656,0-8.5791c0,0-2.0435,1.4971-2.543,1.6787c0,0-10.5327,3.2695-10.8057,3.2695c0,0-2.457,0.0186-3.6152,2.7422
			c0,0-2.1113,5.9941-2.9287,11.9199c0,0,11.9478,5.4521,27.7476,5.6328c15.8008-0.1807,27.7471-5.6328,27.7471-5.6328
			C54.6772,39.9092,52.5659,33.915,52.5659,33.915"/>
	</g>
	<g>
		<line fill="#47443B" x1="49.8291" y1="31.3584" x2="49.8291" y2="31.3584"/>
	</g>
	<g>
		<line fill="#47443B" x1="49.8291" y1="31.3584" x2="49.8291" y2="31.3584"/>
	</g>
	<g>
		<path fill="#47443B" d="M24.4492,26.3096c0.5386,0.1758,1.127,0.3232,1.7734,0.4287v3.1709h2.9341v-3.2178
			c0,0,7.8564,0,8.1401-6.8164c0,0,0.3779-2.5547-1.3257-4.3047l-9.8428-5.9639c0,0-2.1362-1.7227-0.0479-3.3125
			c0,0,0.0122-0.002,0.0303-0.0137c0.3477-0.2246,3.271-1.2695,3.188,2.2852l-0.0942,0.9463h7.2876c0,0-0.1226-6.4834-7.2412-6.4365
			V0h-3.1226v3.0283c0,0-5.6792-0.3789-7.3828,4.7793c0,0-0.521,2.1777,1.041,3.7402l9.7959,7.3818c0,0,2.083,1.9873-0.3779,4.1631
			c0,0-4.3311,1.7246-3.645-4.4453h-6.6953h-0.0244C18.8398,18.6475,18.5229,24.3721,24.4492,26.3096"/>
	</g>
	<g>
		<polygon fill="#47443B" points="28.2324,181.2041 21.334,188.1035 34.9238,188.1035 		"/>
	</g>
	<g>
		<path fill="#47443B" d="M20.5488,196.1777c0.8652,0,1.6177,0.1006,2.2573,0.3018c0.6396,0.2002,1.1694,0.4844,1.5898,0.8506
			c0.4199,0.3672,0.7319,0.8105,0.9355,1.3311c0.2041,0.5205,0.3057,1.0977,0.3057,1.7314c0,0.6328-0.1094,1.2148-0.3291,1.7441
			c-0.2197,0.5303-0.5425,0.9863-0.9688,1.3691c-0.4268,0.3828-0.958,0.6787-1.5942,0.8887
			c-0.6367,0.21-1.3687,0.3154-2.1963,0.3154h-2.0884v4.9756H16.457v-13.5078H20.5488z M20.5488,203.1289
			c0.5078,0,0.9546-0.0654,1.3403-0.1973s0.7085-0.3184,0.9688-0.5596s0.4561-0.5293,0.5879-0.8652
			c0.1318-0.335,0.1973-0.707,0.1973-1.1143c0-0.8223-0.2554-1.4678-0.7666-1.9385c-0.5107-0.4697-1.2871-0.7051-2.3276-0.7051
			h-2.0884v5.3799H20.5488z"/>
		<path fill="#47443B" d="M29.8511,209.6855h-2.0127v-13.5078h2.0127V209.6855z"/>
		<path fill="#47443B" d="M37.583,196.1777c0.8467,0,1.5723,0.082,2.1777,0.2451c0.605,0.1631,1.1021,0.3984,1.4907,0.7051
			c0.3887,0.3076,0.6758,0.6787,0.8608,1.1152c0.1851,0.4355,0.2773,0.9297,0.2773,1.4814c0,0.3262-0.0503,0.6396-0.1504,0.9404
			c-0.1006,0.3008-0.2539,0.582-0.4609,0.8418s-0.4673,0.4941-0.7808,0.7012c-0.3135,0.2061-0.6836,0.3789-1.1099,0.5166
			c1.9629,0.3896,2.9443,1.4141,2.9443,3.0762c0,0.5771-0.1069,1.1025-0.3198,1.5752c-0.2134,0.4736-0.5239,0.8828-0.9312,1.2275
			c-0.4077,0.3457-0.9097,0.6113-1.5054,0.7998s-1.2729,0.2822-2.0317,0.2822h-4.8628v-13.5078H37.583z M35.1846,197.749v4.4209
			h2.3047c0.9844,0,1.7163-0.1992,2.1963-0.5977c0.4795-0.3975,0.7197-0.9355,0.7197-1.6133c0-0.7705-0.229-1.332-0.687-1.6836
			c-0.4575-0.3506-1.1694-0.5264-2.1353-0.5264H35.1846z M38.0063,208.0957c0.5078,0,0.9424-0.0596,1.3027-0.1787
			c0.3608-0.1191,0.6553-0.2822,0.8843-0.4893s0.3965-0.4531,0.5034-0.7383c0.1064-0.2852,0.1597-0.5967,0.1597-0.9355
			c0-0.6709-0.2319-1.1992-0.6958-1.585c-0.4644-0.3857-1.1821-0.5791-2.1543-0.5791h-2.8218v4.5059H38.0063z"/>
	</g>
	<g>
		<rect x="25.7534" y="57.4619" fill="#47443B" width="5.8086" height="118.1006"/>
	</g>
	<g>
		<path fill="#47443B" d="M50.6338,95.4893c0,12.0703-9.7852,21.8564-21.8555,21.8564c-12.0718,0-21.8569-9.7861-21.8569-21.8564
			c0-12.0693,9.7852-21.8555,21.8569-21.8555C40.8486,73.6338,50.6338,83.4199,50.6338,95.4893"/>
	</g>
	<g>
		<path fill="#D8D8D8" d="M29.0864,88.0762v0.7979c0,0.2324-0.0259,0.4199-0.0781,0.5635
			c-0.0518,0.1436-0.1021,0.2676-0.1514,0.3721l-5.3374,10.8037c-0.0859,0.1777-0.2051,0.3271-0.3579,0.4492
			s-0.3574,0.1836-0.6143,0.1836h-1.2842l5.4204-10.6484c0.0918-0.1709,0.1831-0.3281,0.2749-0.4717s0.1929-0.2773,0.3027-0.3994
			h-6.7319c-0.1162,0-0.2168-0.043-0.3027-0.1279c-0.0854-0.0859-0.1284-0.1865-0.1284-0.3027v-1.2197H29.0864z"/>
		<path fill="#D8D8D8" d="M36.1025,96.0371c0.2383-0.3125,0.4614-0.6182,0.6694-0.918c-0.3301,0.251-0.6987,0.4404-1.1055,0.5693
			c-0.4063,0.1279-0.8389,0.1924-1.2974,0.1924c-0.4834,0-0.9463-0.083-1.3896-0.248s-0.8345-0.4082-1.1738-0.7285
			c-0.3394-0.3213-0.6099-0.7168-0.812-1.1885c-0.2017-0.4707-0.3022-1.0117-0.3022-1.623c0-0.5742,0.1064-1.1152,0.3208-1.623
			c0.2139-0.5078,0.5151-0.9492,0.9033-1.3252s0.853-0.6729,1.394-0.8896s1.1357-0.3262,1.7837-0.3262
			c0.6421,0,1.2246,0.1045,1.7476,0.3125c0.5225,0.208,0.9673,0.5,1.3345,0.876c0.3667,0.376,0.6509,0.8262,0.8525,1.3525
			c0.2021,0.5254,0.3027,1.1035,0.3027,1.7334c0,0.3848-0.0352,0.752-0.1055,1.1006s-0.1709,0.6875-0.3027,1.0176
			c-0.1313,0.3301-0.29,0.6563-0.4766,0.9775c-0.1865,0.3203-0.3989,0.6494-0.6377,0.9854l-3.1641,4.54
			c-0.0854,0.1221-0.2095,0.2236-0.3716,0.3027s-0.3467,0.1191-0.5547,0.1191h-1.6416L36.1025,96.0371z M32.4888,91.9648
			c0,0.8125,0.2202,1.4395,0.6602,1.8799c0.4404,0.4404,1.0518,0.6602,1.8345,0.6602c0.4219,0,0.7949-0.0684,1.1191-0.2061
			c0.3237-0.1377,0.5972-0.3213,0.8208-0.5508c0.2231-0.2285,0.3926-0.4951,0.5088-0.7979s0.1743-0.6191,0.1743-0.9492
			c0-0.3975-0.0625-0.7568-0.188-1.0771c-0.1255-0.3213-0.3013-0.5928-0.5273-0.8164s-0.4937-0.3945-0.8027-0.5137
			c-0.3086-0.1191-0.6494-0.1787-1.0225-0.1787c-0.3853,0-0.7368,0.0625-1.0547,0.1875c-0.3179,0.126-0.5903,0.3018-0.8164,0.5273
			c-0.2261,0.2266-0.4004,0.4961-0.5225,0.8076C32.5498,91.249,32.4888,91.5918,32.4888,91.9648z"/>
	</g>
</g>
</svg>
